<?xml version="1.0" standalone="no"?>
<!DOCTYPE svg PUBLIC "-//W3C//DTD SVG 1.1//EN" "http://www.w3.org/Graphics/SVG/1.1/DTD/svg11.dtd" >
<svg xmlns="http://www.w3.org/2000/svg" xmlns:xlink="http://www.w3.org/1999/xlink" version="1.1">
<metadata>
Created by FontForge 20200427 at Thu Dec  4 21:45:45 2014
 By www
Copyright (c) 2009 by Nate Piekos. Blambot.com. All rights reserved.
</metadata>
<defs>
<font id="DwarvenAxeBBW00-Regular" horiz-adv-x="402" >
  <font-face 
    font-family="DwarvenAxeBBW00-Regular"
    font-weight="400"
    font-stretch="normal"
    units-per-em="1000"
    panose-1="2 0 5 6 0 0 0 2 0 4"
    ascent="800"
    descent="-200"
    x-height="424"
    cap-height="575.5"
    bbox="-64.8 -259.286 739.125 830.5"
    underline-thickness="50"
    underline-position="-175"
    unicode-range="U+0020-2122"
  />
<missing-glyph horiz-adv-x="254" 
 />
    <glyph glyph-name="copyright" unicode="&#x28;c&#x29;" horiz-adv-x="776" 
d="M477 480q8 -1 11 -3.5t3.5 -7t0.5 -10t1 -11.5q4 -22 5.5 -44t1.5 -44q0 -13 -4.5 -20t-11 -12.5t-14.5 -10.5t-15 -13q-5 -6 -8.5 -17t-8.5 -20t-12 -13t-17 5q-1 17 -1.5 35.5t0.5 37.5q0 8 0.5 17t0.5 18q0 12 -2 22.5t-7 18.5q-5 2 -8 0q-7 -6 -12 -13.5t-8 -12.5
q-9 -17 -11.5 -36.5t-1.5 -36.5q0 -11 -0.5 -21t-0.5 -21q0 -18 3 -36q2 -10 4 -16t10 -14q5 -5 11.5 -10t8.5 -13q9 -5 15.5 -9.5t17.5 -7.5q9 -2 17.5 -1.5t18.5 -0.5q23 -1 22.5 -16.5t-20.5 -22.5q-7 -3 -18.5 -2.5t-18.5 2.5q-12 2 -22.5 1.5t-22.5 -0.5h-23
q-5 0 -8.5 -1t-9.5 2q-8 2 -15.5 8.5t-13.5 11.5q-69 64 -67 156q1 19 7 40t13 41q3 9 8.5 18t9.5 17q5 8 11.5 18t14.5 16q9 7 19.5 6.5t20.5 -0.5q10 -1 19 1t20 3q10 0 19 -1t19 1q5 1 13 5q10 5 17.5 12t18.5 5zM737 265q-2 -14 1 -32t-2 -33q-5 -17 -13.5 -30
t-16.5 -29q-8 -14 -12.5 -24t-16.5 -23q-11 -13 -21 -24.5t-20 -24.5q-11 -15 -17.5 -22t-27.5 -11q-14 -2 -32.5 0t-28.5 -8q-11 10 -23 9t-25 0q-7 1 -11 1h-7t-1 1q-5 -2 -10 -7t-11 -6q-32 -5 -64 1t-63 5q-17 -1 -33 -1.5t-31 -0.5q-14 0 -27.5 1t-28.5 3
q-17 2 -28.5 4.5t-25.5 14.5q-6 6 -17 19t-16 21q-9 14 -12 29t-8 28q-2 6 -7 11.5t-9.5 12t-7 13.5t0.5 15q-6 4 -8.5 10.5t-3.5 14t-1.5 14.5t-2.5 13q-5 15 -7 29.5t-4 29.5q-1 5 -1 13v16q0 26 4 55t16 42q-4 10 1 18t13 13q-3 6 0.5 16t9.5 20.5t13.5 19t13.5 11.5
q-3 5 -5 10q29 22 56 38.5t60 12.5q5 4 10.5 4.5l11 1t11.5 1t12 4.5q1 -2 10 -3t20.5 -2t22 -1t15.5 1q8 2 13.5 4.5t13.5 4.5q5 1 13.5 -0.5t14.5 -0.5q17 2 33 3t34 3q7 0 16 -1t17.5 -2.5t16.5 -2t14 2.5h14q42 -3 78.5 -18t63.5 -47q12 -14 19 -31t15 -33
q9 -21 16.5 -37t9.5 -36q2 -21 3.5 -41.5t1.5 -40.5q0 -11 -0.5 -21.5t-1.5 -20.5zM611 295q3 18 1 32t-6 32q-1 5 -2 14.5t-3 19t-5 17.5t-7 11q-2 11 -4.5 23.5t-11.5 18.5q-1 10 -8.5 20.5t-18 20.5t-21.5 17.5t-20 10.5q-20 5 -44 2t-44 -5l-13 3q-9 4 -23 3t-29.5 -4
t-31 -7t-25.5 -5q-27 -4 -53 -13.5t-43 -37.5q-17 -29 -24 -63t-7 -70q0 -29 3 -56t7 -52q3 -20 10 -48.5t16 -45.5q6 -11 14.5 -18t15.5 -17q6 -8 12.5 -16t13.5 -16q23 -4 42 -4t40 -2q22 -2 48.5 -4.5t49.5 -0.5t50.5 7.5t45.5 23.5q17 17 26.5 36.5t23.5 40.5
q-1 1 -2.5 1.5t-2.5 2.5q8 31 16.5 63t13.5 65z" />
    <glyph glyph-name="registered" unicode="&#x28;R&#x29;" horiz-adv-x="784" 
d="M737 265q-2 -14 1 -32t-2 -33q-5 -17 -13.5 -30t-16.5 -29q-8 -14 -12.5 -24t-16.5 -23q-11 -13 -21 -24.5t-20 -24.5q-11 -15 -17.5 -22t-27.5 -11q-14 -2 -32.5 0t-28.5 -8q-11 10 -23 9t-25 0q-7 1 -11 1h-7t-1 1q-5 -2 -10 -7t-11 -6q-32 -5 -64 1t-63 5
q-17 -1 -33 -1.5t-31 -0.5q-14 0 -27.5 1t-28.5 3q-17 2 -28.5 4.5t-25.5 14.5q-6 6 -17 19t-16 21q-9 14 -12 29t-8 28q-2 6 -7 11.5t-9.5 12t-7 13.5t0.5 15q-6 4 -8.5 10.5t-3.5 14t-1.5 14.5t-2.5 13q-5 15 -7 29.5t-4 29.5q-1 5 -1 13v16q0 26 4 55t16 42q-4 10 1 18
t13 13q-3 6 0.5 16t9.5 20.5t13.5 19t13.5 11.5q-3 5 -5 10q29 22 56 38.5t60 12.5q5 4 10.5 4.5l11 1t11.5 1t12 4.5q1 -2 10 -3t20.5 -2t22 -1t15.5 1q8 2 13.5 4.5t13.5 4.5q5 1 13.5 -0.5t14.5 -0.5q17 2 33 3t34 3q7 0 16 -1t17.5 -2.5t16.5 -2t14 2.5h14
q42 -3 78.5 -18t63.5 -47q12 -14 19 -31t15 -33q9 -21 16.5 -37t9.5 -36q2 -21 3.5 -41.5t1.5 -40.5q0 -11 -0.5 -21.5t-1.5 -20.5zM611 295q3 18 1 32t-6 32q-1 5 -2 14.5t-3 19t-5 17.5t-7 11q-2 11 -4.5 23.5t-11.5 18.5q-1 10 -8.5 20.5t-18 20.5t-21.5 17.5t-20 10.5
q-20 5 -44 2t-44 -5l-13 3q-9 4 -23 3t-29.5 -4t-31 -7t-25.5 -5q-27 -4 -53 -13.5t-43 -37.5q-17 -29 -24 -63t-7 -70q0 -29 3 -56t7 -52q3 -20 10 -48.5t16 -45.5q6 -11 14.5 -18t15.5 -17q6 -8 12.5 -16t13.5 -16q23 -4 42 -4t40 -2q22 -2 48.5 -4.5t49.5 -0.5t50.5 7.5
t45.5 23.5q17 17 26.5 36.5t23.5 40.5q-1 1 -2.5 1.5t-2.5 2.5q8 31 16.5 63t13.5 65zM515 112q3 -5 0.5 -8t-7.5 -4.5t-10.5 -2t-7.5 -0.5q-17 2 -33 5t-31 14q-11 8 -14.5 21.5t-3.5 27.5v18q1 20 -0.5 40.5t-0.5 40.5q1 11 0.5 21.5t-0.5 21.5q-1 10 -1 19t-5 17v2
q-2 3 -4 5.5t-5 4.5q-5 3 -10 3q-4 1 -5.5 -0.5t-4.5 -3.5q-2 -2 -4 -2.5t-3 -4.5q-3 -6 -3 -12v-2q0 -3 0.5 -6t1.5 -7q2 -5 2 -11.5v-12.5v-10.5t-1 -11.5q-2 -7 -2 -14v-15q0 -14 1 -27t3 -27v-7q2 -6 3 -10h1q0 -2 0.5 -2.5t0.5 -2.5v-8q0 -2 1.5 -3.5t0.5 -3.5
q-1 -4 -4 -5t-7 -3q-7 -2 -13.5 -4t-13.5 -3h-11h-9q-6 -2 -11.5 -3t-12.5 -2q-3 0 -7 1.5t-6 0.5q-2 0 -4.5 -1t-5.5 -2q-2 0 -10.5 1t-9.5 2q-2 3 -1 4.5t4 2.5t5.5 2t3.5 1q5 2 8 5t6 5q5 4 7 6t4 9q4 10 6 24q0 6 0.5 11t0.5 10q0 20 -3 40q0 7 -0.5 13t-0.5 12
q0 8 0.5 16t0.5 17q0 4 -1 13.5t-2 19.5t-0.5 18.5t3.5 9.5l-1 9q0 4 -2.5 7.5t-2.5 7.5q0 2 2 4.5t2 5.5q0 2 -2 8l-2 18t-4 17q-4 8 -10 12q-4 3 -9.5 3t-8.5 3q-3 5 0 7.5t9 4t12 1.5h8q5 1 9.5 0t10.5 -1q5 1 11 2t12 1q11 -1 22 0q3 1 7 2t7 1q2 -1 4.5 -2.5t5.5 -1.5
q6 -1 12 1.5t13 2.5q6 0 12 1.5t12 1.5t11 -0.5t12 0.5q5 1 10.5 -0.5t10.5 -2.5q9 -2 17.5 -10.5t9.5 -18.5q1 -8 -2.5 -19.5t-9.5 -18.5q-8 -7 -14 -15t-15 -14q-6 -5 -13 -7.5t-14 -6.5q1 -5 7 -6t12 -3q9 -2 17.5 -2t16.5 -5q7 -5 5.5 -15t-0.5 -18q1 -10 1 -20v-20
t-2 -19.5t-1 -19.5q0 -10 1 -19.5t2 -18.5q1 -17 1 -38.5t9 -36.5q4 -7 9 -14q3 -4 8 -6t7 -5zM360 399l4 -10t10 0q4 2 8 5t9 6q6 6 9 10q2 6 2 9q1 7 -2.5 15t-8.5 13t-11.5 4.5t-12.5 -9.5q-5 -8 -6 -17t-1 -19v-7z" />
    <glyph glyph-name=".notdef" horiz-adv-x="254" 
 />
    <glyph glyph-name=".null" horiz-adv-x="0" 
 />
    <glyph glyph-name="nonmarkingreturn" horiz-adv-x="333" 
 />
    <glyph glyph-name="space" unicode=" " horiz-adv-x="254" 
 />
    <glyph glyph-name="exclam" unicode="!" horiz-adv-x="234" 
d="M161 114q5 -8 11.5 -12t13.5 -11q2 -3 6.5 -7.5t4.5 -9.5q0 -3 -4 -7.5t-7 -6.5q0 -3 -7.5 -11.5t-10.5 -11.5q-5 -5 -12 -10t-12 -11q-2 -3 -3 -5.5t-4 -4.5q-2 -1 -4.5 -2t-4.5 -2q-7 -2 -17 3l-12 12q-3 3 -6.5 5.5t-6.5 5.5l-12 14t-13 12q-5 3 -7.5 7.5t-5.5 9.5
q-1 2 -2.5 4.5t-1.5 4.5q1 2 2.5 3.5t1.5 3.5q6 5 12 11t12 11v1q2 2 5.5 4t2.5 5q6 5 11 9.5t10 9.5q5 4 9 9.5t12 3.5q5 -1 9 -6t7 -8q2 -2 5 -4.5t5 -4.5q2 -3 2 -5.5t5 -4.5zM48 548q-4 3 -8 4.5t-8 6.5q-6 2 -7 5t1 6t5.5 5t6.5 3q7 2 14.5 2t15.5 1q20 1 38 3t37 4
q3 0 8 -0.5t9 -0.5q5 0 8 -1t8 -1q7 0 17.5 3t16.5 1q9 -3 8 -9.5t-5.5 -14t-10 -14.5t-7.5 -11q-4 -7 -8 -14.5t-5 -15.5q-1 -5 0.5 -8.5t1.5 -8.5q0 -3 -2 -7t-2 -8q0 -7 2 -14.5t2 -15.5t-1 -16.5t-2 -17.5q-2 -15 0.5 -29.5t4.5 -28.5q1 -11 1 -22.5v-23.5
q-3 -9 -5.5 -19t-5.5 -17q-1 -1 0 -1t1 -1q-5 -6 -6.5 -13t-3.5 -14q-2 -6 -4.5 -14t-8.5 -13q0 -2 -2.5 -7.5t-6.5 -11.5t-8.5 -11t-7.5 -5q-8 -2 -10 2l-5 10q-2 5 -6.5 11.5t-3.5 11.5q-5 0 -9 4t-7.5 10t-6.5 12.5t-6 9.5q-4 5 -4.5 10t-2.5 11q0 14 -3 29q-1 6 -1 14
v16v30q1 15 -2 34q-1 3 -1.5 9.5l-1 13t-1.5 12t-2 6.5l3 15q-3 13 -1.5 24.5t1.5 25.5q-1 11 -7 22t-4 22z" />
    <glyph glyph-name="quotedbl" unicode="&#x22;" horiz-adv-x="393" 
d="M159 587q5 0 12 -4t12 -14q-1 -4 -3 -10.5t-3 -11.5q-1 -2 -3 -7.5t-2 -7.5q0 -3 3 -6.5t2 -5.5q-2 -6 -6 -13t-6 -12t-3.5 -12t-4.5 -13q-3 -8 -5.5 -14t-4.5 -14q-1 -7 -2 -13.5t-4 -14.5q-5 -14 -9.5 -25t-12.5 -24q-11 -2 -19 8.5t-13 16.5q-8 13 -13 31.5t-10 34.5
q-3 10 -6 18.5t-5 19.5q-2 8 -4 17.5t-5 17.5q-2 7 -4.5 14.5t-2.5 15.5t3.5 14.5t14.5 8.5q8 2 18 1.5t18 -0.5q7 1 19.5 2t17.5 -4q5 5 15 5.5t16 0.5zM343 583q9 -3 8 -21t-7 -40.5t-13.5 -42.5t-10.5 -27q-8 -17 -14 -34t-17 -33q-5 -7 -9.5 -10t-12.5 7q-4 5 -6 15.5
t-4 16.5q-6 17 -11.5 32.5t-9.5 33.5q-2 8 -4.5 16t-5.5 16q-2 5 -6.5 15.5t-2.5 14.5q-3 5 -3 5.5t-1 5.5q-5 9 -2.5 15.5t9 10.5t16.5 5.5t20 1.5q9 0 16 -1t12 -3l11 2q3 0 9 0.5t10 3.5q1 -1 2 -1.5t2 -2.5q5 2 7 2.5t6 -2.5q6 4 12 -1z" />
    <glyph glyph-name="numbersign" unicode="#" horiz-adv-x="435" 
d="M405 467q-6 -21 -23.5 -29.5t-40.5 -13.5q0 -5 -0.5 -8l-1.5 -9q0 -7 1.5 -10.5t2.5 -9.5v-4q16 4 31 6.5t29 4.5q4 -20 -1 -41l-10 -42q-13 -2 -25 -5t-24 -7q1 -9 3 -18.5t2 -16.5q-1 -4 -4 -5.5t-3 -6.5q0 -3 2 -5t2 -5q1 -5 1.5 -9.5t0.5 -9.5l4 -38t2 -38
q-5 -1 -10.5 -1.5t-10.5 -3.5q-4 7 -12 -2q-5 8 -15 6t-16 -3q-11 -2 -16 1t-16 3q-2 9 -2 19.5t3 19.5q-4 5 -2 19.5t3 22.5q1 11 0 21.5t-2 24.5q-15 -4 -30.5 -7t-29.5 -6q-4 0 -10 -2q-2 -9 -3.5 -17.5t-1.5 -17.5q0 -11 1 -22t1 -22q0 -9 -1.5 -19t-8.5 -15
q-8 -6 -17 -3t-16 -4q-6 1 -13 1t-14.5 0.5t-14 2t-10.5 6.5q-3 12 -2.5 25t0.5 26v16t1 16q-10 -2 -18.5 -3t-16.5 -1q-28 0 -33 15q7 6 7.5 14t-0.5 15.5t0 13t9 8.5l19 7q8 4 17.5 7t18.5 5v23.5t1 22.5q-13 -3 -25 -5t-19.5 -0.5t-9 6.5t4.5 16q-3 2 -5.5 3.5t-5.5 2.5
q5 6 6 12.5t1 12.5t1 12t7 12q3 2 17.5 6t26.5 7q1 3 1 9q1 3 3 5t2 6q0 3 -2.5 4.5t-2.5 4.5q0 2 -1.5 3.5t-1.5 4.5q0 2 3 5.5t4 5.5q0 4 -1.5 9t-2 9t0.5 7.5t7 5.5l-7 7q-5 8 -3.5 19t3.5 20q2 6 -0.5 8.5t6.5 7.5q4 3 10.5 3t11.5 1q8 0 20 1t21.5 -0.5t15 -8
t1.5 -19.5q1 -2 5 -4q0 -8 0.5 -15t1.5 -15q0 -4 1 -7.5t0 -7.5q-1 -3 -4 -5.5t-4 -5.5q0 -3 2.5 -6.5t2.5 -8.5q0 -4 -1.5 -7t-2.5 -8v-8q16 5 34 11t29 9q3 0 9 2q-1 6 -1 11.5v11.5q-1 8 0.5 18t3.5 18q1 7 1.5 17t-2.5 17q7 11 16 9.5t20 -1.5q10 1 20 2.5t21 1.5l9 -8
q-2 -14 -1 -27.5t2 -27.5q1 -11 0 -21h3q14 7 24 9.5t18 2.5q20 0 22.5 -15.5t-3.5 -36.5zM235 354q9 1 20 5q1 4 2 7t1 8q1 3 0 8t-1 10q0 4 0.5 7.5t0.5 6.5l-36 -8t-36 -9l2 -6t1 -6q0 -6 -2.5 -11.5t-3.5 -11.5q0 -5 1 -8t3 -6q11 4 23 7.5t25 6.5z" />
    <glyph glyph-name="dollar" unicode="$" horiz-adv-x="411" 
d="M371 241q0 -11 2 -21t4.5 -20t4 -21t-1.5 -23q-3 -17 -11 -31.5t-26 -20.5q-14 -5 -29.5 -7.5t-31.5 -3.5q-7 0 -13.5 -0.5t-12.5 -0.5q2 -12 1.5 -23t-5.5 -18q6 -18 3.5 -28.5t-10.5 -15t-20.5 -4.5t-26.5 3q-18 4 -23 15.5t-5 26.5q0 10 1 19.5t0 19.5v3
q-5 0 -11 -0.5t-11 -1.5q-23 -4 -42 -12t-38 -23q-4 -3 -7 -7t-6 -7t-7 -4t-8 2q-6 4 -7 18.5t1 18.5q-5 6 -6 14t0 17l2 18t0 17t-4 18t-2 18t1 10.5t1 3t4 0.5t9 3q12 6 26.5 11.5t25.5 16.5q5 5 8 12.5t7 13.5t9 9.5t14 -0.5q4 -9 3 -19t-2 -18q-1 -10 -1.5 -23.5
t1.5 -26.5q1 -7 8 -12q10 -8 20 -6.5t22 1.5q10 0 21 2.5t19.5 8.5t12.5 15.5t1 22.5q-2 8 -4 12q-8 8 -14 16t-17 13l-17.5 5t-20.5 8l-18 15q-6 4 -8 5q-15 12 -27 24t-26 22q-22 17 -33.5 39.5t-11.5 47.5q0 20 7.5 38.5t23.5 34.5t38 26t48 15q-2 9 -3.5 21.5t-1.5 23.5
q0 17 5.5 26t22.5 1q2 2 4.5 4t4.5 4q5 -4 11 -4.5t12 -0.5t12 -1t10 -5q1 -1 2 -7t1 -13v-13.5v-8.5v-17q1 -1 1 -2t1 -3q5 0 10.5 -0.5t10.5 -1.5h9q9 2 17 4.5t15 7.5t13.5 12t13.5 13t14 9.5t16 0.5q2 -16 3 -32t3 -33q2 -7 1.5 -12t-1.5 -10q0 -11 1 -15q1 -14 1 -26.5
t2 -25.5q-5 -4 -10 -6.5t-10 -4.5q-11 -5 -20 -10t-18 -14q-8 -8 -10 -19t-8 -16q-12 -9 -18 -3t-8.5 17.5t-2.5 24v17.5v17.5t-2 20.5q-1 1 -3 5q-13 20 -33 19q-26 0 -44 -7q-9 -8 -16 -16t-7 -16q1 -1 2.5 -1.5t2.5 -1.5q-2 -5 -0.5 -7.5t1.5 -7.5q4 0 9 -3.5t10 -8
t9.5 -9.5t8.5 -8q5 -5 10 -9t11 -8q6 -8 14 -14t19 -14q1 0 3 -2q12 -8 24 -16.5t24 -16.5q7 -5 17 -12t19.5 -15t17.5 -16.5t13 -15.5z" />
    <glyph glyph-name="percent" unicode="%" horiz-adv-x="747" 
d="M713 236q1 -7 0.5 -13.5t-1.5 -14.5q0 -14 -3 -29.5t-8 -30.5q-2 -8 -1 -13t-1 -13q-5 -12 -11 -25q-12 -23 -23.5 -47.5t-35.5 -37.5q-3 -7 -10.5 -9t-16.5 -3h-1h-2q-5 0 -9 0.5t-9 1.5q-2 -2 -5 -2l-9 3h-6q-2 0 -5 -0.5t-6 -0.5h-1h-15q-7 1 -13 -1t-13 -2
q-6 0 -12 1t-12 1q-5 0 -11.5 -1.5t-10.5 3.5q-4 -2 -9 0q-10 -1 -19.5 -1.5t-18.5 0.5l-9 5q-2 2 -4.5 10.5t-0.5 10.5q-1 4 1 11q-2 2 -4 3t-4 3q-3 4 -5.5 8.5t-6.5 9.5t-7.5 10t-6.5 10q-4 7 -5.5 14t-5.5 14q-5 8 -7 12t-4 13t-5 17.5t-5 18.5q-2 -2 -3 -2
q-5 -6 -7 -13t-7 -13q-5 -7 -9.5 -12.5t-9.5 -13.5q-4 -6 -7.5 -13t-8.5 -13q-3 -3 -7 -5t-6 -7q-2 -2 -3 -6.5t-3 -8.5q-3 -6 -7 -14.5t-8 -13.5q-2 -4 -6.5 -5.5t-6.5 -5.5q-2 -3 -1.5 -6.5t-1.5 -6.5q-5 -6 -11 -11.5t-10 -11.5q-4 -7 -7.5 -13t-7.5 -12q-10 7 -20 12.5
t-20 13.5q-6 5 -11 8.5t-7 7.5t-0.5 9.5t6.5 13.5q6 11 15 22t17 24q2 2 1 3.5t1 3.5q1 2 3 2.5t3 2.5q2 2 2 5.5t2 6.5q4 5 10 10t10 11q7 11 14 21t14 21h-8q-7 1 -13 -1t-12 -2q-7 0 -12.5 1t-11.5 1q-5 0 -12 -1.5t-10 3.5q-5 -2 -9 0q-10 -1 -19.5 -1.5t-19.5 0.5l-8 5
q-3 2 -5.5 10.5t0.5 10.5q-2 5 1 11h-1q-2 2 -3.5 3t-3.5 3q-4 4 -6.5 9t-5.5 10q-7 8 -14 19q-5 7 -6.5 14t-5.5 14l-6 12t-4 13q-3 12 -7 24t-5 26t-0.5 26.5t-0.5 25.5q-2 15 5 30t9 29q1 3 0.5 6t-0.5 6q2 8 3 11q2 8 5.5 15t6.5 14q5 12 13 22.5t14 22.5q5 8 14 20
t19 16q6 3 14 3.5t16 0.5q3 0 5.5 0.5t5.5 0.5q12 0 24.5 0.5t25.5 -1.5h16q8 0 16 0.5t17 1.5q8 1 14.5 -0.5t14.5 -0.5q7 1 11.5 0t11.5 -3l19 -9q0 1 -1 1.5t1 0.5q5 -2 6.5 -8.5t1.5 -10.5q0 -1 -0.5 -2t-0.5 -3q0 -1 1 -1q5 -5 8.5 -10.5t7.5 -10.5q2 -3 5 -7t5 -6
t4.5 -3t4.5 -3q3 -4 6.5 -12t5.5 -13t3.5 -11.5t3.5 -11.5q2 -7 2 -12.5t2 -11.5q3 -8 4 -15t3 -14q1 -1 1 -1.5t1 -1.5q5 8 10 16.5t10 16.5q8 15 21 28.5t21 28.5q2 4 3.5 8t3.5 8q3 2 7 4t6 5q1 2 -0.5 3.5t0.5 3.5q1 2 2.5 3t2.5 3q2 3 3.5 6t3.5 6q4 6 8 12.5t8 11.5
q3 3 8.5 10t8.5 9l9 9q-2 4 -1 7q8 1 17.5 -5t15.5 -11q7 -5 18 -11t14 -14q2 -8 -0.5 -11.5t-7.5 -9.5q-5 -5 -8 -10.5t-6 -11.5q-7 -13 -13.5 -24.5t-15.5 -22.5q-6 -7 -12 -11.5t-10 -12.5t-8 -14t-9 -13h14q8 0 16.5 0.5t16.5 1.5t14.5 -0.5t14.5 -0.5q7 1 12 0t12 -3
l18 -9q0 1 1 -0.5t3 -1.5q2 -2 3 -6.5t1 -8.5q0 -3 -1 -5q0 -1 1 -1q5 -5 8.5 -10.5t8.5 -10.5q2 -3 4.5 -7t5.5 -6q2 -2 4.5 -3t4.5 -3q2 -4 5.5 -12t5.5 -13q4 -10 8 -23q2 -7 2 -12.5t2 -11.5q2 -8 3 -15t4 -14q2 -6 4 -10.5t2 -12.5zM224 227q7 4 12 11q7 8 14 21t10 22
q4 13 4.5 24t1.5 24q0 6 2 12.5t2 12.5q0 7 -2.5 12t-0.5 12q1 4 2 7t0 7q0 3 -1.5 5.5t-1.5 5.5q0 7 2 13t2 13q-1 11 -3.5 20.5t-6.5 20.5q-3 9 -7.5 19t-12.5 17q-4 5 -6.5 8.5t-6.5 8.5q-2 3 -5 4t-6 3q-11 -5 -16 -14t-13 -20q-8 -10 -10.5 -22.5t-3.5 -24.5
q-2 -13 -3.5 -26t-2.5 -25q-1 -7 0.5 -13t1.5 -12q-1 -4 -2 -7.5t-1 -7.5q1 -3 2.5 -5.5t3.5 -5.5q2 -7 0 -12.5t-2 -12.5q1 -5 2 -11.5t2 -12.5q1 -8 3 -13t6 -11q4 -5 6.5 -10t6.5 -10l8.5 -8.5t8.5 -7.5q3 -2 5.5 -5t5.5 -6zM573 230q-1 4 -2 6.5t-1 5.5q-1 6 1.5 12.5
t1.5 13.5q-1 11 -3.5 20t-5.5 20q-3 9 -8 19.5t-12 17.5q-5 5 -7.5 8.5t-6.5 8.5q-2 2 -5 3.5t-5 3.5q-11 -5 -16.5 -14t-13.5 -20q-7 -11 -10 -23t-4 -24q-2 -13 -3 -26t-3 -25q-1 -7 1 -13t1 -12q-1 -4 -2 -7.5t0 -7.5q0 -3 2 -5.5t3 -5.5q2 -7 0 -12.5t-1 -12.5
q0 -5 1 -11.5t2 -12.5q1 -8 3 -13t7 -11q3 -5 5.5 -10.5t7.5 -10.5l7.5 -7.5t8.5 -7.5q3 -2 5.5 -5t5.5 -6q4 2 7 5l6 6q6 8 13 21t10 22q4 13 4.5 24t1.5 24q0 6 2 12.5t2 12.5q0 7 -2.5 12t-0.5 12q1 4 2 7t1 6z" />
    <glyph glyph-name="ampersand" unicode="&#x26;" horiz-adv-x="489" 
d="M122 32q-14 15 -28 26t-22 30q-7 15 -17 30.5t-15 34.5t-8.5 36t-1.5 37q2 22 9.5 39t16.5 36q7 15 16.5 31.5t22.5 28.5q6 6 13.5 11t11.5 10t3.5 11t-9.5 14q-12 11 -24.5 23.5t-22 27.5t-14.5 32t-2 37q3 18 16.5 28.5t31 16.5t36 8.5t31.5 5.5q12 2 23.5 3t22.5 1
q8 0 16 -0.5t16 -0.5q17 -1 38.5 -0.5t38.5 -5.5l9 -3q2 0 4 -0.5t4 -0.5q12 5 28 -2q5 0 9.5 -0.5t9.5 -1.5q9 -2 17 -3t6 -13q0 -7 -6.5 -18t-8.5 -17t-5.5 -14.5t-8 -16t-10.5 -12t-13 -1.5q-8 4 -12 13.5t-9 15.5q-5 5 -12.5 10.5t-13.5 8.5q-2 2 -5 2.5t-7 2.5
q-11 -2 -13 -6q-5 2 -9 2.5t-9 1.5q-7 2 -11 0t-9 -3q-3 0 -5.5 2.5t-5.5 2.5q-2 0 -4 -1.5t-4 -1.5q-5 -1 -9 -1t-9 -3q-5 -2 -12.5 -12t-9.5 -15q-6 -11 -1.5 -20t0.5 -19q8 -14 24.5 -26t30.5 -18q5 -2 13.5 -4t17.5 -7h11q16 2 32.5 2t33.5 -1t34.5 0.5t34.5 1.5h32
q2 0 3 -2t3 -2t4 1.5t4 1.5q4 -1 6.5 0t6.5 -2q2 -6 3 -8q0 -7 -5 -10.5t-11.5 -6.5t-14 -5.5t-12.5 -6.5q-14 -10 -19.5 -21t-7.5 -28q-1 -9 0.5 -17.5t1.5 -16.5q0 -9 -1 -16t1 -15t-0.5 -16t-0.5 -17q1 -16 0 -33q-1 -9 0 -17.5t0 -16.5q0 -10 2.5 -18t2.5 -17
q1 -8 -1 -18t-3 -19q0 -8 -1 -16t-1 -16v-19q0 -1 1 -1q0 -2 -2 -4v-9q-3 -15 0 -29q1 -8 3.5 -17t4.5 -17q1 -7 0.5 -14t1.5 -15v-7q-1 -5 -4.5 -13.5t-11.5 -4.5q-5 2 -4.5 9.5t-1.5 11.5q-4 11 -11 20t-15 17q-2 2 -3 5t-3 5q-3 2 -5.5 2t-6.5 2q-6 2 -10 6t-10 6
q-12 5 -24 8q-6 1 -13 5v3q-2 -1 -5 -1q-2 0 -3 0.5t-3 -0.5q-4 0 -12 -2h-11q-20 1 -38.5 0.5t-36 1.5t-34 9.5t-31.5 23.5zM172 225q-1 -8 -1 -15.5v-15.5q0 -21 3 -43q1 -6 1 -12t1 -13l9.5 -19t10.5 -16q11 -14 26 -18t32 -6q2 -1 8 -1q8 1 16.5 0.5t16.5 0.5
q1 8 1 16.5v16.5q0 31 -3 66q-1 9 -2 18.5t0 19.5q0 8 -1 19t2 17l-5 7q2 12 0 26t-3 26q0 7 0.5 14t-1.5 15l-2 6l-2 6q-2 2 -5 2.5t-5 2.5q-4 5 -5.5 9t-6.5 8q-1 0 -1.5 -0.5t-1.5 -0.5q-8 -5 -11 -10.5t-13 -8.5q-11 -4 -16 -6t-12 -12l-10 -14t-8 -16q-2 -8 -2 -16.5
t-2 -16.5q-2 -9 -4.5 -17.5t-3.5 -18.5z" />
    <glyph glyph-name="quotesingle" unicode="'" horiz-adv-x="186" 
d="M146 587q5 0 12 -4t12 -14q-1 -4 -3 -10.5t-3 -11.5q-1 -2 -3 -7.5t-2 -7.5q0 -3 3 -6.5t2 -5.5q-2 -6 -6 -13t-6 -12t-3.5 -12t-4.5 -13q-3 -8 -5.5 -14t-4.5 -14q-1 -7 -2 -13.5t-4 -14.5q-5 -14 -9.5 -25t-12.5 -24q-11 -2 -19 8.5t-13 16.5q-8 13 -13 31.5t-10 34.5
q-3 10 -6 18.5t-5 19.5q-2 8 -4 17.5t-5 17.5q-2 7 -4.5 14.5t-2.5 15.5t3.5 14.5t14.5 8.5q8 2 18 1.5t18 -0.5q7 1 19.5 2t17.5 -4q5 5 15 5.5t16 0.5z" />
    <glyph glyph-name="parenleft" unicode="(" horiz-adv-x="312" 
d="M292 -34q5 -4 -0.5 -10t-7.5 -12q-8 1 -17 2t-17 4q-7 5 -15.5 6.5t-12.5 9.5q-8 -2 -14.5 5t-10.5 12q-6 0 -15 4.5t-17.5 10.5t-15.5 13t-9 13q-8 2 -16.5 15.5t-13.5 19.5q-8 10 -11 20t-8 21q-9 18 -16 35.5t-15 35.5q-7 19 -14 37.5t-9 38.5q-3 20 -7 41t-2 41t9 40
t11 40q4 21 11.5 39.5t17.5 36.5q6 10 14.5 16t16.5 15q7 7 13 17t11 18q11 19 29.5 29.5t35.5 21.5q7 4 15 11t17 13t18 10t17 3l12 1q1 0 1 -1t2 -1q5 -14 -5 -23.5t-19 -18.5q-26 -25 -48.5 -59.5t-30.5 -72.5q-4 -19 -5 -39.5t-3 -37.5q-2 -23 1.5 -43.5t3.5 -42.5
q0 -20 3.5 -37.5t1.5 -37.5q-1 -19 4 -39.5t10 -39.5q9 -35 22 -72t33 -69q4 -2 5 -3t4 -6q5 -2 8.5 -4t3.5 -10q7 0 16.5 -4.5t7.5 -12.5z" />
    <glyph glyph-name="parenright" unicode=")" horiz-adv-x="310" 
d="M276 338q3 -21 7 -41.5t2 -40.5q-2 -21 -9 -41t-11 -40q-9 -40 -30 -75q-5 -11 -13.5 -17t-16.5 -14q-7 -7 -13 -17t-11 -19q-11 -18 -29.5 -28.5t-36.5 -22.5q-6 -4 -14.5 -10.5t-17 -12.5t-17.5 -10t-17 -3l-12 -2q-2 2 -3 2q-6 14 4.5 24t19.5 18q25 25 48 60t31 72
q4 20 5 40t3 37q2 23 -2 43.5t-3 42.5q0 20 -3.5 37.5t-2.5 37.5q1 19 -3.5 40t-9.5 39q-9 36 -22 73t-33 69q-4 2 -5.5 3t-3.5 5q-8 8 -18 13.5t-18 17.5q-5 4 0.5 10.5t7.5 11.5q8 -1 19.5 0.5t14.5 -6.5q7 -5 15.5 -6t12.5 -9q8 2 14 -5t11 -12q6 -1 15 -5.5t17.5 -10.5
t15 -12.5t8.5 -12.5q8 -2 17 -15.5t14 -19.5q8 -10 11 -20t8 -21q8 -18 15.5 -35.5t15.5 -36.5q7 -18 13.5 -36.5t9.5 -38.5z" />
    <glyph glyph-name="asterisk" unicode="*" horiz-adv-x="409" 
d="M326 426q25 -5 35 -14t10 -20q0 -9 -6 -19t-14 -20q-11 -12 -26 -12q-16 0 -33.5 10t-36.5 20q1 -13 0.5 -24t-4.5 -19q6 -23 3.5 -35.5t-10.5 -18t-20.5 -5.5t-26.5 4q-18 5 -23 18.5t-5 32.5q0 11 0.5 22.5t0.5 22.5q-17 -9 -34.5 -18t-34 -14.5t-30.5 -5t-22 9.5
q4 7 1 14t-7 13.5t-5.5 12t5.5 9.5l16 10q13 9 28.5 17t29.5 16q-13 4 -29.5 11t-28 14.5t-14.5 16t11 16.5q-2 3 -3 6.5t-2 6.5q6 2 9.5 7t6 10.5t6 10t10.5 5.5q2 0 8.5 -2.5t14.5 -6t15 -7t10 -4.5l18 -10q4 0 8 -1t9 -2q-2 11 -4 28t-2 34q0 10 1.5 18t4.5 13.5t8.5 6
t13.5 -4.5q2 3 4.5 5.5l4.5 4.5q5 -5 11 -5.5t12 -0.5t12 -1t10 -7q1 -2 2 -9t1 -15.5v-16.5v-11v-21q3 -17 16 -14.5t30 11.5t34.5 19t30.5 9q11 -17 14.5 -37.5t7.5 -40.5q-18 -5 -32.5 -14t-31.5 -19q8 -5 12 -10z" />
    <glyph glyph-name="plus" unicode="+" horiz-adv-x="346" 
d="M264 281q18 6 28.5 3.5t15 -10.5t4.5 -20.5t-3 -26.5q-4 -18 -15.5 -23t-25.5 -5q-10 0 -20 1t-20 0h-11q2 -15 3 -30.5t1 -29.5q0 -18 -3 -34q-21 -3 -40.5 0.5t-39.5 7.5q2 17 -1 33t-5 34v17q-2 -1 -5 -1q-6 -1 -22 -4t-32 -3q-17 0 -26.5 6t-1.5 23l-4 4l-4 4
q4 5 4.5 11t0.5 12.5t0.5 12t5.5 9.5q1 1 7 2t13 1h13.5h8.5h17q4 2 8.5 3t8.5 3q2 -4 8 -4q-2 12 -3 26.5t-1 28.5q0 20 5 34.5t21 18.5q5 -5 13 -5t15.5 0.5t13 0t6.5 -6.5l2 -14q4 -15 5 -32.5t2 -32.5q0 -8 1 -12q14 2 29 3t23 -5z" />
    <glyph glyph-name="comma" unicode="," horiz-adv-x="203" 
d="M153 159q13 -1 17 -7t3 -14.5t-4 -18t-5 -17.5q-14 -68 -46 -137q-2 -3 -4.5 -9.5t-6.5 -11.5t-8.5 -7.5t-9.5 2.5q-2 2 -4.5 11.5t-3.5 12.5q-2 6 -5 12t-5 11q-1 7 -1.5 12t-2.5 12q-2 6 -3 11t-3 12q-4 13 -7.5 24t-10.5 22q6 6 -0.5 19t-9.5 20q-5 13 -5 19.5
t14 13.5q10 10 21 5h16q11 1 20 1.5t19 0.5q8 -1 16.5 1t18.5 0z" />
    <glyph glyph-name="hyphen" unicode="-" horiz-adv-x="344" 
d="M267 281q18 6 28 3.5t14.5 -10.5t4.5 -20.5t-3 -26.5q-4 -18 -15 -23t-25 -5q-10 0 -20 1t-21 0q-13 -1 -25.5 -0.5t-25.5 0.5q-26 0 -50 -3q-6 -1 -22 -4t-32 -3q-17 0 -26.5 6t-1.5 23l-4 4l-4 4q4 5 4.5 11t0.5 12.5t1 12t6 9.5q1 1 7 2t12.5 1h13h9.5h16q4 2 8.5 3
t8.5 3q4 -5 12.5 -5.5t18.5 1l20 3t16 1.5q7 0 17.5 1.5l21 3t20 0.5t15.5 -5z" />
    <glyph glyph-name="period" unicode="." horiz-adv-x="232" 
d="M187 78q2 -6 -1.5 -9t-6.5 -7t-5 -8.5t-5 -9.5q-3 -4 -7 -6t-9 -6l-15 -15t-8 -18q-5 -2 -8.5 -4t-8.5 -1q-3 4 -7 8l-8 8l-4.5 4.5t-6.5 4.5t-6 2.5t-5 3.5q-5 5 -9 11t-9 8t-7 3t-5 6q-2 3 -2 6t-2 6q-2 7 -4.5 9t1.5 8q5 5 10 13q7 10 17 16.5t19 13.5q2 2 7 6t7 7
q3 4 4.5 8t8.5 2q10 -2 15 -11.5t13 -14.5l8 -8q-2 -1 4 -4.5t8 -5.5t3 -3.5t3 -3.5t5.5 -2.5t5.5 -2.5t2 -4.5t2 -4.5t3.5 -2.5t2.5 -2.5z" />
    <glyph glyph-name="slash" unicode="/" horiz-adv-x="479" 
d="M470 575q3 -8 0.5 -11.5t-7.5 -9.5q-5 -5 -8 -10.5t-7 -11.5q-7 -13 -13 -24.5t-16 -22.5q-5 -7 -11.5 -11.5t-10.5 -12.5q-4 -10 -9.5 -17.5t-11.5 -15.5q-5 -6 -9.5 -11.5t-8.5 -13.5q-4 -6 -6.5 -13t-5.5 -15q-4 -7 -9.5 -12.5t-9.5 -10.5q-1 -2 -0.5 -4t-1.5 -4
q-1 -2 -3 -2t-4 -1q-6 -6 -10 -13q-4 -6 -7.5 -13t-8.5 -12q-2 -3 -4.5 -6.5t-4.5 -6.5q-1 -2 -1 -3.5t-1 -3.5t-3.5 -2.5t-3.5 -1.5q-9 -14 -13 -27q-4 -8 -10 -14.5t-9 -15.5q-2 -5 -1 -7.5t-4 -7.5q-5 -4 -11.5 -4.5t-9.5 -6.5q-2 -4 0 -7t-1 -8q-2 -3 -7.5 -5.5
t-8.5 -5.5q-5 -6 -7 -13t-7 -13q-5 -7 -10 -12.5t-9 -13.5q-4 -6 -7.5 -13t-8.5 -13q-3 -3 -7 -5t-6 -7q-2 -2 -3 -6.5t-3 -8.5q-3 -6 -7 -14.5t-8 -13.5q-3 -4 -7 -5.5t-6 -5.5q-2 -3 -2 -6.5t-2 -6.5q-4 -6 -10 -11.5t-10 -11.5q-4 -7 -7.5 -13t-7.5 -12q-10 7 -20 12.5
t-21 13.5q-13 10 -17.5 16t5.5 23q7 11 16 22t17 24q1 2 0.5 3.5t1.5 3.5q1 2 2.5 2.5t3.5 2.5t2 5.5t2 6.5q3 5 9 10t10 11q8 12 16 23.5t16 24.5q2 4 3.5 8t3.5 8q2 3 6 5t6 6q1 2 0 5t0 5q2 2 3.5 2.5t2.5 2.5q2 3 4.5 5.5t4.5 6.5q8 13 17 26t18 25q11 14 19.5 29.5
t18.5 30.5q10 16 19.5 30t20.5 29q10 14 19 28t17 29q9 15 22 28.5t21 28.5q2 4 3 8t4 8q3 2 6.5 4t5.5 5q2 2 0.5 3.5t-0.5 3.5q2 2 3.5 3t2.5 3q4 8 7 12q4 6 8 12.5t8 11.5q3 3 8.5 10t8.5 9l8 9q-1 2 -1 7q9 1 18.5 -5t15.5 -11q7 -5 18 -11t13 -14z" />
    <glyph glyph-name="zero" unicode="0" horiz-adv-x="422" 
d="M325 39q-2 -7 -7 -12q-3 -4 -5 -6q-4 -5 -7.5 -8t-8.5 -5l-53 -10q-17 -3 -36.5 0t-38.5 5q-8 0 -17 0.5t-16 1.5q-10 1 -16.5 4.5t-15.5 5.5q-2 8 -9.5 13t-11.5 12t-7 16t-6 17q-6 17 -13 35t-12 36q-5 17 -9.5 37.5t-8.5 39.5q-5 20 -6 39.5t-3 40.5q-2 42 8 79t23 76
q8 25 19.5 52t30.5 47q3 16 29 21q3 2 6 2.5t6 2.5q11 3 23.5 4t25.5 1q20 0 39.5 -1.5t37.5 -2.5q14 -1 31 -1t28 -4q11 -5 12 -12t-4 -15q8 -13 18.5 -27.5t15.5 -28.5q7 -20 6.5 -39.5t4.5 -39.5q5 -19 13.5 -36t10.5 -37t4 -39t0 -39q-4 -21 -6.5 -40.5t-8.5 -40.5
q-4 -19 -15 -39q-5 -11 -7 -21t-6 -19q-5 -9 -9.5 -17.5t-9.5 -16.5q-3 -5 -4 -8t-6 -9q-3 -4 -6.5 -7t-2.5 -7zM155 392q-5 -20 -6 -39t-2 -40q-1 -38 4 -76t19 -73l10 -26t11 -26q4 -4 6 -5q0 -9 4.5 -11.5t10.5 -0.5q2 3 3.5 6t3.5 5q12 17 22 33t15 34q3 9 9 20t7 20
q1 5 -0.5 10t-1.5 10q-1 5 -0.5 10t1.5 10q1 8 1 17v17v23t-1 24q-1 20 -8 37t-11 34l-4 7q-7 14 -9.5 30.5t-10.5 30.5q-5 5 -13 9q-13 4 -21 -1l-9 -15q-5 -8 -11 -17.5t-9 -17.5q-1 -3 1.5 -5.5t1.5 -4.5t-3.5 -4.5t-2.5 -4.5q-2 -5 -3.5 -10t-3.5 -10z" />
    <glyph glyph-name="one" unicode="1" horiz-adv-x="275" 
d="M313 28q2 -14 -3.5 -13t-13.5 0q-9 -1 -19 -4.5t-19 -4.5q-4 0 -9 2.5t-10 3.5q-5 0 -10 -1t-10 -1q-9 -1 -17.5 -1t-16.5 -1q-20 -1 -39.5 -0.5t-41.5 2.5q-10 0 -19 3t-20 2q-5 0 -11 -3.5t-11 -3.5t-10 2.5t-10 3.5q-2 7 2.5 11.5t12 6.5t15 3t11.5 2q13 4 22.5 12
t11.5 22q2 11 2.5 22.5t0.5 22.5v44v15.5t1 15.5q2 23 4.5 43.5t-0.5 43.5q-2 23 -3.5 45.5t-3.5 45.5q-2 21 -3.5 40t-22.5 32q-8 5 -14.5 8t-17.5 3q-8 0 -20.5 -3.5t-18.5 1.5q8 24 28 35.5t41 23.5q23 14 46 26.5t46 26.5q6 3 16 9t19 9.5t16 2t9 -13.5q2 -9 0.5 -20
t-2.5 -21q-1 -12 1 -22t3 -23q0 -11 0.5 -20.5t2.5 -21.5t-2 -23.5t-5 -22.5q0 -11 0.5 -22.5t-0.5 -22.5q-1 -10 0 -24t5 -22v-19q0 -23 -0.5 -49t-0.5 -52v-26.5t1 -25.5q2 -18 7.5 -40.5t19.5 -33.5t30.5 -15t29.5 -15z" />
    <glyph glyph-name="two" unicode="2" horiz-adv-x="381" 
d="M358 74q4 -10 9 -24t3 -25q-4 -13 -20 -14.5t-27 -2.5q-13 0 -26 2l-26 4q-8 1 -13.5 -1t-12.5 -3q-4 0 -7 0.5t-7 -0.5h-6.5t-6.5 -1q-14 -2 -26.5 -1.5t-25.5 0.5q-3 0 -6.5 -1.5t-6.5 -1.5q-4 1 -6 3t-6 2q-4 -1 -8 -3t-8 -2q-3 -1 -6.5 -0.5t-5.5 0.5
q-14 1 -26.5 1.5t-25.5 -0.5h-14t-13 2t-12 0t-11 0q-12 -7 -23 -1q0 6 4 10q-2 5 2 12.5t8 11.5q9 10 18.5 18t17.5 19q8 13 15 26t18 24q9 9 17 21.5t14 24.5q1 3 1 6t2 6t3.5 5t2.5 4q2 3 1 6.5t1 7.5q1 4 3.5 7t3.5 7q2 4 2.5 7t2.5 6q2 5 6.5 7.5t7.5 6.5q4 5 8 12.5
t7 13.5q4 6 5.5 12.5t5.5 13.5t5 12.5t6 12.5q14 23 23 49q2 6 3 11.5t4 11.5q2 6 3.5 12t6.5 11l4 7q5 16 12 32t5 32q0 9 -2 18t-6 16.5t-11 12.5t-17 5q-12 0 -26.5 -2t-26.5 -6.5t-20 -11.5t-8 -17q0 -8 -7 -21t-12 -18q-19 -17 -27.5 -29t-18.5 -13q-16 -1 -20.5 10
t-11.5 30q-4 11 -9 24t-2 24t8 22.5t13 19.5q10 8 22 14.5t25 11.5q8 4 19 7.5t22 5.5q7 1 18 3.5t23 4.5t22.5 3.5t16.5 0.5q4 0 7.5 -0.5t7.5 -0.5q5 1 18 -1q12 -1 23.5 -2.5t22.5 -6.5q6 0 9 -1q7 -2 11 -5.5t10 -5.5q3 -2 5.5 -1t5.5 -1l4 -4t4 -5q4 -4 9.5 -8t7.5 -8
q2 -2 4 -11.5t2 -12.5q0 -4 -0.5 -7t0.5 -6q0 -3 1.5 -5.5t1.5 -5.5q2 -6 0 -12t-1 -12q1 -7 0.5 -13t-0.5 -13q0 -27 -9 -51q-2 -6 -4.5 -12t-5.5 -11q-4 -7 -5 -12t-3 -11q-5 -14 -10.5 -26.5t-12.5 -25.5q-6 -12 -11 -25.5t-10 -24.5q-6 -12 -14 -22t-14 -21
q-4 -6 -8 -11t-6 -12q-3 -7 -8 -12t-9 -12q-2 -6 -4.5 -12.5t-5.5 -11.5q-2 -4 -3 -7l-2 -6q-2 -4 -4.5 -7t-4.5 -7q-1 -3 -3 -9.5t-3.5 -13t-1.5 -12t3 -6.5q-2 -4 0 -6q5 -2 10 -1t10 1q13 -1 25.5 -2t26.5 1q2 0 6 1.5t8 3.5q5 7 10.5 12.5t10.5 13.5q3 4 6.5 9.5t7.5 9
t9 4.5t10 -5q9 -11 13 -22.5t10 -24.5z" />
    <glyph glyph-name="three" unicode="3" horiz-adv-x="396" 
d="M385 234q2 -20 -1.5 -37.5t-8.5 -36.5q-5 -18 -14.5 -33.5t-16.5 -30.5q-9 -20 -22.5 -31t-28.5 -26q-22 -23 -46 -28.5t-50 -5.5q-11 0 -21.5 0.5t-21.5 -0.5q-18 -1 -35 2l-34 6q-14 3 -23 7q-20 2 -38 4t-19 13q9 4 15.5 22t14 37t16.5 32t23 8q7 -2 9 -11t5 -14
q4 -7 8 -12t10 -12q2 -2 5 -5.5t6 -7.5h18t18 -1q3 0 5 0.5t4 0.5q16 2 31 6t27 18q11 14 19 35q1 7 1.5 13.5t1.5 11.5q3 21 3 41q0 8 -0.5 16t-0.5 17q-1 10 -3.5 19t-4.5 18q-2 8 -2.5 16t-2.5 16q-2 9 -7 16t-10 15q-8 10 -13 11.5t-16 5.5q-10 3 -13 8.5t-10 10.5
t-18 4t-16 5q-9 11 -5 19t13.5 13.5t21 9t16.5 5.5q14 5 30.5 17.5t24.5 25.5q-2 5 -1 10l2 10t1.5 10t-2.5 10t-10 14.5t-12 12.5t-9.5 3h-9.5q-2 1 -3.5 2t-3.5 2q-4 0 -6.5 -2.5t-4.5 -2.5q-6 0 -9.5 2t-11.5 1q-5 -1 -8.5 -1.5t-8.5 -3.5q-5 6 -14 6l-6 -2t-5 -2
q-6 -3 -14 -8.5t-13 -11.5t-8.5 -15.5t-11.5 -13.5q-7 -3 -13 2t-11 12.5t-8.5 16t-5.5 13.5q-2 7 -8 18t-7 17q-1 13 7 13.5t17 2.5q5 1 9.5 1.5t9.5 1.5q7 2 13.5 3.5t13.5 -1.5h9l8 3q11 4 23 5t24 1h30q9 0 18.5 0.5t18.5 0.5q22 0 42 -4q13 -3 31.5 -5.5t36 -8t31 -16
t16.5 -29.5t-2 -36t-14.5 -32t-22 -27.5t-24.5 -23.5q-9 -8 -10 -14t3.5 -11.5t12 -10.5t13.5 -11q13 -11 22.5 -27.5t16.5 -31.5q9 -20 16 -37t9 -38z" />
    <glyph glyph-name="four" unicode="4" horiz-adv-x="411" 
d="M412 33q-1 -5 -0.5 -8.5t1.5 -7.5q-8 -8 -28 -8q-11 0 -22 1.5t-18 -0.5q-19 -3 -35.5 -1.5t-36.5 1.5q-11 1 -19.5 0t-18.5 0q-5 1 -7 1.5t-7 0.5t-9.5 -1.5t-8.5 -1.5q-18 0 -35 2t-34 1h-8.5t-8.5 1t-6 4t0 10q2 10 12.5 11t17.5 2q11 2 17.5 0.5t15.5 4.5
q8 5 13.5 11t7.5 14q2 5 0.5 9t-0.5 9q1 6 3 10t4 10q2 10 2 18q-11 2 -22.5 2t-22.5 1q-11 0 -21 2t-21 5q-8 2 -12.5 2h-12.5q-6 -1 -11 -1t-10 5q-7 -3 -15.5 0t-14.5 3q-17 2 -32 0q-5 0 -12 -1t-14.5 -1t-14 1.5t-9.5 6.5q5 14 14 27.5t18.5 27t17.5 28t13 30.5
q4 14 10 31t15 28q5 6 11 11.5t9 13.5t4 16.5t4 16.5q8 15 17 27.5t14 27.5q1 4 3 11.5t5 15.5t7 14.5t8 7.5q0 6 3.5 10t7.5 7.5t7 8t2 11.5h2q-1 3 1 9t4.5 12t5 11.5t4.5 8.5q5 9 11.5 18t19.5 8q2 0 4 -2t4 -2q5 0 7.5 2t6.5 3q6 1 12 0.5t12 0.5q11 1 22.5 -0.5
t22.5 0.5q1 3 2.5 3.5t3.5 2.5l9 3q8 -6 10 -12t0.5 -11.5t-6.5 -11t-10 -11.5q-12 -13 -17.5 -26.5t-12.5 -29.5q-6 -15 -14.5 -29t-14.5 -29q-7 -17 -14 -32.5t-15 -32.5q5 0 10 -1t9 0q10 1 16 4.5t14 8.5q11 8 22.5 22.5t16.5 28.5l6 21q5 0 9 -6t7 -14q-2 -14 -0.5 -31
t1.5 -31q-1 -9 -0.5 -17.5t2.5 -18.5q1 -4 2 -9t1 -9q1 -2 -1 -3.5t-2 -3.5q1 -2 2.5 -4t1.5 -4q0 -19 -2.5 -37.5t-1.5 -37.5q1 -6 0 -12t-1 -12q10 0 19.5 0.5t20.5 2.5q0 -2 1 -3.5t2 -3.5q4 3 9 3q7 -4 13 -8q7 -6 8.5 -13.5t-0.5 -15.5t-7 -14.5t-11 -10.5q-3 -3 -7 -3
q-4 -1 -7.5 -2t-6.5 -2l-14 -2l-14 -2q1 -8 0 -12t-2 -12t2 -22.5t8 -20.5q0 -2 6 -7t7 -6q5 -4 9 -4.5t12 -2.5q9 -3 21 -8.5t22 -6.5zM195 197q0 3 -0.5 6.5t0.5 6.5q0 7 2 17.5t6 16.5q-10 7 -6.5 13.5t3.5 16.5q-1 8 -5 13t-4 13q-8 3 -18 -7q-2 -2 -3.5 -5.5t-3.5 -8.5
q-1 -5 -1 -9t-1 -8q-2 -6 -4.5 -11t-4.5 -10q-3 -8 -9.5 -18t-5.5 -18q10 -5 17.5 -6t18.5 -2q3 0 8.5 0.5t10.5 -0.5z" />
    <glyph glyph-name="five" unicode="5" horiz-adv-x="410" 
d="M393 188q0 -10 0.5 -16.5t-4.5 -15.5q-5 -8 -6 -16t-6 -16q-5 -10 -13 -17t-14 -16q-5 -7 -9.5 -15.5t-10.5 -14.5q-3 -3 -7.5 -4.5t-7.5 -4.5t-4 -6t-3 -6q-12 -15 -32.5 -21t-37.5 -9q-8 -2 -15.5 -1.5t-16.5 -1.5q-9 -1 -16 2t-16 1q-6 -1 -11 -4t-12 -2q-5 0 -9 2
t-9 3q-11 2 -20 1.5t-19 1.5q-12 3 -25 5.5t-25 7.5q-10 4 -19 11t-19 11q-1 8 5 18t10 17q5 9 9 18.5t10 17.5q5 5 11.5 12t11.5 12q1 2 6.5 6t6.5 4q7 1 8.5 -2.5t6.5 -7.5q-2 -5 0 -11.5t5.5 -14t6.5 -14.5t5 -12q5 -14 16 -19t25 -7q8 -1 14.5 0.5t14.5 3.5q6 2 14 2.5
t14 2.5q11 5 20 16t14 20q7 13 10.5 25.5t6.5 26.5q2 8 4.5 14.5t1.5 14.5q-2 7 -3.5 14t-3.5 14q-3 15 -5 30t-5 29.5t-9 27.5t-17 23q-9 8 -20 17.5t-22 15.5q-8 4 -15.5 5t-15.5 1h-29q-15 1 -30 1.5t-29 1.5q-8 0 -14.5 -1t-11.5 -0.5t-8 5t-2 15.5q0 11 5 16v4
q-2 8 -3.5 11t-0.5 11q2 7 0.5 13.5t-0.5 13.5q1 4 2.5 6t2.5 5q0 4 -1 6.5t-1 6.5q-2 6 -0.5 11.5t1.5 11.5q-1 4 -2.5 7t-2.5 6q0 4 1 7t1 6q0 5 -1.5 12.5t-5.5 11.5q2 5 5 11.5t8 9.5q5 4 14 4.5t15 2.5q8 2 16 1.5t16 -0.5t18.5 2t18.5 0q4 0 6.5 -2t7.5 -3
q4 0 7.5 1.5t8.5 1.5h31q15 0 30 -1t29 0q16 1 30.5 -1t30.5 -4q6 -1 12.5 -0.5t12.5 -2.5q11 -4 9 -7.5t-4 -11.5q-5 -14 -11.5 -25t-15.5 -24q-3 -5 -6 -11.5t-7 -11.5t-9 -7.5t-12 1.5q-12 7 -17.5 17t-18.5 17q-2 14 -11 19t-21 5t-24.5 -2.5t-22.5 -3.5h-13.5t-7.5 -7
q-3 -5 -1.5 -13.5t1.5 -13.5q0 -14 1 -27.5t2 -28.5q1 -2 -1 -3t-1 -3q0 -2 2 -3.5t3 -3.5q0 -4 -1 -7.5t0 -7.5v-2q13 -1 27.5 1t28.5 1q8 -1 14.5 -1h15.5q8 -1 13.5 -3.5t13.5 -3.5q10 -1 15 -3t14 -6q4 -2 7.5 -2t7.5 -2q2 -2 3 -6t4 -7q2 -2 6 -3t7 -4q3 -4 5 -8t5 -7
q5 -7 11 -12t11 -11q11 -13 17.5 -26.5t12.5 -28.5q3 -7 3.5 -13.5t1.5 -14.5t3.5 -14.5t2.5 -14.5q1 -8 -1.5 -16.5t-3.5 -16.5z" />
    <glyph glyph-name="six" unicode="6" horiz-adv-x="425" 
d="M386 360q13 -26 17 -55t4 -58q0 -9 -0.5 -17.5t-0.5 -17.5t-1 -18.5t-2 -21.5q0 -21 -3 -39q-4 -20 -12 -33t-17 -30q-8 -13 -16 -33.5t-22 -28.5t-35 -4.5t-36 4.5q-20 2 -40 -2t-42 -4q-23 0 -47.5 6.5t-34.5 17.5q-23 13 -39.5 39t-26.5 57t-14 63t-1 58q2 14 7.5 38
t15.5 50q11 37 30 69t42 63q13 17 26 31t25 32q5 7 10 16.5t10.5 18.5t12.5 16t16 10q0 2 4 6.5t5 6.5q10 4 12.5 6.5t13.5 6.5q19 -6 26 -12.5t7 -13.5q0 -12 -15 -27t-26 -34q-13 -22 -25 -48t-17 -53q9 -1 16.5 -1t12.5 3l11 4q14 -5 29.5 -3.5t32.5 1.5t30 -5
q15 -7 32 -27.5t25 -36.5zM283 214q2 20 -3 38.5t-14.5 35t-21.5 31.5t-23 27l-16 3q-29 -18 -40 -49t-11 -66q0 -32 5.5 -62.5t11.5 -55.5q13 -10 26.5 -20.5t27.5 -19.5q17 11 27.5 28t16.5 35.5t9 38t5 36.5z" />
    <glyph glyph-name="seven" unicode="7" horiz-adv-x="347" 
d="M96 7q-7 0 -14 0.5t-14 0.5q-6 0 -13 1.5t-13 0.5q-3 11 3 15t13 8q5 -2 11.5 0.5t13.5 0.5q5 5 10 6t10 7t7.5 13.5t4.5 15.5q3 10 6.5 18t5.5 19q3 16 5.5 34.5t6.5 35.5q8 33 13.5 70t13.5 72q8 38 19.5 73.5t17.5 73.5q1 6 4 15t4.5 18t0.5 17t-7 13q-5 4 -14.5 2.5
t-16.5 -0.5q-16 2 -31 0q-14 -1 -30 -2t-24 -15q-4 -7 -6.5 -13t-7.5 -13q-1 -2 -3.5 -6t-5.5 -8.5t-6 -8.5t-4 -4q-5 -2 -10.5 3t-10 13t-8.5 16t-5 11q-4 8 -8 15t-8 13q-4 7 -7.5 14t-8.5 12q0 2 0.5 6t1.5 6q16 5 34.5 7t37.5 2h16t16 -1q16 -2 32 -1.5t33 -0.5
q16 -1 32.5 1.5t33.5 1.5q16 -1 31 -1.5t30 -1.5q8 0 16.5 2t17.5 3q21 0 28.5 -1.5t7.5 -7t-4.5 -14.5t-8.5 -24q-4 -12 -4 -26t-3 -26q-4 -14 -8 -27.5t-7 -28.5q-2 -11 -3 -26.5t-3 -28.5q-3 -20 -8.5 -39.5t-8.5 -39.5q-2 -9 -3 -20t-4 -20q-3 -11 -8.5 -19t-7.5 -20
q-2 -19 -7 -36t-8 -36q-1 -10 -4 -18t-5 -18q-1 -6 -1.5 -18t-5.5 -18q2 -7 -2.5 -14.5t-2.5 -13.5q2 -5 8.5 -6.5t10.5 -2.5t12.5 -3t16 -5t11.5 -7.5t-1 -11.5t-13.5 -6t-16.5 0q-7 -1 -15.5 -2.5t-16.5 -0.5q-20 3 -41 3q-8 0 -15 -0.5t-15 -1.5q-5 0 -14 -0.5t-20 -0.5
t-21.5 1t-14.5 4z" />
    <glyph glyph-name="eight" unicode="8" horiz-adv-x="429" 
d="M415 241q0 -8 0.5 -15t0.5 -15q-1 -7 -0.5 -16.5t-1.5 -14.5t-4 -8t-3 -8q-1 -4 0.5 -7.5t0.5 -7.5q-1 -5 -3 -8.5t-3 -8.5q-1 -4 0 -7t0 -6q-2 -7 -5.5 -14l-6.5 -13q-3 -7 -8.5 -13t-10.5 -14t-8.5 -13t-10.5 -11q2 -6 -9 -12.5t-16 -10.5q-7 -8 -10.5 -10.5
t-12.5 -4.5q-10 -2 -17.5 -1t-17.5 1q-11 1 -21 -1t-21 -2q-17 2 -32.5 3.5t-31.5 -0.5q-11 -2 -16.5 -2.5t-13.5 0.5q-10 1 -15 2t-13 4q-5 2 -8 1.5t-7 4.5q-3 3 -3.5 7t-2.5 6q-2 3 -5.5 3t-7.5 5q-2 3 -3 7t-4 7q-3 5 -8.5 9.5t-7.5 10.5q-3 8 -5.5 15.5t-5.5 15.5
q-1 2 0.5 4.5t0.5 4.5t-2.5 3t-2.5 3q-2 4 -3 8t-3 8q-4 8 -7 15.5t-5 15.5q-3 18 0.5 35.5t5.5 35.5q1 6 0.5 10t1.5 10q5 11 6 18q1 6 0.5 9.5t2.5 9.5q2 5 4.5 8.5t4.5 7.5q1 4 1 7.5t2 8.5t4.5 8.5t4.5 8.5q4 7 6.5 15t7.5 13q8 10 16 15q-8 9 -11 19.5t-7 21.5
q-2 7 -4.5 13t-4.5 14q-3 9 -3 16q-1 4 -0.5 7.5t0.5 7.5q-1 7 -1.5 14.5t-0.5 15.5t1 14.5t6 13.5q7 11 19 22t24 12q1 6 6.5 8.5t11.5 4t12.5 2t10.5 0.5q12 1 23.5 0.5t24.5 -0.5q11 0 23 2.5t24 2.5q11 0 24.5 0.5t25.5 -3.5l12 -1q13 -1 23 -3q8 -2 15 -5t5 -9
q5 -1 6.5 -4t3.5 -6q2 -2 5 -4.5t5 -4.5q1 -2 0 -6t-1 -7q1 -2 3 -5.5t4 -6.5q2 -6 3 -14.5t2 -16.5q1 -7 2.5 -14.5t1.5 -14.5q0 -2 -2 -3.5t-3 -3.5q0 -2 1.5 -3.5t1.5 -3.5q-1 -2 -2 -4.5t-2 -5.5q-2 -8 -3.5 -13.5t-5.5 -11.5q-5 -8 -9.5 -15t-9.5 -15q10 -8 17 -18.5
t12 -21.5q3 -6 5 -11t7 -10q4 -5 6 -9t5 -9q2 -5 4.5 -10t4.5 -10q2 -4 4 -9t3 -10q1 -2 0.5 -6.5t-0.5 -8.5t1.5 -7.5t2.5 -6.5zM181 521q-2 -3 -3.5 -9t-2.5 -12.5t-0.5 -12.5t2.5 -7q-2 -6 0.5 -13.5t3.5 -12.5q2 -8 5.5 -13t5.5 -13q8 -2 10 -9t8 -9q7 -3 11.5 0t9.5 8
q20 18 23 40q4 21 1 44q-3 12 -11 20q-2 2 -3.5 4t-3.5 4t-5.5 2.5t-4.5 2.5l-6 1q-8 5 -21.5 -1.5t-18.5 -13.5zM290 178q2 5 3.5 15t-3.5 14q3 4 3.5 14.5t-1.5 21.5t-5.5 20.5t-7.5 11.5q4 6 -2 19t-12 17q1 4 -5 11t-11 7q-2 3 -9 6t-12 3l-5 -1q-5 4 -14 0t-18 -11.5
t-16 -16.5t-7 -14q-9 -11 -12.5 -24t-5 -26.5t-1.5 -27.5t-2 -26q-2 -14 -3 -26.5t7 -26.5l14 -22t19 -19q1 -4 5 -11.5t6 -6.5q5 -7 11 -13t15 -5q5 0 15 6t8 12q4 1 10 7q-2 5 6 14.5t11 14.5q3 6 5.5 14t5.5 15q2 7 4 16.5t4 17.5z" />
    <glyph glyph-name="nine" unicode="9" horiz-adv-x="427" 
d="M40 233q-14 28 -17.5 57.5t-3.5 60.5v31q1 8 2 17.5t1 21.5q1 11 1.5 20.5t2.5 18.5q4 20 11.5 33t17.5 30q8 13 15.5 33.5t21.5 28.5t35.5 4.5t36.5 -4.5q20 -1 40 2.5t42 3.5q23 0 41.5 -6t39.5 -8q1 -2 0 -4.5t1 -5.5q23 -13 39.5 -38.5t26.5 -56.5t14 -63.5t1 -58.5
q-2 -14 -7.5 -38t-16.5 -50q-11 -37 -29.5 -69t-41.5 -63q-13 -17 -26.5 -31t-24.5 -31q-5 -8 -10 -17.5t-10.5 -18.5t-12.5 -16t-16 -10q-1 -2 -3.5 -5.5t-3.5 -5.5q-11 -5 -14.5 -8t-14.5 -7q-18 6 -25.5 12t-7.5 14q0 13 15 27.5t26 33.5q14 22 25.5 48t17.5 53
q-9 1 -16.5 1t-12.5 -3l-11 -4q-14 5 -29.5 3.5t-32.5 -1.5q-8 0 -15.5 1t-14.5 4q-16 8 -32.5 28.5t-24.5 35.5zM143 379q-2 -20 3 -38t14 -35t21 -31.5t24 -26.5l15 -4q29 18 40 49t11 66q0 32 -5.5 62.5t-11.5 55.5q-12 10 -25.5 20.5t-27.5 19.5q-17 -11 -27.5 -28
t-16.5 -35.5t-9 -38t-5 -36.5z" />
    <glyph glyph-name="colon" unicode=":" horiz-adv-x="217" 
d="M187 78q2 -6 -1.5 -9t-6.5 -7t-5 -8.5t-5 -9.5q-3 -4 -7 -6t-9 -6l-15 -15t-8 -18q-5 -2 -8.5 -4t-8.5 -1q-3 4 -7 8l-8 8l-4.5 4.5t-6.5 4.5t-6 2.5t-5 3.5q-5 5 -9 11t-9 8t-7 3t-5 6q-2 3 -2 6t-2 6q-2 7 -4.5 9t1.5 8q5 5 10 13q7 10 17 16.5t19 13.5q2 2 7 6t7 7
q3 4 4.5 8t8.5 2q10 -2 15 -11.5t13 -14.5l8 -8q-2 -1 4 -4.5t8 -5.5t3 -3.5t3 -3.5t5.5 -2.5t5.5 -2.5t2 -4.5t2 -4.5t3.5 -2.5t2.5 -2.5zM149 304q5 -8 11.5 -12t13.5 -11q2 -3 6.5 -7.5t4.5 -9.5q0 -3 -4 -7.5t-7 -6.5q0 -3 -7.5 -11.5t-10.5 -11.5q-5 -5 -12 -10
t-12 -11q-2 -3 -3 -5.5t-4 -4.5q-2 -1 -4.5 -2t-4.5 -2q-7 -2 -17 3l-12 12q-3 3 -6.5 5.5t-6.5 5.5l-12 14t-13 12q-5 3 -7.5 7.5t-5.5 9.5q-1 2 -2.5 4.5t-1.5 4.5q1 2 2.5 3.5t1.5 3.5q6 5 12 11t12 11v1q2 2 5.5 4t2.5 5q6 5 11 9.5t10 9.5q5 4 9 9.5t12 3.5q5 -1 9 -6
t7 -8q2 -2 5 -4.5t5 -4.5q2 -3 2 -5.5t5 -4.5z" />
    <glyph glyph-name="semicolon" unicode=";" horiz-adv-x="223" 
d="M149 304q5 -8 11.5 -12t13.5 -11q2 -3 6.5 -7.5t4.5 -9.5q0 -3 -4 -7.5t-7 -6.5q0 -3 -7.5 -11.5t-10.5 -11.5q-5 -5 -12 -10t-12 -11q-2 -3 -3 -5.5t-4 -4.5q-2 -1 -4.5 -2t-4.5 -2q-7 -2 -17 3l-12 12q-3 3 -6.5 5.5t-6.5 5.5l-12 14t-13 12q-5 3 -7.5 7.5t-5.5 9.5
q-1 2 -2.5 4.5t-1.5 4.5q1 2 2.5 3.5t1.5 3.5q6 5 12 11t12 11v1q2 2 5.5 4t2.5 5q6 5 11 9.5t10 9.5q5 4 9 9.5t12 3.5q5 -1 9 -6t7 -8q2 -2 5 -4.5t5 -4.5q2 -3 2 -5.5t5 -4.5zM165 159q13 -1 17 -7t3 -14.5t-4 -18t-5 -17.5q-14 -68 -46 -137q-2 -3 -4.5 -9.5t-6.5 -11.5
t-8.5 -7.5t-9.5 2.5q-2 2 -4.5 11.5t-3.5 12.5q-2 6 -5 12t-5 11q-1 7 -1.5 12t-2.5 12q-2 6 -3 11t-3 12q-4 13 -7.5 24t-10.5 22q6 6 -0.5 19t-9.5 20q-5 13 -5 19.5t14 13.5q10 10 21 5h16q11 1 20 1.5t19 0.5q8 -1 16.5 1t18.5 0z" />
    <glyph glyph-name="less" unicode="&#x3c;" horiz-adv-x="398" 
d="M351 75q7 -5 12.5 -14t3.5 -17q-3 -7 -12.5 -12.5t-14.5 -12.5q-5 -5 -8.5 -12t-8.5 -14q-9 -2 -15.5 -0.5t-14.5 2.5q-10 22 -19 39t-29 31q0 5 -6.5 14.5t-11.5 13.5q-3 3 -9 3.5t-8 2.5q-4 4 -3 9t-3 8q-2 2 -5.5 0.5t-5.5 -0.5l-7 7q-2 2 -7.5 5.5t-7.5 5.5
q-7 8 -9.5 15t-16.5 5q2 13 -7 15t-16 8q-3 3 -4 7.5t-4 8.5q-3 3 -7 4t-7 4q-12 11 -23 23t-20 26q-5 6 -11.5 12t-11.5 12t-6.5 13t4.5 16q5 7 13 11t13 10q6 7 11 14.5t13 15.5q14 14 24 30t25 30q7 8 15.5 16.5t14.5 16.5q3 5 4.5 9t4.5 9q2 4 6 6t7 7q4 4 4 8.5t3 8.5
q4 5 8.5 6.5t8.5 6.5q3 2 2.5 6t1.5 6t5 3t5 3q3 3 7.5 6t7.5 6l16.5 16.5t22.5 20.5t24.5 16t22.5 3l9 -3q14 2 23 -10t19 -21q-4 -9 -13.5 -20.5t-21 -23t-22 -21.5t-17.5 -17q-9 -10 -18 -14t-17 -15q-5 -6 -16 -16t-13 -18q-4 0 -6 -1q-11 -18 -25.5 -35t-28.5 -32
q-5 -5 -14 -14.5t-15.5 -20t-7.5 -20t11 -13.5q1 -5 12 -15t16 -15q8 -9 15 -18.5t15 -18.5q8 -8 16 -13.5t15 -13.5q6 -8 12 -15.5t13 -13.5q15 -14 28.5 -28t28.5 -27q3 -3 6 -8t5 -7q5 -4 10 -5.5t10 -5.5z" />
    <glyph glyph-name="equal" unicode="=" horiz-adv-x="370" 
d="M277 387q18 6 28.5 3.5t15 -10.5t4.5 -20.5t-3 -26.5q-4 -18 -15.5 -23t-26.5 -5q-10 0 -19.5 1t-19.5 0q-14 -1 -27.5 -0.5t-27.5 0.5q-12 0 -23.5 -0.5t-22.5 -2.5q-6 -1 -22 -4t-32 -3q-17 0 -26.5 6t-1.5 23q-2 2 -4 4.5t-4 4.5q4 5 4.5 11t0.5 12t0.5 12t5.5 10
q1 1 7 1.5t13 1t13.5 0t8.5 -0.5h17q4 2 8.5 3t8.5 3q3 -5 11.5 -5.5t19 1t20.5 3t16 1.5q7 0 17.5 1.5t20.5 3t19.5 0.5t15.5 -5zM198 259q23 0 45.5 2.5t44.5 2.5q18 0 33 -3q2 -21 -1.5 -41t-7.5 -40q-17 3 -32.5 0t-33.5 -5q-9 -1 -18 -1h-19h-20t-19 1q-13 1 -34 -2
t-41 -3t-34.5 5.5t-18.5 21.5q5 4 5 12t-0.5 15.5t0 13t6.5 6.5l14 3q14 4 32 5t32 1q16 1 32.5 3.5t34.5 2.5z" />
    <glyph glyph-name="greater" unicode="&#x3e;" horiz-adv-x="411" 
d="M352 337q4 -6 10.5 -12t12 -12t6.5 -13t-5 -16q-4 -6 -12.5 -10t-13.5 -11t-10.5 -14.5t-12.5 -14.5q-15 -14 -25 -30.5t-24 -30.5q-8 -7 -16.5 -16t-13.5 -17q-4 -5 -5 -9t-4 -8q-2 -4 -6.5 -6.5t-7.5 -6.5q-3 -5 -3.5 -9t-3.5 -9q-4 -5 -8.5 -6.5t-8.5 -5.5
q-2 -3 -1.5 -7t-1.5 -6t-5.5 -3t-5.5 -3q-3 -3 -7 -6l-8 -6q-6 -6 -16 -16.5t-22 -20.5t-24.5 -16t-22.5 -3l-9 4q-15 -2 -24 9.5t-19 20.5q4 9 14 20.5t21 23t22 22t17 17.5q9 9 18.5 13t17.5 15q5 7 16 16.5t12 17.5q2 0 3.5 0.5t3.5 0.5q11 18 25.5 35.5t28.5 32.5
q4 5 13 14.5t16 20t7.5 19.5t-11.5 13q0 6 -11 16t-16 15q-8 9 -15 18.5t-15 17.5t-16 14t-15 14q-6 7 -12 14.5t-13 14.5q-15 14 -29 27.5t-28 27.5q-3 2 -6 7t-5 7q-5 4 -10.5 5.5t-10.5 5.5q-6 5 -12 14.5t-3 16.5t12.5 13t14.5 12q5 5 8.5 12.5t8.5 13.5q8 2 14.5 0.5
t14.5 -2.5q10 -21 19.5 -38t29.5 -31q0 -6 6 -15.5t11 -13.5q4 -2 9.5 -2.5t7.5 -2.5q5 -5 4 -9.5t3 -8.5q2 -2 5.5 0t5.5 0q1 -1 3.5 -4t3.5 -3q2 -2 7 -5t7 -5q7 -8 10 -15.5t17 -5.5q-2 -13 7 -14.5t15 -7.5q4 -4 5 -8.5t4 -7.5q3 -4 7 -5t6 -3q25 -23 44 -50z" />
    <glyph glyph-name="question" unicode="?" horiz-adv-x="417" 
d="M222 135q2 -8 8 -16.5t13 -18t12.5 -19.5t7.5 -20q2 -13 -5.5 -19t-17.5 -11t-18.5 -10.5t-9.5 -17.5q-11 1 -18 -5t-17 -4q-8 2 -14.5 10.5t-4.5 17.5q-5 0 -11 5.5t-11 12.5t-9 14t-5 11q-3 6 -6.5 11.5t2.5 13.5q3 3 6.5 4.5t6.5 2.5t5.5 2.5t3.5 6.5q4 1 13.5 5.5
t18.5 10.5t16 12t8 10q5 1 9.5 1.5t8.5 -0.5zM389 507q1 -3 -0.5 -6l-3 -6t-2 -5.5t1.5 -4.5q-7 -9 -10.5 -18.5t-12.5 -18.5q-4 -3 -8 -5t-7 -6q-1 -2 -0.5 -5t-0.5 -5q-2 -2 -3.5 -4t-3.5 -4q-13 -17 -30.5 -26t-38.5 -13q-2 -2 -4.5 -4t-2.5 -4q-5 -3 -6.5 -10
t-1.5 -14.5v-15v-11.5q0 -11 -1 -25t-7 -24q-8 -11 -18 -22.5t-15 -24.5q-2 -5 -4 -12.5t-5.5 -13.5t-8 -8t-9.5 4q-9 10 -14.5 20t-11.5 21q-6 12 -14 25.5t-14 24.5q-5 8 -3.5 12.5t2.5 11.5q0 3 -1.5 5.5t-0.5 5.5q1 4 2 7.5t2 6.5q2 14 -0.5 28.5t0.5 26.5q1 6 7 9.5
t12.5 6t13.5 4t11 3.5q1 0 1.5 -1.5t2.5 -0.5t2.5 2.5t2.5 1.5q2 1 4 3t4 3q5 4 10.5 5t10.5 4q5 2 9.5 5.5t9.5 5.5t11 6t9 9q2 2 4 8t3.5 12t1 12t-3.5 8q-3 14 -7 21.5t-17 14.5q-4 2 -10.5 5.5t-10.5 4.5q-6 1 -11.5 -3t-10.5 3q-12 0 -18 -5q-2 2 -13.5 2.5t-16.5 -0.5
q-6 0 -14 -4.5t-13 -9.5q0 -1 0.5 -1t0.5 -1q-7 -8 -12 -16t-13 -16q2 -10 -5.5 -9.5t-11.5 3.5q-7 5 -11 11.5t-8 13.5q-3 3 -5 7q0 2 0.5 4t-0.5 3q-2 3 -4.5 5.5t-4.5 5.5q-4 5 -4.5 12.5t-6.5 11.5q7 5 0 10q0 7 5.5 10t13 3.5t15.5 0.5h13q12 1 26 4.5t26 2.5l15 6
q4 -2 6 0t7 2q4 1 7 0t7 -1q8 1 16 3.5t16 2.5q5 0 12 -2t14 -3h14t14 -1q4 0 7 1t6 0q2 0 2.5 -2t3.5 -3q2 0 3.5 1t3.5 1q8 -2 14 -5t13 -5q13 -4 28.5 -4t25.5 -12q1 -2 2 -3.5t2 -3.5l3 -3t3 -4q3 -5 2 -8.5t1 -8.5q1 -2 4 -6t5 -8.5t3 -9t-3 -7.5z" />
    <glyph glyph-name="at" unicode="@" horiz-adv-x="765" 
d="M731 265q-2 -14 1 -32t-2 -33q-5 -17 -13.5 -30t-16.5 -29q-8 -14 -12.5 -24t-16.5 -23q-9 -11 -17.5 -20.5t-16.5 -19.5q-25 -12 -50.5 -20.5t-57.5 -2.5q-21 4 -40 17q-3 0 -9 3t-8 7t-4 11t-2.5 12t-5.5 11q-4 6 -5 10.5t-3 11.5q-2 6 -5.5 11t-5.5 11q-1 2 -1 8
q-2 4 -3 5q-2 3 -4.5 9.5t-4.5 8.5q-5 4 -10.5 2t-10.5 -6q-3 -8 -7.5 -15.5t-9.5 -14.5q-3 -5 -8 -12t-8 -14q-5 -4 -10 -6.5t-10 -4.5l-88 10q-5 2 -11 12q-16 29 -23.5 59t-3.5 66q1 5 1 10.5t1 10.5q1 17 3 33l4 32q1 2 2 3.5t2 3.5q2 5 2.5 9t2.5 9q2 3 3.5 5t2.5 4
q2 2 1.5 4t1.5 4q3 5 8 9t9 9q5 5 8 10t9 9q3 2 7 3t6 4q2 2 2 4q9 6 17.5 13t15.5 13l2 2q2 3 5 5.5t5 4.5q7 5 13 10l12 10q4 2 6.5 5t6.5 5t7 1.5t6 0.5l5 3q6 4 9 5q4 3 7.5 6.5t6.5 5.5q6 4 11.5 3.5t10.5 1.5q3 2 6.5 4.5t7.5 4.5q8 8 16 11l1 1q-17 1 -35.5 -1.5
t-34.5 -4.5l-13 3q-9 4 -23 3t-29.5 -4t-31 -7t-25.5 -5q-27 -4 -53 -13.5t-43 -37.5q-17 -29 -24 -64t-7 -71q0 -28 3 -55t7 -51q3 -20 10 -48.5t17 -45.5q5 -11 14 -18t15 -17q6 -8 12.5 -16t13.5 -16q23 -4 42 -4t40 -2q17 -1 38 -3t41 -3q1 -11 -6.5 -21.5t-16.5 -15.5
q-5 -3 -20 -5.5t-31 -4.5q-8 1 -16 1.5t-16 -0.5q-17 -1 -33 -1.5t-31 -0.5q-14 0 -27.5 1t-28.5 3q-17 2 -28.5 4.5t-24.5 14.5q-6 6 -17.5 19t-16.5 21q-9 14 -11.5 29t-7.5 28q-2 6 -7.5 11.5t-10 12t-7 13.5t0.5 15q-6 4 -8.5 10.5t-3.5 14t-1.5 14.5t-2.5 13
q-5 15 -7 29.5t-4 29.5q-1 5 -1 13v16q0 26 4 55t16 42q-4 10 1 18t13 13q-3 6 0.5 16t10 20.5t14 19t12.5 11.5q-2 2 -2.5 5t-2.5 5q29 22 56 38.5t60 12.5q5 4 10.5 4.5l11 1t11.5 1t12 4.5q1 -2 10 -3t20.5 -2t22 -1t15.5 1q8 2 14 4.5t14 4.5q4 1 12.5 -0.5t14.5 -0.5
q17 2 33.5 3t33.5 3q7 0 16 -1t18 -2.5t17 -2t14 2.5h14q41 -3 77.5 -18t64.5 -47q11 -14 18 -31t15 -33q9 -21 16.5 -37t9.5 -36q2 -21 3.5 -41.5t1.5 -40.5q0 -11 -0.5 -21.5t-1.5 -20.5zM429 279q1 12 1.5 24t0.5 25v15.5t-1 15.5t-2.5 15t-3.5 14q-1 6 -0.5 14.5
t-4.5 12.5q0 3 -0.5 4.5t-2.5 3.5q-4 -2 -7 -2.5t-8 -2.5q-1 -5 -7 -11.5t-9 -10.5q-4 -6 -7.5 -11.5t-7.5 -11.5q-2 -3 -6 -8.5t-7.5 -12.5t-5.5 -13.5t0 -10.5q-5 -5 -5.5 -15.5t-2.5 -17.5q-3 -18 -2 -33q1 -7 1.5 -14.5t5.5 -15.5q3 -5 7.5 -11.5t9.5 -9.5q4 2 7.5 1.5
t6.5 0.5l6 3q1 1 5 3.5t8.5 5t8.5 5t4 4.5q8 11 11 21.5t7 23.5zM605 295q3 18 1 32t-6 32q-1 5 -2 14.5t-3 19t-4.5 17.5t-6.5 11q-2 11 -5 23.5t-12 18.5q0 9 -10 24q0 -14 -0.5 -31t0.5 -32q0 -10 0.5 -19t-0.5 -18t-2.5 -17.5t0.5 -17.5q2 -13 3 -22.5t0 -23.5
q-1 -13 0.5 -23.5t1.5 -22.5v-35q0 -11 0.5 -21t2.5 -21q3 -23 8 -34q2 3 4.5 6.5t4.5 7.5q-1 1 -2.5 1.5t-2.5 2.5q8 31 16.5 63t13.5 65z" />
    <glyph glyph-name="A" unicode="A" horiz-adv-x="384" 
d="M364 45q1 -7 6.5 -11.5t12.5 -7.5t14.5 -6t12.5 -6q0 -6 -3 -12q-7 2 -18 -1t-21 -3q-12 -1 -24 -0.5t-24 -1.5q-20 -2 -39.5 0.5t-38.5 0.5q-7 -1 -17.5 -3.5t-16.5 2.5q-9 9 -2 12.5t12 6.5q14 9 15.5 24t0.5 31q-2 14 0 28q-1 4 -1 12q-1 8 -0.5 16.5t-5.5 13.5
t-14.5 3t-14.5 -2q-7 0 -13.5 0.5t-11.5 0.5q-4 0 -10 -2q-2 -1 -5 -2t-5 -2q-6 -2 -8 -9q-1 -5 -1.5 -9t-0.5 -9q2 -11 3.5 -23t6.5 -21q2 -6 3.5 -14.5t3.5 -13.5t5 -7q0 -3 -0.5 -6t-0.5 -5q-1 -8 -3 -12t-5 -8h-1q-8 -2 -16.5 -3t-16.5 1q-5 2 -10.5 3.5t-10.5 3.5
q-5 1 -11 1.5t-12 1.5h-5q-14 -1 -27 -4t-27 -1h-4q-5 -1 -11.5 -2.5t-12 -1.5t-9 2.5t-3.5 8.5q0 5 4.5 8t10.5 5.5t12.5 5t10.5 5.5q4 4 5.5 8t3.5 9q-1 14 -5 27.5t-5 25.5q-1 17 -1 34.5t-1 35.5t3.5 34.5t6.5 34.5t5 36t7 35q7 38 25.5 71.5t30.5 68.5q5 15 11.5 28.5
t13.5 27.5q0 9 1 17t-1 13q-3 8 -6 10.5t-12 4.5q-4 1 -12 1t-11 4q-6 6 -2.5 9t10.5 5t14.5 3t10.5 1q4 1 7 1t7 1q6 2 12 2q8 2 13.5 1t13.5 -2h7h18h3q12 0 23.5 -0.5t23.5 -0.5h37.5t36.5 1q10 1 20 0t20 -1q8 0 15 1t13 5q7 -8 3 -17.5t-9 -16.5q-7 -9 -11.5 -16
t-8.5 -18q-4 -9 -5 -18.5t-1 -19.5q0 -13 1 -25.5t2 -26.5q2 -23 -2.5 -45.5t-2.5 -45.5q1 -22 5 -43t4 -42v-28.5t2 -28.5q1 -7 2 -13.5t0 -13.5q-1 -5 -4 -11t-2 -11q1 -6 4 -10.5t5 -9.5q2 -7 1 -14l-2 -14q0 -9 -0.5 -21t2.5 -21zM232 315q2 11 1 16.5l-3 16.5
q-1 9 -1 17.5t-1 16.5l-4 16t-3 16q-7 1 -13.5 -7.5t-12 -20t-9.5 -23.5t-7 -17q-9 -19 -18.5 -40t-13.5 -42q-2 -5 -2.5 -9.5t-1.5 -9.5q-1 -2 -1.5 -4t-1.5 -4q1 -4 0 -9q0 -3 -0.5 -6.5t0.5 -6.5q2 -2 3.5 -3t3.5 -3t1 -3.5t2 -3.5q4 -3 7 -3h1q2 0 4.5 0.5t4.5 0.5
q4 0 7.5 -0.5t8.5 -0.5q20 -2 29 3t14 27q2 10 2.5 21.5t1.5 22.5v7v18t2 17z" />
    <glyph glyph-name="B" unicode="B" horiz-adv-x="412" 
d="M387 280q13 -27 13 -63q0 -20 -3.5 -41t-8.5 -38t-11.5 -34.5t-13.5 -33.5q-8 -17 -22 -32t-32 -22q-15 -5 -34 -10.5t-36 -4.5q-9 1 -16.5 2.5t-15.5 1.5q-10 1 -18.5 -1t-18.5 -2q-18 0 -35.5 1.5t-35.5 3.5q-8 1 -15 1.5t-15 0.5t-16 -1t-16 -5q-5 3 -10.5 1.5
t-11.5 -3.5t-12.5 -3.5t-11.5 0.5q-10 4 -9.5 7.5t5 7t11.5 6t10 3.5q15 5 22.5 16t10 24.5t2.5 28v26.5q1 23 0.5 46.5t1.5 46.5q2 11 2.5 23t2.5 24q1 9 -1 17t-3 17q-1 20 0.5 41.5t-0.5 41.5q0 9 1.5 17t-0.5 17t-3 17.5t2 17.5l-1 4q1 4 -1 18t-4 22t-4.5 21t-12.5 15
q2 9 -1 13.5t-9 6.5t-13 4t-12 5q-2 10 1.5 15t9.5 7t13.5 2.5t13.5 0.5q17 2 31.5 2.5t31.5 2.5q33 5 67.5 4t67.5 2l36 4.5t40 2.5q18 0 34 -3.5t27 -14.5q17 -17 17 -37t-11.5 -39t-22.5 -35q-5 -7 -9.5 -12t-10.5 -10q-5 -4 -13.5 -8t-11.5 -9q-4 -5 -2 -10.5t7 -11
t11 -10.5t10 -9q20 -23 34.5 -50.5t27.5 -55.5zM191 531q-18 -11 -23 -38t-3 -52q1 -8 3 -14.5t10 -7.5q5 0 8 1q2 6 9 10q12 9 22 15.5t13 22.5t-0.5 31t-15.5 25q-2 1 -4 2.5t-4 2.5q-3 1 -5 2h-10zM243 137q5 13 6.5 30t1.5 31q0 53 -18 101q-1 0 -2 1q-5 5 -6.5 11.5
t-4.5 12.5q-2 5 -6 8.5t-6 8.5q-1 2 -1 4.5t-2 5.5q-1 2 -2.5 3.5l-3.5 3.5q-5 6 -12 12t-12 -6q-2 -4 -2 -6q1 -18 1 -35.5t1 -35.5q1 -15 1.5 -30.5t0.5 -30.5q0 -19 -0.5 -37t-1.5 -36q-1 -17 0.5 -34.5t6.5 -32.5q5 -16 17 -18.5t22 13.5q4 6 6.5 14t5.5 15
q2 7 4.5 13.5t5.5 13.5z" />
    <glyph glyph-name="C" unicode="C" horiz-adv-x="359" 
d="M337 623q4 -4 5.5 -13.5t1.5 -21.5q0 -21 -2.5 -44.5t-3.5 -32.5q-1 -11 -1.5 -21.5t-0.5 -21.5q0 -20 1 -40.5t0 -40.5q-17 -8 -35 -22t-31 -28q-9 -9 -13.5 -19.5t-9 -17t-11.5 -7.5t-21 9q-2 8 -1.5 22t0.5 27q0 11 -1.5 20t-6.5 13q5 10 6.5 24t1.5 28v39v7
q-1 5 -1.5 8t-0.5 5q0 5 -1 13t-8 8q-6 0 -13 -5q-17 -17 -28 -38.5t-15 -40.5q-5 -19 -7 -37.5t-4 -38.5q-2 -19 0 -36.5t6 -34.5q5 -17 6 -38t4 -39q6 -37 25 -65q10 -15 18 -32t21 -28q7 -6 14.5 -11t15.5 -10q7 -4 17.5 -4t12.5 -8q3 0 10 0.5t14.5 0t13.5 -1.5t9 -4
q8 -8 2 -19t-10 -19q-29 -3 -60 -3q-11 0 -22 0.5t-22 1.5q-12 1 -22.5 1t-23.5 1q-3 1 -8 0t-9.5 -2t-8.5 -0.5t-5 4.5q-1 -2 -9 3t-9 3q-6 11 -17.5 18t-16.5 17q-5 7 -6.5 13.5t-4.5 14.5q-4 8 -7.5 14.5t-5.5 14.5q-5 14 -11 26t-12 25q-4 8 -3.5 16t-2.5 16q-2 8 -6 14
t-6 16t-5 19.5t-5 19.5t-1 20t-1 21q-3 20 -0.5 39t2.5 39q0 11 -1 19.5t4 19.5q5 9 9.5 17t8.5 17q8 19 13 35t16 33q10 14 22 32t29 26q8 4 16.5 5t17.5 1q10 0 19.5 -1t19.5 0q5 0 11 1t11 1q3 -1 7.5 -3.5t6.5 -1.5q4 0 9 3.5t9 4.5q5 1 10 1t10 1h5q8 5 18.5 13.5
t21 15t20.5 8.5t16 -4z" />
    <glyph glyph-name="D" unicode="D" horiz-adv-x="417" 
d="M416 296q1 -9 -2 -18.5t-2 -17.5q2 -12 2 -18t-4 -18q-6 -20 -9 -38.5t-11 -38.5q-7 -18 -11 -37t-11 -37q-6 -16 -19.5 -33t-29.5 -25q-9 -4 -18 -3.5t-18 -1.5q-11 -2 -17.5 -3.5t-17.5 -3.5q-23 -3 -42 -3h-15t-15 1q-11 2 -20 1.5t-19 0.5t-19 -1t-19 -1
q-12 2 -17.5 2.5t-17.5 -3.5q-11 -3 -16.5 -1.5t-15.5 2.5q-10 2 -20 -0.5t-19 0.5q-8 3 -11 11t8 13q7 -3 15 0.5t15.5 10t13 14.5t6.5 14q2 10 1 19.5t-1 19.5q0 13 4 24t5 23q2 20 0.5 41t-1.5 40q0 11 0.5 22t0.5 22q0 7 -1 14t0 13q1 5 3.5 11t2.5 11q-1 4 -2.5 7.5
t-2.5 7.5q-1 3 -1 8.5v9.5q-2 9 -2 20.5t3 19.5l-3 11q-3 13 -3.5 30t-2 34t-5.5 33.5t-13 28.5q-3 4 -11.5 9t-14.5 10.5t-6 11t13 10.5q13 6 31.5 6.5t32.5 0.5q8 0 18 -0.5t19 0.5q11 1 20.5 4t20.5 4q19 1 38 -0.5t37 0.5q11 1 27.5 3t27.5 2q13 0 18.5 -0.5t15.5 -8.5
l10.5 -10.5t11.5 -14t8 -15.5t0 -14q5 -7 8 -15t8 -16q3 -4 6.5 -5.5t6.5 -6.5q2 -4 2 -8.5t2 -9.5q3 -8 6.5 -16.5t5.5 -16.5q3 -10 4 -18t4 -18q2 -5 2 -9t2 -9t4.5 -7.5t4.5 -7.5t0.5 -10t-0.5 -10q1 -8 4 -9.5t5 -6.5q2 -8 1.5 -18.5t0.5 -18.5zM286 232q0 9 -1 19
t-2 21q-2 18 -1.5 37t-2.5 36q-2 9 -3.5 17t-4.5 16q-2 9 -8.5 15.5t-9.5 14.5q-1 1 1.5 3.5t1.5 4.5q-2 2 -3.5 4.5t-2.5 4.5q-2 2 -4.5 6t-4.5 6q-5 7 -8 17q-1 2 0 4.5t0 4.5t-3.5 3t-2.5 3q-4 8 -7 15.5t-8 15.5q-2 5 -2 9q-11 7 -21 7t-16 -17q-5 -13 -5 -33
q0 -8 0.5 -16.5t-0.5 -16.5q0 -8 -1 -16t1 -15l2 -13q-7 -16 -3 -36t5 -35q1 -19 0 -38t1 -38q1 -9 1 -18v-19v-29q0 -20 1 -39.5t5 -39.5q3 -14 9.5 -23t22.5 -4q12 4 19.5 16t12.5 23q-1 5 4 14t7 14q3 8 5.5 15t6.5 15q6 14 10.5 31t8.5 34z" />
    <glyph glyph-name="E" unicode="E" horiz-adv-x="358" 
d="M353 52q3 -11 6.5 -20.5t-1.5 -20.5q-7 -14 -16 -11.5t-20 5.5q-11 2 -23 1.5t-23 -1.5q-14 -1 -26.5 -1t-26.5 -2h-14.5t-14.5 -2q-8 -1 -14.5 0t-14.5 2q-6 2 -12 1.5t-12 -1.5q-8 -2 -15 -1.5t-15 -1.5q-15 -5 -32 -5t-32 2q-5 1 -11.5 4t-11.5 3q-6 -1 -12 -3.5
t-13 -2.5h-10t-16 1.5t-12 5t1 10.5q2 2 11 2t12 2q7 2 13 4t12 5q25 14 33.5 38t6.5 51q-1 14 -0.5 28.5t-0.5 28.5q-1 18 -4 35t-2 35q1 9 -0.5 18t-0.5 18q2 10 1.5 19.5t-0.5 19.5q0 7 -1 17.5l-2 21t0 20t5 15.5l-1 8q-2 8 -2.5 22t0.5 23q0 5 0.5 11t0.5 12
q0 7 -2 12.5t-2 10.5q-1 8 -1.5 11t-3.5 10q-5 10 -12 17q-4 5 -7 8t-9 5q-5 2 -10 2t-10 2t-9.5 4.5t-4.5 9.5q0 8 5 8.5t10 1.5q7 1 12.5 1.5t11.5 -0.5q4 0 5.5 -1t6.5 1q3 1 5.5 2.5t6.5 1.5t7 -1.5t7 -1.5q3 0 6.5 2t7.5 3q7 2 13 1t13 0q12 2 24.5 1.5t24.5 -1.5
q30 -2 59.5 3t59.5 3q8 0 13 -1.5t13 -1.5q15 2 29 0q18 -2 20 -11.5t-2 -23.5q-2 -6 -1.5 -11t-0.5 -11q-2 -7 -5 -12t-4 -12q-1 -5 -1 -11.5t-1 -12.5t-4.5 -10.5t-11.5 -4.5q-14 -1 -21 7.5t-14 18.5q-6 8 -12 19.5t-17 16.5q-3 2 -6.5 2t-6.5 2q-2 1 -4 2.5t-5 3.5
q-12 6 -23 2q-12 -5 -18 -10.5t-9 -18.5q-2 -12 -0.5 -25t1.5 -24t-4 -26.5t1 -25.5q2 -2 4.5 -3t4.5 -3q2 -3 2 -5t2 -5q3 -8 5 -10t10 -5q10 -4 22.5 -6.5t23.5 2.5q25 8 47 7q6 -1 8.5 -5.5t3.5 -11t0 -13.5t-1 -11q-3 -27 -13 -53q-1 -4 -2.5 -6t-2.5 -6q0 -4 1 -6.5
t-1 -6.5q-2 -5 -8 -6.5t-11 -0.5q-8 3 -7.5 7t-3.5 11q-3 5 -7 9t-7 9q-3 6 -6 10t-7 9q-2 2 -1 3.5t-1 2.5q-2 2 -3 1t-2 0q-2 2 -5.5 3.5t-5.5 2.5q-14 5 -22.5 -6.5t-7.5 -23.5q0 -12 -2.5 -25.5t-0.5 -25.5q2 -13 -0.5 -25.5t2.5 -26.5t2 -29.5t-3 -30.5q1 -14 1 -25.5
t5 -24.5q2 -8 5.5 -9.5t9.5 -6.5l7 -7t10 -4q11 -3 19.5 -7.5t20.5 3.5q5 3 7.5 7t5.5 9q2 5 6 9.5t7 9.5q5 10 9 20t11 20q3 4 5 9t7 7q3 2 12 3.5t12 0.5q5 -1 7.5 -6t3.5 -11t1.5 -12.5t0.5 -10.5q1 -7 1.5 -13t2.5 -12q1 -6 3 -11.5t3 -11.5z" />
    <glyph glyph-name="F" unicode="F" horiz-adv-x="333" 
d="M320 578q11 -1 13 -3t0 -13q-1 -7 -3.5 -13.5t-4.5 -14.5q-3 -14 -4.5 -28.5t-9.5 -26.5q-8 -15 -24 -11q-7 2 -10.5 8t-8.5 12q-9 12 -19.5 21.5t-21.5 18.5q-12 10 -25 12.5t-27 -7.5q-9 -6 -12 -17q1 -12 0 -23.5t1 -23.5q1 -8 0 -16.5t0 -16.5q0 -9 1 -17.5t0 -17.5
v-6q4 -11 9 -15q5 -7 13 -9t16 -2t16 1l16 2q11 1 28.5 1.5t27.5 -4.5q6 -3 7 -9t-0.5 -14t-4 -16t-3.5 -14q-1 -8 -4 -18.5t-7.5 -20.5t-10 -17t-11.5 -7q-10 0 -20 21q-5 12 -13.5 24t-22.5 17q-17 7 -24 -3.5t-10 -23.5v-9q1 -9 2.5 -18t1.5 -18q0 -17 -1.5 -33.5
t0.5 -33.5q2 -13 3.5 -26t0.5 -27q0 -8 -1.5 -19.5t-1.5 -22.5q0 -13 2.5 -24.5t10.5 -17.5q8 -7 18 -11t21 -6q5 -1 10 -0.5t7 -7.5q1 -5 -4.5 -8t-11.5 -3q-2 0 -5 1t-6 1q-4 0 -7 -1t-7 -1q-8 -1 -15 0.5t-15 1.5q-11 0 -21.5 -1.5t-21.5 -2.5q-13 -2 -24.5 0t-24.5 3
q-10 1 -20 -2t-20 -5q-11 -2 -20.5 -1.5t-20.5 1.5q-6 1 -11 0q0 1 -1 1t-2 -0.5t-2 -0.5q-2 1 -3 1t-3 2q-4 6 -0.5 10t8.5 6q3 1 5.5 1t4.5 1q11 2 24.5 7t18.5 15q3 5 3.5 10t2.5 10q2 6 3.5 11.5t1.5 11.5q2 14 3.5 28t0.5 29q-1 19 -2.5 38t-1.5 38q0 10 -1.5 17.5
t-3.5 16.5q-2 10 2 19.5t2 20.5q-1 11 -3 20t0 21q2 11 2.5 19.5t-0.5 19.5q-2 11 2 21t2 21q-1 9 -2 17l-2 16q0 6 -0.5 12t-1.5 12q-1 5 0.5 11t-0.5 11q-1 8 -4 17.5t-9 15.5q-5 5 -11 12t-13 13t-15 9t-16 0q0 3 -0.5 6t0.5 6q4 1 11 0.5t9 -1.5l11 3h32q16 5 36 6t37 0
q13 -2 24 0h11q11 1 21 1.5t21 -0.5h11q16 0 30.5 2t29.5 2q16 0 31 -2.5t31 -2.5z" />
    <glyph glyph-name="G" unicode="G" horiz-adv-x="386" 
d="M378 49q2 -4 6 -6.5t6.5 -5.5t3.5 -7t-3 -11q-15 -2 -28.5 -3t-28.5 -1h-8q-6 -9 -20 -9q-5 0 -8.5 2.5t-8.5 2.5t-9 -1.5t-9 -1.5t-8.5 1t-6.5 2q-11 -4 -16 2h-1q-4 -2 -12 -2q-7 -2 -13 -3.5t-15 -1.5q-11 -1 -20 -1.5t-18 -0.5q-8 0 -16 1t-16 5q-20 8 -30.5 17
t-18.5 30q-6 17 -14 34.5t-14 35.5q-8 22 -16.5 43.5t-15.5 43t-11 44t-2 46.5q2 17 -0.5 32t-2.5 31q0 15 4 28q6 22 13.5 43.5t18.5 41.5v7q4 7 6.5 14t7.5 15t10.5 15t11.5 13q7 8 11.5 15t10.5 13q7 7 16 8.5t19 0.5t19.5 -3t18.5 -2q11 0 20.5 1.5t20.5 1.5
q11 -1 19 0.5t19 6.5q17 8 33 19t33 18q14 5 17.5 0t3.5 -18q0 -11 2 -20.5t3 -19.5t0 -21t-2 -21q-1 -8 -1.5 -19.5t-2.5 -20.5q-2 -13 -8.5 -15t-16.5 -4q-8 -2 -15 -6.5t-15 -10.5q-8 -5 -13 -11.5t-11 -12.5q-4 -4 -8.5 -5.5t-7.5 -5.5q-4 -4 -5 -8.5t-5 -8.5
q-11 4 -14.5 12t-3.5 18q0 8 1 15.5t1 15.5v15t-2 22t-6 18.5t-13 5.5q-1 -2 -1.5 -4t-2.5 -4q-32 -25 -45 -66t-15 -81q-1 -11 -1.5 -23t-0.5 -24q0 -9 1 -17.5t3 -16.5q5 -12 5.5 -22t3.5 -23q2 -11 7 -19.5t6 -21.5q2 -22 14 -47t27 -42q5 -7 12.5 -14t13.5 -13
q8 9 11.5 22t5 26.5t1 27t-0.5 24.5q0 8 2.5 22.5t4.5 30.5t1.5 29.5t-6.5 18.5q0 2 -7 8t-7 7q-8 4 -21 2.5t-24 -1.5q-9 0 -16.5 3t-10.5 11t6.5 17.5t14.5 17.5q8 12 15.5 12.5t17.5 1.5q22 1 45 0.5t44 3.5q10 2 20 2t21 2q6 -1 11.5 -2t9.5 -4q6 -5 8 -10t1.5 -10.5
t-2 -12t-2.5 -13.5v-1q-1 -2 -1.5 -4.5t-2.5 -5.5q-3 -13 -2.5 -21.5t0.5 -20.5v-4l-4.5 -27t1.5 -26q2 -7 5 -10v-20q-1 -14 -1.5 -23t1.5 -20q3 -11 5 -21t4 -21q1 -8 3.5 -21.5t5.5 -19.5z" />
    <glyph glyph-name="H" unicode="H" horiz-adv-x="392" 
d="M416 22q1 -5 2 -9.5t0 -9.5q-1 -1 -2.5 -1.5t-3.5 -1.5q-3 3 -8.5 2t-12 -3t-13 -3.5t-10.5 -1.5q-14 1 -28 0h-12t-12 1q-14 2 -28.5 4t-28.5 1q-3 0 -12 -1t-18 -1t-16 1t-8 5q-8 0 -14 -3t-14 -3h-27q-18 -1 -33.5 -1t-32.5 -1q-8 -1 -15.5 0.5t-15.5 1.5
q-6 -1 -12.5 -2.5t-12.5 -1.5q-10 0 -23.5 5.5t-23.5 0.5q-2 0 -4.5 1.5t-3.5 3.5q-2 7 0.5 10.5t7.5 4.5t11 1t11 1q9 3 16 8t12 15q6 10 6 21t1 22q1 9 1.5 26t6.5 23q-3 4 -2.5 15t1.5 16q1 9 1 15.5v14.5t1.5 19t-0.5 19q0 4 -1.5 7t-2.5 7q0 2 2 4t2 4q0 1 -2.5 3
t-2.5 4q-2 8 -0.5 17.5t0.5 18.5q0 10 -2 18.5t-2 16.5q0 5 2 9.5t2 9.5t-1.5 8.5t-1.5 8.5q0 8 1 16t1 16q-1 16 -3.5 32t-3.5 33q0 8 1 15t1 14q0 5 -2 12.5t3 12.5l-16 7q-6 5 -10.5 9t-12.5 6q-5 2 -14 1t-14 5q-3 -5 -5.5 -1.5t-1.5 9t6.5 9.5t18.5 0q5 5 9 4t9 0
q6 1 11 2.5t12 1.5q6 0 12.5 -1.5t12.5 -1.5l6 2t6 1q2 0 4.5 -2t5.5 -2q12 1 24 3t24 1q13 -1 24 0t23 1q32 0 63 -3t63 -1q18 2 35 2.5t34 2.5q10 1 17 2t16 0q11 -2 13 -3.5t1 -14.5q-8 -2 -21 -9t-24 -17t-17 -21.5t1 -22.5q-4 -5 -2.5 -12.5t1.5 -12.5q0 -4 -1 -7.5
t-1 -6.5q1 -2 3 -4.5t2 -5.5q1 -3 -1 -7t-2 -7q-1 -4 0 -6.5t1 -5.5q-1 -6 -2 -10t0 -11q2 -14 2.5 -27t0.5 -27v-43q0 -8 2 -15.5t2 -14.5q0 -8 -1 -14t0 -14t1 -14.5v-14.5v-15.5t-1 -15.5q-2 -16 -0.5 -31.5t0.5 -30.5q-1 -8 -1.5 -15t1.5 -16q1 -7 1.5 -15t-2.5 -14
q2 -1 2.5 -1.5t2.5 -1.5q0 -3 0.5 -5.5t-0.5 -5.5q5 -5 10.5 -7.5t11.5 -4.5q4 -8 15.5 -8t18.5 -3zM158 497q-4 -5 -5 -12.5t-0.5 -15.5t1 -15.5t0.5 -12.5q-1 -17 0.5 -31.5t3.5 -28.5q2 -20 11.5 -23.5t26.5 -4.5q17 0 24 4t12 20q4 12 4 23.5v24.5q1 5 1 9.5v9.5v12
q0 2 1 6t1 6q-1 11 -3.5 22.5t-4.5 23.5q-3 11 -7.5 17t-16.5 12l-5 -1q-3 2 -9 0t-12.5 -6t-11 -8.5t-3.5 -7.5q-5 -3 -8 -11t0 -12zM245 98q1 5 -0.5 11.5t-0.5 12.5q0 7 -0.5 11.5t-2.5 11.5q-1 5 1.5 9.5t1.5 9.5q0 2 -2 5t-2 5t2 4.5t2 5.5q-1 1 -2 3q-2 2 -2 4
q0 1 0.5 5.5t0.5 5.5q1 5 1.5 11.5t-5.5 8.5q7 9 3.5 21.5t-5.5 21.5q-2 10 -4.5 20t-16.5 8l-7 -1q-10 -3 -21.5 -4t-18.5 -11q-6 -10 -6.5 -20.5t-4.5 -20.5q3 -3 4 -9.5t1 -14t-0.5 -14.5t-0.5 -11q0 -12 -0.5 -24t-0.5 -23q0 -7 0.5 -19t2 -25t6 -23t13.5 -13
q2 -3 4.5 -6.5t3.5 -6.5h4q0 -2 1 -3.5t2 -3.5q1 -1 1 0t1 1q3 -7 9 -6t12 5.5t11 10.5t8 8q-2 8 2 19.5t5 19.5z" />
    <glyph glyph-name="I" unicode="I" horiz-adv-x="230" 
d="M251 32q8 -8 2.5 -11.5t-13.5 -5.5q-17 -3 -31 -5t-31 -4q-9 -1 -16.5 -2.5t-17.5 -1.5q-9 1 -18 3t-18 1q-10 0 -18 0.5t-17 1.5t-16 -0.5t-15 -2.5t-15 -2.5t-15 -1.5q-8 -1 -15 0.5t-15 -0.5q-8 14 0.5 19t19.5 7q3 0 5.5 -2t4.5 -1t4 3.5t4 4.5q5 2 8.5 3t6.5 3
q7 5 11.5 15t6.5 21.5t3 23t2 19.5q2 18 3 36t-1 34q-2 20 -0.5 40t1.5 40q-1 17 -1 33t-2 33q-1 10 -2.5 19t-0.5 19q1 8 0 19t1 18l-5 6q2 13 0 27t-2 25q-1 7 -0.5 14.5t-1.5 15.5l-2 6l-2 6q-2 2 -5 2.5t-5 2.5q-4 5 -5 8.5t-7 8.5t-10.5 7t-12.5 3q-6 1 -13.5 1
t-10.5 7q-2 5 0.5 11t7.5 8q6 3 14.5 4.5t17.5 1.5h18h15q16 1 32.5 1.5t33.5 -0.5q17 -2 34.5 -0.5t34.5 1.5q8 0 16 0.5t16 -0.5q2 0 3 -1.5t3 -2.5q2 0 4 1.5t4 1.5q5 0 7 0.5t6 -2.5q1 -2 1.5 -4t1.5 -4q0 -6 -5 -10t-11.5 -6.5t-13.5 -5t-13 -6.5q-14 -11 -19.5 -22
t-7.5 -28q-1 -9 1 -17.5t1 -16.5q0 -9 -0.5 -15.5t0.5 -15.5q2 -8 -0.5 -15.5t-0.5 -16.5q3 -17 0 -34q-1 -9 0 -17.5t1 -16.5q-1 -10 2 -18t3 -17q0 -8 -2 -18t-2 -18l-2 -16t-1 -17t0.5 -16t-1.5 -16q-2 -15 0 -30q2 -8 4 -16.5t4 -17.5q2 -8 1.5 -16t2.5 -16
q12 -33 39 -46q1 0 2 -2.5t3 -3.5q5 0 7 -1q4 -1 8 -1.5t7 -2.5z" />
    <glyph glyph-name="J" unicode="J" horiz-adv-x="227" 
d="M246 574q5 -9 -1 -15.5t-16 -12t-20.5 -9.5t-13.5 -7q-11 -8 -10.5 -14t-1.5 -16t-5 -17.5t-3 -18.5q1 -9 2.5 -19.5t0.5 -19.5q0 -5 -1.5 -10t-1.5 -10q1 -5 4 -9.5t3 -8.5q0 -11 -3 -20t-2 -20q1 -8 0.5 -18t0.5 -20q1 -9 -0.5 -19.5t-0.5 -20.5l2 -10t1 -10
q0 -3 -2 -4.5t-2 -3.5q1 -2 3 -4.5t2 -4.5q1 -19 -0.5 -39t-3.5 -40t4 -38.5t1 -37.5q-5 -21 -11 -38t-21 -34q2 -5 -5 -12l-11 -11q-4 -5 -9 -9.5t-8 -9.5q-8 -10 -15.5 -19t-16.5 -19q-5 -6 -14.5 -15.5t-19.5 -16t-19 -6t-13 14.5q6 7 10 15.5t9 15.5q2 9 5 20t5 19
q2 12 2.5 23t2.5 23q2 24 4.5 49t4.5 48q2 20 0.5 39t-3.5 39q-1 11 -0.5 21.5t0.5 21.5t-3 20.5t-3 20.5q-2 21 2 42t3 41q-1 10 -1 18.5t-2 17.5q-1 5 -2 7t0 8q0 5 2 9t1 9l-2 8q2 6 0 15.5t-3 17.5t-1 18.5t-2 18.5q-5 19 -21.5 26t-32.5 12q-7 2 -10 1t-6 7q-4 10 4 16
q6 5 16.5 4t18.5 -1q9 1 19 3.5t20 1.5q3 0 7.5 -2t8.5 -3q10 -2 19 -2q20 1 40 1.5t40 2.5q11 0 19 0.5t19 2.5q6 2 19.5 2t17.5 -5z" />
    <glyph glyph-name="K" unicode="K" horiz-adv-x="389" 
d="M423 -34q2 -5 -3 -9t-9 -6q-6 -4 -9.5 -6t-10.5 -2q-6 0 -13 0.5t-13 1.5q-6 2 -12.5 4.5t-11.5 3.5q-4 1 -7 -1t-7 0q-2 0 -5 2t-5 4q-11 6 -23.5 7.5t-22.5 10.5q-20 20 -22.5 48.5t-2.5 54.5q0 8 -1.5 15.5t-1.5 15.5q0 9 0.5 17.5t-0.5 17.5q-1 17 0 33.5t-1 33.5
q-1 9 1 18.5t0 18.5q-1 8 -1 16t-1 16q0 5 -2 7.5t-3 7.5q-1 4 -0.5 7.5t0.5 8.5q0 7 -1.5 13t-3.5 12q-2 5 -3 11.5t-6 8.5t-11 -0.5t-10 -4.5q-8 -5 -16.5 -12t-13.5 -15q-3 -5 -2.5 -12t-0.5 -12q0 -7 -2 -13t-1 -13q1 -14 0.5 -28t0.5 -28l2 -26t0 -26q0 -3 -1.5 -5.5
t-1.5 -6.5q0 -3 1.5 -6.5t2.5 -5.5q2 -7 1.5 -13.5t1.5 -12.5q4 -13 6.5 -26t3.5 -26q0 -7 -0.5 -12.5t2.5 -12.5q2 -7 2 -9t-7 -7q-9 -6 -21.5 -6t-24.5 -2q-13 -3 -26 -5.5t-26 -2.5q-26 -2 -51 -4t-50 0q-2 11 2.5 14.5t12.5 5.5q6 2 14 5.5t13 6.5q9 5 11 13.5t5 16.5
q5 12 7.5 21.5t3.5 21.5q2 11 1.5 18t2.5 17q4 11 1 18t-4 18q-1 10 1.5 17t-1.5 17t-4.5 18t1.5 19q2 13 0 24.5t-4 24.5q-1 10 2 19t1 19q-2 17 -3.5 37.5t-1.5 34.5l-1 7q-2 6 -3 18t0 20t1 12t-2 12q-2 6 -2 12.5t-1 12.5q-2 13 -5 24.5t-14 17.5q-3 1 -10 3.5t-13 5.5
t-9 7t3 10q7 7 23.5 8t25.5 3q14 2 28 1.5t28 -1.5q8 -1 15 2t15 3h11.5t11.5 2q9 3 13.5 1t6.5 -6.5t2.5 -11t1.5 -12.5q1 -7 0.5 -12.5t-0.5 -11.5v-10.5t-2 -9.5t-3 -12t-1 -12t-2 -12t-1 -11q0 -4 2 -6t1 -7q0 -4 -1 -7t-1 -7q0 -2 1.5 -5t1.5 -6q0 -8 1 -13
q1 -4 2 -7.5t2 -5.5q5 3 9.5 6t8.5 5q11 7 22 14.5t16 18.5q7 12 3.5 23t-3.5 24q0 12 -0.5 24t-0.5 26q0 4 -1.5 10.5t-1.5 13t2 11.5t9 5q9 -6 25.5 0t25.5 11q12 6 17.5 15.5t15.5 18.5q7 7 10.5 5.5t5 -7.5t1 -13.5t-0.5 -11.5q0 -15 -1 -29.5t1 -28.5q0 -8 -1 -14.5
t1 -13.5q1 -7 3 -13.5t4 -12.5q2 -5 3.5 -10t5.5 -10q5 -6 7 -8t-3 -10q-7 -11 -20.5 -10.5t-25.5 -1.5t-26 -6.5t-25 -10.5q-6 -3 -8.5 -5.5t2.5 -8.5q0 -1 1 -1q8 -2 10 -3q6 -2 11.5 -4.5t12.5 -3.5q9 -2 24 -3t22 -9q17 7 21 -0.5t6 -21.5q1 -8 -1 -14t-2 -14
q0 -4 1.5 -7.5t2.5 -7.5q0 -3 -0.5 -6.5t-0.5 -7.5q1 -17 0 -33.5t-1 -33.5q0 -8 2 -15t1 -15q0 -3 -1 -7t0 -7q0 -2 1.5 -4.5t2.5 -5.5q2 -8 -1 -14.5t-2 -14.5t2 -14t0 -14q-1 -14 1.5 -29t2.5 -29q-1 -7 -0.5 -14t0.5 -13q-1 -10 2 -14t8 -10q4 -5 5.5 -11t6.5 -11
q9 -11 20 -20q4 -3 10 -6t8 -8z" />
    <glyph glyph-name="L" unicode="L" horiz-adv-x="361" 
d="M345 68q2 -8 6.5 -14.5t5.5 -16.5q0 -20 -9 -23.5t-24 -2.5q-8 0 -16 -1.5t-16 -0.5q-9 0 -14.5 0.5t-14.5 -1.5q-14 -2 -28.5 -1t-28.5 -2q-15 -3 -29 -3q-8 0 -15 0.5t-14 0.5q-8 0 -15.5 -1.5t-15.5 0.5q-8 1 -15 0.5t-15 1.5q-16 4 -32.5 5t-31.5 -2q-10 -2 -16.5 -4
t-16.5 -1q-14 3 -27 3q-4 7 -4 18q12 5 28 5t25 7q12 9 21.5 23t11.5 28q2 8 2.5 14.5t1.5 13.5q0 9 -1 16t-1 15q-2 20 -1 38t1 38q0 15 -1.5 29t-3.5 28q-4 17 -1 30q1 5 2.5 9t0.5 9q-1 4 -3.5 7.5t-3.5 8.5q-2 7 -1 15l2 16q0 10 1.5 19t2.5 19q1 5 0 10t1 8l-2 12
q-3 11 -2 23.5t-1 23.5q-2 12 -6.5 27t-13.5 23q-1 1 -3 0t-4 1q-1 1 -1.5 2.5t-1.5 2.5q-2 1 -4 2.5t-6 2.5q-5 2 -14 3.5t-12 6.5q-4 6 -0.5 13t9.5 8q4 1 6 -0.5t6 -1.5l8 2l8 2q9 2 17.5 1t16.5 0q18 1 34 0q20 -2 38.5 0.5t37.5 1.5q4 0 7.5 -1t6.5 -1q4 0 7.5 2t7.5 4
q4 0 10 2q21 0 32 -15q-3 -8 -7 -12.5t-9 -7t-10.5 -5t-11.5 -7.5q-1 -1 -1.5 -1t-1.5 -1q-4 -2 -8.5 -2.5t-7.5 -3.5q-7 -7 -4 -16.5t3 -17.5q-1 -6 -2.5 -13t-2.5 -14t0 -13t0 -14q-1 -5 -2 -8t0 -7t3.5 -6.5t3.5 -6.5t0 -7.5t-1 -7.5t1 -5.5t2 -5.5q2 -7 3 -14.5t0 -14.5
q-2 -8 -1.5 -15t-0.5 -15q-2 -10 -3 -14.5t1 -13.5q2 -8 0 -15.5t-1 -15.5q2 -14 2.5 -31t-1.5 -31q-1 -5 -3 -9.5t-2 -9.5q1 -4 2.5 -6t1.5 -5q2 -8 -0.5 -16t-1.5 -16q1 -7 1 -14.5t2 -14.5q1 -5 2.5 -8.5t2.5 -8.5q0 -4 -1 -8.5t1 -8.5q2 -8 8 -13t10 -10q3 -5 3 -6.5
t6 -4.5q2 -1 5.5 -2t6.5 -2q7 -2 13 -4t14 1q9 3 11.5 9.5t7.5 13.5q3 3 7 6t6 6q2 4 1.5 7.5t0.5 5.5q3 7 7 12.5t7 12.5q2 5 6.5 13.5t10 15.5t12 10.5t13.5 -1.5q4 -2 6 -11.5t4 -14.5q3 -8 2 -17t1 -18l3.5 -7t1.5 -8q1 -4 -0.5 -7t-0.5 -8z" />
    <glyph glyph-name="M" unicode="M" horiz-adv-x="629" 
d="M641 22q5 -5 6.5 -9.5t-5.5 -9.5q-8 -6 -13.5 -3t-13.5 1t-13.5 -3.5t-14.5 0.5q-8 1 -14.5 2t-14.5 2q-13 1 -27 -0.5t-28 0.5q-8 1 -15 1h-15q-7 1 -15.5 1t-14.5 2q-4 -1 -7.5 -2t-8.5 -2q-12 -1 -25 1.5t-24 4.5v-5q-5 -1 -10.5 -2.5t-13.5 -1.5q-6 1 -12 2.5
t-11 1.5q-5 1 -11 -2t-11 -3q-3 0 -5.5 1t-4.5 2h-10t-10 1q-1 -1 -3 -1t-6 0.5t-6 0.5h-3h-5h-6q-1 0 -1 -0.5t-1 -0.5v1h-24t-25 1q-12 2 -25.5 0.5t-25.5 3.5q-3 1 -7 1q-13 0 -26.5 -3t-27.5 -2q-2 0 -4 2t-4 2t-3 -1.5t-3 -2.5q-3 0 -7 -1t-7 -1q-7 -1 -14 0t-14 1
q-5 0 -13 -1.5t-15.5 -0.5t-13 4t-5.5 12q9 6 25 10q2 5 7.5 7t7.5 6q4 5 3.5 8t0.5 8q2 9 4 17.5t3 17.5q1 8 1 14.5v14.5q0 12 -0.5 24t0.5 26q1 17 2.5 33.5t0.5 33.5q-2 17 0.5 34.5t1.5 34.5q-1 18 0.5 35.5t2.5 35.5t-0.5 35t-1.5 34v-5q1 9 1.5 18t0.5 18q0 22 -6 43
t-19 35q-3 3 -6.5 6t-6.5 6.5t-3.5 7.5t4.5 8q8 -3 17 -2t17 1q8 -1 17 -3t17 -1q2 0 6 1.5t7 1.5q4 1 8 0.5t8 -0.5q8 0 15.5 0.5t15.5 0.5q16 0 32 1t31 1t29.5 -2t28.5 -2q3 0 7 1.5t9 1.5h14q6 -2 10 -5.5t2 -11.5q-5 -4 -12.5 -4.5t-10.5 -8.5q-2 -6 -2.5 -16.5
t1.5 -16.5q1 -4 3.5 -7.5t4.5 -7.5q1 -4 0 -7t0 -7q2 -5 5 -8.5t5 -8.5q2 -3 2 -7t1 -8q2 -9 7.5 -18.5t10.5 -18.5q7 12 12.5 25t12.5 26q3 6 6.5 14.5t6.5 17.5t5 17.5t1 14.5q-2 6 -7.5 13t-9.5 11q-4 3 -7 2.5t-3 6.5q0 4 3.5 7t6.5 5q15 -5 29.5 -3.5t29.5 0.5
q16 -1 31.5 0t31.5 1h61t62 -1q8 -1 17 0t17 2q2 -8 3.5 -13t-3.5 -11q-3 -4 -9 -7.5t-11 -7.5q0 1 2 -3q-3 -3 -5 -7l-4 -8l-1 -4q-2 -5 -2 -12t-2 -13q-2 -8 -2 -15.5v-15.5q-1 -18 -0.5 -35t-1.5 -35q-2 -33 0.5 -65t2.5 -66q0 -35 2.5 -67t4.5 -65q1 -16 2 -32.5
t2 -33.5q2 -18 8 -26.5t23 -13.5q2 -1 5.5 -0.5t7.5 -1.5zM196 19q11 0 22 1t20 9q5 5 7.5 10.5t4.5 11.5v5q-1 14 0 29q2 6 1 13.5t-2 15.5q3 18 3 37q-1 14 -1.5 27t1.5 27q0 13 -1 26t-5 26q-8 27 -16 57q-4 16 -11 32.5t-15 30.5q-6 11 -13 25t-21 16q-4 -8 -3.5 -19.5
t-1.5 -20.5q-1 -5 0 -11t0 -11q-2 -5 -4.5 -7.5t2.5 -9.5q-4 -5 -3 -13.5t1 -13.5v-15.5t-1 -15.5t0.5 -15t0.5 -14q-1 -2 -3 -5.5t-2 -5.5q-1 -3 0 -6.5t1 -7.5q0 -22 1.5 -43.5t1.5 -42.5v-18t-2 -18q-2 -16 -2 -31.5t4 -29.5q2 -7 5 -14t10 -10q6 -2 9 -2t6 0.5t6 0.5z
M399 22q10 0 20 -1.5t21 -0.5q2 0 11.5 4t10.5 5q5 5 6 13t2 13q2 14 2.5 28.5t0.5 28.5v30v15t1 15q2 15 -0.5 31.5t-2.5 32.5q0 12 -0.5 23.5t-0.5 24.5q0 6 0.5 12t0.5 12q-2 10 -3 24v20q0 7 -1 13l-2 12t1 10.5t0 10.5q-1 5 -3.5 8.5t-0.5 9.5q-3 3 -7 3
q-11 -6 -18.5 -20.5t-12.5 -25.5q-6 -14 -12 -26.5t-11 -26.5q-11 -27 -18 -58.5t-7 -62.5q0 -3 -0.5 -6t-0.5 -6q1 -3 1.5 -5.5t1.5 -5.5q-1 -3 -1 -6.5v-6.5v-30t-2 -30q-1 -11 -0.5 -22t1.5 -22q3 -10 9 -19q4 -5 8.5 -8.5t5.5 -9.5z" />
    <glyph glyph-name="N" unicode="N" horiz-adv-x="391" 
d="M292 578q29 -2 56 0t54 0q0 -6 -0.5 -12.5t-5.5 -11.5t-13 -9.5t-13 -9.5q-12 -11 -17.5 -21t-7.5 -26q-1 -16 2 -31t4 -30t1 -30.5v-30.5q0 -33 2.5 -66.5t1.5 -65.5q-1 -9 1.5 -16.5t0.5 -16.5q-1 -8 -1.5 -16t-1.5 -16t-1.5 -15t-0.5 -15q0 -9 0.5 -17.5t1.5 -17.5
q1 -10 1 -19v-19v-19t1 -18q1 -8 1 -19t-2 -19q-2 -5 -9 -11.5t-12 1.5q-1 0 -2.5 -0.5t-2.5 -0.5q-8 8 -14 18t-14 20q-8 11 -16.5 18.5t-15.5 18.5q-28 42 -51 92q-11 24 -29 45t-32 43q-2 -5 -2 -13.5t2 -14.5q1 -9 0.5 -17t0.5 -16q1 -15 1.5 -30t1.5 -31q0 -14 2 -31
t9 -28q3 -5 8.5 -11t11.5 -8q5 -2 14.5 -1t14.5 -4q11 -11 2 -18.5t-17 -10.5q-4 5 -10.5 2.5t-11.5 -2.5q-8 1 -14.5 3t-14.5 2q-6 0 -12.5 -1.5t-11.5 -1.5q-6 1 -13 2.5t-13 1.5q-14 1 -27.5 -1t-28.5 0q-6 0 -12.5 2t-11.5 1q-6 -2 -11 -5t-13 -3q-7 -2 -10 4
q-4 8 -2 14t7 10t11 7t11 6q14 10 16.5 23.5t3.5 27.5q2 15 0.5 29.5t-1.5 30.5v31q0 4 -0.5 8.5t0.5 7.5q2 4 5 6.5t3 6.5q1 2 -1 4t-4 3q3 8 1.5 16.5t-2.5 16.5t-0.5 16.5t0.5 16.5q-1 16 -1.5 31t-1.5 32q0 15 -2 29t-2 28q0 6 -0.5 13.5t-0.5 14.5v15v15q-1 8 -1 15.5
v15.5q0 5 0.5 9t0.5 7q0 2 1.5 4t1.5 4q-1 2 -4 1.5t-3 1.5q-4 11 -5.5 31t5.5 29v9q3 8 8.5 5t11 -9.5t10 -14t6.5 -9.5q16 -23 31 -43q8 -11 14.5 -23.5t14.5 -23.5t15.5 -21t11.5 -22q8 1 11.5 -8.5t7.5 -14.5q5 -7 11.5 -12.5t12.5 -11.5q11 -12 20 -24.5t20 -23.5
q0 1 1 1.5t1 1.5q-2 14 -1.5 28t-0.5 28q-2 17 -3.5 31.5t-0.5 31.5q1 15 1.5 30t-1.5 30q-2 19 -16 22.5t-27 6.5q-3 1 -11.5 2t-10.5 3q-6 4 -6 10.5t-1 14.5q2 0 4 2q5 0 13 2.5t12 -2.5q10 6 25 4.5t26 -1.5q13 -1 26.5 -1.5t27.5 -1.5z" />
    <glyph glyph-name="O" unicode="O" horiz-adv-x="404" 
d="M95 547q1 4 7 12q3 3 5 6q4 5 7.5 8t8.5 5l53 10q17 3 36.5 0t38.5 -5q8 0 17 -0.5t16 -1.5q10 -1 16.5 -4.5t15.5 -5.5q2 -8 9.5 -13t11.5 -12t7 -16t6 -17q6 -17 13 -35t12 -36q5 -17 9.5 -37.5t8.5 -39.5q5 -20 6 -39.5t3 -40.5q2 -42 -8 -79t-23 -76
q-8 -25 -19.5 -52t-30.5 -47q-3 -16 -29 -21q-3 -2 -6 -2.5t-6 -2.5q-11 -3 -23.5 -4t-25.5 -1q-20 0 -39.5 1.5t-37.5 2.5q-14 1 -31 1t-28 4q-11 5 -12 12t4 15q-8 13 -18.5 27.5t-15.5 28.5q-7 20 -6.5 39.5t-4.5 39.5q-5 19 -13.5 36t-10.5 37t-4 39t0 39q4 21 6.5 40.5
t8.5 40.5q4 19 15 39q5 11 7 21t6 19q5 9 9.5 17.5t9.5 16.5q3 5 4 8t6 9q3 4 6.5 7t2.5 7zM265 194q5 20 6 39t2 40q1 38 -4 76t-19 73l-10 26t-11 26q-4 4 -6 5q0 9 -4.5 11.5t-10.5 0.5q-2 -3 -3.5 -6t-3.5 -5q-12 -17 -22 -33t-15 -34q-3 -9 -9 -20t-7 -20
q-1 -5 0.5 -10t1.5 -10q1 -5 0.5 -10t-1.5 -10q-1 -8 -1 -17v-17v-23t1 -24q1 -20 8 -37t11 -34l4 -7q7 -14 9.5 -30.5t10.5 -30.5q5 -5 13 -9q13 -4 21 1l9 15q5 8 11 17.5t9 17.5q1 3 -1.5 5.5t-1.5 4.5t3.5 4.5t2.5 4.5q2 5 3.5 10t3.5 10z" />
    <glyph glyph-name="P" unicode="P" horiz-adv-x="371" 
d="M374 535q2 -13 -4 -32.5t-17 -29.5q-12 -12 -22 -25.5t-25 -23.5t-30 -13.5t-29 -15.5q-1 1 -3 -1t-3 -1q-13 -8 -27 -14.5t-26 -15.5q-22 -15 -23 -39q0 -7 2 -18.5t1 -21.5q1 -14 0.5 -27.5t-2.5 -26.5q-3 -24 -3 -49q0 -23 2 -45t5 -45v-12q1 -5 5 -15l1 -1q2 -4 2 -7
l6.5 -6.5t6.5 -5.5q14 -9 31.5 -13t33.5 -4h15t12 -8q1 -3 -0.5 -7.5t-3.5 -7.5q-11 -1 -21.5 0t-20.5 -1q-5 -1 -10 -2.5t-10 -0.5q-3 0 -4 1t-4 2q-10 2 -19.5 0.5t-19.5 -2.5q-12 -2 -27.5 -1.5t-27.5 1.5q-6 1 -12.5 1h-13.5q-5 0 -13.5 -1.5t-15.5 -1.5q-3 0 -6.5 -0.5
t-7.5 -0.5q-5 -1 -11 1t-10 2q-5 -1 -9 -3t-9 -2q-1 0 -6 0.5t-10.5 1t-10.5 1l-5 0.5q-4 5 -2 8t6.5 5t9 3t6.5 2q7 2 12.5 7t10.5 9q9 6 12 9.5t6 14.5q7 19 9 41q1 9 1.5 17.5t0.5 17.5q0 17 -1 33t-3 33q-1 11 -1.5 21t-0.5 20q0 14 0.5 27t0.5 27q0 7 -1.5 23t-3 32.5
t-1 30.5t4.5 16l-1 15q0 7 -3.5 13t-3.5 12q0 3 3 7t3 8t-1 7.5t-2 7.5q-2 14 -3.5 28.5t-6.5 28.5q-2 5 -7.5 11.5t-9.5 9.5q-6 4 -15 4.5t-14 5.5q-6 8 -1 12t14 6.5t19 3t14 0.5q9 1 17 -1.5t18 -0.5q9 1 18 2.5t20 0.5q10 -1 18 -1t18 2q5 2 11.5 3.5t11.5 0.5t8.5 -3
t7.5 -3q11 -2 21 2t21 5q11 0 20.5 2.5t19.5 2.5q11 0 19 -1t19 1q9 1 18 -1t17 -4q14 -3 28.5 -17t16.5 -31zM228 468q1 12 -4 25.5t-14 21.5t-19.5 7.5t-20.5 -14.5q-9 -14 -10.5 -29.5t-0.5 -32.5v-2q0 -6 3 -12q3 -8 5.5 -11.5t11.5 -2.5q10 1 22 10q2 2 4.5 2.5
t4.5 2.5q17 15 18 35z" />
    <glyph glyph-name="Q" unicode="Q" horiz-adv-x="423" 
d="M400 284q2 -7 5 -13.5t3 -13.5q0 -15 -4.5 -30.5t-8.5 -29.5q-4 -16 -6.5 -31.5t-8.5 -30.5q-3 -8 -7 -15t-6 -15q-3 -9 -5 -15.5t-8 -15.5t-13 -21t-14.5 -23.5t-17.5 -20t-22 -10.5q7 -7 13 -17.5t11 -17.5q4 -6 11 -13t13.5 -14.5t11.5 -15.5t4 -15q-10 -7 -19 -18.5
t-19 -20.5q-15 -14 -30.5 -23t-35.5 -17q-11 -4 -18 -4.5t-18 1.5q-9 2 -19 3t-18 4q-10 5 -11 13t-6 19q-4 7 -8.5 13.5t-9.5 13.5q-10 15 -19.5 28.5t-17.5 30.5q2 4 4 5q0 5 5 12q4 5 8 7.5t9 5.5q7 9 5 16q-1 4 -6 6q-11 2 -18 5q-11 6 -17 20t-11 24q-6 14 -11 26.5
t-10 26.5q-5 15 -7 31t-6 30q-2 2 -3.5 6t-2.5 8q-2 4 -3 7t-2 8q-2 8 -2 17t-2 17q-2 5 -4 8.5t-3 8.5t0 9.5t0 9.5l-2 14l-2 14q-2 17 0 33t5 32q3 15 3.5 31.5t5.5 32.5q3 8 6.5 16t6.5 16q2 8 4.5 15.5t7.5 14.5l3 6q-1 2 2.5 9.5t9 16.5t10.5 17t7 10q0 3 6.5 10
t8.5 11q9 9 25 16q12 5 29 5.5t30 0.5h30t30 -1q8 -1 15.5 -0.5t15.5 -0.5q7 -2 15 -1.5t15 -3.5q14 -7 18.5 -17.5t9.5 -22.5q2 -5 4.5 -8.5t4.5 -8.5q2 -3 2.5 -6.5t2.5 -7.5q2 -7 5 -13t5 -14q4 -13 6.5 -26t8.5 -27q2 -3 3 -6.5t3 -6.5q2 -5 2 -7t1 -6l4.5 -13.5
l4.5 -13.5q2 -14 2 -29.5t2 -30.5q1 -7 -0.5 -15t-0.5 -14zM211 -51q11 1 18 5t11.5 9.5t8 12.5t8.5 14q0 7 -6 11l-2 1q-3 1 -10 1h-9h-11t-11 -2q-2 0 -4 -2q-6 -7 -10 -16t-4 -17t4.5 -13t16.5 -4zM278 254q3 16 2 31t-2 29q0 16 -1 31t-3 29q-5 2 -5 8t-2 11
q-3 6 -6.5 11t-6.5 11q-4 10 -5.5 21t-7.5 19l-3 7q-8 17 -20 22.5t-23 -13.5l-16 -26t-13 -27q-12 -32 -14.5 -64t-1.5 -64q1 -29 7 -54t12 -51q2 -13 7.5 -23.5t9.5 -22.5q4 -11 9 -23t15 -20l1 1q8 -6 17.5 5.5t17.5 29.5t14 36l8 24q5 16 6 31t4 31z" />
    <glyph glyph-name="R" unicode="R" horiz-adv-x="378" 
d="M407 -35q6 -8 1.5 -12.5t-12.5 -7.5t-17 -4t-13 0q-29 3 -55.5 8.5t-51.5 22.5q-19 14 -24.5 36t-5.5 45v15t1 15q2 34 -1 67t-1 67q2 17 1 35.5t-1 35.5q-1 17 -1.5 31.5t-7.5 28.5q0 1 -0.5 1.5t-0.5 1.5q-3 5 -6.5 9.5t-8.5 7.5q-6 3 -16 5q-7 1 -9 -1.5t-7 -5.5
t-8 -4.5t-5 -7.5q-2 -5 -3 -10l-2 -10v-3q1 -5 2 -10.5t2 -10.5q2 -10 3 -20t1 -20q0 -18 -3 -36q-3 -24 -3 -49q0 -23 2 -45t5 -44v-12q1 -4 2 -7.5t3 -8.5h1l3 -9q0 -3 -0.5 -6.5t0.5 -6.5q0 -2 2 -5.5t1 -5.5q-2 -7 -7.5 -9t-10.5 -4q-11 -5 -22.5 -8t-23.5 -5h-17h-15
q-10 -2 -19.5 -4t-20.5 -3q-5 0 -11 2t-10 1q-5 0 -8.5 -2t-8.5 -3q-2 0 -7 0.5t-10.5 1t-10.5 1.5l-5 1q-4 5 -2 8t6.5 4.5t9 2.5t6.5 2q7 3 12.5 8t10.5 9q9 6 12 9.5t6 14.5q7 19 9 41q1 9 1.5 17.5t0.5 17.5q0 17 -1 33t-3 33q-1 11 -1.5 20.5t-0.5 19.5q0 14 0.5 27.5
t0.5 27.5q0 6 -1.5 22t-2.5 33t-1 31t5 16l-2 15q0 6 -3.5 12t-3.5 13q0 3 3 6.5t3 8.5q0 3 -1 6.5t-2 7.5q-2 15 -3.5 29.5t-6.5 28.5q-2 5 -7.5 11.5t-9.5 8.5q-6 5 -15 5t-14 5q-6 8 -1 12t14.5 6.5t19.5 3t14 0.5q9 1 16.5 -1t17.5 -1q9 2 18 3.5t20 0.5q10 -1 18 -1
t18 2q5 1 11.5 3t11.5 1t8.5 -3.5t8.5 -2.5q10 -2 20 2t21 4q11 1 20.5 3t19.5 3q11 0 19 -1t19 0q9 2 18 0t17 -4q14 -4 28.5 -18t16.5 -30q2 -13 -4 -32.5t-17 -30.5q-12 -12 -22 -25t-25 -23q-11 -8 -22.5 -12.5t-22.5 -10.5q2 -8 11.5 -11t20.5 -5q14 -4 28.5 -3
t26.5 -8t10 -25t-1 -30q1 -17 1.5 -33t0.5 -33q0 -16 -3.5 -32t-2.5 -32q1 -17 2.5 -32.5t2.5 -31.5q1 -14 1 -30.5t1 -33t4.5 -32t10.5 -27.5q7 -13 15 -23q5 -7 13 -10.5t12 -8.5zM151 440q3 -9 6.5 -16.5t15.5 -0.5q7 4 14 9l14 10q9 7 16 16q3 7 3 15q1 12 -4 25.5
t-14 21t-19.5 7.5t-20.5 -15q-9 -14 -10.5 -29t-0.5 -32v-11z" />
    <glyph glyph-name="S" unicode="S" horiz-adv-x="357" 
d="M233 357q-2 6 -2.5 16.5t-0.5 20.5q0 11 1 25t-2.5 28.5t-3.5 28.5q-1 12 -2 23t-9 17q-13 0 -24.5 -4t-17.5 -18q2 -5 -1.5 -7t-5.5 -7q-2 -8 0 -15q1 -9 2.5 -16.5t3.5 -15.5q2 -4 2.5 -7t2.5 -6q5 -6 7 -12q7 -17 18 -31.5t19 -31.5q8 -16 15.5 -31.5t17.5 -30.5
l12 -21q6 -8 11.5 -15.5t7.5 -15.5q8 -6 17 -15.5t17 -17.5q1 -1 1.5 -2t1.5 -2q7 -10 11 -22.5t7 -24.5q3 -11 5.5 -23.5t2.5 -23.5q0 -10 -1.5 -25t-7.5 -23q0 -5 -1 -8q-5 -5 -9.5 -10t-11.5 -10q-10 -7 -21 -10.5t-22 -5.5q-4 -5 -9 -8.5t-9 -2.5l-25 3q-2 -1 -5 -1
q-3 -1 -7 -1q-2 1 -4.5 3t-4.5 3q-2 0 -2.5 0.5t-2.5 0.5q-3 -1 -6 -3t-5 -3q-4 -1 -6.5 0t-7.5 1q-14 -1 -28.5 -0.5t-27.5 -0.5q-14 -1 -24 -7t-21 -13q-5 -3 -8 -7t-8 -6q-5 -3 -11 -3.5t-11 -2.5q-5 7 -8.5 10.5t-4.5 12.5q-1 8 -0.5 15.5t-1.5 15.5q-1 8 -0.5 16
t-0.5 16t-3 16t-1 17q2 15 2 29.5t1 30.5q0 2 0.5 4t0.5 4q9 8 18 5q4 5 8.5 9t9.5 9t8 10t8 12l8 10t7 10q3 6 5 12t7 11q8 9 18 8t15 -11q1 -8 -0.5 -16t-1.5 -17v-31.5t3 -30.5q2 -9 1 -19.5t-1 -21.5q0 -8 1 -15t4 -13q9 -7 23 -11q3 0 6.5 0.5t5.5 0.5q3 0 5.5 -0.5
t4.5 -0.5q15 4 18 14.5t10 21.5q-3 5 -4 14.5t-3 14.5q-2 8 -4.5 15t-5.5 14q-2 5 -4 10.5t-4 10.5q-10 12 -17 25.5t-15 26.5q-8 12 -16 23.5t-16 22.5q-2 4 -4.5 7.5t-4.5 6.5q-8 12 -15.5 25t-15.5 27q-1 1 -2 1.5t-3 2.5l-7 12q-11 27 -28 48q-19 24 -19 51q0 7 -0.5 13
t1.5 14q1 6 4 14t2 13q14 13 25.5 26t28.5 23q1 7 10 9.5t14 4.5q25 9 51.5 11.5t52.5 1.5q1 0 2 1q13 1 25.5 2.5t23.5 6.5q7 3 13 5.5t12 6.5q7 5 12 8.5t13 5.5q9 2 12.5 0t4 -6t-0.5 -9.5t-1 -11.5q1 -5 3 -9.5t0 -9.5q-1 -8 -1.5 -11.5t0.5 -10.5q1 -11 1 -21.5
t1 -20.5q1 -8 0 -23t6 -19v-1q-1 -3 -1.5 -5.5t-0.5 -5.5q-2 -9 -12 -16q-8 -7 -17 -15.5t-16 -16.5q-5 -5 -7 -11.5t-6 -11.5q-3 -5 -6.5 -9.5t-5.5 -9.5q-2 -3 -4 -9t-5 -11t-7 -7t-9 4q-1 -1 -2 1.5t-2 1.5q-2 5 -4 6.5t-4 7.5z" />
    <glyph glyph-name="T" unicode="T" 
d="M402 563q1 -5 1 -12.5t-2 -12.5q-2 -12 -7 -24.5t-6 -26.5q-1 -7 -1.5 -14t-3.5 -14q-2 -2 -3.5 -5.5t-3.5 -5.5l-4 -6q-2 -3 -3 -6q-5 -5 -12.5 -3.5t-10.5 7.5q-2 3 -1 6t-1 7q-2 3 -5.5 6.5t-5.5 7.5q-1 2 -4 7t-6 10.5t-5 10t-2 6.5q-5 7 -6.5 13t-7.5 13
q-10 10 -19 15q-10 -8 -15 -19.5t-7 -23.5q-2 -7 -2 -14.5v-15.5q2 -8 0.5 -14.5t0.5 -14.5q2 -15 3.5 -29t-0.5 -30q-2 -13 -1 -26l2 -26q1 -8 0 -14t-1 -13q1 -8 2 -15t1 -15q0 -3 -0.5 -7t-0.5 -8l2 -6l2 -6q1 -8 -2 -16t-3 -17q2 -14 3 -29t2 -28q0 -14 -1 -27.5
t3 -26.5q1 -3 3 -10.5t5 -15t6 -14t6 -7.5q1 -3 8 -8t10 -7q11 -7 22 -12q3 -9 -0.5 -13t-9.5 -5t-13 -1h-11q-8 0 -14.5 -1.5t-14.5 -3.5q-7 -1 -14.5 0.5t-15.5 0.5q-9 0 -17.5 -1.5t-17.5 -0.5q-8 1 -16.5 0.5t-17.5 0.5q-14 1 -27.5 0t-27.5 -3q-6 -1 -13 0.5t-12 4.5
t-5.5 8t5.5 11q4 -2 16 5.5t16 10.5q6 5 14 14.5t10 17.5q2 5 -0.5 10.5t-2.5 10.5q0 6 0.5 12.5t0.5 12.5q0 14 1 26.5t3 26.5q3 17 -1 35t-5 35q-1 16 -2 31.5t1 32.5q2 15 1.5 30t1.5 30q1 6 0 14.5t-1.5 17t0 16t3.5 11.5l1 7q-2 5 -1.5 13t-0.5 13q0 8 -1.5 13.5
t-3.5 13.5q-4 12 -5.5 24.5t-11.5 23.5q-2 2 -4.5 4t-5.5 4q-3 -4 -6.5 -10t-5.5 -10q-8 -12 -14.5 -24t-12.5 -25q-2 -5 -4 -12t-5 -13.5t-7.5 -11t-10.5 -3.5q-12 1 -17.5 16t-7.5 26q-3 15 -6 29t-7 28q-1 6 -4 13.5t-4.5 15t0 13.5t7.5 9q4 2 13 3t14 0q8 0 15 1t15 1
q14 0 27.5 -1.5t27.5 -1.5q14 1 28.5 1.5t29.5 2.5t28.5 1.5t28.5 -4.5l1 -1q12 -1 23 -1.5t22 1.5q6 2 11 0q12 2 24 3.5t24 1.5t15 -4q9 2 18 2t17 -3q6 -2 9.5 -8t3.5 -12z" />
    <glyph glyph-name="U" unicode="U" horiz-adv-x="382" 
d="M398 573q2 -9 -4.5 -12t-13.5 -7q-15 -9 -22 -21.5t-9.5 -26.5t-2 -30t-0.5 -31q-1 -17 1.5 -33.5t2.5 -33.5q-1 -8 -1 -17v-17v-17.5t2 -17.5q1 -9 1 -18v-17q0 -24 -1 -48t0 -50q2 -32 -4.5 -60.5t-26.5 -55.5q-8 -11 -19 -24.5t-24 -21.5q-12 -8 -28 -8
q-8 -1 -14.5 -2.5t-14.5 -3.5q-32 -5 -62.5 2t-55.5 25q-24 18 -46.5 42t-22.5 56q1 32 2.5 65.5t2.5 66.5q0 17 -2 34.5t-2 34.5q1 9 1.5 17.5t-0.5 17.5t0.5 19.5t-1.5 19.5v11q0 13 -1.5 25t-2.5 25q0 11 -0.5 24.5t-2.5 23.5t-6.5 23.5t-13.5 19.5q-7 5 -19.5 7t-21.5 4
q-4 13 7 13.5t19 -0.5q11 0 20.5 3t19.5 1q9 -1 15.5 -3t17.5 0q9 1 17.5 1h17.5q18 -2 36 -1t35 -1t34.5 0.5t34.5 2.5q8 0 17 0.5t17 0.5q9 1 17 -2t16 -3t16.5 1.5t16.5 1.5t17 1t17 3q8 1 15 1t9 -10zM238 160q-1 18 1 35.5t1 34.5q-1 16 -1 31.5t-1 32.5t-3.5 33.5
t-2.5 32.5q-1 16 -1 32.5v33.5q0 11 2 27t2 33q0 20 -5 35t-20 20q-5 2 -8 1t-8 0l-9 -5q-5 2 -10.5 -2.5t-10 -11.5t-7.5 -14t-4 -11q-3 -15 -3 -29q0 -9 0.5 -18t0.5 -17q-1 -30 0 -64.5t1 -66.5q0 -17 2 -32.5t2 -30.5q1 -16 0.5 -32t1.5 -31q1 -17 0 -32.5t4 -32.5
q3 -10 11 -22q3 -5 8.5 -10t7.5 -10q6 -3 10 -7q16 -2 24.5 9t11.5 26.5t3 33v28.5z" />
    <glyph glyph-name="V" unicode="V" horiz-adv-x="381" 
d="M397 580q4 -3 4.5 -10.5t-3.5 -12.5q-5 -5 -13.5 -5t-13.5 -2q-12 -5 -18.5 -17.5t-10.5 -24.5q-1 -5 -0.5 -12.5t0.5 -13.5q-1 -6 -1.5 -12.5t-0.5 -14.5q0 -3 2 -22.5t4 -41.5t3 -38t0 -13q-5 -9 -7 -19.5t-5 -19.5q-5 -12 -8.5 -23.5t-8.5 -23.5q-10 -26 -20.5 -51.5
t-18.5 -52.5q-5 -14 -9 -28t-9 -28q-4 -10 -6 -14v-3q0 -2 -2 -4q-2 -3 -2.5 -6.5t-2.5 -7.5l-2 -2q-2 -3 -5 -5q-2 -4 -3 -7q-1 -2 0 -4.5t0 -4.5q-1 -7 -5 -12t-7 -11q-7 -14 -10 -29t-10 -29q-3 -5 -9.5 -10.5t-12.5 -0.5q-5 5 -7 13t-4 14q-2 5 -3.5 9.5t-3.5 9.5
q-4 8 -7 12.5t-4 12.5q0 8 -3.5 12.5t-7.5 10.5q-2 5 -2 8t-1 7q-3 3 -7 9q-5 6 -6 11t-3 12q-3 12 -9.5 24.5t-11.5 22.5q-8 13 -13.5 25t-10.5 26q-5 12 -7.5 25t-7.5 26q-5 15 -13.5 29.5t-11.5 30.5q-2 10 -5.5 17t-8.5 15q0 2 0.5 3t0.5 3q1 7 1.5 14.5t-0.5 15.5
q0 3 0.5 6.5t0.5 6.5q-2 6 -1 23.5t2 34.5q1 6 -1.5 14t-3.5 13q-2 9 -0.5 24t-5.5 22q3 7 -2 17.5t-10 15.5q-7 8 -12 12t-14 6q-7 2 -17.5 4t-6.5 13q2 6 6 6.5t9 1.5q2 0 3 -2t3 -2t5 2t5 4q12 -6 27.5 -4t27.5 0q15 -2 30.5 0.5t29.5 1.5q31 -2 59 -4t58 1
q29 4 58.5 0.5t58.5 -0.5q8 1 15.5 1.5t15.5 -0.5q5 0 13.5 1.5t13.5 -1.5zM152 519q-6 -12 -7.5 -29.5t-1.5 -31.5v-24.5t0.5 -13.5t1 -14t0.5 -26q2 -8 4.5 -14.5t4.5 -14.5q3 -12 5 -24.5t5 -24.5q5 -23 15 -50q4 -10 6.5 -22.5t9.5 -20.5q7 8 9.5 20.5l4.5 22.5
q2 12 5.5 24.5t6.5 25.5q3 12 6.5 24t5.5 25q0 3 0.5 5.5t1.5 5.5q-1 6 -1.5 13t-2.5 16q-2 10 -4.5 30.5t-2.5 43.5q0 6 1.5 11t2.5 11q0 6 -1 11.5t1 10.5l-10.5 21t-18.5 12l-1 2q-14 -3 -26.5 -5.5t-19.5 -19.5z" />
    <glyph glyph-name="W" unicode="W" horiz-adv-x="570" 
d="M560 578q5 0 14 0.5t17 -1t13.5 -5.5t3.5 -12q-2 -6 -9.5 -8t-16 -4t-15 -4.5t-6.5 -9.5q-5 -1 -10 -8q4 -16 -2 -33t-7 -32q-1 -5 -0.5 -7t1.5 -7q1 -4 3.5 -9.5t2.5 -7.5t-2 -4t-2 -4l1 -8q-1 -2 -1.5 -18t-1 -35.5t0 -37t2.5 -23.5q1 -15 2.5 -26.5t1.5 -22.5
t-2.5 -22.5t-9.5 -25.5q-8 -15 -16.5 -33t-18.5 -36.5t-20.5 -36t-20.5 -30.5q-3 -4 -9 -10t-8 -12q-1 -4 -1 -7.5t-2 -7.5t-4.5 -7.5t-4.5 -7.5q-1 -3 -0.5 -6.5t-1.5 -5.5q-1 -2 -2.5 -3.5t-2.5 -3.5q-2 -4 -3 -6.5t-3 -6.5q-3 -4 -3.5 -7t-2.5 -8q-2 -2 -3 -4t-3 -4
q-2 -5 -2 -7t-5 -4q-5 2 -8 5.5t-6 8.5q0 1 -1 1t-1 1q-1 1 -0.5 2.5t-0.5 2.5q-3 4 -7 6t-7.5 4.5t-6.5 5.5t-4 8q0 3 1 5t-1 4q-2 4 -6.5 5.5t-6.5 4.5v4q-2 6 -2 13t-2 13v1q-5 3 -7.5 6.5t-8.5 7.5q2 8 -6 12.5t-12 9.5q-2 3 -3 7t-3 7t-5 5t-5 5q-2 2 -4 6
q-7 -9 -13.5 -18t-13.5 -19q-4 -6 -6 -12t-7 -12q-7 -7 -12 -8v-3q-2 -6 -5.5 -11.5t-6.5 -11.5q-7 -14 -10 -28.5t-11 -28.5q-3 -6 -9 -11t-12 0t-7.5 12.5t-3.5 13.5l-4 10l-4 10q-4 8 -6.5 12t-3.5 12q0 8 -3 12t-6 9q-10 5 -15.5 15t-13.5 22q-10 14 -12.5 28.5
t-13.5 25.5q-2 12 -11 28.5t-18.5 33.5t-18 34t-9.5 29q-1 9 0.5 30t2.5 46t0.5 49.5t-5.5 41.5q1 9 -1 17.5t1 16.5l-3 13q-2 7 -1 13.5t-1 13.5q-2 5 -3.5 7t-2.5 6q-1 2 0.5 4.5t0.5 3.5q-1 2 -3 3.5t-2 2.5q-2 11 -3.5 13.5t-12.5 6.5q-5 2 -13 4t-13 -1q-8 13 -4 19.5
t14.5 9t23 2.5t20.5 1q25 3 50 3q11 0 23 -2.5t25 -1.5q17 1 36 0.5t38 -0.5q18 0 35.5 -0.5t34.5 1.5q20 2 37 1.5t37 1.5q8 2 16.5 3.5t17.5 0.5q8 0 15.5 -2.5t15.5 -1.5q0 -3 -1 -4h10q17 0 35.5 -1t35.5 -1q19 1 35.5 2t36.5 2zM145 474q-2 -32 -3 -54.5t0 -43.5
t4.5 -43.5t10.5 -53.5q4 -16 9.5 -32t11.5 -31q3 -8 6 -15.5t6 -15.5q2 -5 3 -11t4 -11q6 2 10 3q5 8 6.5 20t-0.5 17q6 7 9 17t4 21t1.5 22t2.5 19q1 5 2.5 11.5t2.5 13.5v11t1 12v8q0 3 0 -3.5t-1 -5t-3 19t-5 68.5q0 6 -1 14t-1 13q1 7 4.5 14.5t3.5 13.5t-2.5 13.5
t-5.5 15t-5 14t0 11.5q-12 11 -29.5 13t-31.5 -9q-7 -5 -10 -11.5t-3.5 -14t-0.5 -15.5v-15zM346 511q-1 -5 -2 -9t-3 -7q-1 -17 -0.5 -32t2 -32.5t3.5 -40.5t3 -55q0 -8 2.5 -17t1.5 -18q-1 -5 -1 -10v-10q1 -6 2 -11.5t3 -11.5q5 -14 11 -26.5t11 -26.5q4 -12 8.5 -24
t9.5 -24q5 0 7 1q1 11 4.5 22t5.5 22q1 5 3.5 10t3.5 11q1 2 -0.5 5t-0.5 5q0 2 1 6t2 7q2 11 5.5 20.5t5.5 20.5q1 8 3 23.5t-3 21.5q2 3 2.5 22t-0.5 40.5t-1.5 40.5t-0.5 24q0 6 0.5 15t0 18t-2.5 17t-7 14q-5 5 -10.5 9.5t-11.5 5.5q-2 1 -7.5 0t-8.5 -1q-4 1 -7.5 2
t-8.5 0q-10 -3 -15 -11z" />
    <glyph glyph-name="X" unicode="X" horiz-adv-x="416" 
d="M381 61q3 -6 14.5 -13t22.5 -14.5t17.5 -14.5t-0.5 -12q-2 -1 -8 -2t-13 -1.5t-13.5 -0.5h-8.5q-11 1 -21 4t-23 3q-12 -1 -22.5 2t-23.5 2q-10 -1 -17.5 -4t-15.5 2t-13 18t-8 23t-8.5 19.5t-8.5 19.5q-3 12 -5 23t-7 23q-3 6 -5.5 12.5t-4.5 13.5l-1 1l-3 6l-9 21
q-2 4 -6.5 4.5t-6.5 3.5q-6 7 -12 9.5t-13 -5.5q-5 -6 -7 -18.5t-2 -25.5q0 -10 1 -18.5t3 -13.5q2 -7 4 -10.5t3 -9.5q1 -4 0 -10t0 -11q2 -11 0.5 -21t-15.5 -12l-3 3q-5 -5 -10.5 -5t-10.5 5q-15 -13 -30 -18t-29 -21q-4 -4 -7.5 -12.5t-7.5 -16t-9.5 -11.5t-13.5 0
q-1 20 -1 37.5t-3 36.5v8q5 8 3.5 14.5t-1.5 14.5q0 7 1.5 14.5t2.5 15.5q1 16 1.5 30.5t-1.5 31.5q-1 5 -2.5 14t-2.5 18.5t0 17.5t6 12q6 5 11 3t10.5 -6.5t11 -8.5t11.5 -3q6 -9 16 -9t19 5t16.5 13t9.5 16q2 11 3.5 22t-3.5 21q-5 11 -8 19.5t-6 21.5q-1 5 -2 11t-1 12
q-3 7 -5 11q-5 8 -5 11q-5 14 -8.5 27.5t-9.5 26.5q-9 18 -17 35t-17.5 32.5t-22.5 29t-32 25.5q-4 2 -15 5.5t-12 6.5q-4 13 5.5 12.5t16.5 -0.5q20 0 39.5 1t39.5 1h17t17 -2t18 0.5t17 1.5q6 0 11 -5t9 -12t7 -14.5t5 -13.5l3 -6q12 -20 19 -43.5t17 -45.5q4 -9 7.5 -18
t8.5 -18q1 -2 1 -2.5t1 -2.5q7 -4 13 2.5t10.5 16.5t6.5 20.5t2 16.5q-2 23 -7 47.5t-2 47.5q11 3 22 4.5t21.5 4t20 7t18.5 12.5q13 14 21.5 30.5t26.5 24.5q7 -4 9 -17.5t2 -30.5q0 -25 -2.5 -51t-2.5 -37q0 -16 1.5 -30t-0.5 -30q-1 -7 0 -16t1.5 -18t0.5 -17.5t-3 -15.5
q-11 -1 -22.5 3.5t-23 8.5t-23 5.5t-21.5 -4.5q-11 -6 -15 -15t-4 -19q0 -12 4 -24t9 -23q7 -19 15 -41.5t7 -42.5q3 -9 7 -17q10 -18 15.5 -33.5t13.5 -35.5q8 -19 14 -38.5t16 -36.5z" />
    <glyph glyph-name="Y" unicode="Y" horiz-adv-x="375" 
d="M358 584q7 1 17.5 2t21.5 1q14 0 25.5 -2.5t17.5 -10.5q-5 -10 -15 -9.5t-18 -1.5q-10 -3 -17 -9.5t-13 -14.5q-13 -16 -21 -34l-16 -36q-10 -22 -18 -43.5t-20 -42.5q-23 -42 -35 -84q-3 -14 -8 -25t-12 -22q1 -4 0 -5t-3 -9q-2 -5 -1.5 -9.5t1.5 -9.5q2 -10 0.5 -18
t0.5 -18q3 -16 2.5 -32t1.5 -31q1 -8 1 -15.5t4 -15.5q3 -6 6.5 -11.5t6.5 -10.5q11 -27 36 -37q6 -2 12.5 -5.5t2.5 -12.5q-3 -6 -9.5 -6.5t-13.5 -1.5q-8 -1 -14 -2t-14 1q-5 2 -7 3.5t-9 0.5q-5 -1 -8.5 -1.5t-7.5 -0.5h-29.5t-29.5 -2q-8 -1 -14.5 -1t-13.5 -2
q-7 -1 -14.5 -2t-15.5 -1q-8 1 -15.5 2t-15.5 2q-7 1 -13 3t-13 1v10t7 6q4 2 8.5 4.5t8.5 4.5q6 -2 14.5 8.5t13.5 15.5q4 5 7 11t3 12q0 3 -2 6.5t-2 6.5q0 5 2 9t3 9q1 7 1.5 15t0.5 16q0 10 -0.5 19.5t-1.5 18.5q-2 12 0 26q-11 9 -10 21.5t1 25.5q0 9 -4 17t-1 18
q-4 4 -5 6q-3 5 -4 10.5t-3 11.5q-4 11 -7 22.5t-6 21.5q-8 21 -19 39t-19 38q-7 17 -14 38t-17 39q-13 23 -27 34t-36 21q-2 1 -6 1h-6q-8 11 6 18l4 -2q13 3 29 3q14 0 28.5 -1.5t28.5 -1.5h45q8 0 23 1t22 -4q6 -5 11 -16t9 -17q7 -10 11 -19.5t7 -20.5q4 -16 9 -31.5
t10 -30.5q10 23 18.5 46.5t15.5 48.5l10 6q1 8 4.5 14t4.5 14q8 2 15.5 7t15.5 0q11 -2 22 -1t23 0t23 1t22 3z" />
    <glyph glyph-name="Z" unicode="Z" horiz-adv-x="409" 
d="M382 584q3 0 10 2t13 2t9.5 -2t0.5 -9q-1 -3 -6 -6t-10.5 -6l-11 -6t-8.5 -6q-7 -7 -12.5 -17t-10.5 -20q-22 -45 -42.5 -93t-29.5 -99l-8 -21q-3 0 -8.5 -12t-11.5 -28t-11 -30.5t-6 -20.5q-6 -23 -16 -46.5t-18 -47.5q-2 -8 -5.5 -14.5t-7.5 -14.5q-3 -12 -3 -21
q11 0 16 -11q9 2 22.5 4.5t21.5 10.5q2 2 4 7q-1 5 -1.5 11t-0.5 11q0 10 2 21t2 21q0 9 -1.5 18.5t2.5 18.5q12 -5 21 0q11 -3 29.5 6.5t27.5 17.5t13.5 15.5t7.5 16t5 17.5t6 19q13 -1 16.5 -21t3.5 -44q0 -17 -1 -31.5t-1 -22.5q0 -17 -2.5 -34t-2.5 -34q0 -8 1 -16.5
t2 -17.5q-4 -8 -4 -18.5t-6 -18.5q-8 -10 -19.5 -13.5t-22.5 -3.5q-23 0 -48 5.5t-50 1.5h-2q-19 -1 -37 -1.5t-36 1.5q-2 -1 -2.5 -1t-2.5 -1q-11 -5 -21.5 -3t-21.5 3h-48q-11 -1 -21 -3.5t-21 4.5q-4 -2 -18 -2.5t-26.5 1.5t-19.5 6.5t3 13.5q3 3 8.5 3.5t11.5 0t11.5 -1
t9.5 1.5q8 4 14.5 11t11.5 13q31 32 49 68.5t29 78.5q12 49 34.5 96.5t38.5 95.5q8 23 12.5 48t12.5 50q2 5 3.5 9.5t3.5 9.5q-4 10 -14 20q-2 -1 -3 -2t-3 -2q-6 7 -11 6t-8.5 -6t-6 -12t-3.5 -11q0 -2 -1 -4q1 -5 1 -15t-2 -20.5t-2 -20.5q0 -9 2 -18.5t-3 -19.5
q-12 7 -20 1q-6 1 -14 -1t-16 -6t-16 -8.5t-12 -8.5q-17 -16 -21 -32.5t-11 -35.5q-12 0 -15.5 21.5t-3.5 45.5q0 17 0.5 30.5t0.5 20.5q1 17 3.5 34.5t2.5 34.5q0 14 -4 32t4 32l-2 11q12 5 27 6.5t29 1.5h29q24 0 43 4q6 -1 11.5 -1.5t10.5 -0.5h24t22 -1q7 -1 14 -1.5
t15 -1.5q20 5 37.5 7.5t39.5 0.5q12 -1 24.5 -2t25.5 0z" />
    <glyph glyph-name="bracketleft" unicode="[" horiz-adv-x="310" 
d="M264 6q4 -2 7 -12.5t4 -23t0.5 -23.5t-2.5 -14q-10 2 -21.5 -0.5t-21.5 -3.5l-24 -2t-23 -1q-12 0 -23 -0.5t-23 -1.5q-5 -1 -11 -0.5t-12 0.5t-11.5 -1.5t-8.5 -5.5q-7 3 -14 3t-13 1t-10 5t-4 15q-1 11 2 21.5t2 21.5q-2 11 -3 21.5t1 21.5q1 11 1.5 22t0.5 22t-0.5 22
t0.5 22q0 12 2 23t4 23q2 13 -3 21.5t-2 21.5q1 3 4 6t3 7t-3 5.5t-3 5.5q-1 6 -0.5 10.5t2.5 12.5q2 11 0.5 20.5t-0.5 20.5q0 11 -2 19.5t-2 19.5v11.5t-2 10.5q-1 5 -1.5 10t-0.5 11v37v27.5t-2 26.5q-2 11 -5 21t-3 21q-1 5 2 10.5t3 10.5t-3.5 9t-3.5 9q-1 8 1.5 20.5
t3.5 22.5v19q1 5 -1 9t3 9l3 11q14 1 25.5 2.5t24.5 0.5q8 0 15 -0.5t14 -0.5q23 0 50 3q6 1 12 0t11 0t10 3t10 3h8.5t12 -1t11.5 -2t7 -3q3 -3 5 -13.5t3 -22.5t1 -22.5t-2 -12.5t-7 -2.5t-12 -0.5t-13 0.5t-9 0.5q-5 0 -10 2t-11 0q-5 -2 -9 -4t-9 0q-11 0 -15.5 -11.5
t-6.5 -27.5t-2 -31.5v-22.5q0 -5 -2 -10.5t-1 -10.5q1 -7 4 -11t3 -11q0 -4 -3.5 -7t-3.5 -7q0 -2 1 -5t1 -6q0 -5 1.5 -10.5t1.5 -10.5v-23.5t2 -21.5q1 -6 -0.5 -12t-0.5 -11q0 -5 2 -10t3 -10q1 -9 -3.5 -20.5t-3.5 -20.5q1 -6 3.5 -10t2.5 -11q0 -4 -2 -9.5t-3 -10.5
q-1 -10 0.5 -21.5t3 -23.5t2 -23t-3.5 -20q5 -5 2.5 -13t-1.5 -15q0 -8 1.5 -16t3.5 -16q2 -17 -1 -33t3 -33q9 2 20.5 1.5t21.5 -0.5q6 1 13 0.5t12 0.5q5 0 10 2.5t10 0.5z" />
    <glyph glyph-name="backslash" unicode="\" horiz-adv-x="474" 
d="M461 7q4 0 7 -1q-2 -9 -11 -15.5t-16 -10.5q-8 -4 -17.5 -12t-17.5 -8q-8 1 -10.5 5t-5.5 11q-4 6 -8 11l-8 10q-9 11 -17.5 21.5t-15.5 23.5q-4 8 -5.5 15t-8.5 14q-7 8 -12 16l-10 16q-5 7 -8 13.5t-8 12.5t-10.5 11t-11.5 11q-5 6 -8 13.5t-6 13.5q-1 1 -3 1.5t-3 2.5
q-2 2 -1 4t0 4q-4 10 -8 14q-5 6 -9 12l-8 12q-2 4 -4.5 7t-4.5 6q-1 2 -2.5 2.5t-3.5 2.5q-1 2 -0.5 4t-0.5 4q-4 6 -9 11.5t-10 10.5q-7 7 -10.5 15t-10.5 14q-5 4 -7.5 4t-4.5 6q-2 5 0 12t-2 11q-3 4 -7.5 3.5t-7.5 3.5q-2 3 -2 9t-2 10q-3 8 -8.5 12.5t-9.5 11.5
q-5 7 -8.5 13.5t-8.5 13.5q-4 5 -9 11.5t-9 12.5q-2 5 -2.5 9t-3.5 8q-2 2 -6 5t-6 6q-5 5 -11 12t-9 13q-2 3 -2.5 7.5t-2.5 7.5q-2 4 -6 5t-6 4q-4 6 -6 14t-7 14t-9 11.5t-9 11.5q11 7 20 14t20 14q14 8 21.5 10t18.5 -14q8 -11 15 -23t15 -24q2 -2 4 -2.5t3 -2.5
q2 -2 1 -3.5t1 -3.5t4.5 -4t4.5 -5q4 -5 6 -12.5t6 -13.5q8 -11 16 -23t17 -24q2 -4 6 -6.5t6 -6.5q2 -3 3 -7t4 -7q2 -2 4.5 -2.5t3.5 -2.5q2 -2 1.5 -3.5t1.5 -3.5q2 -3 3.5 -6t4.5 -7q9 -11 17.5 -24.5t16.5 -27.5q9 -15 19.5 -29t21.5 -28q11 -15 20 -29.5t19 -30.5
q10 -14 19.5 -27.5t19.5 -27.5q11 -14 18.5 -30.5t18.5 -29.5q3 -3 6.5 -6t5.5 -7t2 -8t2 -7q2 -2 3.5 -1.5t3.5 -1.5q1 -2 1.5 -3.5t1.5 -3.5q3 -3 9 -11q4 -5 8.5 -11.5t7.5 -12.5q2 -4 6.5 -11.5t5.5 -11.5l4 -11v0z" />
    <glyph glyph-name="bracketright" unicode="]" horiz-adv-x="320" 
d="M276 -38q-1 -6 1 -9.5t-3 -8.5l-3 -11q-14 -2 -25.5 -3t-24.5 0h-32h-23.5t-23.5 -2q-6 -1 -12 -0.5t-11 0.5q-5 -1 -10 -3.5t-10 -2.5h-8.5t-12 1t-12 2t-6.5 3q-3 3 -5 13.5t-3 22.5t-1 22.5t2 12.5q1 1 6.5 1.5t12.5 0.5h13h9q5 0 10 -2t11 0q5 1 9 4t9 3v-3
q10 0 15 11.5t7 27t2 31v23.5q0 5 2 10.5t1 10.5q-1 7 -4 11t-3 11q0 4 3 7t4 7q0 2 -1 5t-1 6q0 5 -1.5 10.5t-1.5 10.5v22.5t-2 22.5q-1 5 0 11.5t1 11.5t-2 10t-3 10q-1 9 3.5 20.5t3.5 20.5q-1 6 -3.5 10t-3.5 11q0 4 2.5 9.5t2.5 10.5q1 10 -0.5 21.5t-3 23.5
t-1.5 22.5t4 19.5q-5 5 -2.5 13.5t1.5 15.5q0 8 -1.5 16t-3.5 16q-2 17 1 33t-3 33q-10 -2 -21 -1.5t-21 -0.5h-25q-5 0 -10 -2.5t-10 -0.5t-7.5 12.5t-3.5 23t-0.5 23.5t2.5 14q10 -2 21.5 0.5t21.5 3.5l24 2t23 1q12 0 23 0.5t23 1.5q9 1 23 0t20 7q6 -5 13.5 -4.5
t13.5 0.5t10 -4t4 -17q1 -10 -2 -20.5t-2 -22.5q1 -11 2 -21t0 -22q-2 -11 -2 -22v-22v-43q0 -12 -2 -23t-4 -24q-2 -12 3 -21t2 -21q-1 -4 -4 -6.5t-3 -6.5q0 -5 3 -6t3 -5q1 -7 0.5 -11.5t-2.5 -11.5q-2 -11 -0.5 -20.5t0.5 -20.5q0 -11 2 -19.5t2 -19.5v-11.5t2 -10.5
q1 -5 1.5 -10.5t0.5 -10.5v-37v-27.5t2 -26.5q1 -11 4.5 -21.5t3.5 -20.5q0 -5 -2.5 -10.5t-2.5 -10.5t3.5 -9t3.5 -9q1 -8 -1.5 -21t-3.5 -22v-19v0z" />
    <glyph glyph-name="asciicircum" unicode="^" horiz-adv-x="289" 
d="M268 430q2 -6 -5 -16t-17 -18.5t-21.5 -13t-18.5 0.5q-8 6 -13.5 20t-13.5 22q-7 7 -17 18t-20 10q-7 0 -12.5 -4.5t-10 -10.5t-8 -12.5t-7.5 -10.5q-8 -10 -19 -17.5t-12 -23.5q-10 2 -16 1t-15 3q-8 5 -16.5 13t-6.5 24q0 5 4.5 12t10.5 13.5t12.5 12t11.5 7.5
q-1 4 2 9t6.5 10t8 10t6.5 8q6 8 13 19.5t16 16.5q-2 6 4 15.5t15 18t19.5 12.5t18.5 -1t13 -19.5t10 -21.5q4 -5 9.5 -6.5t9.5 -6.5q2 -3 5 -12t5 -12q5 -11 9 -20t11 -18q5 -8 15.5 -15.5t13.5 -16.5z" />
    <glyph glyph-name="underscore" unicode="_" horiz-adv-x="519" 
d="M429 -7q18 6 28 3.5t14.5 -10.5t4.5 -20.5t-3 -26.5q-4 -18 -15 -23t-25 -5q-10 0 -20 1t-21 0h-24t-37.5 1t-37.5 1.5t-24 0.5q-26 0 -50 -3q-3 0 -23.5 -1t-45 -2t-47.5 -2t-31 -1q-17 0 -26.5 6t-1.5 23l-4 4l-4 4q4 5 4.5 11t0.5 12.5t1 12t6 9.5q1 1 7 2t12.5 1h13
h9.5l109 -1q4 2 8.5 3t8.5 3q4 -5 12.5 -5.5t18.5 1l20 3t16 1.5q7 0 28.5 1t45.5 2t45 -0.5t27 -5.5z" />
    <glyph glyph-name="grave" unicode="`" horiz-adv-x="264" 
d="M69 572q-18 3 -27.5 10.5t-12.5 18t-1 23.5t7 26q6 17 17.5 15.5t25.5 -9.5q4 -2 5.5 -3.5t2 -3t1.5 -3t6 -3.5q12 -7 24.5 -14t26.5 -13q5 -3 5.5 -4.5t0 -1.5t0 -0.5t6.5 -1.5q5 -2 20.5 -7t29.5 -13q15 -9 24 -19.5t-2 -24.5q2 -2 3 -6t3 -7q-5 -3 -6 -8.5t-2 -11.5
t-2.5 -11.5t-5.5 -7.5q-2 0 -7.5 2t-12 5.5t-12.5 6.5t-8 5l-16 8q-4 -1 -8 1.5t-8 1.5q-5 12 -12 13.5t-19 7.5q-14 7 -25 11t-21 18z" />
    <glyph glyph-name="a" unicode="a" horiz-adv-x="377" 
d="M401 4q3 -6 -2 -9t-12.5 -4t-15 -1h-9.5q-12 -2 -24 -2t-25 -2q-7 -2 -12.5 -1.5t-12.5 1.5q-5 1 -10 -0.5t-10 0.5q-9 2 -19.5 9.5t-16.5 18.5q-3 5 -5.5 11t-4.5 12q-1 2 -1.5 3.5t-1.5 3.5q-2 2 -5 8.5t-5 8.5q-5 4 -10 2t-10 -6q-3 -8 -8 -15.5t-9 -14.5
q-3 -5 -8.5 -12t-7.5 -14q-13 -8 -28 -14q-11 -4 -25 -3t-25 6q-6 3 -11 4t-10.5 2.5t-10.5 4.5t-9 11q-16 29 -24 59t-4 66q1 6 1.5 11.5t1.5 10.5q1 16 3 32t4 33q1 2 2 3t2 3q2 5 2.5 9.5t2.5 8.5q1 3 3 5t3 5q1 2 1 3.5t1 3.5q3 5 8.5 9t9.5 9q5 5 7.5 10t9.5 9
q3 2 6.5 3.5t6.5 3.5q1 1 1 2t1 2q9 7 17 13.5t16 12.5l2 2q4 6 10 10q7 5 13 10l12 10q4 2 6.5 5t6.5 5q3 2 6.5 1.5t6.5 0.5l5 3q6 4 9 5q4 3 7 6.5t7 5.5q6 4 11 3.5t11 1.5q3 2 6.5 4.5t7.5 4.5q8 8 16 11q15 5 29 12q5 3 12.5 8t14.5 7.5t13 0.5t9 -13q-2 -2 -2 -5
q2 -5 1 -16.5t-1 -16.5v-19v-68q1 -10 1.5 -19t-0.5 -18q-2 -9 -3 -17t0 -18q2 -13 3.5 -22.5t0.5 -23.5q-2 -13 -0.5 -23.5t1.5 -22.5q1 -20 0.5 -38.5t2.5 -38.5q3 -17 6.5 -28.5t12.5 -24.5q5 -6 7 -9t9 -5q3 -2 11.5 -2t10.5 -4zM192 129q8 10 11.5 20.5t7.5 23.5
q1 11 1.5 22t0.5 22q0 9 -0.5 18t-1.5 18q-1 8 -2.5 15t-2.5 14q-1 6 -1 15t-5 13q1 2 0 4l-2 4q-4 -3 -7.5 -3t-7.5 -2q-2 -5 -7.5 -12t-8.5 -11q-5 -5 -8 -11t-8 -12q-2 -3 -6 -8.5t-7.5 -12.5t-5.5 -13.5t0 -10.5q-5 -5 -5 -15t-2 -18q-3 -18 -2 -33q1 -7 1.5 -14.5
t5.5 -15.5q2 -5 6.5 -11.5t9.5 -9.5q2 -2 10 1t16.5 7.5t14.5 9t5 6.5z" />
    <glyph glyph-name="b" unicode="b" 
d="M391 169q5 -15 5.5 -29.5t-1.5 -29.5q-2 -14 -3 -28.5t-6 -27.5q-5 -11 -14.5 -20t-21 -16.5t-23.5 -14t-20 -13.5q-5 1 -12 -4.5t-12 -7.5q-14 -5 -28 3q-6 4 -12.5 7.5t-11.5 7.5q-6 5 -12 13.5t-15 9.5q-2 11 -14.5 14t-19.5 -3v-1q-1 -18 -6 -30t-17 -10q-5 0 -7 3
t-6 4q-5 1 -11.5 -0.5t-11.5 -1.5q-11 -1 -20.5 -1.5t-20.5 -0.5q-19 0 -38 -1.5t-38 -3.5h-14.5t-14.5 1q-4 8 0 13t11.5 9.5t16 8.5t13.5 10q13 14 20.5 32t8.5 35q1 20 3 41.5t2 42.5q0 11 1.5 20.5t3.5 20.5q1 5 3 10t2 10q0 7 -3 11t-4 10q-2 11 1 20.5t4 20.5
q2 11 1 21t0 21q1 18 -3.5 38.5t-6.5 40.5q-1 12 -2 24.5t-1 26.5v14.5t2 14.5q1 5 -0.5 16t-1.5 21t2.5 16t11.5 3l12 5q17 11 33 20.5t30 24.5q3 4 9.5 13t13.5 15.5t13 7.5t9 -11q2 -8 -1 -19.5t-3 -21.5t0.5 -20t1.5 -20q1 -22 -1 -43t-1 -41q1 -8 0.5 -16.5t-1.5 -16.5
q-3 -15 -3 -33q2 -8 5 -17.5t11 -11.5q5 -1 10 2.5t10 5.5q12 4 24 10q4 2 7.5 3t7.5 2q13 5 25 10.5t21 13.5q5 4 11 10.5t12 10.5t12 4t11 -7t6 -14.5t3 -15.5q2 -7 5.5 -14t7.5 -14q5 -8 6 -17t3 -19t-1.5 -17t-0.5 -16q4 -10 6 -18.5t4 -18.5q2 -9 5.5 -16t3.5 -17
q1 -19 5 -37.5t9 -36.5zM251 133q1 1 1 5q3 16 3 33q0 28 -5.5 56.5t-11.5 54.5q-3 17 -12 31t-29 7q0 1 -1 1q-9 -6 -14 -14q-11 -14 -15 -27q0 -5 0.5 -9.5t1.5 -9.5q1 -3 1 -6t1 -5l-2 -15q-1 0 -0.5 -6t1 -14t1 -15.5t0.5 -11.5q1 -5 1 -10.5t2 -10.5q0 -17 4 -33
t16 -30q8 -8 18.5 -13.5t21.5 0.5q10 5 12.5 18t4.5 24z" />
    <glyph glyph-name="c" unicode="c" horiz-adv-x="351" 
d="M291 44q16 0 23 -6.5t7 -14.5t-6.5 -16.5t-19.5 -13.5q-9 -4 -24.5 -3t-24.5 3q-15 2 -28.5 2h-29.5h-30q-8 0 -11.5 -1.5t-12.5 1.5t-19 11.5t-17 15.5q-45 41 -67.5 92t-20.5 111q1 24 9 51.5t16 52.5q5 12 12 24t13 23q5 11 14 23t19 20q12 9 25.5 9t25.5 -1
q14 -1 26 1.5t26 3.5q13 1 24.5 -0.5t25.5 0.5q4 2 8 3.5t8 3.5q13 6 22.5 15.5t24.5 7.5q10 -1 14 -5t5 -9.5t0.5 -12.5t1.5 -15q9 -57 9 -115q0 -16 -5.5 -25.5t-14.5 -16.5t-19 -13.5t-19 -17.5q-6 -7 -11.5 -21.5t-12 -26.5t-15.5 -17t-22 6q-1 23 -1.5 47t0.5 48
q0 11 1 22t1 23q0 16 -2.5 30t-10.5 25q-4 1 -10 0q-8 -8 -15 -17.5t-11 -16.5q-11 -23 -14 -47.5t-3 -47.5q1 -14 0.5 -27.5t-0.5 -27.5q0 -11 0.5 -23t2.5 -24q2 -13 5.5 -20.5t12.5 -18.5q7 -7 15.5 -13t10.5 -16q12 -7 21 -13t22 -9q11 -3 22.5 -2.5t23.5 -0.5z" />
    <glyph glyph-name="d" unicode="d" horiz-adv-x="392" 
d="M417 8q7 -15 -10 -18q-4 -1 -6.5 0t-6.5 1q-3 0 -7 -1.5t-7 -0.5q-7 0 -14.5 1t-14.5 3q-8 2 -14.5 2t-14.5 2q-7 2 -13.5 3.5t-13.5 3.5q-2 1 -5.5 2t-6.5 2q-5 2 -6 3.5t-4 3.5q-7 4 -11 8.5t-10 9.5q-3 2 -7 3t-6 4v1q-7 3 -13 7.5t-14 4.5t-15 -3q-1 0 -3 -2t-8 -6
t-8 -6q-5 -4 -12 -9t-12 -8q-14 -10 -23.5 -18.5t-19 -13t-20.5 -5t-27 5.5q-6 16 -20.5 28t-21.5 29t-11 38.5t-5 40.5q-2 43 5 86t28 82q15 28 23.5 53.5t14.5 45.5q4 11 8 25t10 23q8 11 23 8.5t25 -6.5q23 -8 42 -22.5t42 -22.5q2 -2 5 -2q-2 16 -2.5 32t-0.5 32
q-1 10 1 18t3 18q1 8 -2.5 15.5t-3.5 15.5q0 4 1.5 7.5t1.5 7.5t-2 8t-1 7q3 8 10.5 9.5t13.5 3.5q8 3 13.5 7t12.5 9t12.5 7t11.5 8q6 5 12.5 10.5t10.5 13.5q4 7 6.5 11.5t9.5 9.5t11.5 5.5t8.5 -7.5q4 -7 1 -12.5t-4 -13.5q-1 -4 1 -6.5t2 -6.5q0 -5 -1.5 -8.5t-1.5 -8.5
q0 -8 0.5 -15.5t0.5 -15.5q1 -8 1 -15v-15v-21t-1 -20v-24q0 -5 -1 -10t0 -10l-2 -1q2 -4 0.5 -7.5t-2.5 -8.5q-1 -6 0 -11t1 -10q1 -10 2 -17.5t0 -16.5t1 -17t1 -18q0 -10 -2 -18.5t-1 -17.5q2 -17 1 -34.5t0 -34.5q1 -16 1 -32t1 -33t1 -32.5t2 -32.5q1 -13 4 -28.5
t12 -26.5q8 -9 21.5 -16.5t18.5 -18.5zM236 254q1 2 1 5q0 2 -0.5 3t-0.5 3q1 5 1.5 10.5t-0.5 10.5q-2 11 -4 25t-10 21q-12 10 -21.5 6.5t-17 -14t-13 -23.5t-7.5 -21q-4 -16 -9.5 -35.5t-3.5 -37.5q-1 -8 -1.5 -15.5t-0.5 -15.5q0 -29 8 -56q1 0 1.5 -0.5t1.5 -0.5
q2 -4 5 -7t5 -7q8 4 17 4.5t18 2.5l2 -1q6 2 11 6.5t11 9.5l4 4q-2 6 -2 10v8l1 1q1 8 1.5 16.5t-0.5 16.5q0 6 -2 9.5t-3.5 7t-1 7.5t3.5 11q5 11 4 18t2 18z" />
    <glyph glyph-name="e" unicode="e" horiz-adv-x="350" 
d="M154 194q-10 -5 -12 -15t-1 -21v-8l1 -1q3 -12 6 -24.5t11 -23.5q5 -5 10 -8.5t10 -8.5q5 -6 7.5 -10.5t10.5 -7.5t13 -6t12 -8t13 -5t14 -2q5 -2 7.5 -3.5t7.5 -0.5q4 0 7 2t8 2q2 0 6.5 -1t6.5 -2q5 0 6.5 1t6.5 -1q13 -8 9.5 -23.5t-10.5 -25.5q-11 2 -21.5 -1.5
t-21.5 -1.5q-12 2 -23.5 -0.5t-22.5 -1.5q-6 0 -11.5 2.5t-13.5 1.5q-3 -1 -5.5 -2.5t-6.5 -1.5q-2 0 -5 1t-6 1q-11 1 -21 0.5t-21 2.5q-1 7 -9.5 12t-13.5 9q-8 8 -15 16t-15 15q-7 6 -13 16q-4 5 -5.5 6.5l-6.5 6.5q-6 7 -11 17.5t-9 18.5q-2 4 -3.5 7.5t-3.5 7.5
q-1 0 -3 5q-1 2 -2 5q-2 8 -3 16.5t-3 16.5q-5 16 -6 33q-2 8 -1 14.5t1 14.5q0 5 -2 7.5t-2 7.5t1.5 9t2.5 9q1 7 1 14.5t2 14.5q5 17 12.5 34t13.5 31l3 9q6 4 13 16.5t13 20.5q11 13 19 19t25 6q30 -1 59.5 2t59.5 5q17 0 27.5 9.5t24.5 16.5q5 2 13.5 4t13.5 0
q8 -3 8.5 -10t1.5 -13q1 -7 1 -13v-14q0 -7 2 -12.5t3 -13.5q0 -2 -1.5 -4.5t-1.5 -4.5t2 -3t2 -3q0 -3 0.5 -6.5t-0.5 -7.5q0 -7 1 -14t0 -15q-2 -29 2.5 -56.5t12.5 -52.5q6 -19 -9 -24.5t-35 -5.5q-11 0 -21.5 1t-15.5 1q-6 0 -13.5 0.5t-13.5 -0.5q-8 -2 -13 -1.5
t-12 1.5q-8 1 -15 0.5t-15 0.5q-1 0 -2 0.5t-2 0.5h-7t-8 -2zM140 288q1 -4 1 -7.5t2 -5.5q3 -8 14 -15t12 -7t1 -0.5t1 -0.5q10 -1 19 0q3 0 4 1q4 1 7 7.5t4.5 14t1.5 14.5t-1 9l1 13q0 12 -1 24t-6 22t-18 11.5t-21 -10.5q-1 -2 -0.5 -5.5t-1.5 -5.5l-2.5 -5t-3.5 -5
q-2 -5 -4 -9t-4 -9q-1 -2 -1 -3t-1 -3q0 -3 -1 -5v-10v-3q0 -3 -2 -7z" />
    <glyph glyph-name="f" unicode="f" horiz-adv-x="272" 
d="M310 428q2 -8 0 -21.5t-8 -19.5q-5 -4 -11.5 -4.5t-12.5 0.5t-12 1h-12q-7 0 -12 2t-11 0q-7 -1 -12.5 -3t-11.5 -4q-12 -5 -18 -9.5t-9 -18.5l-3 -9q0 -5 -2 -13q-1 -11 -0.5 -22t0.5 -22v-15t-2 -14q1 -10 0.5 -18.5t0.5 -17.5q0 -11 4.5 -20.5t6.5 -19.5
q2 -13 -0.5 -22.5t1.5 -22.5q5 -14 3.5 -22.5t-2.5 -22.5q0 -8 0.5 -16.5t0.5 -18.5q0 -14 -3.5 -27t-16.5 -18q-11 -4 -18.5 -5t-18.5 -11q-8 -7 -15 -15t-15 -16q-3 -4 -7 -5t-7 -5q-4 -4 -4.5 -8.5t-5.5 -9.5q-22 -20 -24 11q0 21 1.5 41.5t0.5 41.5v29v58v4
q-1 30 0.5 58.5t1.5 57.5q0 15 -1 30t-3 30q-2 14 -2 26.5t1 26.5q-4 4 -6 8v6q-8 10 -18 10q-3 0 -5 -2t-4 -1q-2 0 -5 2.5t-6 3.5q-5 2 -10.5 3t-10.5 2q-6 11 -4 26t13 21l3 9q9 -1 18 -1.5t18 -0.5q11 4 21.5 8t13.5 12t-0.5 18.5t-7.5 17.5q-5 9 -12.5 12t-13.5 11
q-4 4 -4 12q-2 1 -4 5q7 17 17 30t20 29q4 7 8.5 13.5t8.5 13.5q6 11 6.5 19t11.5 13q7 3 17.5 4t18.5 3q11 2 18.5 1.5t18.5 -4.5q20 -8 35.5 -17t30.5 -23q9 -9 18 -20.5t19 -18.5q1 -8 -3.5 -15.5t-11.5 -15t-14 -14.5t-11 -13q-5 -7 -10 -16.5t-11 -16.5t-13.5 -8
t-15.5 10q-6 8 -10 15.5t-8.5 14t-12 11t-19.5 5.5q-14 1 -18 -6t-2 -16.5t8 -20t13 -16.5q14 -12 24 -18t27 -10q7 -2 14 -3l14 -2l24 2t24 1q4 1 11 1q11 1 21 -1.5t14 -13.5z" />
    <glyph glyph-name="g" unicode="g" horiz-adv-x="385" 
d="M353 33q1 -9 6.5 -20t10.5 -22.5t8.5 -22.5t0.5 -20q-5 -15 -21 -29t-27 -25q-14 -15 -29.5 -28.5t-30.5 -27.5q-16 -14 -31.5 -23.5t-30.5 -23.5q-15 -12 -24 -19.5t-23 -19.5q-2 1 -8.5 -4.5t-7.5 -4.5q-9 -4 -19.5 -1t-21 9t-19.5 13t-15 11q-8 5 -15.5 11.5
t-15.5 14.5t-11.5 16.5t-8.5 19.5l-15 37.5t-9 40.5q-2 24 8 35t32 20q2 1 7 2.5t10.5 3t10 3.5t5.5 5q2 6 -1 9t-8.5 5t-12 4t-9.5 6q-6 6 -9.5 16.5t-6 22.5t-4 23.5t-2.5 19.5q-2 14 -3.5 29t-1.5 30q0 33 7.5 65.5t27.5 57.5q14 17 32.5 35.5t36.5 32.5q19 15 43.5 23.5
t44.5 22.5q8 6 30 21t45.5 28.5t43 18.5t24.5 -9q0 -2 -1 -9.5t-1 -9.5q0 -4 0.5 -9.5t0.5 -10.5q1 -13 -0.5 -24.5t0.5 -23.5v-17q-3 -14 -4 -28.5t-1 -28.5q0 -12 0.5 -24.5t0.5 -23.5q0 -53 3 -102q1 -26 2.5 -50.5t6.5 -50.5zM174 300q-25 -21 -37.5 -55.5t-12.5 -69.5
q0 -29 9 -54q4 -11 8.5 -15t9.5 -4.5t11.5 0.5t14.5 1l22 30t19 29l9 17q-1 23 -1.5 46.5t-2.5 46.5q-2 19 -7 30t-16 11q-12 0 -26 -13zM129 -96q14 -14 35 -23.5t42 -9.5q18 0 33.5 8.5t23.5 29.5q-1 8 -6.5 14.5t-12.5 13l-14 13t-10 14.5q-4 11 -3.5 21.5t2.5 21.5
t4.5 22t1.5 22q-11 0 -18 -6l-12 -6q-9 -2 -18.5 -9t-18.5 -17t-17 -20t-13 -17q-16 -20 -16 -37q0 -18 17 -35z" />
    <glyph glyph-name="h" unicode="h" horiz-adv-x="392" 
d="M418 -40q2 -6 -3 -9.5t-9 -5.5q-5 -4 -9 -6t-11 -2q-6 0 -13 0.5t-13 1.5t-12 3.5t-12 4.5q-4 0 -7 -1.5t-7 -0.5q-2 1 -5 3t-5 3q-11 6 -23 7.5t-23 11.5q-20 20 -22.5 48.5t-2.5 54.5q0 8 -1.5 15.5t-1.5 15.5q0 9 0.5 17.5t0.5 17.5q-1 8 -1 16.5v16.5v16.5t-1 17.5
t1 18.5t0 18.5q-1 8 -0.5 16t-1.5 16q0 5 -2 7.5t-3 6.5q-1 5 -0.5 8.5t0.5 8.5q0 7 -1.5 12.5t-3.5 12.5q-2 5 -3 11.5t-6 8.5t-11 -0.5t-10 -4.5q-8 -5 -16.5 -12t-13.5 -15q-3 -5 -2.5 -12t-0.5 -12q0 -8 -1.5 -13.5t-1.5 -12.5q1 -14 0.5 -28t0.5 -28t2 -26.5t0 -25.5
q0 -3 -1.5 -5.5t-1.5 -6.5q0 -3 1.5 -6.5t2.5 -6.5q2 -6 1.5 -12.5t1.5 -13.5q4 -12 6.5 -25t3.5 -26q0 -8 -0.5 -13t2.5 -12q2 -7 2 -9t-7 -7q-9 -6 -21.5 -6t-24.5 -2q-13 -3 -26 -5.5t-26 -3.5q-26 -1 -50.5 -3t-50.5 0q-2 11 2.5 14.5t12.5 5.5q6 2 14 5t14 7
q8 5 10 13.5t5 16.5q5 11 7.5 20.5t3.5 22.5q2 11 1.5 18t2.5 17q4 11 1.5 18t-4.5 18q-1 10 1.5 17t-1.5 17t-4 18t2 19q2 13 -0.5 24.5t-4.5 23.5q-1 11 2 20t2 19q-2 17 -4 37.5t-2 34.5l-1 7q-2 6 -3 18t0 19q1 9 1 13t-2 12q-2 6 -2 12t-1 13q-2 13 -5 24.5t-14 17.5
q-3 1 -10 3.5t-13 5.5t-8.5 7t3.5 10q6 7 22.5 7.5t25.5 2.5q14 3 28 2t28 -1q8 -1 15 2t15 3t11.5 -0.5t11.5 2.5q9 3 13.5 1t6.5 -6.5t2.5 -11t1.5 -12.5q1 -8 0.5 -13t-0.5 -11v-11t-2 -10q-2 -5 -3 -11t-1 -12t-2 -12t-1 -11q1 -4 2.5 -6t0.5 -7q0 -4 -1 -7t-1 -7
q0 -2 1.5 -5t1.5 -6q0 -8 1 -13q4 -14 9 -19.5t19 1.5q2 0 3 1q14 8 25.5 13.5t28.5 7.5q10 1 23.5 8t28 12.5t28 6.5t22.5 -9q-2 -7 -2.5 -21.5t0.5 -31.5q3 -3 4 -8.5t3 -13.5q1 -8 -1 -14t-2 -14q0 -4 2 -7.5t2 -7.5q0 -3 -0.5 -7t-0.5 -7q1 -17 0 -33.5t-1 -33.5
q0 -8 2 -15t1 -15q0 -3 -1 -7t0 -7q0 -2 1.5 -4.5t2.5 -5.5q2 -8 -1 -14.5t-2 -14.5t2 -14t0 -14q-1 -14 2 -29t2 -30q-1 -7 -0.5 -13.5t0.5 -13.5q0 -9 2.5 -13t7.5 -11q4 -5 6 -10.5t6 -10.5q9 -11 20 -20q4 -3 10 -6t8 -8z" />
    <glyph glyph-name="i" unicode="i" horiz-adv-x="210" 
d="M92 430l-16 -3l-27 40q-3 3 -9.5 4.5t-12.5 4t-11 6t-6 9.5q0 5 3.5 10t8.5 10t11 9.5t9 8.5q9 12 15.5 23.5t14.5 25.5q4 6 8.5 20.5t9.5 19.5q7 8 13.5 7.5t12 -5.5t11.5 -12t13 -12q4 -3 13 -7.5t18 -10t16 -12t7 -13.5t-7 -12.5t-16 -10.5l-18 -10t-13 -10
q-10 -10 -13 -19zM152 447q2 2 4 0q1 1 3 1l2 -5q3 -6 3 -17t-1 -17q-3 -20 0 -41t3 -40q-1 -14 -1.5 -28t-0.5 -28v-16.5t2 -16.5q2 -24 5.5 -46t3.5 -47q0 -44 12 -86q8 -1 15 -8t11 -15q-3 -8 -9 -14q-3 -4 -8.5 -6.5t-10.5 -5.5q-10 -2 -22 -4.5t-22.5 -3.5t-18.5 -0.5
t-9 3.5q-7 -4 -12 -4t-13 1q-26 1 -35 17.5t-9 39.5q0 22 -2.5 45t-1.5 47q2 25 3 48.5t1 47.5q0 11 -1 23t0 23q0 8 -1 21.5t2 20.5l12 6q11 -3 26.5 6.5t28.5 22.5q13 17 18.5 35t18.5 41h4z" />
    <glyph glyph-name="j" unicode="j" horiz-adv-x="205" 
d="M69 440q-3 1 -5.5 5.5t-5.5 9l-6 9t-6 5.5q-5 2 -8.5 5t-8.5 4q-5 2 -10 0t-9 0q-9 4 -10.5 13.5t3.5 16.5q9 14 22 25.5t22 25.5q10 16 16.5 31.5t13.5 32.5q5 12 10 14.5t11 -0.5t12 -9t12 -11q8 -5 14.5 -10.5t13.5 -11.5q5 -3 8 -7t7 -6t8 -2t8 -3q9 -6 8.5 -13
t-5.5 -14t-12.5 -13t-13.5 -9q-5 -3 -16.5 -12.5t-23.5 -21.5t-21 -23.5t-8 -17.5zM129 429q7 13 16 16t12 0q5 -5 3.5 -15.5t-1.5 -18.5l5 -36q2 -10 -0.5 -19.5t-1.5 -19.5q1 -5 3 -9t3 -9q0 -6 -1.5 -10t-2.5 -9q-2 -11 1 -20t1 -20q-2 -12 -1 -22t2 -21q1 -10 -2 -19
t-2 -19q2 -20 4.5 -39t5.5 -39q3 -18 6 -37.5t4 -38.5q0 -8 0.5 -16t0.5 -16q0 -11 -1 -21.5t-5 -19.5q-11 -33 -31.5 -62t-49.5 -52q-14 -11 -25.5 -24t-26.5 -24q-8 -5 -16 -5.5t-14 9.5q-5 10 0.5 15t10.5 13q14 21 17 46.5t3 51.5v45q0 10 2 17t1 17q-1 8 -2 18t-1 18
q-1 10 -1 20v20v39q-1 9 -3 18t-2 19t-1.5 19t-1.5 18t1 19t1 20q-1 11 1 21t1 21l2 14q-3 1 -4.5 8.5t-1.5 16.5t1 17.5t3 10.5q6 6 14.5 7t15.5 3q14 5 24 20z" />
    <glyph glyph-name="k" unicode="k" horiz-adv-x="386" 
d="M388 -17q4 -5 10.5 -8.5t11.5 -7t6 -9t-5 -12.5q-10 -11 -25 -8.5t-28 4.5q-4 1 -6.5 0t-7.5 0q-3 2 -5.5 4t-6.5 3q-5 1 -7.5 0t-7.5 0l-2 2l-2 2q-1 0 -3.5 0.5t-3.5 1.5q-11 5 -27 8t-21 14q-12 26 -13.5 56t-3.5 57q-1 14 -2 27.5t1 27.5q1 7 2 13.5t0 14.5
q-1 7 -4 12t-5 11q-11 0 -18 -9.5t-12 -16.5q-8 -9 -16 -14t-13 -16q-7 -13 -4 -24.5t3 -25.5q-1 -15 0.5 -28t3.5 -28q1 -5 2.5 -11.5t-3.5 -11.5q-3 -3 -10 -3.5t-13 -0.5q-14 -1 -27.5 -1t-27.5 -1q-12 -1 -26 -2t-27 -2q-11 -1 -26 -6t-26 4q-4 3 -5 10t4 11q2 2 7 1.5
t7 0.5q3 1 6.5 3t5.5 4q13 8 18 18t3 25t1 32.5t5 33.5q1 8 -0.5 15.5t-0.5 15.5q1 10 -0.5 16t-3.5 16t-1 21t1 22q1 5 2.5 11t0.5 11q-1 3 -3 5.5t-2 6.5q0 8 3 16t4 16t-2 16t2 16l-5 7q-5 14 -2 28.5t1 28.5q-2 15 -1.5 29.5t-1.5 29.5q-2 8 -3 15.5t-2 15.5q0 5 1 9
t-1 9q-2 4 -5.5 5t-5.5 5t-1 8t-3 6q-2 2 -6.5 0t-6.5 0q-4 2 -4 5t-4 5q-2 1 -6 0t-6 -1q-5 2 -7 8t3 11q3 5 10.5 6.5t13.5 1.5q15 2 30 1.5t31 1.5q17 2 35 3.5t36 3.5q15 2 24.5 -3.5t7.5 -22.5q-2 -8 -2 -15v-15q0 -2 1 -4t1 -4q-1 -4 -2.5 -6t-2.5 -6q-1 -3 -1 -7v-8
q0 -15 -1 -31.5t1 -30.5q1 -4 2.5 -7.5t1.5 -7.5q-1 -5 -3 -9t-3 -9q-2 -8 -1.5 -19t1.5 -19q0 -9 4 -11q-1 -6 -1 -12v-12q1 -8 0.5 -15t-0.5 -15t1.5 -16t1.5 -16q2 -8 3 -13q5 -3 8.5 -1.5t8.5 4.5q20 11 26.5 29t6.5 38q0 8 -1 16l-2 16q-2 8 -2.5 16.5t-2.5 16.5
q-2 7 -7 14t3 14q4 3 13.5 3.5t15.5 2.5q13 5 28 17q5 5 9 10t9 10t11.5 9t11.5 10q5 8 6 14t9 11q11 6 15 2t5 -13q0 -8 -1.5 -17t-0.5 -16q1 -4 2.5 -6.5t1.5 -7.5q1 -3 0.5 -7.5t-0.5 -8.5q0 -8 -0.5 -15.5t0.5 -15.5l3 -18q0 -2 1.5 -5.5t2.5 -5.5q2 -14 -9.5 -20.5
t-23.5 -15.5q-5 -5 -11 -8t-11 -8q-7 -5 -10.5 -11.5t-7.5 -13.5q-5 -6 -9.5 -13.5t-9.5 -13.5h1h-1q-6 -8 -13 -12q0 -1 0.5 -1t0.5 -1q6 -1 10.5 2.5t9.5 5.5t11 2.5t13 2.5q13 5 23 12q5 3 9 7t9 6q7 3 11.5 0t6 -8.5t1.5 -12.5v-11q0 -5 1 -12t0 -14q-2 -8 -1.5 -13
t1.5 -13t-0.5 -14.5t-0.5 -14.5q1 -4 2 -6.5t0 -7.5q0 -4 -0.5 -7t-0.5 -7t1.5 -6.5t0.5 -7.5q0 -4 -2 -7t-1 -8q1 -3 3 -5.5t3 -6.5q0 -6 -2 -16q-1 -9 2 -13.5t5 -12.5q2 -6 1 -14t0 -15q2 -13 10.5 -26t17.5 -24z" />
    <glyph glyph-name="l" unicode="l" horiz-adv-x="203" 
d="M189 51q4 -6 9.5 -9t10 -6t6.5 -7.5t1 -13.5q-11 2 -24.5 -3t-24.5 -7q-14 -3 -26.5 -3.5t-25.5 -1.5q-13 -2 -25.5 -5.5t-24.5 1.5q-14 5 -19 16t-15 19q4 11 1.5 23t-1.5 23q2 13 3 24.5t3 23.5q1 15 0.5 30t-0.5 29v16t2 16q4 23 7.5 44.5t-0.5 44.5q-2 12 -1.5 23
t-0.5 22q0 10 -4.5 19.5t-6.5 19.5q-2 13 0.5 23t-1.5 23q-5 13 -3.5 21.5t2.5 22.5q0 8 -0.5 16.5t-0.5 18.5q0 14 3.5 27t16.5 18q11 5 18.5 5.5t18.5 10.5q8 8 15 16t15 16q3 3 7 4t7 5q4 4 4.5 8.5t5.5 9.5q12 11 17.5 7.5t6.5 -17.5q0 -22 -1.5 -42.5t-0.5 -41.5
q1 -22 0 -34t-2 -34v-15q1 -27 0 -54t-1 -54q0 -20 1 -38.5t4 -36.5q2 -9 2 -18v-17q0 -14 -0.5 -28t-1.5 -28q-2 -23 3.5 -43.5t7.5 -41.5q1 -13 3 -24t10 -23z" />
    <glyph glyph-name="m" unicode="m" horiz-adv-x="569" 
d="M570 -19q7 -7 15 -10t13 -9q-2 -11 -4.5 -14.5t-13.5 -6.5q-14 -5 -30 -3q-8 1 -16 5t-16 5q-4 0 -8.5 -1t-8.5 -1t-7 2t-4 9q-14 -2 -27 7.5t-23 20.5q-6 6 -8.5 11t-4.5 15q-2 7 -3.5 14.5t-3.5 14.5q-3 14 -1 31q1 10 0 17t-3 16q-2 14 -1 30.5t1 32.5q0 4 1.5 13
l3 18t2 16t-2.5 9q-1 5 1 8t2 7q0 5 -2 7.5t-3 7.5q-2 7 -3.5 17.5t-1.5 15.5q-1 13 -2.5 31.5t-12.5 29.5q-8 2 -19.5 1.5t-16.5 -11.5q-6 0 -14 -6q0 -1 0.5 -1t0.5 -1q0 -8 -1.5 -15.5t0.5 -16.5q3 -18 0 -34q-1 -8 -2 -14.5t-2 -14.5q0 -10 2 -17t4 -16q2 -16 1 -33
t-1 -34q0 -18 2.5 -33.5t4.5 -32.5t7 -30.5t25 -11.5q2 -3 3 -11.5t-3 -12.5q-2 -3 -10 -2t-13 0q-13 -1 -26.5 -1t-27.5 -2q-12 -1 -25 0t-27 1q-5 0 -11.5 1.5t-13 2.5t-12 0t-8.5 -6q-7 0 -11 3q0 4 -1 4q-4 8 -0.5 12.5t10.5 8l14 7t10 9.5q4 8 2.5 16.5t-1.5 16.5
q0 9 1 15.5t0 15.5t0 16.5t2 16.5q0 7 -2.5 15.5t-2.5 14.5q0 8 2 15.5t1 15.5t-2 15.5t-1 15.5q1 17 0 32.5t-4 32.5q-1 6 -1 15t-1.5 17.5t-5.5 15t-11 8.5q-10 2 -25 -8t-22 -18q-9 -11 -8.5 -29.5t1.5 -31.5q0 -8 0.5 -16t0.5 -16t-0.5 -16t-0.5 -16v-16t2 -16
q1 -9 0.5 -16.5t-0.5 -16.5q-1 -17 4 -34t7 -33q0 -6 2 -15t3 -18.5t0.5 -18t-4.5 -12.5q-10 2 -17.5 1t-17.5 -2q-9 -1 -17 1.5t-17 -3.5q-3 3 -9.5 3t-14 -0.5t-15 -2t-11.5 -1.5q-13 0 -24.5 -0.5t-23.5 0.5q-5 0 -12 1t-11.5 2.5t-5.5 5t7 8.5q10 7 21 9.5t21 11.5
q15 14 15.5 28t-0.5 31q-1 19 0.5 37.5t2.5 36.5q0 18 -1 36t-3 36q-1 8 -1 15v15t0.5 17.5t2.5 17.5l-3 9q-2 10 -1.5 24t-1.5 26.5t-8.5 22t-20.5 11.5q-6 0 -15 -1.5t-14 3.5q-6 5 -4 10.5t7 8.5t11.5 2.5t13.5 -1.5t13.5 -1.5t11.5 3.5q5 -5 14 -3.5l15 2.5
q9 1 18.5 0.5t17.5 0.5l15 3t15 -1q6 -1 15 -0.5t17 1.5q2 -20 12.5 -28.5t30.5 2.5q16 9 33.5 12.5t34.5 11.5q6 3 12.5 7.5t14 9t14.5 7t15 0.5q7 -2 10 -7t4.5 -12.5t1.5 -15.5v-15q5 -4 15.5 -4.5t13.5 -0.5q3 2 6.5 4.5t6.5 4.5q13 3 26.5 10.5t27.5 12.5t31 9t31 7
q12 2 17 -1.5t6.5 -10t1 -15.5t0.5 -17q2 -17 2 -34v-34q0 -18 2 -34.5t4 -32.5q1 -10 -2.5 -19.5t-2.5 -18.5q2 -9 2.5 -17t1.5 -17q0 -8 3 -16t3 -16q0 -4 -2.5 -8t-2.5 -8q0 -5 1 -9.5t2 -8.5q2 -17 1 -32.5t0 -31.5q0 -5 1 -13.5t2.5 -17.5t4.5 -16t8 -8q7 -14 18 -25z
" />
    <glyph glyph-name="n" unicode="n" horiz-adv-x="389" 
d="M411 -32q6 -4 9 -10t-3 -13q-5 -5 -15 -6t-15 -1q-17 0 -32 5t-32 9q-14 3 -28.5 5.5t-25.5 12.5q-14 11 -17 28t-3 33q0 17 -3.5 34.5t-2.5 34.5q0 17 -0.5 34.5t-4.5 32.5t-2 33.5t3 34.5q1 17 -2.5 34.5t-4.5 34.5q-1 8 1 17.5t-1 17.5t-8.5 9t-13.5 4q-8 -1 -13 -7.5
t-11 -4.5q-6 -5 -14 -12t-11 -15q-2 -7 -1.5 -15t0.5 -16q1 -8 0 -15.5t-1 -16.5q0 -17 1 -34t2 -33q1 -18 2.5 -36t1.5 -35t1 -31.5t5 -30.5q2 -8 3 -15.5t-1 -16.5q-2 -12 -5 -12t-14 -2q-8 -1 -14.5 -1.5t-14.5 -0.5q-11 0 -18.5 0.5t-17.5 -1.5q-17 -4 -33.5 -3.5
t-32.5 -1.5q-7 0 -17 -1.5t-18 -0.5t-12 5.5t1 15.5q9 -2 19 1.5t18.5 10t15 15t8.5 16.5q5 25 5 45q0 24 -2 48t0 48q2 20 0.5 38t-1.5 38q0 8 1 17t0 18q-1 7 -2.5 18t3.5 16l-3 11q0 13 -4 22.5t-15 16.5q-12 7 -25 10q-2 0 -6 0.5t-7.5 2t-5 4.5t2.5 8q3 3 12.5 3.5
t14.5 0.5q6 0 13 -1t15 -1q17 1 34 1t33 2q7 1 15 2t16 1t15.5 -1.5t13.5 -6.5q-8 -5 -6 -14t9 -11q10 -2 22 3.5t19 8.5q8 -2 22 3.5t22 9.5q12 5 22.5 12t23.5 12q3 1 10 3t14 3t13 0.5t9 -4.5q3 -5 2 -21.5t0 -24.5q2 -17 2 -33v-32q0 -15 -1 -32.5t1 -34.5
q1 -16 2.5 -31t2.5 -31v-17.5t1 -16.5t2.5 -17.5t1.5 -17.5q1 -16 0 -32.5t-1 -33.5t3 -34t11 -33q6 -11 18.5 -19t23.5 -16z" />
    <glyph glyph-name="o" unicode="o" horiz-adv-x="398" 
d="M392 232q0 -8 -0.5 -14.5t-0.5 -13.5q-1 -15 -4 -30.5t-7 -29.5q-2 -8 -1.5 -13.5t-1.5 -12.5q-2 -6 -4.5 -12.5t-5.5 -12.5q-13 -23 -24.5 -47.5t-34.5 -37.5q-7 -12 -28 -12h-1h-1q-5 0 -9 0.5t-9 0.5q-2 -1 -5 -1q-2 0 -4.5 1t-4.5 1q-2 1 -6 1q-4 -1 -11 -1h-1
q-4 0 -7.5 -0.5t-8.5 0.5q-7 1 -13 -1t-13 -2q-6 -1 -12 0t-11 2q-5 0 -12 -2t-10 3q-2 -1 -4.5 -0.5t-4.5 0.5q-10 0 -19.5 -0.5t-19.5 0.5l-9 5q-2 1 -4.5 9.5t0.5 11.5q-3 3 1 10q-1 0 -1 1q-2 2 -3.5 2.5t-3.5 2.5q-4 5 -6.5 9.5t-6.5 9.5q-3 5 -6.5 10t-6.5 10
q-5 6 -6.5 13.5t-5.5 14.5t-6.5 11.5t-4.5 12.5q-2 13 -6 25t-5 26q-2 13 -1.5 26t-0.5 25q-1 15 6 30.5t9 29.5q0 3 -0.5 5.5t0.5 6.5q1 3 3 11t5.5 14.5t6.5 13.5q5 13 12.5 23.5t14.5 21.5q5 8 14 20.5t19 16.5q6 2 14 2.5t16 0.5q3 1 11 1q12 0 24.5 1t25.5 -1
q5 -1 16 -1q8 1 16 1.5t17 1.5q8 1 14.5 -0.5t13.5 -0.5q8 1 12.5 -0.5t11.5 -2.5l18 -9q2 -1 3 -1t3 -1t2.5 -6t-0.5 -9v-6v-1q5 -5 9 -10.5t8 -10.5q2 -3 5 -6.5t5 -6.5q2 -2 4.5 -2.5t4.5 -2.5q3 -4 6.5 -12t5.5 -13t3.5 -11.5t3.5 -12.5t2 -12t2 -12q3 -7 4 -14t3 -14
t4 -11.5t3 -11.5zM194 73q4 -2 6.5 -5.5t5.5 -5.5q3 2 6.5 4.5t5.5 6.5q7 8 14 21t10 22q4 12 4.5 23.5t0.5 23.5q1 7 2.5 13t1.5 12q0 7 -2 12t0 13q0 3 1.5 6.5t0.5 6.5q0 4 -1.5 6t-1.5 6q0 6 2 12.5t1 13.5q-1 19 -9 40q-3 9 -8 19t-12 18q-4 4 -6.5 8t-6.5 9
q-3 3 -11 7q-11 -5 -16.5 -14.5t-12.5 -19.5q-8 -11 -10.5 -23.5t-4.5 -24.5q-1 -13 -2.5 -25.5t-3.5 -25.5q-1 -6 1 -12t1 -13q0 -3 -1.5 -7t-0.5 -7t2.5 -5.5t2.5 -5.5q3 -7 1 -13t-2 -13q1 -5 2 -11.5t2 -11.5q1 -8 3 -13t6 -12q4 -5 6 -10t7 -10q4 -5 8 -8.5t8 -6.5z
" />
    <glyph glyph-name="p" unicode="p" horiz-adv-x="366" 
d="M355 322q0 -2 2 -4q0 -12 -0.5 -24.5t-0.5 -24.5q0 -13 -2 -23t-6 -21q-4 -12 -7 -20t-8 -17q-10 -17 -21 -32t-21 -32q-11 -18 -22 -34t-26 -29q-15 -12 -29.5 -22.5t-30.5 -18.5q-7 -4 -13 -8q-1 -8 -2.5 -14.5t-1.5 -14.5q0 -10 1 -18t-1 -18q-1 -8 0 -17t2.5 -18.5
t1.5 -18t-4 -15.5q4 -5 2.5 -8.5t-6 -6t-9.5 -4t-8 -2.5q-9 -3 -15 -8t-14 -11q-1 1 -6.5 -3.5t-7.5 -3.5q-7 -7 -10 -8.5t-10 -9.5q-8 -9 -15 -23.5t-19 -19.5q-2 1 -1.5 1.5t-0.5 2.5q-6 2 -8 16t-2 31q0 11 0.5 21t0.5 15q1 23 0.5 46t1.5 46q1 22 2 42.5t0 43.5
q-2 20 -5 41t-1 42q0 11 2.5 20.5t2.5 20.5q0 10 1.5 19.5t0.5 20.5q-2 11 -1.5 20t0.5 20q-1 9 0 18.5t-1 18.5l-1 13q-4 10 -4 21v22q1 11 -3 20t-5 20q-8 2 -12 8.5t-12 9.5t-13.5 3t-11.5 6q-8 8 -6 13t9 8t16 4.5t14 2.5q6 0 11.5 -0.5t10.5 -1.5q10 0 19 0.5t18 0.5
q3 1 9 1q16 0 32 -1.5t33 -3.5q2 0 3.5 -0.5t3.5 -0.5h4q16 4 36 4t41 -2.5t42 -3.5h5l6 -2l6 -2q11 -5 18.5 -10t14.5 -15q7 -9 12 -17.5t10 -18.5q2 -4 4 -10t3 -11q1 -3 0.5 -5.5t1.5 -5.5zM221 161q5 14 7 30.5t2 33.5q0 20 -1.5 41t-1.5 40v11.5t-1 15t-3.5 13
t-6.5 6.5q-1 2 -5 4q-3 7 -12.5 5.5t-18.5 -4.5q-10 -8 -16 -19q1 -8 0.5 -15.5t-1.5 -14.5q-2 -16 -1 -34t1 -35q0 -18 1 -37.5t0 -36.5v-43h1q1 -11 1 -18.5t7 -9.5q1 -1 3.5 -1.5t3.5 -1.5q9 1 15.5 9t11.5 18.5t8.5 22t5.5 20.5z" />
    <glyph glyph-name="q" unicode="q" horiz-adv-x="399" 
d="M408 425q4 -9 2.5 -13.5t-6.5 -7t-11.5 -4.5t-11.5 -5l-5 -5q-11 -2 -11.5 -12t-4.5 -18l-1 -2q0 -1 0.5 -4.5t0.5 -4.5q1 -8 2.5 -11t0.5 -11q-2 -9 -3.5 -16.5t0.5 -17.5q2 -9 2 -16t-1 -16t-1 -18.5v-18.5q0 -4 1.5 -7t1.5 -7q1 -5 0 -7t-2 -7q-2 -10 -1 -17t1 -16
q0 -7 -1 -14.5t0 -15.5q0 -8 0.5 -15.5t0.5 -15.5t-0.5 -15.5t-0.5 -15.5q-2 -31 2.5 -61.5t1.5 -61.5q-2 -8 0 -15t2 -15t-1 -15t-1 -15q-1 -11 0.5 -14.5t-8.5 -8.5q-6 -3 -13 -5t-13 -6q-14 -7 -25 -15t-20 -20q-3 -3 -7 -10.5t-8 -15.5t-7.5 -14.5t-6.5 -7.5
q-17 -2 -19 9.5t-2 25.5q0 17 1 33l2 32q2 16 0.5 31t0.5 31q2 13 2.5 27.5t-0.5 28.5q-1 11 -1 21.5t-1 21.5q-6 18 -27 18q-12 0 -24 -8t-20 -16q-8 -7 -16 -15.5t-16 -16.5q-6 -6 -8.5 -7t-10.5 -1q-2 0 -3 -1.5t-3 -1.5t-2.5 1.5t-1.5 1.5q-4 -1 -11 -1h-10q-3 1 -4 2.5
t-3 3.5q-5 2 -9 3t-9 6q-8 8 -13.5 17t-10.5 20q-2 8 -4 12l-2 4t-3 4q-6 8 -7 20q-3 14 -5.5 27.5t-3.5 27.5q-1 7 -1.5 14t0.5 13q1 7 1 13t1 12q1 5 3 8.5t3 8.5q0 3 -0.5 6t-0.5 6q1 6 3 12t3 12q4 14 9.5 25.5t10.5 25.5q5 12 9.5 25t9.5 27q2 6 5.5 11.5t6.5 11.5
q1 3 0.5 5.5t0.5 6.5q1 3 3.5 5.5t3.5 5.5q2 2 1 5.5t0 6.5t2 5.5t3 6.5q3 5 5.5 9.5t6.5 9.5q8 11 15.5 14t20.5 0q12 -2 23 -7.5t22 -11.5q9 0 18.5 -1t14.5 -1q16 0 29.5 1.5t28.5 3.5q8 1 15 -0.5t15 -1.5t14.5 2t14.5 3q12 0 19 -5q14 0 28.5 -0.5t28.5 0.5zM238 130
q0 17 1 34t-1 34l-3 39q2 8 2.5 19t0.5 37q0 12 0.5 27t-5.5 25q-7 12 -16.5 6.5t-18 -18.5t-15.5 -28t-9 -20q-5 -14 -9 -29.5t-4 -30.5q-1 -5 -1 -10.5v-10.5q0 -3 1.5 -6t0.5 -6t-2.5 -6t-2.5 -6q-4 -23 5 -45q2 -4 5 -11t5 -9q4 -4 10.5 -4t8.5 -5q10 4 18.5 3t16.5 7
q3 3 6 6.5t6 7.5z" />
    <glyph glyph-name="r" unicode="r" horiz-adv-x="382" 
d="M363 361q2 -5 2.5 -12.5t-0.5 -12.5q-1 -3 -2.5 -5.5t-1.5 -6.5q0 -3 1.5 -5.5t1.5 -5.5q1 -5 -0.5 -11t-2.5 -11q-2 -8 -5.5 -11t-9.5 -6q-5 -3 -9 -6.5t-9 -7.5q-21 -16 -37 -34t-27 -42q-5 -10 -14.5 -15.5t-13.5 9.5q-3 11 -1 23t2 24q0 13 -2.5 25t-1.5 24
q0 14 -0.5 27.5t-1.5 26.5q-2 13 -7.5 22.5t-19.5 8.5q-13 0 -20.5 -7.5t-12.5 -18.5t-4 -25t0 -26q0 -13 -1 -25.5t1 -25.5q1 -14 0.5 -26t-1.5 -26q-1 -13 0.5 -24t3.5 -23q2 -6 1.5 -12t0.5 -11q2 -8 4 -12t6 -11q6 -9 11.5 -19t13.5 -18t19.5 -13t21.5 -9q6 -2 12 -2.5
t11 -3.5q5 -2 8 -7t-1 -11q-3 -6 -7.5 -4t-9.5 2q-7 1 -13 -0.5t-12 -2.5q-7 0 -13 -0.5t-13 -1.5q-6 -1 -11 -2t-11 -2q-2 0 -3 1.5t-3 1.5q-1 0 -2 -1t-3 -1h-12q-7 0 -12.5 0.5t-12.5 0.5h-55q-15 0 -29 -0.5t-28 -0.5q-7 0 -13.5 0.5t-13.5 0.5q-5 0 -11.5 -1t-8.5 2
q-5 5 -1.5 9t9.5 6.5t13 4t9 2.5q13 5 21 12.5t8 21.5q1 7 2 13t0 13q0 9 2.5 17.5t2.5 17.5q0 2 -1 5t-1 5q-1 4 -0.5 7t0.5 6q1 7 0.5 12.5t0.5 12.5q1 13 0 27t1 28q2 13 -1.5 28.5t1.5 27.5l-1 10q1 8 -1.5 17t-3.5 18q0 8 -1.5 17t-3.5 17l-4 16t-7 15q-6 8 -11 10
q-4 2 -7.5 0.5t-5.5 4.5q-6 -2 -11 -2q-12 2 -14 15q0 9 4.5 10t9.5 1q6 1 12.5 1.5t13.5 0.5q6 0 12 2t12 3q3 0 6 -1.5t7 -1.5q3 0 6 2t6 2q4 -1 6.5 -3t5.5 -2q4 -1 6.5 0.5t5.5 3.5q7 2 12 0.5t12 -1.5q8 0 14.5 -1t14.5 -1q13 -1 27 -0.5t27 0.5q12 1 24.5 0t24.5 -1
q14 1 25.5 3t24.5 0q11 -2 24.5 -2t24.5 -2q9 -3 11.5 -16t2.5 -21q0 -3 -1 -6t0 -6t3 -5.5t3 -6.5z" />
    <glyph glyph-name="s" unicode="s" horiz-adv-x="362" 
d="M347 148q0 -11 2 -21t4.5 -20t4 -20.5t-0.5 -22.5q-4 -17 -12 -31.5t-26 -21.5q-14 -5 -29.5 -7t-31.5 -3q-11 -2 -22.5 -1.5t-20.5 -1.5q-20 -3 -44 -1t-46 -1q-23 -4 -42 -12t-38 -23q-7 -6 -12.5 -14.5t-15.5 -2.5q-5 5 -6.5 19t0.5 18q-5 6 -6 14t0 17.5t2 18.5t0 17
t-3.5 18t-1.5 18q1 7 1 9.5t0.5 3.5t3.5 1t9 3q13 6 27 11t25 16q5 5 8 12.5t7 14t9 9.5t14 -1q4 -9 3 -18.5t-2 -18.5q-1 -10 -1.5 -23.5t1.5 -26.5q2 -3 3.5 -6t4.5 -6q10 -8 20.5 -6.5t21.5 1.5q10 0 21 3t19.5 9t12.5 15t1 22q-1 3 -1.5 6.5t-1.5 6.5q-8 8 -14.5 15.5
t-17.5 12.5q-7 3 -17.5 6t-20.5 7l-18 15q-2 2 -4 3t-4 3q-15 11 -26.5 23t-25.5 23q-23 17 -34.5 39.5t-11.5 47.5q0 41 31 72q26 26 66.5 37t81.5 11q22 0 42 -3q3 -1 9 -1q8 2 16.5 5t14.5 8q7 5 13.5 12t13.5 13t14 9t16 0q2 -15 3.5 -31.5t3.5 -33.5q1 -7 0.5 -12
t-1.5 -10q0 -5 0.5 -8.5t0.5 -6.5q1 -14 1.5 -26t2.5 -26q-5 -4 -10.5 -6t-10.5 -4q-11 -5 -20 -10.5t-18 -13.5q-8 -8 -10 -19t-8 -16q-12 -9 -17.5 -3t-8 17.5t-3 24t-0.5 17.5v17t-2 20q-1 2 -1 3t-1 3q-12 19 -34 19l-22 -2t-21 -6q-10 -7 -17 -15.5t-7 -16.5q2 -2 5 -2
q-2 -5 0 -7.5t2 -7.5q8 0 18 -12t18 -18q6 -5 11 -9t10 -7q7 -8 15 -14.5t19 -13.5l2 -2q25 -17 48 -33q7 -5 17 -12t20 -15.5t18 -17t12 -15.5z" />
    <glyph glyph-name="t" unicode="t" horiz-adv-x="245" 
d="M244 433q16 -2 26 -10.5t6 -25.5q-2 -7 -7 -13.5t-11 -11.5q-7 -5 -14 -4q-6 -3 -14.5 -2t-16.5 0q-11 -2 -21.5 -3.5t-17.5 -12.5q-2 -2 -3.5 -11t-2.5 -12v-8q1 -5 2.5 -7.5t1.5 -7.5t-2.5 -9t-2.5 -9q0 -8 1 -16t1 -16q1 -9 1.5 -16t0.5 -16q0 -8 1 -15t1 -15
q1 -8 1.5 -17t1.5 -17q0 -8 1 -20.5t2.5 -26t4 -26t6.5 -19.5q5 -8 18 -18t24 -6q14 -11 6 -26q-5 -8 -11.5 -8.5t-13.5 -1.5q-8 -2 -16 -5t-16 -3q-8 -1 -15.5 -0.5t-16.5 -0.5q-14 -2 -30 -1.5t-31 5t-26.5 14t-14.5 25.5q-1 2 -1.5 7t-0.5 7q-1 4 -1.5 7.5t-0.5 8.5
q0 4 -0.5 13.5t-0.5 20t-0.5 20t-0.5 13.5q1 17 2 32t-1 32t-1 33l2 32q0 7 1 13.5t3 12.5q-1 8 -1.5 18t-2.5 19.5t-6 17.5t-12 12q-6 3 -12 3.5t-11 0.5t-9.5 1t-6.5 6q0 1 -0.5 1t-0.5 1q-5 5 -5 12t1 14q1 8 5 12.5t9 7t11.5 4.5t12.5 6t11 3t8 5q2 10 2 16q0 2 0.5 5
t0.5 6l2 1q-1 5 -2.5 8.5t-2.5 7.5q-1 8 0.5 15t1.5 14v4l3 1q4 6 10 8t13 2.5t14.5 1t13.5 2.5q11 3 19 7.5t15 12.5t15 15.5t8 19.5q14 5 17 -2.5t3 -20.5l-2 -7q2 -5 1 -14t-1 -15q0 -5 -0.5 -8t-0.5 -8q0 -4 1.5 -7.5t1.5 -6.5q0 -9 -2.5 -16.5t-1.5 -18.5
q0 -4 -0.5 -7.5t-0.5 -7.5q1 -2 3 -5.5t4 -5.5q5 -5 11 -3t14 1q11 -2 23.5 0.5t22.5 1.5z" />
    <glyph glyph-name="u" unicode="u" horiz-adv-x="396" 
d="M399 398q-5 -2 -8 -5.5t-7 -7.5q-17 -17 -22 -49t-5 -67q0 -27 1.5 -52t1.5 -43v-35q0 -17 1.5 -34.5t7.5 -33.5q8 -24 23 -39q4 -4 9.5 -7t9.5 -6.5t5.5 -8.5t-2.5 -12q-26 -1 -54.5 -3t-54.5 -2q-6 0 -12 1t-14 1q-5 0 -13.5 -2.5t-13.5 0.5q-3 2 -3.5 8.5t-0.5 14
t0.5 15t-1.5 12.5q-8 1 -17.5 -3.5t-19.5 -11t-19.5 -13t-16.5 -9.5q-13 -6 -28.5 -10.5t-31.5 -4.5q-25 0 -43 14q-9 7 -14.5 18.5t-8.5 25t-4.5 27.5t-2.5 25q-2 12 -2.5 24t-0.5 24q-2 14 -1 28t0 21q-1 16 -3 33t-1 34q0 5 1 9t0 8q0 5 -1.5 7.5t-1.5 7.5q0 9 1.5 18.5
t1.5 17.5q-1 11 -1.5 25.5t-4.5 25.5q-5 7 -10.5 10t-11.5 4.5l-12 3t-12 6.5q1 13 13.5 16.5t28.5 3.5q12 0 23 -1t17 -1q17 -1 35 -0.5t35 0.5h19.5t18.5 -1q29 -1 56 1t56 0q9 -1 18.5 -1h18.5q19 0 37.5 0.5t37.5 0.5q5 0 12.5 -0.5t13.5 -3t7.5 -6.5t-5.5 -11
q-2 -2 -11 -3.5t-14 -3.5zM236 137q9 17 13.5 38t4.5 43q0 28 -7 52v21q-1 11 -0.5 24t-1 25.5t-5.5 24.5t-13 20q-16 14 -31 14q-14 0 -25 -9t-15 -24q-4 -19 -4 -42q0 -18 1.5 -35.5t2.5 -34.5q1 -29 1 -57t8 -55q2 -8 3 -16.5t4 -15.5t8.5 -11t15.5 -3q17 2 25 15.5
t15 25.5z" />
    <glyph glyph-name="v" unicode="v" horiz-adv-x="389" 
d="M425 421q9 -1 11 -1.5t-2 -9.5q-2 -7 -5 -9.5t-10 -4.5q-12 -5 -21.5 -9.5t-17.5 -15.5q-3 -4 -8 -8t-7 -9q-2 -4 -2.5 -11t-1.5 -12q-1 -7 0.5 -11.5t-0.5 -12.5q-2 -7 -1.5 -12t-0.5 -12q-2 -7 -2.5 -23t-2.5 -27t-5.5 -23t-7.5 -23q-3 -9 -8.5 -12.5t-10.5 -9.5
q-3 -5 -4.5 -12t-4.5 -12q-5 -6 -9.5 -10.5t-7.5 -11.5q-1 -4 -1.5 -5l-2.5 -5q-4 -6 -5 -9q-11 -21 -16 -41q-2 -9 -7 -14t-12 -8q0 -4 -1 -6.5t-2 -5.5q-2 -5 -1.5 -9t-1.5 -8t-4.5 -7.5t-4.5 -8.5q-1 -2 -0.5 -5.5t-1.5 -6.5l-3 -3t-2 -3q-2 -4 -3 -6.5t-4 -6.5
q-2 -4 -3 -7t-3 -8q-1 -3 -2.5 -4.5t-2.5 -3.5q-2 -5 -2.5 -7t-5.5 -5q-7 4 -13 15q-1 1 -1.5 1t-1.5 1t0 2.5t0 2.5q-3 4 -7 6t-7.5 4.5t-6.5 5.5t-4 8q-1 2 0 4.5t-1 4.5q-2 3 -6 4.5t-6 4.5q-1 2 -0.5 2.5t0.5 2.5q-2 6 -2.5 13t-2.5 13q0 6 -1 9q-2 4 -3 5q-8 0 -13.5 2
t-9.5 12q-4 11 -8 20t-8 20q-4 12 -10.5 23.5t-12.5 22.5t-10 24t-11 24q-4 7 -6.5 13t-4.5 14t-5 13t-5 12q-3 6 -4.5 10.5t-2 9.5t0 12t2.5 19q2 13 1.5 18.5t1.5 19.5v6t1 4l-4 11q-2 4 0 8t0 8q-1 2 -2.5 3t-2.5 2v3.5t-1 3.5q-8 16 -22 22q-6 2 -7 1.5t-6 3.5l-5.5 5.5
t-0.5 6.5q2 9 10.5 11t15.5 2q5 0 11 -1t11 0q3 0 7 1.5t6 0.5q3 0 5 -1.5t6 -2.5q6 0 13.5 1.5t14.5 1.5q8 -1 16.5 -1h16.5q18 0 35.5 -0.5t34.5 0.5q7 0 12 -0.5t12 -0.5q8 0 14.5 -0.5t14.5 0.5q8 0 15 -1t15 0h16t16 2q6 1 9 -0.5t8 -2.5t10 1t10 2q8 0 16 -1t16 -1
q14 1 27 0.5t25 -1.5zM151 337q0 -7 -1 -13.5t0 -14.5q0 -7 2 -13.5t3 -13.5v-20t1 -10.5t3 -11t5 -19.5q1 -5 5.5 -18.5t10.5 -27.5t12 -25t11 -9q3 1 6 7t5.5 13.5t4 14t2.5 9.5q2 11 7.5 22.5t10.5 24.5q2 5 3.5 11t3.5 11q0 2 2 3t2 3t-1 2.5t-1 2.5q2 7 1.5 7.5
t-0.5 11.5q-1 18 -5 36t-3 35l-4 8q1 7 -3.5 11t-8.5 7q-4 4 -8.5 7.5t-9.5 5.5q-11 2 -23.5 -1t-20.5 -12q-8 -8 -10.5 -20.5t-1.5 -23.5z" />
    <glyph glyph-name="w" unicode="w" horiz-adv-x="583" 
d="M625 425q3 3 7 1.5t6 -6t0 -9.5t-9 -8q-11 -4 -20 -7t-19 -11q-8 -6 -15.5 -15t-8.5 -19q0 -5 0.5 -10.5t-0.5 -10.5t-1.5 -9t0.5 -8l-7 -44v-12.5t-1 -12.5q-1 -11 -1 -22t-5 -22l-10 -22t-13 -22q-5 -8 -10 -14t-10 -14l-3.5 -7l-3.5 -7q-3 -5 -6.5 -8.5t-5.5 -8.5
q-2 -4 -3 -6.5l-3 -7.5q-4 -6 -8 -15q-4 -7 -8 -12t-9 -11q-3 0 -6 -0.5t-7 -1.5q-2 -4 -3 -7q0 -2 0.5 -4.5t-0.5 -4.5q-1 -7 -5 -12t-6 -11q-8 -14 -10.5 -29t-10.5 -29q-3 -6 -9.5 -11t-12.5 0q-5 5 -7 13t-4 14q-2 5 -3.5 9.5t-3.5 9.5q-4 8 -7 12.5t-4 12.5
q0 8 -3.5 12.5t-7.5 10.5q-2 4 -2 6.5t-1 6.5q-5 0 -8.5 0.5t-7.5 4.5q-4 5 -6 12t-5 12t-6 9.5t-5 9.5q-1 2 0 3.5t1 2.5q-1 1 -2.5 2t-1.5 2q-2 3 -4 9q-2 4 -3 6.5t-3 5.5l-6 -6l-2 -2q0 -5 -3 -11l-6 -12t-5 -11.5t0 -8.5q-7 -9 -8 -18.5t-13 -11.5h-2q0 -3 -1.5 -6
l-2.5 -5q-1 -5 -1 -9t-2 -8t-4.5 -7.5t-4.5 -8.5q-1 -2 -0.5 -5.5t-1.5 -6.5q-1 -2 -2.5 -3t-2.5 -3q-2 -4 -3 -6.5t-3 -6.5q-3 -4 -3.5 -7t-2.5 -8q-2 -4 -6 -8q-2 -5 -2 -7t-5 -5q-5 2 -8 6t-6 9q0 1 -1 1t-1 1q-1 1 -0.5 2.5t-0.5 2.5q-3 4 -7 6t-7.5 4.5t-6.5 5.5t-4 8
q0 2 1 4.5t-1 4.5q-2 3 -6 4.5t-6 4.5q-1 2 -0.5 2.5t-0.5 2.5q-2 6 -2 13t-2 13q-1 2 -1 4.5t-1 4.5q0 2 -2 4q-4 0 -7.5 0.5t-8.5 -0.5q0 3 -0.5 5t0.5 5q-5 11 -10 23l-10 24q-5 11 -12.5 22.5t-12.5 24.5t-10 25.5t-11 25.5q-2 5 -3 9t-3 9q-11 19 -18 42
q-2 6 -1.5 10.5t-4.5 9.5q0 9 2.5 18t2.5 21q6 6 7 9q1 4 2 5.5t0.5 2l-1.5 1.5t-4 5q-1 1 -1 2v5q1 7 -1 14.5t-4 14.5q2 5 -5.5 14.5t-17.5 9.5q-16 10 -18.5 16.5t3.5 10t18 4.5t25 0q15 -2 33.5 1.5t33.5 0.5h11q20 -1 38 1t37 0q20 -2 41.5 0t42.5 1q3 -1 6.5 -2
t7.5 -1q3 -1 9.5 -1h8.5q8 0 17.5 1t19.5 1q11 0 22 -1l22 -2q12 0 23 1.5t23 1.5h13t13 -1q6 -1 10 -1h11q4 0 6 -1.5t5 -1.5t6.5 0.5t6.5 0.5q7 0 13.5 0.5t12.5 0.5q13 0 24.5 2t24.5 3q11 1 22 -1t22 -2q3 0 5 -2zM148 339q-1 -5 -1 -10.5v-11.5q0 -8 2.5 -13t4.5 -20
q0 -2 -1.5 -5t-0.5 -7q0 -2 1 -4.5t2 -4.5q1 -5 1 -10.5t2 -11.5q2 -8 3.5 -20t7.5 -19q2 -2 4.5 -2.5t4.5 -3.5q2 -2 0.5 -5.5t0.5 -6.5q2 -4 4 -7.5t3 -8.5q2 -5 4.5 -10.5t5.5 -10.5q9 -1 11.5 9.5t4.5 16.5q2 4 3.5 8.5t3.5 8.5q4 5 5 8.5t4 8.5q4 8 7 17.5t5 18.5
q0 4 1 5q-2 9 -3 21.5t2 21.5q1 5 4 9.5t-5 15.5q-2 17 -1 35t-11 32q-4 5 -7.5 8t-9.5 5l-5 4q-9 2 -18 1t-18 -9q-8 -7 -12 -15q-1 -2 -1 -4t-2 -4q-2 -4 -3.5 -5.5t-2.5 -6.5q0 -4 0.5 -8.5t-0.5 -9.5zM351 290q2 -6 4 -14q5 -21 10 -43.5t13 -42.5q4 -8 10.5 -18.5
t11.5 -17.5t6 -5.5t3 9.5q2 6 5.5 10t5.5 9t2.5 11.5t3.5 12.5t7.5 11t6.5 12q3 12 5.5 23.5t5.5 23.5q1 10 1 15.5t-1 10t-3 9.5t-3 16q-1 6 0.5 11.5t0.5 10.5q0 3 -0.5 4.5t-2.5 4.5q-2 6 -2 10q-1 3 -3 8.5t-5 11t-7 9t-8 2.5q-1 3 -6 6q-5 -2 -9 -3t-6 -3
q-7 -5 -15.5 -13.5t-13.5 -14.5q-8 -9 -6.5 -16t-0.5 -18z" />
    <glyph glyph-name="x" unicode="x" horiz-adv-x="405" 
d="M414 23q3 -17 -5.5 -22.5t-22.5 -5.5t-29 3.5t-23 2.5t-13.5 -1.5t-13.5 0.5q-8 0 -14.5 0.5t-14.5 0.5q-10 1 -25.5 2t-24.5 -2q0 8 -4.5 18t-8.5 17q-6 10 -10 17.5t-8 16.5q-8 17 -15.5 32.5t-13.5 32.5q-15 -2 -18.5 -18t-3.5 -33v-29q-1 -12 -1 -21t-14 -13
q-5 -2 -11 -0.5t-11.5 2t-11 -0.5t-10.5 -7q-12 -2 -18.5 -9.5t-10.5 -17l-8 -19t-12 -15.5q-8 1 -8 4t-2 8q-3 7 -4 16.5t-1 19.5t0.5 19.5t1.5 17.5q1 18 0.5 37t-2.5 38q0 5 -1 14.5t-1 20.5q0 14 3 25t12 11q7 0 12.5 -5.5l11.5 -11.5t12.5 -11t14.5 -5q11 5 18.5 6.5
t15.5 12.5q5 8 6 17t-1 20q-2 4 -2 7.5t-2 7.5q-2 3 -5.5 6t-5.5 6q-4 7 -8 17t-7 18q-7 17 -8 35t-10 35q-8 14 -18.5 28t-22.5 23q-5 3 -14.5 5.5t-18.5 5.5t-14 7.5t0 12.5q5 7 14 7t19.5 -2t20 -5t14.5 -3q19 1 37.5 3.5t38.5 2.5q20 1 33 -4t21 -24l3 -7q0 -1 1.5 -5.5
t4 -10.5t4.5 -11t3 -8q4 -8 7 -12q2 -2 3 -2.5t2 -2.5l3 -9l2 -4l2 -4q3 -8 6 -16.5t7 -16.5q16 3 19 9t5 23q0 5 1 12.5t1 14.5q0 5 -2 11.5t0 13.5q1 8 5.5 11t9.5 4t11.5 0.5t12.5 1.5q11 3 20 11.5t16 16.5q8 8 12.5 15.5t9.5 16.5q6 10 9.5 15.5t10.5 -8.5t7 -35
q0 -13 -1.5 -25.5t-1.5 -23.5q0 -20 1 -39t0 -36q0 -5 1 -14.5t1 -20.5q0 -13 -3 -22.5t-12 -11.5q-8 6 -19 17.5t-15 20.5q-8 -2 -17 -1.5t-17 -0.5q-7 -17 -14.5 -29t-8.5 -32q0 -10 3 -15.5t6 -13.5q1 -1 1 -5q8 -15 15 -28.5t15 -27.5q2 -3 5 -4.5t5 -5.5q2 -2 1.5 -6.5
t0.5 -7.5q3 -7 10 -11t11 -9q3 -4 5.5 -10t6.5 -11.5t8.5 -9t12.5 -2.5q3 -9 13 -9t17 -4z" />
    <glyph glyph-name="y" unicode="y" horiz-adv-x="384" 
d="M396 400q-6 -2 -11 -4.5t-11 -4.5v-3q-5 -2 -8.5 -8t-5.5 -13.5t-2.5 -15t-0.5 -11.5v-12q0 -5 -2 -7.5t-3 -7.5q0 -4 0.5 -7.5t0.5 -8.5v-31q-2 -16 -2.5 -31t0.5 -30q0 -8 1.5 -16t0.5 -16q0 -11 -4 -19.5t1 -19.5q3 -9 4.5 -16t1.5 -17q0 -5 -1 -10t0 -10t3 -8t3 -7
q2 -8 1 -16t3 -16q3 -8 5.5 -15t4.5 -14q4 -11 13 -24t8 -25q-1 -17 -14 -29t-24 -20q-7 -6 -13 -12.5t-14 -13.5q-9 -8 -19.5 -16.5t-18.5 -18.5q-11 -14 -24.5 -25t-28.5 -22q-10 -6 -19 -13l-18 -14q-6 -5 -13 -9.5t-8 -12.5q-11 -2 -22 -6t-22 -3q-1 3 -8 7.5t-16 8.5
t-17.5 7.5t-12.5 5.5q-9 5 -13 8t-9 11q-4 5 -8.5 9t-7.5 10q-4 7 -4.5 15t-5.5 15q-4 8 -9 12.5t-8 13.5q-5 14 -9.5 29.5t-4.5 29.5q1 28 27 37q9 3 25.5 7.5t21.5 12.5q4 8 0.5 12.5t-10 8t-12.5 7.5t-6 11q0 5 4 11q-2 5 -3.5 10.5t-4.5 10.5q-2 5 -6 11t-6 11
q-2 7 -1 13.5t0 14.5q-2 15 0 29t-1.5 28.5t-4.5 29.5t-0.5 30t2.5 29q2 9 0.5 15.5t0.5 13.5q2 5 2 7.5v7.5v14q0 7 -1 13t-2 14t0.5 14t-0.5 14q-3 13 -7.5 25.5t-18.5 18.5q-6 2 -12.5 3.5t-12.5 3.5q-5 9 -0.5 12.5t12 3.5t16 -1.5t11.5 -1.5q14 -2 30.5 -2.5t29.5 1.5
q8 2 15.5 1.5t15.5 -1.5q7 0 13.5 1t14.5 0q6 0 20.5 0.5t24.5 -1.5q11 2 21.5 1.5t21.5 -0.5h50q13 -1 25.5 1t25.5 0q6 0 9 -1q10 0 20 0.5t19 -1.5q6 -1 9.5 -1.5t10.5 0.5q4 1 8 0.5t9 -1.5q0 -8 4 -12q-2 -8 -7.5 -7.5t-11.5 -1.5zM213 400q-7 4 -10.5 2t-9.5 -3
q-3 0 -5 1.5t-6 0.5q-3 0 -5.5 -1t-4.5 -2q-4 -2 -14 -6l-3 -3q-7 -11 -6.5 -25.5t-1.5 -25.5q-1 -12 -1.5 -24.5t-0.5 -24.5q0 -17 0.5 -32.5t0.5 -31.5v-28t2 -29l4 -28t9 -26q9 -17 20 -16t21.5 10t19 22t12.5 21q2 5 8 13q-1 5 -1 10v10q0 14 1.5 28t-1.5 28
q-3 12 -2.5 24.5t-1.5 24.5q-5 27 -3 57v8q-1 8 -2 16.5t-6 16.5q-2 4 -5.5 7.5t-7.5 5.5zM253 -122q14 5 23 17.5t-2 26.5q-4 6 -9.5 8.5t-10.5 6.5l-5 5t-4 5q-4 5 -4 6.5t-2 6.5q-6 15 -8.5 25t0.5 27q2 7 3 14t3 14q0 2 2 8q-11 -5 -20 -9.5t-18 -11.5
q-11 -7 -21.5 -15.5t-22.5 -13.5q-1 0 -1.5 -0.5t-1.5 -0.5q-4 -4 -6 -7q-11 -12 -16.5 -24t-5.5 -29q1 -11 7 -26.5t17 -21.5q5 -3 11.5 -4t12.5 -4l7 -3.5t6 -3.5q2 -1 4 1t4 0q2 -1 3 -3t3 -3q11 -5 26 -0.5t26 9.5z" />
    <glyph glyph-name="z" unicode="z" horiz-adv-x="444" 
d="M394 389q-17 -8 -24.5 -24t-18.5 -31q0 -1 -1 -2l-1 -1l-3 -9q-8 -6 -14.5 -15t-11.5 -19.5t-9.5 -21t-8.5 -18.5q-9 -19 -17 -39t-16 -39q-7 -17 -14 -32.5t-15 -31.5q0 -4 -0.5 -7t0.5 -6q1 -8 1 -10.5t1 -3.5t4 -0.5t9 0.5q2 0 4 -0.5t4 -0.5q10 1 15 3t8 15
q2 11 -2 20t-2 19q1 10 8.5 14.5t17 6.5t19 3.5t16.5 6.5q18 14 23.5 30t9.5 36q7 2 13.5 2t13.5 -1q3 -3 4 -5q-4 -12 -2.5 -30t3.5 -31q2 -14 4 -29.5t2 -29.5q0 -10 0.5 -19t1.5 -18q1 0 1 -0.5t1 -0.5q-1 -4 -0.5 -4.5t1.5 -2.5q-1 -2 -1 -4.5t-2 -4.5q2 -5 3 -11.5
t0 -12.5t-4.5 -9.5t-10.5 -3.5q0 -2 -1 -3q-4 -1 -7 -2.5t-7 -2.5q-4 -2 -6 0t-5 1q-9 -1 -16.5 -0.5t-16.5 0.5q-11 0 -18.5 -1.5t-18.5 1.5q-4 1 -10.5 4t-9.5 3q-7 0 -11.5 -3.5t-9.5 -4.5q-11 -2 -14.5 0t-14.5 -2q-11 -5 -16.5 -4t-16.5 1q-5 0 -10 -3t-10 -4h-2
q-8 -5 -19 -6q-13 -2 -24.5 0.5t-22.5 4.5q-4 -1 -8 -1h-8q-2 -2 -4 -3.5t-6 -0.5q-3 0 -9 4q-1 0 -1.5 0.5t-1.5 0.5q-3 0 -7 2q-12 0 -22 -2q-14 -2 -29.5 -0.5t-29.5 -1.5q-3 16 4 17t18 3q9 1 19 4t18 8q22 13 30 28.5t14 38.5q12 42 32 78.5t43 72.5q8 11 14.5 23.5
t11.5 25.5q2 11 6 23t8 17q-2 2 -2.5 3.5t-4.5 3.5q-1 7 0 10.5t1 5t-2 1.5h-8q-5 0 -8.5 0.5t-7.5 0.5q-17 -5 -21 -24q-4 -18 0 -37t0 -37q-18 -2 -31 -6.5t-30 -11.5q-9 -4 -15 -5t-12 -12q-5 -8 -4.5 -16.5t-0.5 -18.5q-6 -2 -10 -0.5t-9 3.5q-7 3 -7 2.5t-2 7.5
q-2 10 -2 24t2 22q-5 2 -7 14.5t-2 27.5t1 29t1 21v15.5t1 24t4 22.5t10 11q1 1 3 1h1q4 2 19 1t21 -3q5 -1 9 -3.5t9 -2.5q3 0 9.5 3t10.5 3q8 2 19 2.5t18 -0.5h6.5t3 0.5t3.5 1t8 0.5h19.5t20.5 2q8 1 18.5 0t16.5 -2q8 0 16 2t16 2h3q4 1 8 1h8h10h11q11 0 22.5 1
t22.5 1q9 -1 19.5 0t18.5 0q10 -1 18.5 -8t-0.5 -17q-6 -7 -17.5 -6.5t-19.5 -3.5z" />
    <glyph glyph-name="braceleft" unicode="{" horiz-adv-x="271" 
d="M252 -50q-7 -9 -18 -12.5t-22 -3.5t-21.5 2.5t-18.5 5.5q-13 4 -20 8t-18 10q-5 3 -10.5 4t-11.5 6q-4 2 -5 6t-4 6q-2 2 -6 1.5t-6 0.5q-6 6 -12.5 16.5t-11.5 23t-8.5 25t-3.5 21.5q-1 20 8 42.5t20 38.5t19 38.5t-3 43.5q-3 6 -11.5 13t-18.5 12t-20 8t-17 2
q-2 15 4 21.5t14.5 10.5t18.5 6.5t17 9.5q18 17 18 39q0 15 -8 33q-9 20 -18.5 40t-11.5 43q-1 23 6.5 45.5t18.5 40.5q11 19 23.5 34.5t29.5 28.5q7 5 16.5 10.5t20 10t21 6.5t19.5 1l11 4q9 3 10.5 0.5t-0.5 -6t-5.5 -8t-6.5 -6.5q-6 -5 -13.5 -10t-12.5 -10
q-10 -10 -21 -30t-13 -35q-3 -24 4.5 -43t19.5 -35.5t25 -33t21 -36.5q6 -15 6 -28q0 -28 -24 -50q-14 -14 -29 -21t-24 -26q4 -8 7.5 -14t9.5 -11q8 -8 15.5 -13t14 -11t11 -14t6.5 -21q5 -26 -2.5 -47t-18.5 -41q-5 -9 -11.5 -15.5t-10.5 -14.5t-8 -21.5t-3 -21.5
q0 -9 5 -20.5t9 -19.5q5 -9 14.5 -13t11.5 -12q8 -1 15 -3.5t15 -4.5z" />
    <glyph glyph-name="bar" unicode="|" horiz-adv-x="216" 
d="M148 237q2 -6 4 -7.5t0 -8.5q-2 -5 -7 -9.5t-3 -10.5q0 -5 3.5 -7t4.5 -7q0 -4 -3.5 -9t-4.5 -9q-1 -8 1 -15t2 -14q-1 -8 -1.5 -16t0.5 -16q0 -8 1 -15.5t0 -15.5q0 -5 -2 -8.5t-2 -8.5q0 -3 2 -7.5t2 -8.5q1 -7 2.5 -16t1.5 -16q-1 -4 -3 -7.5t-2 -8.5q0 -4 2.5 -6.5
t2.5 -6.5q0 -7 -2.5 -15t-1.5 -16q0 -8 0.5 -14.5t0.5 -14.5q-12 0 -23.5 -1t-24.5 0q-16 1 -23 3.5t-9 21.5q0 13 1 27.5t1 29.5q0 2 -2 3.5t-2 3.5t1.5 3.5t1.5 3.5q0 3 -1.5 6t-1.5 6q-1 7 1.5 14.5t2.5 14.5v28.5t-1 28.5q0 5 -1.5 9t-1.5 8q0 5 1.5 8.5t1.5 7.5
q-1 3 -3 5t-2 4q-1 2 0.5 3.5t1.5 3.5q0 4 0.5 7.5t-0.5 7.5q-1 8 -1 15.5v15.5v15.5t1 15.5q1 18 0 35.5t-2 35.5t-0.5 35.5t0.5 35.5t-0.5 34.5t-1.5 33.5q-2 17 1 35.5t1 35.5l-2 8t0 9q0 4 2 7t2 8q0 2 -2 3t-2 3t1 3.5t0 3.5q0 10 -1 15q0 6 -0.5 14t0.5 14q1 5 1 13.5
t2 11.5l2 13q-3 1 -4 4q6 6 17 7t19 0t20.5 0.5t19.5 -3.5t7 -9.5t-2 -12.5q-1 -7 0 -13t2 -14q2 -14 3 -27.5t-1 -27.5q-1 -8 -3.5 -15.5t-0.5 -16.5q2 -10 1.5 -19t-0.5 -20q-1 -8 -2 -15t0 -15q2 -8 3.5 -15.5t2.5 -15.5q2 -8 0 -15.5t-2 -14.5q0 -1 1.5 -3t1.5 -4
t-2 -3.5t-2 -3.5q-1 -4 -1.5 -7.5t-0.5 -8.5q1 -8 1.5 -15t0.5 -14q-1 -5 -1 -8.5v-7.5q0 -2 1.5 -4t1.5 -4t-1.5 -3.5t-1.5 -3.5q0 -7 1 -14.5t2 -14.5q2 -9 0.5 -18t1.5 -17z" />
    <glyph glyph-name="braceright" unicode="}" horiz-adv-x="292" 
d="M260 320q1 -15 -4.5 -21.5t-14.5 -10.5t-18.5 -6.5t-16.5 -9.5q-18 -17 -18 -40q0 -14 8 -32q9 -20 18.5 -40t11.5 -43q1 -23 -6.5 -45.5t-18.5 -40.5q-11 -19 -23.5 -35t-29.5 -28q-7 -5 -16.5 -10.5t-20 -10t-21 -7t-19.5 -0.5l-11 -5q-9 -2 -11 0t0 6t6 8.5t7 6.5
q6 5 13.5 9.5t12.5 10.5q10 10 21 30t13 35q3 24 -4.5 43t-19.5 35.5t-25 33t-21 36.5q-6 15 -6 28q0 27 24 50q14 14 29 21t24 26q-4 8 -7.5 14t-9.5 11q-8 7 -15.5 12.5t-14 11.5t-11.5 14t-7 21q-4 26 3.5 47t18.5 41q5 9 11.5 15.5t10.5 14.5t8 21.5t3 21.5q0 9 -5 20.5
t-9 19.5q-5 9 -14.5 13t-11.5 12q-8 1 -15.5 3.5t-15.5 4.5q0 2 -2 6q7 9 18 12.5t22 3.5t21.5 -2.5t18.5 -5.5q13 -5 20 -8.5t18 -9.5q5 -3 10.5 -4t11.5 -6q3 -2 4.5 -6t4.5 -6q2 -2 6 -1.5t5 -0.5q7 -6 13.5 -16.5t11.5 -23t8.5 -25t3.5 -21.5q1 -20 -8 -42.5t-20 -38.5
t-19 -38.5t3 -43.5q3 -6 11.5 -13t18.5 -12t20 -8t17 -2z" />
    <glyph glyph-name="asciitilde" unicode="~" horiz-adv-x="393" 
d="M360 230q1 -15 -6.5 -24t-21.5 -20q-23 -17 -52 -29t-59 -10q-14 1 -23 7t-16.5 14t-15 16.5t-18.5 14.5q-17 8 -27 3t-18 -14t-16.5 -16.5t-21.5 -4.5q-1 13 -7.5 26t-10.5 23t-8 22.5t-13 20.5q7 13 22 19l20 11q26 14 54 23.5t60 1.5q11 -17 26 -31t33 -14q16 0 31 14
q14 12 24.5 21.5t19.5 9.5q7 0 13.5 -7t14.5 -24q5 -9 10.5 -26t5.5 -27z" />
    <glyph glyph-name="exclamdown" unicode="&#xa1;" horiz-adv-x="234" 
d="M87.0098 477.007q-5 8 -11.499 11.999q-6.5 4 -13.499 11q-2 3 -6.5 7.49902q-4.5 4.5 -4.5 9.5q0 2.99902 4 7.49902t7 6.5q0 3 7.49902 11.499q7.5 8.49902 10.499 11.499q5 5 12 10q6.99902 4.99902 11.999 10.999q2 3 3 5.5q1 2.49902 4 4.49902q1.99902 1 4.49902 2
t4.5 2q7 2 16.999 -3l11.999 -11.999q3 -3 6.5 -5.5q3.5 -2.49902 6.49902 -5.49902q6 -7 12 -13.999q5.99902 -7 12.999 -12q5 -2.99902 7.49902 -7.49902q2.5 -4.5 5.5 -9.5q1 -1.99902 2.5 -4.49902t1.5 -4.5q-1 -2 -2.5 -3.5t-1.5 -3.5q-6 -4.99902 -11.999 -10.999
q-6 -6 -12 -10.999v-1q-1.99902 -2 -5.49902 -4t-2.5 -5q-6 -4.99902 -10.999 -9.49902q-5 -4.5 -10 -9.49902q-4.99902 -4 -8.99902 -9.5q-4 -5.49902 -11.999 -3.5q-5 1 -9 6t-6.99902 8q-2 1.99902 -5 4.49902t-5 4.5q-2 3 -2 5.5t-4.99902 4.49902zM200.003 43.0332
q4 -3 7.99902 -4.49902q4 -1.5 8 -6.5q6 -2 7 -5t-1 -5.99902q-2 -3 -5.5 -5t-6.5 -3q-6.99902 -2 -14.499 -2q-7.49902 0 -15.499 -1q-19.998 -1 -37.9971 -3q-17.999 -1.99902 -36.998 -3.99902q-3 0 -8 0.5q-4.99902 0.5 -8.99902 0.5q-5 0 -8 1q-2.99902 1 -7.99902 1
q-7 0 -17.499 -3t-16.499 -1q-8.99902 3 -7.99902 9.49902q1 6.5 5.49902 13.999q4.5 7.5 10 14.499q5.49902 7 7.49902 11q4 6.99902 8 14.499q3.99902 7.49902 4.99902 15.499q1 5 -0.5 8.49902q-1.49902 3.5 -1.49902 8.5q0 3 1.99902 6.99902q2 4 2 8
q0 6.99902 -2 14.499q-1.99902 7.49902 -1.99902 15.499t0.999023 16.499q1 8.49902 2 17.499q2 14.999 -0.5 29.498q-2.49902 14.499 -4.49902 28.498q-1 11 -1 22.499v23.498q3 9 5.49902 18.999q2.5 10 5.5 16.999q1 1 0 1t-1 1q5 6 6.5 12.999q1.5 7 3.49902 13.999
q2 6 4.5 13.999q2.5 8 8.5 13q0 2 2.49902 7.49902q2.5 5.5 6.5 11.499q4 6 8.5 11q4.49902 4.99902 7.49902 4.99902q8 2 9.99902 -1.99902l5 -10q2 -5 6.5 -11.499q4.49902 -6.5 3.49902 -11.499q5 0 9 -4t7.49902 -10q3.5 -5.99902 6.5 -12.499q3 -6.49902 6 -9.49902
q3.99902 -5 4.49902 -10q0.5 -4.99902 2.5 -10.999q0 -13.999 3 -28.998q1 -6 1 -13.999v-15.999v-29.998q-1 -14.999 2 -33.998q1 -3 1.5 -9.5q0.5 -6.49902 1 -12.999q0.5 -6.49902 1.5 -11.999t2 -6.5l-3 -14.999q3 -12.999 1.5 -24.498t-1.5 -25.498
q1 -11 6.99902 -21.999q6 -10.999 4 -21.999z" />
    <glyph glyph-name="cent" unicode="&#xa2;" horiz-adv-x="414" 
d="M242 246q-1 23 -2 46.5t0 48.5q1 10 1.5 21.5t0.5 22.5q0 16 -2 30t-10 25q-3 1 -10 1q-8 -8 -15 -17.5t-11 -17.5q-11 -22 -14.5 -46.5t-2.5 -47.5q0 -14 -0.5 -29t-0.5 -29q0 -11 0.5 -22t2.5 -22q2 -14 5.5 -21.5t13.5 -17.5q7 -8 15.5 -14t10.5 -16q12 -7 20.5 -12.5
t22.5 -9.5q11 -2 22.5 -2t23.5 -1q16 0 23 -6.5t7 -14.5t-6.5 -16.5t-19.5 -13.5q-9 -3 -25 -2.5t-24 2.5q-3 1 -10 1q1 -2 1 -4.5v-4.5q-1 -4 -3 -7t-2 -6q0 -4 2.5 -6t2.5 -6q0 -5 -2.5 -12t-1.5 -13q0 -6 0.5 -12t0.5 -12q-12 0 -23.5 -1t-24.5 0q-16 1 -23 3t-9 18
q-1 11 0.5 23t1.5 24q0 2 -2 3t-2 3t1.5 3t1.5 3q0 1 -2 5q-5 -1 -8.5 -1.5t-10.5 2.5q-9 3 -19 11t-18 15q-90 84 -87 203q1 25 9 52.5t16 52.5q5 12 12 23.5t12 22.5q6 11 15 23.5t19 20.5q11 9 24.5 8.5t26.5 -1.5h5l2 4t1 4t-2 2.5t-2 2.5t1 3.5t0 3.5q0 8 -1 12
q0 5 -0.5 11.5t0.5 11.5q1 4 1 11.5t2 10.5l2 10q-3 0 -4 3q6 5 17 6t19 0t20.5 0.5t19.5 -2.5q7 -5 7 -8.5t-2 -10.5q-1 -6 0 -11t2 -11q1 -12 2.5 -23t-0.5 -23q0 -1 -1 -2h12q9 3 17 7q12 6 22 15.5t24 7.5q10 -1 14.5 -4.5t5 -9t0 -13t1.5 -15.5q5 -29 7 -57.5t3 -57.5
q0 -16 -5.5 -25.5t-14.5 -16t-19.5 -13t-19.5 -17.5q-6 -8 -11 -22.5t-11.5 -26.5t-15.5 -17t-22 7z" />
    <glyph glyph-name="sterling" unicode="&#xa3;" horiz-adv-x="463" 
d="M437 93q0 -1 0.5 -1.5t0.5 -1.5t-0.5 -1t-0.5 -1q-5 -15 -18 -32q-9 -12 -20.5 -22.5t-23.5 -19.5t-30.5 -14.5t-33.5 -8.5q-8 -2 -15 -0.5t-15 3.5q-8 3 -15 3.5t-17 0.5q-8 0 -17 -1t-17 0q-3 0 -7 1.5t-6 2.5q-4 1 -6.5 -1.5t-5.5 4.5q-7 -2 -11 1t-10 4q-4 2 -9 -0.5
t-8 -2.5q-10 -1 -19.5 0.5t-18.5 7.5q-5 -5 -13.5 -2.5t-15.5 0.5q-6 -2 -12 -6t-13 -6q-4 -2 -12 0t-16.5 5.5t-14.5 8t-7 9.5q-9 6 -3.5 12.5t10.5 9.5q8 5 9.5 9.5t4.5 12.5q2 4 4 6.5t4 6.5t1 7.5t1 7.5t5 6t5 6q2 3 2 7.5t2 8.5q2 6 3 14t6 13q3 3 6.5 4.5t5.5 4.5
q3 3 3.5 7t2.5 8q2 3 5 4.5t5 4.5t1 6t1 7q2 3 6 4.5t6 4.5q2 5 2.5 10t2.5 10q2 4 6 10q-14 2 -21 8t1 21q-4 2 -8 9q4 5 4.5 11t0.5 12t0.5 11.5t5.5 9.5q1 1 7 2t13 1.5t13.5 0t8.5 -0.5h5q0 5 0.5 9t2.5 8q-1 0 -2.5 5t-3 11t-2.5 11t-1 6q-5 2 -4.5 5t-1.5 5t-5 4.5
t-5 5.5t-2 6.5t-2 6.5q-2 2 -4 5l-4 6q-2 2 -0.5 4t-0.5 4q-1 2 -3 2t-3 2q-3 4 -5.5 6t-4.5 7t-4 12.5t3 13.5q-2 1 -2.5 6t0 11t1.5 10.5t3 6.5q-2 10 7 19t10 18l20 16t23 13q4 2 8 2.5t8 2.5q3 1 4 3.5t5 4.5q8 3 14.5 1.5t14.5 0.5q9 3 14.5 3.5t15.5 1.5q7 0 13.5 1.5
t13.5 2.5q8 0 15.5 -1.5t15.5 -2.5t15 -0.5t13 -9.5q3 1 12 -5t14 -9q7 -3 10.5 -8.5t8.5 -11.5l11 -10q-1 1 0 0t3 -2q2 -5 1 -11.5t1 -12.5q1 -6 3 -11.5t3 -12.5q1 -6 0 -13.5t-7 -12.5q-8 -5 -10 -1.5t-5 8.5q-4 7 -4 14t-3 12q-2 2 -7 5t-7 6q-2 2 -3.5 4.5t-3.5 4.5
q-7 8 -10 12.5t-14 6.5q-8 2 -14.5 3.5t-14.5 1.5q-17 0 -30 -3t-28 -12q-15 -8 -22 -18t-15 -24q3 -3 5 -4q-7 -10 -0.5 -19.5t11.5 -15.5q3 -4 5.5 -9.5t5.5 -10.5q3 -4 6 -9t5 -9q5 -9 9 -18.5t9 -19.5q2 -5 4.5 -14.5t5.5 -17.5q15 2 30 3t24 -5q18 6 28.5 3.5t15 -10.5
t4.5 -20.5t-3 -26.5q-4 -18 -15.5 -23t-26.5 -5q-10 0 -19.5 1t-19.5 0h-29q-2 -4 -4 -7.5t-4 -7.5q-2 -7 -4.5 -14.5t-4.5 -12.5q-11 -27 -29 -50q-5 -5 -8 -11t-7 -11q-4 -4 -6 -5q-11 -5 -26 -15q-6 -5 -18 -13.5t-12 -17.5q11 -3 21.5 2.5t22.5 3.5q10 -2 21 -5.5
t22 -5.5q12 -2 24.5 -4t25.5 -3q12 -2 22 -6.5t21 -6.5q16 -4 29.5 -3.5t27.5 8.5q13 7 24 15t23 16q7 5 13 8t12 -6z" />
    <glyph glyph-name="yen" unicode="&#xa5;" horiz-adv-x="474" 
d="M404 580q6 1 15.5 1.5t20.5 0.5q14 0 27 -2.5t19 -10.5q-5 -9 -15 -9t-18 -2q-10 -3 -17 -9t-13 -14q-13 -16 -21 -34l-16 -36q-10 -23 -18 -44.5t-20 -41.5q-5 -8 -8.5 -16t-7.5 -16q11 -2 15 -5q18 5 28 5q26 0 30.5 -18t-2.5 -41q-5 -18 -21 -23.5t-36 -5.5
q-12 0 -23.5 1t-21.5 1q-2 -3 -4 -6.5t-4 -6.5q1 -4 0 -5.5t-3 -8.5q-2 -9 0 -18q17 1 34.5 2t34.5 1q22 0 43 -3q4 -21 -1 -40.5t-10 -39.5q-21 2 -41 -1t-43 -5h-13q0 -10 1 -15q1 -7 1 -15t4 -15q3 -7 6.5 -12t6.5 -11q11 -27 36 -37q6 -2 12.5 -5t2.5 -12q-3 -6 -9.5 -7
t-13.5 -1q-8 -1 -14 -2t-14 1q-5 2 -7 3t-9 0q-5 0 -8.5 -1t-7.5 -1q-15 1 -29.5 0.5t-29.5 -2.5q-8 -1 -14.5 -1t-13.5 -1t-14.5 -2.5t-15.5 -0.5q-8 0 -15.5 1t-15.5 2q-7 1 -13 3t-13 2v9.5t7 5.5q4 2 8.5 4.5t8.5 4.5q3 -1 7 2t8 7t7.5 8.5t5.5 7.5q4 5 7 10.5t3 12.5
q0 3 -2 6.5t-2 6.5q0 5 2 9t3 9t1.5 11.5t0.5 12.5q-13 -1 -26.5 -1.5t-27.5 -0.5q-25 0 -44.5 4.5t-24.5 21.5q6 4 6.5 12t-0.5 15.5t-0.5 13t8.5 6.5l18 3q18 4 39.5 5t39.5 1q-13 19 -10 47q-11 -2 -23 -3t-23 -1q-20 0 -32.5 6t-1.5 23q-3 2 -5.5 4.5l-4.5 4.5
q5 5 5.5 11t0.5 12t1 12t7 10q1 1 8.5 1.5t16.5 1t17 0t11 -0.5h9q-2 5 -3 8.5t-2 8.5q-8 20 -19 38t-19 39q-7 17 -14 37.5t-17 38.5q-13 23 -27 34t-36 22q-2 1 -6 0.5t-6 -0.5q-7 11 6 18l4 -2q13 3 29 3q14 0 28.5 -1.5t28.5 -1.5h45q4 0 10 0.5t13 0.5t13 -0.5t9 -2.5
q7 -5 11.5 -16t8.5 -17q7 -10 11 -20t7 -21q4 -16 9 -31.5t10 -30.5q10 23 18.5 47t15.5 48l11 6q0 8 3.5 14t4.5 15q9 1 16 6t15 0q11 -2 22 -0.5t23 0.5q12 -2 23 0z" />
    <glyph glyph-name="dieresis" unicode="&#xa8;" horiz-adv-x="325" 
d="M120 532q21 -8 21 -26q0 -12 -8 -28q-4 -9 -11.5 -17t-16.5 -13t-18.5 -5.5t-18.5 6.5q-6 5 -12.5 12t-10.5 15.5t-4.5 17t4.5 15.5q3 5 11 14t17 16t19 9t18 -5zM278 526q6 -4 5 -15t-6 -23t-12 -22.5t-13 -13.5q-9 -5 -19 -3.5t-19.5 6t-19 11t-17.5 10.5q4 18 10 32.5
t15.5 23.5t23 11.5t34.5 -4.5z" />
    <glyph glyph-name="acute" unicode="&#xb4;" horiz-adv-x="254" 
d="M192 572q-10 -14 -21 -18t-25 -11q-12 -6 -19 -7.5t-12 -13.5q-4 1 -8 -1.5t-8 -1.5l-16 -8q-2 -2 -8 -5t-12.5 -6.5t-12 -5.5t-7.5 -2q-5 2 -6 7.5t-2 11.5t-2.5 11.5t-5.5 8.5q2 3 3 7t3 6q-11 14 -2 24.5t24 19.5q14 8 29.5 13t20.5 7q6 1 6.5 1.5t0 0.5t0 1.5
t5.5 4.5q14 6 26.5 13t24.5 14q5 2 6 3.5t1.5 3t1.5 3t6 3.5q14 8 25.5 9.5t17.5 -15.5q4 -13 6 -26t-1 -23.5t-12 -18t-27 -10.5z" />
    <glyph glyph-name="cedilla" unicode="&#xb8;" horiz-adv-x="268" 
d="M216 -79q4 -10 6.5 -17.5t2.5 -20.5q-2 -21 -3.5 -40t-11.5 -37q-3 -6 -12 -13t-19 -12t-20.5 -5.5t-16.5 6.5q-7 -1 -11 -2t-8 -1.5t-8.5 -0.5t-11.5 2q-10 2 -19.5 -1t-18.5 -1q-11 3 -17.5 17.5t-6.5 29.5q0 22 12 31q7 4 16.5 2.5t20 -4.5t20.5 -5t19 3t13 13t4 17
q0 12 -6.5 23t-18.5 16q-8 3 -20.5 2.5t-23 1t-15 7t4.5 20.5q-3 3 -3 10t1 15t2.5 15.5l2.5 12.5q2 10 2 24t5 21l-4 14q0 10 -1 17t7 13q9 6 16 2t14 2q7 -5 18 -6t16 -6q6 -7 3 -15.5t-5 -16.5q-3 -18 -3 -38q0 -18 3 -33q9 -3 18 -4t18 -3t17 -6t13 -13q6 -9 6.5 -18.5
t2.5 -17.5z" />
    <glyph glyph-name="questiondown" unicode="&#xbf;" horiz-adv-x="417" 
d="M209.014 459.008q-2 8 -8 16.499q-5.99902 8.5 -12.999 17.999q-6.99902 9.5 -12.499 19.499t-7.5 19.999q-1.99902 12.999 5.5 18.999q7.5 5.99902 17.499 10.999t18.499 10.499q8.49902 5.5 9.49902 17.499q11 -1 17.999 5q7 6 16.999 4q8 -2 14.499 -10.5
q6.5 -8.49902 4.5 -17.499q5 0 10.999 -5.49902q6 -5.5 10.999 -12.5q5 -6.99902 9 -13.999q4 -6.99902 5 -10.999q2.99902 -6 6.49902 -11.499q3.5 -5.5 -2.5 -13.499q-2.99902 -3 -6.49902 -4.5t-6.5 -2.5t-5.49902 -2.5q-2.5 -1.5 -3.5 -6.49902q-4 -1 -13.499 -5.5
q-9.5 -4.5 -18.499 -10.499q-9 -6 -15.999 -12q-7 -5.99902 -8 -9.99902q-4.99902 -1 -9.49902 -1.5t-8.5 0.5zM42.0234 87.0312q-1 3 0.5 5.99902l3 6t2 5.5q0.5 2.49902 -1.5 4.49902q7 9 10.499 18.499q3.5 9.5 12.5 18.499q3.99902 3 7.99902 5t7 5.99902q1 2 0.5 5
t0.5 5q2 2 3.49902 3.99902q1.5 2 3.5 4q12.999 16.999 30.498 25.999q17.499 8.99902 38.498 12.999q2 2 4.5 4q2.49902 1.99902 2.49902 3.99902q5 3 6.5 10q1.5 6.99902 1.5 14.499v14.999v11.499q0 10.999 1 24.998q1 14 6.99902 23.999q8 10.999 17.999 22.499
q10 11.499 14.999 24.498q2 5 4 12.499q2 7.5 5.5 13.499q3.5 6 7.99902 8q4.5 2 9.5 -4q8.99902 -9.99902 14.499 -19.999q5.49902 -9.99902 11.499 -20.998q6 -11.999 13.999 -25.499q8 -13.499 13.999 -24.498q5 -8 3.5 -12.499q-1.5 -4.5 -2.5 -11.5
q0 -2.99902 1.5 -5.49902t0.5 -5.5q-1 -4 -2 -7.49902q-1 -3.5 -2 -6.5q-2 -13.999 0.5 -28.498t-0.5 -26.499q-1 -5.99902 -6.99902 -9.49902q-6 -3.5 -12.499 -6q-6.5 -2.49902 -13.5 -3.99902q-6.99902 -1.5 -10.999 -3.5q-1 0 -1.5 1.5t-2.5 0.5
q-1.99902 -1 -2.49902 -2.5t-2.5 -1.5q-2 -1 -4 -3t-4 -3q-5 -3.99902 -10.499 -4.99902q-5.5 -1 -10.499 -4q-5 -2 -9.5 -5.5t-9.49902 -5.49902q-5 -2 -11 -6q-5.99902 -4 -8.99902 -9q-2 -1.99902 -4 -7.99902t-3.5 -11.999q-1.5 -6 -1 -12q0.5 -5.99902 3.5 -7.99902
q3 -13.999 7 -21.499q4 -7.49902 16.999 -14.499q3.99902 -2 10.499 -5.49902q6.5 -3.5 10.499 -4.5q6 -1 11.5 3q5.49902 3.99902 10.499 -3q11.999 0 17.999 5q2 -2 13.499 -2.5t16.499 0.5q6 0 13.999 4.49902q8 4.5 12.999 9.5q0 1 -0.5 1t-0.5 1q7 7.99902 12 15.999
q4.99902 7.99902 12.999 15.999q-2 9.99902 5.5 9.49902q7.49902 -0.5 11.499 -3.5q6.99902 -4.99902 10.999 -11.499t8 -13.499q2.99902 -3 4.99902 -7q0 -2 -0.5 -3.99902q-0.5 -2 0.5 -3q2 -3 4.5 -5.5t4.5 -5.5q3.99902 -4.99902 4.49902 -12.499
q0.5 -7.49902 6.5 -11.499q-7 -5 0 -9.99902q0 -7 -5.5 -10q-5.49902 -3 -12.999 -3.5q-7.49902 -0.5 -15.499 -0.5h-12.999q-11.999 -1 -25.998 -4.49902q-13.999 -3.5 -25.999 -2.5l-14.999 -6q-4 2 -5.99902 0q-2 -2 -7 -2q-4 -1 -7 0q-2.99902 1 -6.99902 1
q-8 -1 -15.999 -3.49902q-8 -2.5 -15.999 -2.5q-5 0 -11.999 2q-7 1.99902 -14 2.99902h-13.999q-5.99902 0 -13.999 1q-4 0 -6.99902 -1q-3 -1 -6 0q-2 0 -2.5 2t-3.5 3q-1.99902 0 -3.49902 -1t-3.5 -1q-8 2 -13.999 5q-6 3 -12.999 5q-13 3.99902 -28.499 3.99902
t-25.498 12q-1 1.99902 -2 3.49902t-2 3.5l-3 3q-1.99902 2 -2.99902 4q-3 4.99902 -2 8.49902t-1 8.5q-1 2 -4 5.99902q-3 4 -5 8.5q-2 4.49902 -3 8.99902q-0.999023 4.5 3 7.5z" />
    <glyph glyph-name="Agrave" unicode="&#xc0;" 
d="M377 45q1 -7 6.5 -11.5t12.5 -7.5t14.5 -6t12.5 -6q0 -6 -3 -12q-7 2 -18 -1t-21 -3q-12 -1 -24 -0.5t-24 -1.5q-20 -2 -39.5 0.5t-38.5 0.5q-7 -1 -17.5 -3.5t-16.5 2.5q-9 9 -2 12.5t12 6.5q14 9 15.5 24t0.5 31q-2 14 0 28q-1 4 -1 12q-1 8 -0.5 16.5t-5.5 13.5
t-14.5 3t-14.5 -2q-7 0 -13.5 0.5t-11.5 0.5q-4 0 -10 -2q-2 -1 -5 -2t-5 -2q-6 -2 -8 -9q-1 -5 -1.5 -9t-0.5 -9q2 -11 3.5 -23t6.5 -21q2 -6 3.5 -14.5t3.5 -13.5t5 -7q0 -3 -0.5 -6t-0.5 -5q-1 -8 -3 -12t-5 -8h-1q-8 -2 -16.5 -3t-16.5 1q-5 2 -10.5 3.5t-10.5 3.5
q-5 1 -11 1.5t-12 1.5h-5q-14 -1 -27 -4t-27 -1h-4q-5 -1 -11.5 -2.5t-12 -1.5t-9 2.5t-3.5 8.5q0 5 4.5 8t10.5 5.5t12.5 5t10.5 5.5q4 4 5.5 8t3.5 9q-1 14 -5 27.5t-5 25.5q-1 17 -1 34.5t-1 35.5t3.5 34.5t6.5 34.5t5 36t7 35q7 38 25.5 71.5t30.5 68.5q5 15 11.5 28.5
t13.5 27.5q0 9 1 17t-1 13q-3 8 -6 10.5t-12 4.5q-4 1 -12 1t-11 4q-6 6 -2.5 9t10.5 5t14.5 3t10.5 1q4 1 7 1t7 1q6 2 12 2q8 2 13.5 1t13.5 -2h7h18h3q12 0 23.5 -0.5t23.5 -0.5h37.5t36.5 1q10 1 20 0t20 -1q8 0 15 1t13 5q7 -8 3 -17.5t-9 -16.5q-7 -9 -11.5 -16
t-8.5 -18q-4 -9 -5 -18.5t-1 -19.5q0 -13 1 -25.5t2 -26.5q2 -23 -2.5 -45.5t-2.5 -45.5q1 -22 5 -43t4 -42v-28.5t2 -28.5q1 -7 2 -13.5t0 -13.5q-1 -5 -4 -11t-2 -11q1 -6 4 -10.5t5 -9.5q2 -7 1 -14l-2 -14q0 -9 -0.5 -21t2.5 -21zM245 315q2 11 1 16.5l-3 16.5
q-1 9 -1 17.5t-1 16.5l-4 16t-3 16q-7 1 -13.5 -7.5t-12 -20t-9.5 -23.5t-7 -17q-9 -19 -18.5 -40t-13.5 -42q-2 -5 -2.5 -9.5t-1.5 -9.5q-1 -2 -1.5 -4t-1.5 -4q1 -4 0 -9q0 -3 -0.5 -6.5t0.5 -6.5q2 -2 3.5 -3t3.5 -3t1 -3.5t2 -3.5q4 -3 7 -3h1q2 0 4.5 0.5t4.5 0.5
q4 0 7.5 -0.5t8.5 -0.5q20 -2 29 3t14 27q2 10 2.5 21.5t1.5 22.5v7v18t2 17zM119 682q-18 3 -27.5 10.5t-12.5 18t-1 23.5t7 26q6 17 17.5 15.5t25.5 -9.5q4 -2 5.5 -3.5t2 -3t1.5 -3t6 -3.5q12 -7 24.5 -14t26.5 -13q5 -3 5.5 -4.5t0 -1.5t0 -0.5t6.5 -1.5q5 -2 20.5 -7
t29.5 -13q15 -9 24 -19.5t-2 -24.5q2 -2 3 -6t3 -7q-5 -3 -6 -8.5t-2 -11.5t-2.5 -11.5t-5.5 -7.5q-2 0 -7.5 2t-12 5.5t-12.5 6.5t-8 5l-16 8q-4 -1 -8 1.5t-8 1.5q-5 12 -12 13.5t-19 7.5q-14 7 -25 11t-21 18z" />
    <glyph glyph-name="Aacute" unicode="&#xc1;" 
d="M373 681q-10 -14 -21 -18t-25 -11q-12 -6 -19 -7.5t-12 -13.5q-4 1 -8 -1.5t-8 -1.5l-16 -8q-2 -2 -8 -5t-12.5 -6.5t-12 -5.5t-7.5 -2q-5 2 -6 7.5t-2 11.5t-2.5 11.5t-5.5 8.5q2 3 3 7t3 6q-11 14 -2 24.5t24 19.5q14 8 29.5 13t20.5 7q6 1 6.5 1.5t0 0.5t0 1.5
t5.5 4.5q14 6 26.5 13t24.5 14q5 2 6 3.5t1.5 3t1.5 3t6 3.5q14 8 25.5 9.5t17.5 -15.5q4 -13 6 -26t-1 -23.5t-12 -18t-27 -10.5zM377 45l-2 10q-3 9 -2.5 21t0.5 21l2 14t-1 14q-2 5 -5 9.5t-4 10.5q-1 5 2 11t4 11q1 7 0 13.5t-2 13.5q-2 14 -2 28.5v28.5q0 21 -4 42
t-5 43q-2 23 2.5 45.5t2.5 45.5q-1 14 -2 26.5t-1 25.5q0 10 1 19.5t5 18.5q4 11 8.5 18t11.5 16q5 7 9 16.5t-3 17.5q-6 -4 -13 -5t-15 -1q-10 0 -20 1t-20 0q-18 -1 -36.5 -1h-37.5q-12 0 -23.5 0.5t-23.5 0.5h-3h-18h-7q-8 1 -13.5 2t-13.5 -1q-6 0 -12 -2q-4 -1 -7 -1
t-7 -1q-3 0 -10.5 -1t-14.5 -3t-10.5 -5t2.5 -9q3 -4 11 -4t12 -1q9 -2 12 -4.5t6 -10.5q2 -5 1 -13t-1 -17q-7 -14 -13.5 -27.5t-11.5 -28.5q-12 -35 -30.5 -68.5t-25.5 -71.5q-4 -17 -7 -35t-5 -36t-6.5 -34.5t-3.5 -34.5t1 -35.5t1 -34.5q1 -12 5 -25.5t5 -27.5
q-2 -5 -3.5 -9t-5.5 -8q-4 -3 -10.5 -5.5t-12.5 -5t-10.5 -5.5t-4.5 -8q0 -6 3.5 -8.5t9 -2.5t12 1.5t11.5 2.5h4q14 -2 27 1t27 4h5q6 -1 12 -1.5t11 -1.5q5 -2 10.5 -3.5t10.5 -3.5q8 -2 16.5 -1t16.5 3h1q3 4 5 8t3 12q0 2 0.5 5t0.5 6q-3 2 -5 7t-3.5 13.5t-3.5 14.5
q-5 9 -6.5 21t-3.5 23q0 5 0.5 9t1.5 9q2 7 8 9q2 1 5 2t5 2q6 2 10 2q5 0 11.5 -0.5t13.5 -0.5q6 0 14.5 2t14.5 -3t5.5 -13.5t0.5 -16.5q0 -8 1 -12q-2 -14 0 -28q1 -16 -0.5 -31t-15.5 -24q-5 -3 -12 -6.5t2 -12.5q6 -5 16.5 -2.5t17.5 3.5q19 2 38.5 -0.5t39.5 -0.5
q12 2 24 1.5t24 0.5q10 0 21 3t18 1q3 6 3 12q-5 3 -12.5 6t-14.5 6t-12.5 7.5t-6.5 11.5zM245 315q-2 -8 -2 -17v-18v-7q-1 -11 -1.5 -22.5t-2.5 -21.5q-5 -22 -14 -27t-29 -3q-5 0 -8.5 0.5t-7.5 0.5q-2 0 -4.5 -0.5t-4.5 -0.5h-1q-3 0 -7 3q-3 2 -2 3.5t-1 3.5t-3.5 3
t-3.5 3q-1 3 -0.5 6.5t0.5 6.5q1 5 0 9q1 2 1.5 4t1.5 4q1 5 1.5 9.5t2.5 9.5q4 21 13.5 42t18.5 40q3 5 7 17t9.5 23.5t12 20t13.5 7.5q1 -8 3 -16l4 -16q1 -8 1 -16.5t1 -17.5l3 -16.5t-1 -16.5z" />
    <glyph glyph-name="Acircumflex" unicode="&#xc2;" 
d="M377 45q1 -7 6.5 -11.5t12.5 -7.5t14.5 -6t12.5 -6q0 -6 -3 -12q-7 2 -18 -1t-21 -3q-12 -1 -24 -0.5t-24 -1.5q-20 -2 -39.5 0.5t-38.5 0.5q-7 -1 -17.5 -3.5t-16.5 2.5q-9 9 -2 12.5t12 6.5q14 9 15.5 24t0.5 31q-2 14 0 28q-1 4 -1 12q-1 8 -0.5 16.5t-5.5 13.5
t-14.5 3t-14.5 -2q-7 0 -13.5 0.5t-11.5 0.5q-4 0 -10 -2q-2 -1 -5 -2t-5 -2q-6 -2 -8 -9q-1 -5 -1.5 -9t-0.5 -9q2 -11 3.5 -23t6.5 -21q2 -6 3.5 -14.5t3.5 -13.5t5 -7q0 -3 -0.5 -6t-0.5 -5q-1 -8 -3 -12t-5 -8h-1q-8 -2 -16.5 -3t-16.5 1q-5 2 -10.5 3.5t-10.5 3.5
q-5 1 -11 1.5t-12 1.5h-5q-14 -1 -27 -4t-27 -1h-4q-5 -1 -11.5 -2.5t-12 -1.5t-9 2.5t-3.5 8.5q0 5 4.5 8t10.5 5.5t12.5 5t10.5 5.5q4 4 5.5 8t3.5 9q-1 14 -5 27.5t-5 25.5q-1 17 -1 34.5t-1 35.5t3.5 34.5t6.5 34.5t5 36t7 35q7 38 25.5 71.5t30.5 68.5q5 15 11.5 28.5
t13.5 27.5q0 9 1 17t-1 13q-3 8 -6 10.5t-12 4.5q-4 1 -12 1t-11 4q-6 6 -2.5 9t10.5 5t14.5 3t10.5 1q4 1 7 1t7 1q6 2 12 2q8 2 13.5 1t13.5 -2h7h18h3q12 0 23.5 -0.5t23.5 -0.5h37.5t36.5 1q10 1 20 0t20 -1q8 0 15 1t13 5q7 -8 3 -17.5t-9 -16.5q-7 -9 -11.5 -16
t-8.5 -18q-4 -9 -5 -18.5t-1 -19.5q0 -13 1 -25.5t2 -26.5q2 -23 -2.5 -45.5t-2.5 -45.5q1 -22 5 -43t4 -42v-28.5t2 -28.5q1 -7 2 -13.5t0 -13.5q-1 -5 -4 -11t-2 -11q1 -6 4 -10.5t5 -9.5q2 -7 1 -14l-2 -14q0 -9 -0.5 -21t2.5 -21zM245 315q2 11 1 16.5l-3 16.5
q-1 9 -1 17.5t-1 16.5l-4 16t-3 16q-7 1 -13.5 -7.5t-12 -20t-9.5 -23.5t-7 -17q-9 -19 -18.5 -40t-13.5 -42q-2 -5 -2.5 -9.5t-1.5 -9.5q-1 -2 -1.5 -4t-1.5 -4q1 -4 0 -9q0 -3 -0.5 -6.5t0.5 -6.5q2 -2 3.5 -3t3.5 -3t1 -3.5t2 -3.5q4 -3 7 -3h1q2 0 4.5 0.5t4.5 0.5
q4 0 7.5 -0.5t8.5 -0.5q20 -2 29 3t14 27q2 10 2.5 21.5t1.5 22.5v7v18t2 17zM369 667q2 -6 -5 -16t-17 -18.5t-21.5 -13t-18.5 0.5q-8 6 -13.5 20t-13.5 22q-7 7 -17 18t-20 10q-7 0 -12.5 -4.5t-10 -10.5t-8 -12.5t-7.5 -10.5q-8 -10 -19 -17.5t-12 -23.5q-10 2 -16 1
t-15 3q-8 5 -16.5 13t-6.5 24q0 5 4.5 12t10.5 13.5t12.5 12t11.5 7.5q-1 4 2 9t6.5 10t8 10t6.5 8q6 8 13 19.5t16 16.5q-2 6 4 15.5t15 18t19.5 12.5t18.5 -1t13 -19.5t10 -21.5q4 -5 9.5 -6.5t9.5 -6.5q2 -3 5 -12t5 -12q5 -11 9 -20t11 -18q5 -8 15.5 -15.5t13.5 -16.5z
" />
    <glyph glyph-name="Atilde" unicode="&#xc3;" 
d="M377 45q1 -7 6.5 -11.5t12.5 -7.5t14.5 -6t12.5 -6q0 -6 -3 -12q-7 2 -18 -1t-21 -3q-12 -1 -24 -0.5t-24 -1.5q-20 -2 -39.5 0.5t-38.5 0.5q-7 -1 -17.5 -3.5t-16.5 2.5q-9 9 -2 12.5t12 6.5q14 9 15.5 24t0.5 31q-2 14 0 28q-1 4 -1 12q-1 8 -0.5 16.5t-5.5 13.5
t-14.5 3t-14.5 -2q-7 0 -13.5 0.5t-11.5 0.5q-4 0 -10 -2q-2 -1 -5 -2t-5 -2q-6 -2 -8 -9q-1 -5 -1.5 -9t-0.5 -9q2 -11 3.5 -23t6.5 -21q2 -6 3.5 -14.5t3.5 -13.5t5 -7q0 -3 -0.5 -6t-0.5 -5q-1 -8 -3 -12t-5 -8h-1q-8 -2 -16.5 -3t-16.5 1q-5 2 -10.5 3.5t-10.5 3.5
q-5 1 -11 1.5t-12 1.5h-5q-14 -1 -27 -4t-27 -1h-4q-5 -1 -11.5 -2.5t-12 -1.5t-9 2.5t-3.5 8.5q0 5 4.5 8t10.5 5.5t12.5 5t10.5 5.5q4 4 5.5 8t3.5 9q-1 14 -5 27.5t-5 25.5q-1 17 -1 34.5t-1 35.5t3.5 34.5t6.5 34.5t5 36t7 35q7 38 25.5 71.5t30.5 68.5q5 15 11.5 28.5
t13.5 27.5q0 9 1 17t-1 13q-3 8 -6 10.5t-12 4.5q-4 1 -12 1t-11 4q-6 6 -2.5 9t10.5 5t14.5 3t10.5 1q4 1 7 1t7 1q6 2 12 2q8 2 13.5 1t13.5 -2h7h18h3q12 0 23.5 -0.5t23.5 -0.5h37.5t36.5 1q10 1 20 0t20 -1q8 0 15 1t13 5q7 -8 3 -17.5t-9 -16.5q-7 -9 -11.5 -16
t-8.5 -18q-4 -9 -5 -18.5t-1 -19.5q0 -13 1 -25.5t2 -26.5q2 -23 -2.5 -45.5t-2.5 -45.5q1 -22 5 -43t4 -42v-28.5t2 -28.5q1 -7 2 -13.5t0 -13.5q-1 -5 -4 -11t-2 -11q1 -6 4 -10.5t5 -9.5q2 -7 1 -14l-2 -14q0 -9 -0.5 -21t2.5 -21zM245 315q2 11 1 16.5l-3 16.5
q-1 9 -1 17.5t-1 16.5l-4 16t-3 16q-7 1 -13.5 -7.5t-12 -20t-9.5 -23.5t-7 -17q-9 -19 -18.5 -40t-13.5 -42q-2 -5 -2.5 -9.5t-1.5 -9.5q-1 -2 -1.5 -4t-1.5 -4q1 -4 0 -9q0 -3 -0.5 -6.5t0.5 -6.5q2 -2 3.5 -3t3.5 -3t1 -3.5t2 -3.5q4 -3 7 -3h1q2 0 4.5 0.5t4.5 0.5
q4 0 7.5 -0.5t8.5 -0.5q20 -2 29 3t14 27q2 10 2.5 21.5t1.5 22.5v7v18t2 17zM393 677q1 -15 -7 -19t-22 -14q-23 -17 -47.5 -24t-54.5 -5q-14 1 -24.5 5.5t-19.5 10.5t-18 13t-20 13q-17 8 -27 3t-18 -14t-16.5 -17t-21.5 -5q-2 14 -10 17t-12 13q-4 11 -4 16t-9 13
q8 12 22 18l20 12q26 14 54 23t60 1q11 -17 26 -30.5t33 -13.5q16 0 32 13q14 13 24 22.5t19 9.5q7 0 13.5 -7t14.5 -24q5 -9 8.5 -14.5t4.5 -15.5z" />
    <glyph glyph-name="Adieresis" unicode="&#xc4;" 
d="M377 45q1 -7 6.5 -11.5t12.5 -7.5t14.5 -6t12.5 -6q0 -6 -3 -12q-7 2 -18 -1t-21 -3q-12 -1 -24 -0.5t-24 -1.5q-20 -2 -39.5 0.5t-38.5 0.5q-7 -1 -17.5 -3.5t-16.5 2.5q-9 9 -2 12.5t12 6.5q14 9 15.5 24t0.5 31q-2 14 0 28q-1 4 -1 12q-1 8 -0.5 16.5t-5.5 13.5
t-14.5 3t-14.5 -2q-7 0 -13.5 0.5t-11.5 0.5q-4 0 -10 -2q-2 -1 -5 -2t-5 -2q-6 -2 -8 -9q-1 -5 -1.5 -9t-0.5 -9q2 -11 3.5 -23t6.5 -21q2 -6 3.5 -14.5t3.5 -13.5t5 -7q0 -3 -0.5 -6t-0.5 -5q-1 -8 -3 -12t-5 -8h-1q-8 -2 -16.5 -3t-16.5 1q-5 2 -10.5 3.5t-10.5 3.5
q-5 1 -11 1.5t-12 1.5h-5q-14 -1 -27 -4t-27 -1h-4q-5 -1 -11.5 -2.5t-12 -1.5t-9 2.5t-3.5 8.5q0 5 4.5 8t10.5 5.5t12.5 5t10.5 5.5q4 4 5.5 8t3.5 9q-1 14 -5 27.5t-5 25.5q-1 17 -1 34.5t-1 35.5t3.5 34.5t6.5 34.5t5 36t7 35q7 38 25.5 71.5t30.5 68.5q5 15 11.5 28.5
t13.5 27.5q0 9 1 17t-1 13q-3 8 -6 10.5t-12 4.5q-4 1 -12 1t-11 4q-6 6 -2.5 9t10.5 5t14.5 3t10.5 1q4 1 7 1t7 1q6 2 12 2q8 2 13.5 1t13.5 -2h7h18h3q12 0 23.5 -0.5t23.5 -0.5h37.5t36.5 1q10 1 20 0t20 -1q8 0 15 1t13 5q7 -8 3 -17.5t-9 -16.5q-7 -9 -11.5 -16
t-8.5 -18q-4 -9 -5 -18.5t-1 -19.5q0 -13 1 -25.5t2 -26.5q2 -23 -2.5 -45.5t-2.5 -45.5q1 -22 5 -43t4 -42v-28.5t2 -28.5q1 -7 2 -13.5t0 -13.5q-1 -5 -4 -11t-2 -11q1 -6 4 -10.5t5 -9.5q2 -7 1 -14l-2 -14q0 -9 -0.5 -21t2.5 -21zM245 315q2 11 1 16.5l-3 16.5
q-1 9 -1 17.5t-1 16.5l-4 16t-3 16q-7 1 -13.5 -7.5t-12 -20t-9.5 -23.5t-7 -17q-9 -19 -18.5 -40t-13.5 -42q-2 -5 -2.5 -9.5t-1.5 -9.5q-1 -2 -1.5 -4t-1.5 -4q1 -4 0 -9q0 -3 -0.5 -6.5t0.5 -6.5q2 -2 3.5 -3t3.5 -3t1 -3.5t2 -3.5q4 -3 7 -3h1q2 0 4.5 0.5t4.5 0.5
q4 0 7.5 -0.5t8.5 -0.5q20 -2 29 3t14 27q2 10 2.5 21.5t1.5 22.5v7v18t2 17zM193 701q21 -8 21 -26q0 -12 -8 -28q-4 -9 -11.5 -17t-16.5 -13t-18.5 -5.5t-18.5 6.5q-6 5 -12.5 12t-10.5 15.5t-4.5 17t4.5 15.5q3 5 11 14t17 16t19 9t18 -5zM351 695q6 -4 5 -15t-6 -23
t-12 -22.5t-13 -13.5q-9 -5 -19 -3.5t-19.5 6t-19 11t-17.5 10.5q4 18 10 32.5t15.5 23.5t23 11.5t34.5 -4.5z" />
    <glyph glyph-name="Aring" unicode="&#xc5;" 
d="M377 45q1 -7 6.5 -11.5t12.5 -7.5t14.5 -6t12.5 -6q0 -6 -3 -12q-7 2 -18 -1t-21 -3q-12 -1 -24 -0.5t-24 -1.5q-20 -2 -39.5 0.5t-38.5 0.5q-7 -1 -17.5 -3.5t-16.5 2.5q-9 9 -2 12.5t12 6.5q14 9 15.5 24t0.5 31q-2 14 0 28q-1 4 -1 12q-1 8 -0.5 16.5t-5.5 13.5
t-14.5 3t-14.5 -2q-7 0 -13.5 0.5t-11.5 0.5q-4 0 -10 -2q-2 -1 -5 -2t-5 -2q-6 -2 -8 -9q-1 -5 -1.5 -9t-0.5 -9q2 -11 3.5 -23t6.5 -21q2 -6 3.5 -14.5t3.5 -13.5t5 -7q0 -3 -0.5 -6t-0.5 -5q-1 -8 -3 -12t-5 -8h-1q-8 -2 -16.5 -3t-16.5 1q-5 2 -10.5 3.5t-10.5 3.5
q-5 1 -11 1.5t-12 1.5h-5q-14 -1 -27 -4t-27 -1h-4q-5 -1 -11.5 -2.5t-12 -1.5t-9 2.5t-3.5 8.5q0 5 4.5 8t10.5 5.5t12.5 5t10.5 5.5q4 4 5.5 8t3.5 9q-1 14 -5 27.5t-5 25.5q-1 17 -1 34.5t-1 35.5t3.5 34.5t6.5 34.5t5 36t7 35q7 38 25.5 71.5t30.5 68.5q5 15 11.5 28.5
t13.5 27.5q0 9 1 17t-1 13q-3 8 -6 10.5t-12 4.5q-4 1 -12 1t-11 4q-6 6 -2.5 9t10.5 5t14.5 3t10.5 1q4 1 7 1t7 1q6 2 12 2q8 2 13.5 1t13.5 -2h7h18h3q12 0 23.5 -0.5t23.5 -0.5h37.5t36.5 1q10 1 20 0t20 -1q8 0 15 1t13 5q7 -8 3 -17.5t-9 -16.5q-7 -9 -11.5 -16
t-8.5 -18q-4 -9 -5 -18.5t-1 -19.5q0 -13 1 -25.5t2 -26.5q2 -23 -2.5 -45.5t-2.5 -45.5q1 -22 5 -43t4 -42v-28.5t2 -28.5q1 -7 2 -13.5t0 -13.5q-1 -5 -4 -11t-2 -11q1 -6 4 -10.5t5 -9.5q2 -7 1 -14l-2 -14q0 -9 -0.5 -21t2.5 -21zM245 315q2 11 1 16.5l-3 16.5
q-1 9 -1 17.5t-1 16.5l-4 16t-3 16q-7 1 -13.5 -7.5t-12 -20t-9.5 -23.5t-7 -17q-9 -19 -18.5 -40t-13.5 -42q-2 -5 -2.5 -9.5t-1.5 -9.5q-1 -2 -1.5 -4t-1.5 -4q1 -4 0 -9q0 -3 -0.5 -6.5t0.5 -6.5q2 -2 3.5 -3t3.5 -3t1 -3.5t2 -3.5q4 -3 7 -3h1q2 0 4.5 0.5t4.5 0.5
q4 0 7.5 -0.5t8.5 -0.5q20 -2 29 3t14 27q2 10 2.5 21.5t1.5 22.5v7v18t2 17zM243 650q5 -5 12 -3t13 6.5t11.5 10.5t7.5 9q6 10 -0.5 22t-15.5 18q-12 10 -25 1t-18 -20q-6 -11 -6 -19q0 -11 14 -17zM295 731q28 -11 28 -35q0 -17 -11 -37q-5 -12 -15 -23t-22 -18t-25 -7.5
t-25 9.5q-9 6 -17 16t-13.5 21t-6 22.5t5.5 20.5q4 7 14.5 19t23 21t25.5 12.5t24 -6.5z" />
    <glyph glyph-name="AE" unicode="&#xc6;" horiz-adv-x="574" 
d="M561 52q3 -11 6.5 -20.5t-1.5 -20.5q-7 -14 -16 -11.5t-20 5.5q-11 2 -23 1.5t-23 -1.5q-14 -1 -26.5 -1t-26.5 -2h-14.5t-14.5 -2h-8q-8 -2 -13 -2q-12 -1 -24 -0.5t-24 -1.5h-27q-13 -2 -26 -2t-25 2q-3 0 -4 1q-7 -2 -16 -4t-14 3l-3 3q-6 -2 -11 -2q-3 0 -15.5 0.5
t-20.5 4.5q0 -1 -2 -3h-1q-8 -2 -16.5 -3t-16.5 1l-21 7l-23 3h-5q-14 -1 -27 -4t-27 -1h-4q-5 -1 -11.5 -2.5t-12 -1.5t-9 2.5t-3.5 8.5q0 5 4.5 8t10.5 5.5t12.5 5t10.5 5.5q4 4 5.5 8t3.5 9q-1 14 -5 27.5t-5 25.5l-2 70q-1 18 3.5 34.5t6.5 34.5t5 36t7 35
q7 38 25.5 71.5t30.5 68.5q5 15 11.5 28.5t13.5 27.5q0 9 1 17t-1 13q-3 8 -6 10.5t-12 4.5q-4 1 -12 1t-11 4q-6 6 -2.5 9t10.5 5t14.5 3t10.5 1l14 2q6 2 12 2q8 2 13.5 1t13.5 -2h28q12 0 23.5 -0.5t23.5 -0.5q14 0 27 -0.5t27 0.5h13q2 0 3.5 0.5t3.5 0.5q10 1 20 0
t20 -1q8 0 15 1t13 5l3 -5q17 2 34.5 3.5t35.5 0.5q8 0 13 -1.5t13 -1.5q15 2 29 0q18 -2 20 -11.5t-2 -23.5q-2 -6 -1.5 -11t-0.5 -11q-2 -7 -5 -12t-4 -12q-1 -5 -1 -11.5t-1 -12.5t-4.5 -10.5t-11.5 -4.5q-14 -1 -21 7.5t-14 18.5q-6 8 -12 19.5t-17 16.5q-3 2 -6.5 2
t-6.5 2q-2 1 -4 2.5t-5 3.5q-12 6 -23 2q-12 -5 -18 -10.5t-9 -18.5q-2 -12 -0.5 -25t1.5 -24t-4 -26.5t1 -25.5q2 -2 4.5 -3t4.5 -3q2 -3 2 -5t2 -5q3 -8 5 -10t10 -5q10 -4 22.5 -6.5t23.5 2.5q25 8 47 7q6 -1 8.5 -5.5t3.5 -11t0 -13.5t-1 -11q-3 -27 -13 -53
q-1 -4 -2.5 -6t-2.5 -6q0 -4 1 -6.5t-1 -6.5q-2 -5 -8 -6.5t-11 -0.5q-8 3 -7.5 7t-3.5 11q-3 5 -7 9t-7 9q-3 6 -6 10t-7 9q-2 2 -1 3.5t-1 2.5q-2 2 -3 1t-2 0q-2 2 -5.5 3.5t-5.5 2.5q-14 5 -22.5 -6.5t-7.5 -23.5q0 -12 -2.5 -25.5t-0.5 -25.5q2 -13 -0.5 -25.5
t2.5 -26.5t2 -29.5t-3 -30.5q1 -14 1 -25.5t5 -24.5q2 -8 5.5 -9.5t9.5 -6.5l7 -7t10 -4q11 -3 19.5 -7.5t20.5 3.5q5 3 7.5 7t5.5 9q2 5 6 9.5t7 9.5q5 10 9 20t11 20q3 4 5 9t7 7q3 2 12 3.5t12 0.5q5 -1 7.5 -6t3.5 -11t1.5 -12.5t0.5 -10.5q1 -7 1.5 -13t2.5 -12
q1 -6 3 -11.5t3 -11.5zM245 315q2 11 1 16.5l-3 16.5l-2 34l-4 16t-3 16q-7 1 -13.5 -7.5t-12 -20t-9.5 -23.5t-7 -17q-9 -19 -18.5 -40t-13.5 -42q-2 -5 -2.5 -9.5t-1.5 -9.5l-3 -8q1 -4 0 -9q0 -3 -0.5 -6.5t0.5 -6.5q2 -2 3.5 -3t3.5 -3t1 -3.5t2 -3.5q4 -3 7 -3h1
q2 0 4.5 0.5t4.5 0.5q4 0 7.5 -0.5t8.5 -0.5q20 -2 29 3t14 27q2 10 2.5 21.5t1.5 22.5v7v18t2 17zM177 19q0 -2 -0.5 -2.5t-0.5 -1.5q5 1 10 1t7 2q7 2 13 4t12 5q20 11 29 29v14q-2 14 0 28q-1 4 -1 12q-1 8 -0.5 16.5t-5.5 13.5t-14.5 3t-14.5 -2q-7 0 -13.5 0.5
t-11.5 0.5q-4 0 -10 -2l-10 -4q-6 -2 -8 -9q-1 -5 -1.5 -9t-0.5 -9q2 -11 3.5 -23t6.5 -21q2 -6 3.5 -14.5t3.5 -13.5t5 -7q0 -3 -0.5 -6t-0.5 -5z" />
    <glyph glyph-name="Ccedilla" unicode="&#xc7;" horiz-adv-x="359" 
d="M267 -73q4 -10 6.5 -17.5t2.5 -20.5q-2 -21 -3.5 -40t-11.5 -37q-3 -6 -12 -13t-19 -12t-20.5 -5.5t-16.5 6.5q-7 -1 -11 -2t-8 -1.5t-8.5 -0.5t-11.5 2q-10 2 -19.5 -1t-18.5 -1q-11 3 -17.5 17.5t-6.5 29.5q0 22 12 31q7 4 16.5 2.5t20 -4.5t20.5 -5t19 3t13 13t4 17
q0 12 -6.5 23t-18.5 16q-8 3 -20.5 2.5t-23 1t-15 7t4.5 20.5q-3 3 -3 10t1 15t2.5 15.5l2.5 12.5v4q-4 2 -4 1q-6 11 -17.5 18t-16.5 17q-5 7 -6.5 13.5t-4.5 14.5q-4 8 -7.5 14.5t-5.5 14.5q-5 14 -11 26t-12 25q-4 8 -3.5 16t-2.5 16q-2 8 -6 14t-6 16t-5 19.5t-5 19.5
t-1 20t-1 21q-3 20 -0.5 39t2.5 39q0 11 -1 19.5t4 19.5q5 9 9.5 17t8.5 17q8 19 13 35t16 33q10 14 22 32t29 26q8 4 16.5 5t17.5 1q10 0 19.5 -1t19.5 0q5 0 11 1t11 1q3 -1 7.5 -3.5t6.5 -1.5q4 0 9 3.5t9 4.5l20 2h5q8 5 18.5 13.5t21 15t20.5 8.5t16 -4q4 -4 5.5 -13.5
t1.5 -21.5q0 -21 -2.5 -44.5t-3.5 -32.5q-1 -11 -1.5 -21.5t-0.5 -21.5q0 -20 1 -40.5t0 -40.5q-17 -8 -35 -22t-31 -28q-9 -9 -13.5 -19.5t-9 -17t-11.5 -7.5t-21 9q-2 8 -1.5 22t0.5 27q0 11 -1.5 20t-6.5 13q5 10 6.5 24t1.5 28v46q-1 5 -1.5 8t-0.5 5q0 5 -1 13t-8 8
q-6 0 -13 -5q-17 -17 -28 -38.5t-15 -40.5q-5 -19 -7 -37.5t-4 -38.5q-2 -19 0 -36.5t6 -34.5q5 -17 6 -38t4 -39q6 -37 25 -65q10 -15 18 -32t21 -28q7 -6 14.5 -11t15.5 -10q7 -4 17.5 -4t12.5 -8q3 0 10 0.5t14.5 0t13.5 -1.5t9 -4q8 -8 2 -19t-10 -19q-29 -3 -60 -3
q-11 0 -22 0.5t-22 1.5q-6 0 -11.5 0.5t-11.5 0.5l3 -18q9 -3 18 -4t18 -3t17 -6t13 -13q6 -9 6.5 -18.5t2.5 -17.5z" />
    <glyph glyph-name="Egrave" unicode="&#xc8;" horiz-adv-x="358" 
d="M353 52q3 -11 6.5 -20.5t-1.5 -20.5q-7 -14 -16 -11.5t-20 5.5q-11 2 -23 1.5t-23 -1.5q-14 -1 -26.5 -1t-26.5 -2h-14.5t-14.5 -2q-8 -1 -14.5 0t-14.5 2q-6 2 -12 1.5t-12 -1.5q-8 -2 -15 -1.5t-15 -1.5q-15 -5 -32 -5t-32 2q-5 1 -11.5 4t-11.5 3q-6 -1 -12 -3.5
t-13 -2.5h-10t-16 1.5t-12 5t1 10.5q2 2 11 2t12 2q7 2 13 4t12 5q25 14 33.5 38t6.5 51q-1 14 -0.5 28.5t-0.5 28.5q-1 18 -4 35t-2 35q1 9 -0.5 18t-0.5 18q2 10 1.5 19.5t-0.5 19.5q0 7 -1 17.5l-2 21t0 20t5 15.5l-1 8q-2 8 -2.5 22t0.5 23q0 5 0.5 11t0.5 12
q0 7 -2 12.5t-2 10.5q-1 8 -1.5 11t-3.5 10q-5 10 -12 17q-4 5 -7 8t-9 5q-5 2 -10 2t-10 2t-9.5 4.5t-4.5 9.5q0 8 5 8.5t10 1.5q7 1 12.5 1.5t11.5 -0.5q4 0 5.5 -1t6.5 1q3 1 5.5 2.5t6.5 1.5t7 -1.5t7 -1.5q3 0 6.5 2t7.5 3q7 2 13 1t13 0q12 2 24.5 1.5t24.5 -1.5
q30 -2 59.5 3t59.5 3q8 0 13 -1.5t13 -1.5q15 2 29 0q18 -2 20 -11.5t-2 -23.5q-2 -6 -1.5 -11t-0.5 -11q-2 -7 -5 -12t-4 -12q-1 -5 -1 -11.5t-1 -12.5t-4.5 -10.5t-11.5 -4.5q-14 -1 -21 7.5t-14 18.5q-6 8 -12 19.5t-17 16.5q-3 2 -6.5 2t-6.5 2q-2 1 -4 2.5t-5 3.5
q-12 6 -23 2q-12 -5 -18 -10.5t-9 -18.5q-2 -12 -0.5 -25t1.5 -24t-4 -26.5t1 -25.5q2 -2 4.5 -3t4.5 -3q2 -3 2 -5t2 -5q3 -8 5 -10t10 -5q10 -4 22.5 -6.5t23.5 2.5q25 8 47 7q6 -1 8.5 -5.5t3.5 -11t0 -13.5t-1 -11q-3 -27 -13 -53q-1 -4 -2.5 -6t-2.5 -6q0 -4 1 -6.5
t-1 -6.5q-2 -5 -8 -6.5t-11 -0.5q-8 3 -7.5 7t-3.5 11q-3 5 -7 9t-7 9q-3 6 -6 10t-7 9q-2 2 -1 3.5t-1 2.5q-2 2 -3 1t-2 0q-2 2 -5.5 3.5t-5.5 2.5q-14 5 -22.5 -6.5t-7.5 -23.5q0 -12 -2.5 -25.5t-0.5 -25.5q2 -13 -0.5 -25.5t2.5 -26.5t2 -29.5t-3 -30.5q1 -14 1 -25.5
t5 -24.5q2 -8 5.5 -9.5t9.5 -6.5l7 -7t10 -4q11 -3 19.5 -7.5t20.5 3.5q5 3 7.5 7t5.5 9q2 5 6 9.5t7 9.5q5 10 9 20t11 20q3 4 5 9t7 7q3 2 12 3.5t12 0.5q5 -1 7.5 -6t3.5 -11t1.5 -12.5t0.5 -10.5q1 -7 1.5 -13t2.5 -12q1 -6 3 -11.5t3 -11.5zM50 694q-18 3 -27.5 10.5
t-12.5 18t-1 23.5t7 26q6 17 17.5 15.5t25.5 -9.5q4 -2 5.5 -3.5t2 -3t1.5 -3t6 -3.5q12 -7 24.5 -14t26.5 -13q5 -3 5.5 -4.5t0 -1.5t0 -0.5t6.5 -1.5q5 -2 20.5 -7t29.5 -13q15 -9 24 -19.5t-2 -24.5q2 -2 3 -6t3 -7q-5 -3 -6 -8.5t-2 -11.5t-2.5 -11.5t-5.5 -7.5
q-2 0 -7.5 2t-12 5.5t-12.5 6.5t-8 5l-16 8q-4 -1 -8 1.5t-8 1.5q-5 12 -12 13.5t-19 7.5q-14 7 -25 11t-21 18z" />
    <glyph glyph-name="Eacute" unicode="&#xc9;" horiz-adv-x="358" 
d="M353 52q3 -11 6.5 -20.5t-1.5 -20.5q-7 -14 -16 -11.5t-20 5.5q-11 2 -23 1.5t-23 -1.5q-14 -1 -26.5 -1t-26.5 -2h-14.5t-14.5 -2q-8 -1 -14.5 0t-14.5 2q-6 2 -12 1.5t-12 -1.5q-8 -2 -15 -1.5t-15 -1.5q-15 -5 -32 -5t-32 2q-5 1 -11.5 4t-11.5 3q-6 -1 -12 -3.5
t-13 -2.5h-10t-16 1.5t-12 5t1 10.5q2 2 11 2t12 2q7 2 13 4t12 5q25 14 33.5 38t6.5 51q-1 14 -0.5 28.5t-0.5 28.5q-1 18 -4 35t-2 35q1 9 -0.5 18t-0.5 18q2 10 1.5 19.5t-0.5 19.5q0 7 -1 17.5l-2 21t0 20t5 15.5l-1 8q-2 8 -2.5 22t0.5 23q0 5 0.5 11t0.5 12
q0 7 -2 12.5t-2 10.5q-1 8 -1.5 11t-3.5 10q-5 10 -12 17q-4 5 -7 8t-9 5q-5 2 -10 2t-10 2t-9.5 4.5t-4.5 9.5q0 8 5 8.5t10 1.5q7 1 12.5 1.5t11.5 -0.5q4 0 5.5 -1t6.5 1q3 1 5.5 2.5t6.5 1.5t7 -1.5t7 -1.5q3 0 6.5 2t7.5 3q7 2 13 1t13 0q12 2 24.5 1.5t24.5 -1.5
q30 -2 59.5 3t59.5 3q8 0 13 -1.5t13 -1.5q15 2 29 0q18 -2 20 -11.5t-2 -23.5q-2 -6 -1.5 -11t-0.5 -11q-2 -7 -5 -12t-4 -12q-1 -5 -1 -11.5t-1 -12.5t-4.5 -10.5t-11.5 -4.5q-14 -1 -21 7.5t-14 18.5q-6 8 -12 19.5t-17 16.5q-3 2 -6.5 2t-6.5 2q-2 1 -4 2.5t-5 3.5
q-12 6 -23 2q-12 -5 -18 -10.5t-9 -18.5q-2 -12 -0.5 -25t1.5 -24t-4 -26.5t1 -25.5q2 -2 4.5 -3t4.5 -3q2 -3 2 -5t2 -5q3 -8 5 -10t10 -5q10 -4 22.5 -6.5t23.5 2.5q25 8 47 7q6 -1 8.5 -5.5t3.5 -11t0 -13.5t-1 -11q-3 -27 -13 -53q-1 -4 -2.5 -6t-2.5 -6q0 -4 1 -6.5
t-1 -6.5q-2 -5 -8 -6.5t-11 -0.5q-8 3 -7.5 7t-3.5 11q-3 5 -7 9t-7 9q-3 6 -6 10t-7 9q-2 2 -1 3.5t-1 2.5q-2 2 -3 1t-2 0q-2 2 -5.5 3.5t-5.5 2.5q-14 5 -22.5 -6.5t-7.5 -23.5q0 -12 -2.5 -25.5t-0.5 -25.5q2 -13 -0.5 -25.5t2.5 -26.5t2 -29.5t-3 -30.5q1 -14 1 -25.5
t5 -24.5q2 -8 5.5 -9.5t9.5 -6.5l7 -7t10 -4q11 -3 19.5 -7.5t20.5 3.5q5 3 7.5 7t5.5 9q2 5 6 9.5t7 9.5q5 10 9 20t11 20q3 4 5 9t7 7q3 2 12 3.5t12 0.5q5 -1 7.5 -6t3.5 -11t1.5 -12.5t0.5 -10.5q1 -7 1.5 -13t2.5 -12q1 -6 3 -11.5t3 -11.5zM275 682q-10 -14 -21 -18
t-25 -11q-12 -6 -19 -7.5t-12 -13.5q-4 1 -8 -1.5t-8 -1.5l-16 -8q-2 -2 -8 -5t-12.5 -6.5t-12 -5.5t-7.5 -2q-5 2 -6 7.5t-2 11.5t-2.5 11.5t-5.5 8.5q2 3 3 7t3 6q-11 14 -2 24.5t24 19.5q14 8 29.5 13t20.5 7q6 1 6.5 1.5t0 0.5t0 1.5t5.5 4.5q14 6 26.5 13t24.5 14
q5 2 6 3.5t1.5 3t1.5 3t6 3.5q14 8 25.5 9.5t17.5 -15.5q4 -13 6 -26t-1 -23.5t-12 -18t-27 -10.5z" />
    <glyph glyph-name="Ecircumflex" unicode="&#xca;" horiz-adv-x="358" 
d="M353 52q3 -11 6.5 -20.5t-1.5 -20.5q-7 -14 -16 -11.5t-20 5.5q-11 2 -23 1.5t-23 -1.5q-14 -1 -26.5 -1t-26.5 -2h-14.5t-14.5 -2q-8 -1 -14.5 0t-14.5 2q-6 2 -12 1.5t-12 -1.5q-8 -2 -15 -1.5t-15 -1.5q-15 -5 -32 -5t-32 2q-5 1 -11.5 4t-11.5 3q-6 -1 -12 -3.5
t-13 -2.5h-10t-16 1.5t-12 5t1 10.5q2 2 11 2t12 2q7 2 13 4t12 5q25 14 33.5 38t6.5 51q-1 14 -0.5 28.5t-0.5 28.5q-1 18 -4 35t-2 35q1 9 -0.5 18t-0.5 18q2 10 1.5 19.5t-0.5 19.5q0 7 -1 17.5l-2 21t0 20t5 15.5l-1 8q-2 8 -2.5 22t0.5 23q0 5 0.5 11t0.5 12
q0 7 -2 12.5t-2 10.5q-1 8 -1.5 11t-3.5 10q-5 10 -12 17q-4 5 -7 8t-9 5q-5 2 -10 2t-10 2t-9.5 4.5t-4.5 9.5q0 8 5 8.5t10 1.5q7 1 12.5 1.5t11.5 -0.5q4 0 5.5 -1t6.5 1q3 1 5.5 2.5t6.5 1.5t7 -1.5t7 -1.5q3 0 6.5 2t7.5 3q7 2 13 1t13 0q12 2 24.5 1.5t24.5 -1.5
q30 -2 59.5 3t59.5 3q8 0 13 -1.5t13 -1.5q15 2 29 0q18 -2 20 -11.5t-2 -23.5q-2 -6 -1.5 -11t-0.5 -11q-2 -7 -5 -12t-4 -12q-1 -5 -1 -11.5t-1 -12.5t-4.5 -10.5t-11.5 -4.5q-14 -1 -21 7.5t-14 18.5q-6 8 -12 19.5t-17 16.5q-3 2 -6.5 2t-6.5 2q-2 1 -4 2.5t-5 3.5
q-12 6 -23 2q-12 -5 -18 -10.5t-9 -18.5q-2 -12 -0.5 -25t1.5 -24t-4 -26.5t1 -25.5q2 -2 4.5 -3t4.5 -3q2 -3 2 -5t2 -5q3 -8 5 -10t10 -5q10 -4 22.5 -6.5t23.5 2.5q25 8 47 7q6 -1 8.5 -5.5t3.5 -11t0 -13.5t-1 -11q-3 -27 -13 -53q-1 -4 -2.5 -6t-2.5 -6q0 -4 1 -6.5
t-1 -6.5q-2 -5 -8 -6.5t-11 -0.5q-8 3 -7.5 7t-3.5 11q-3 5 -7 9t-7 9q-3 6 -6 10t-7 9q-2 2 -1 3.5t-1 2.5q-2 2 -3 1t-2 0q-2 2 -5.5 3.5t-5.5 2.5q-14 5 -22.5 -6.5t-7.5 -23.5q0 -12 -2.5 -25.5t-0.5 -25.5q2 -13 -0.5 -25.5t2.5 -26.5t2 -29.5t-3 -30.5q1 -14 1 -25.5
t5 -24.5q2 -8 5.5 -9.5t9.5 -6.5l7 -7t10 -4q11 -3 19.5 -7.5t20.5 3.5q5 3 7.5 7t5.5 9q2 5 6 9.5t7 9.5q5 10 9 20t11 20q3 4 5 9t7 7q3 2 12 3.5t12 0.5q5 -1 7.5 -6t3.5 -11t1.5 -12.5t0.5 -10.5q1 -7 1.5 -13t2.5 -12q1 -6 3 -11.5t3 -11.5zM290 667q2 -6 -5 -16
t-17 -18.5t-21.5 -13t-18.5 0.5q-8 6 -13.5 20t-13.5 22q-7 7 -17 18t-20 10q-7 0 -12.5 -4.5t-10 -10.5t-8 -12.5t-7.5 -10.5q-8 -10 -19 -17.5t-12 -23.5q-10 2 -16 1t-15 3q-8 5 -16.5 13t-6.5 24q0 5 4.5 12t10.5 13.5t12.5 12t11.5 7.5q-1 4 2 9t6.5 10t8 10t6.5 8
q6 8 13 19.5t16 16.5q-2 6 4 15.5t15 18t19.5 12.5t18.5 -1t13 -19.5t10 -21.5q4 -5 9.5 -6.5t9.5 -6.5q2 -3 5 -12t5 -12q5 -11 9 -20t11 -18q5 -8 15.5 -15.5t13.5 -16.5z" />
    <glyph glyph-name="Edieresis" unicode="&#xcb;" horiz-adv-x="358" 
d="M353 52q3 -11 6.5 -20.5t-1.5 -20.5q-7 -14 -16 -11.5t-20 5.5q-11 2 -23 1.5t-23 -1.5q-14 -1 -26.5 -1t-26.5 -2h-14.5t-14.5 -2q-8 -1 -14.5 0t-14.5 2q-6 2 -12 1.5t-12 -1.5q-8 -2 -15 -1.5t-15 -1.5q-15 -5 -32 -5t-32 2q-5 1 -11.5 4t-11.5 3q-6 -1 -12 -3.5
t-13 -2.5h-10t-16 1.5t-12 5t1 10.5q2 2 11 2t12 2q7 2 13 4t12 5q25 14 33.5 38t6.5 51q-1 14 -0.5 28.5t-0.5 28.5q-1 18 -4 35t-2 35q1 9 -0.5 18t-0.5 18q2 10 1.5 19.5t-0.5 19.5q0 7 -1 17.5l-2 21t0 20t5 15.5l-1 8q-2 8 -2.5 22t0.5 23q0 5 0.5 11t0.5 12
q0 7 -2 12.5t-2 10.5q-1 8 -1.5 11t-3.5 10q-5 10 -12 17q-4 5 -7 8t-9 5q-5 2 -10 2t-10 2t-9.5 4.5t-4.5 9.5q0 8 5 8.5t10 1.5q7 1 12.5 1.5t11.5 -0.5q4 0 5.5 -1t6.5 1q3 1 5.5 2.5t6.5 1.5t7 -1.5t7 -1.5q3 0 6.5 2t7.5 3q7 2 13 1t13 0q12 2 24.5 1.5t24.5 -1.5
q30 -2 59.5 3t59.5 3q8 0 13 -1.5t13 -1.5q15 2 29 0q18 -2 20 -11.5t-2 -23.5q-2 -6 -1.5 -11t-0.5 -11q-2 -7 -5 -12t-4 -12q-1 -5 -1 -11.5t-1 -12.5t-4.5 -10.5t-11.5 -4.5q-14 -1 -21 7.5t-14 18.5q-6 8 -12 19.5t-17 16.5q-3 2 -6.5 2t-6.5 2q-2 1 -4 2.5t-5 3.5
q-12 6 -23 2q-12 -5 -18 -10.5t-9 -18.5q-2 -12 -0.5 -25t1.5 -24t-4 -26.5t1 -25.5q2 -2 4.5 -3t4.5 -3q2 -3 2 -5t2 -5q3 -8 5 -10t10 -5q10 -4 22.5 -6.5t23.5 2.5q25 8 47 7q6 -1 8.5 -5.5t3.5 -11t0 -13.5t-1 -11q-3 -27 -13 -53q-1 -4 -2.5 -6t-2.5 -6q0 -4 1 -6.5
t-1 -6.5q-2 -5 -8 -6.5t-11 -0.5q-8 3 -7.5 7t-3.5 11q-3 5 -7 9t-7 9q-3 6 -6 10t-7 9q-2 2 -1 3.5t-1 2.5q-2 2 -3 1t-2 0q-2 2 -5.5 3.5t-5.5 2.5q-14 5 -22.5 -6.5t-7.5 -23.5q0 -12 -2.5 -25.5t-0.5 -25.5q2 -13 -0.5 -25.5t2.5 -26.5t2 -29.5t-3 -30.5q1 -14 1 -25.5
t5 -24.5q2 -8 5.5 -9.5t9.5 -6.5l7 -7t10 -4q11 -3 19.5 -7.5t20.5 3.5q5 3 7.5 7t5.5 9q2 5 6 9.5t7 9.5q5 10 9 20t11 20q3 4 5 9t7 7q3 2 12 3.5t12 0.5q5 -1 7.5 -6t3.5 -11t1.5 -12.5t0.5 -10.5q1 -7 1.5 -13t2.5 -12q1 -6 3 -11.5t3 -11.5zM113 699q21 -8 21 -26
q0 -12 -8 -28q-4 -9 -11.5 -17t-16.5 -13t-18.5 -5.5t-18.5 6.5q-6 5 -12.5 12t-10.5 15.5t-4.5 17t4.5 15.5q3 5 11 14t17 16t19 9t18 -5zM271 693q6 -4 5 -15t-6 -23t-12 -22.5t-13 -13.5q-9 -5 -19 -3.5t-19.5 6t-19 11t-17.5 10.5q4 18 10 32.5t15.5 23.5t23 11.5
t34.5 -4.5z" />
    <glyph glyph-name="Igrave" unicode="&#xcc;" horiz-adv-x="230" 
d="M251 32q8 -8 2.5 -11.5t-13.5 -5.5q-17 -3 -31 -5t-31 -4q-9 -1 -16.5 -2.5t-17.5 -1.5q-9 1 -18 3t-18 1q-10 0 -18 0.5t-17 1.5t-16 -0.5t-15 -2.5t-15 -2.5t-15 -1.5q-8 -1 -15 0.5t-15 -0.5q-8 14 0.5 19t19.5 7q3 0 5.5 -2t4.5 -1t4 3.5t4 4.5q5 2 8.5 3t6.5 3
q7 5 11.5 15t6.5 21.5t3 23t2 19.5q2 18 3 36t-1 34q-2 20 -0.5 40t1.5 40q-1 17 -1 33t-2 33q-1 10 -2.5 19t-0.5 19q1 8 0 19t1 18l-5 6q2 13 0 27t-2 25q-1 7 -0.5 14.5t-1.5 15.5l-2 6l-2 6q-2 2 -5 2.5t-5 2.5q-4 5 -5 8.5t-7 8.5t-10.5 7t-12.5 3q-6 1 -13.5 1
t-10.5 7q-2 5 0.5 11t7.5 8q6 3 14.5 4.5t17.5 1.5h18h15q16 1 32.5 1.5t33.5 -0.5q17 -2 34.5 -0.5t34.5 1.5q8 0 16 0.5t16 -0.5q2 0 3 -1.5t3 -2.5q2 0 4 1.5t4 1.5q5 0 7 0.5t6 -2.5q1 -2 1.5 -4t1.5 -4q0 -6 -5 -10t-11.5 -6.5t-13.5 -5t-13 -6.5q-14 -11 -19.5 -22
t-7.5 -28q-1 -9 1 -17.5t1 -16.5q0 -9 -0.5 -15.5t0.5 -15.5q2 -8 -0.5 -15.5t-0.5 -16.5q3 -17 0 -34q-1 -9 0 -17.5t1 -16.5q-1 -10 2 -18t3 -17q0 -8 -2 -18t-2 -18l-2 -16t-1 -17t0.5 -16t-1.5 -16q-2 -15 0 -30q2 -8 4 -16.5t4 -17.5q2 -8 1.5 -16t2.5 -16
q12 -33 39 -46q1 0 2 -2.5t3 -3.5q5 0 7 -1q4 -1 8 -1.5t7 -2.5zM-23 682q-18 3 -27.5 10.5t-12.5 18t-1 23.5t7 26q6 17 17.5 15.5t25.5 -9.5q4 -2 5.5 -3.5t2 -3t1.5 -3t6 -3.5q12 -7 24.5 -14t26.5 -13q5 -3 5.5 -4.5t0 -1.5t0 -0.5t6.5 -1.5q5 -2 20.5 -7t29.5 -13
q15 -9 24 -19.5t-2 -24.5q2 -2 3 -6t3 -7q-5 -3 -6 -8.5t-2 -11.5t-2.5 -11.5t-5.5 -7.5q-2 0 -7.5 2t-12 5.5t-12.5 6.5t-8 5l-16 8q-4 -1 -8 1.5t-8 1.5q-5 12 -12 13.5t-19 7.5q-14 7 -25 11t-21 18z" />
    <glyph glyph-name="Iacute" unicode="&#xcd;" horiz-adv-x="230" 
d="M251 32q8 -8 2.5 -11.5t-13.5 -5.5q-17 -3 -31 -5t-31 -4q-9 -1 -16.5 -2.5t-17.5 -1.5q-9 1 -18 3t-18 1q-10 0 -18 0.5t-17 1.5t-16 -0.5t-15 -2.5t-15 -2.5t-15 -1.5q-8 -1 -15 0.5t-15 -0.5q-8 14 0.5 19t19.5 7q3 0 5.5 -2t4.5 -1t4 3.5t4 4.5q5 2 8.5 3t6.5 3
q7 5 11.5 15t6.5 21.5t3 23t2 19.5q2 18 3 36t-1 34q-2 20 -0.5 40t1.5 40q-1 17 -1 33t-2 33q-1 10 -2.5 19t-0.5 19q1 8 0 19t1 18l-5 6q2 13 0 27t-2 25q-1 7 -0.5 14.5t-1.5 15.5l-2 6l-2 6q-2 2 -5 2.5t-5 2.5q-4 5 -5 8.5t-7 8.5t-10.5 7t-12.5 3q-6 1 -13.5 1
t-10.5 7q-2 5 0.5 11t7.5 8q6 3 14.5 4.5t17.5 1.5h18h15q16 1 32.5 1.5t33.5 -0.5q17 -2 34.5 -0.5t34.5 1.5q8 0 16 0.5t16 -0.5q2 0 3 -1.5t3 -2.5q2 0 4 1.5t4 1.5q5 0 7 0.5t6 -2.5q1 -2 1.5 -4t1.5 -4q0 -6 -5 -10t-11.5 -6.5t-13.5 -5t-13 -6.5q-14 -11 -19.5 -22
t-7.5 -28q-1 -9 1 -17.5t1 -16.5q0 -9 -0.5 -15.5t0.5 -15.5q2 -8 -0.5 -15.5t-0.5 -16.5q3 -17 0 -34q-1 -9 0 -17.5t1 -16.5q-1 -10 2 -18t3 -17q0 -8 -2 -18t-2 -18l-2 -16t-1 -17t0.5 -16t-1.5 -16q-2 -15 0 -30q2 -8 4 -16.5t4 -17.5q2 -8 1.5 -16t2.5 -16
q12 -33 39 -46q1 0 2 -2.5t3 -3.5q5 0 7 -1q4 -1 8 -1.5t7 -2.5zM233 675q-10 -14 -21 -18t-25 -11q-12 -6 -19 -7.5t-12 -13.5q-4 1 -8 -1.5t-8 -1.5l-16 -8q-2 -2 -8 -5t-12.5 -6.5t-12 -5.5t-7.5 -2q-5 2 -6 7.5t-2 11.5t-2.5 11.5t-5.5 8.5q2 3 3 7t3 6q-11 14 -2 24.5
t24 19.5q14 8 29.5 13t20.5 7q6 1 6.5 1.5t0 0.5t0 1.5t5.5 4.5q14 6 26.5 13t24.5 14q5 2 6 3.5t1.5 3t1.5 3t6 3.5q14 8 25.5 9.5t17.5 -15.5q4 -13 6 -26t-1 -23.5t-12 -18t-27 -10.5z" />
    <glyph glyph-name="Icircumflex" unicode="&#xce;" horiz-adv-x="230" 
d="M251 32q8 -8 2.5 -11.5t-13.5 -5.5q-17 -3 -31 -5t-31 -4q-9 -1 -16.5 -2.5t-17.5 -1.5q-9 1 -18 3t-18 1q-10 0 -18 0.5t-17 1.5t-16 -0.5t-15 -2.5t-15 -2.5t-15 -1.5q-8 -1 -15 0.5t-15 -0.5q-8 14 0.5 19t19.5 7q3 0 5.5 -2t4.5 -1t4 3.5t4 4.5q5 2 8.5 3t6.5 3
q7 5 11.5 15t6.5 21.5t3 23t2 19.5q2 18 3 36t-1 34q-2 20 -0.5 40t1.5 40q-1 17 -1 33t-2 33q-1 10 -2.5 19t-0.5 19q1 8 0 19t1 18l-5 6q2 13 0 27t-2 25q-1 7 -0.5 14.5t-1.5 15.5l-2 6l-2 6q-2 2 -5 2.5t-5 2.5q-4 5 -5 8.5t-7 8.5t-10.5 7t-12.5 3q-6 1 -13.5 1
t-10.5 7q-2 5 0.5 11t7.5 8q6 3 14.5 4.5t17.5 1.5h18h15q16 1 32.5 1.5t33.5 -0.5q17 -2 34.5 -0.5t34.5 1.5q8 0 16 0.5t16 -0.5q2 0 3 -1.5t3 -2.5q2 0 4 1.5t4 1.5q5 0 7 0.5t6 -2.5q1 -2 1.5 -4t1.5 -4q0 -6 -5 -10t-11.5 -6.5t-13.5 -5t-13 -6.5q-14 -11 -19.5 -22
t-7.5 -28q-1 -9 1 -17.5t1 -16.5q0 -9 -0.5 -15.5t0.5 -15.5q2 -8 -0.5 -15.5t-0.5 -16.5q3 -17 0 -34q-1 -9 0 -17.5t1 -16.5q-1 -10 2 -18t3 -17q0 -8 -2 -18t-2 -18l-2 -16t-1 -17t0.5 -16t-1.5 -16q-2 -15 0 -30q2 -8 4 -16.5t4 -17.5q2 -8 1.5 -16t2.5 -16
q12 -33 39 -46q1 0 2 -2.5t3 -3.5q5 0 7 -1q4 -1 8 -1.5t7 -2.5zM239 661q2 -6 -5 -16t-17 -18.5t-21.5 -13t-18.5 0.5q-8 6 -13.5 20t-13.5 22q-7 7 -17 18t-20 10q-7 0 -12.5 -4.5t-10 -10.5t-8 -12.5t-7.5 -10.5q-8 -10 -19 -17.5t-12 -23.5q-10 2 -16 1t-15 3
q-8 5 -16.5 13t-6.5 24q0 5 4.5 12t10.5 13.5t12.5 12t11.5 7.5q-1 4 2 9t6.5 10t8 10t6.5 8q6 8 13 19.5t16 16.5q-2 6 4 15.5t15 18t19.5 12.5t18.5 -1t13 -19.5t10 -21.5q4 -5 9.5 -6.5t9.5 -6.5q2 -3 5 -12t5 -12q5 -11 9 -20t11 -18q5 -8 15.5 -15.5t13.5 -16.5z" />
    <glyph glyph-name="Idieresis" unicode="&#xcf;" horiz-adv-x="230" 
d="M251 32q8 -8 2.5 -11.5t-13.5 -5.5q-17 -3 -31 -5t-31 -4q-9 -1 -16.5 -2.5t-17.5 -1.5q-9 1 -18 3t-18 1q-10 0 -18 0.5t-17 1.5t-16 -0.5t-15 -2.5t-15 -2.5t-15 -1.5q-8 -1 -15 0.5t-15 -0.5q-8 14 0.5 19t19.5 7q3 0 5.5 -2t4.5 -1t4 3.5t4 4.5q5 2 8.5 3t6.5 3
q7 5 11.5 15t6.5 21.5t3 23t2 19.5q2 18 3 36t-1 34q-2 20 -0.5 40t1.5 40q-1 17 -1 33t-2 33q-1 10 -2.5 19t-0.5 19q1 8 0 19t1 18l-5 6q2 13 0 27t-2 25q-1 7 -0.5 14.5t-1.5 15.5l-2 6l-2 6q-2 2 -5 2.5t-5 2.5q-4 5 -5 8.5t-7 8.5t-10.5 7t-12.5 3q-6 1 -13.5 1
t-10.5 7q-2 5 0.5 11t7.5 8q6 3 14.5 4.5t17.5 1.5h18h15q16 1 32.5 1.5t33.5 -0.5q17 -2 34.5 -0.5t34.5 1.5q8 0 16 0.5t16 -0.5q2 0 3 -1.5t3 -2.5q2 0 4 1.5t4 1.5q5 0 7 0.5t6 -2.5q1 -2 1.5 -4t1.5 -4q0 -6 -5 -10t-11.5 -6.5t-13.5 -5t-13 -6.5q-14 -11 -19.5 -22
t-7.5 -28q-1 -9 1 -17.5t1 -16.5q0 -9 -0.5 -15.5t0.5 -15.5q2 -8 -0.5 -15.5t-0.5 -16.5q3 -17 0 -34q-1 -9 0 -17.5t1 -16.5q-1 -10 2 -18t3 -17q0 -8 -2 -18t-2 -18l-2 -16t-1 -17t0.5 -16t-1.5 -16q-2 -15 0 -30q2 -8 4 -16.5t4 -17.5q2 -8 1.5 -16t2.5 -16
q12 -33 39 -46q1 0 2 -2.5t3 -3.5q5 0 7 -1q4 -1 8 -1.5t7 -2.5zM71 693q21 -8 21 -26q0 -12 -8 -28q-4 -9 -11.5 -17t-16.5 -13t-18.5 -5.5t-18.5 6.5q-6 5 -12.5 12t-10.5 15.5t-4.5 17t4.5 15.5q3 5 11 14t17 16t19 9t18 -5zM229 687q6 -4 5 -15t-6 -23t-12 -22.5
t-13 -13.5q-9 -5 -19 -3.5t-19.5 6t-19 11t-17.5 10.5q4 18 10 32.5t15.5 23.5t23 11.5t34.5 -4.5z" />
    <glyph glyph-name="Eth" unicode="&#xd0;" horiz-adv-x="429" 
d="M416 296q1 -9 -2 -18.5t-2 -17.5q2 -12 2 -18t-4 -18q-6 -20 -9 -38.5t-11 -38.5q-7 -18 -11 -37t-11 -37q-6 -16 -19.5 -33t-29.5 -25q-9 -4 -18 -3.5t-18 -1.5q-11 -2 -17.5 -3.5t-17.5 -3.5q-23 -3 -42 -3h-15t-15 1q-11 2 -20 1.5t-19 0.5t-19 -1t-19 -1
q-12 2 -17.5 2.5t-17.5 -3.5q-11 -3 -16.5 -1.5t-15.5 2.5q-10 2 -20 -0.5t-19 0.5q-8 3 -11 11t8 13q7 -3 15 0.5t15.5 10t13 14.5t6.5 14q2 10 1 19.5t-1 19.5q0 13 4 24t5 23q2 20 0.5 41t-1.5 40v8q-6 -1 -12 -1h-12q-17 0 -26.5 6t-1.5 23l-4 4l-4 4q4 5 4.5 11
t0.5 12.5t1 12t6 9.5q1 1 7 2t12.5 1h13h9.5h12v1q-1 4 -2.5 7.5t-2.5 7.5q-1 3 -1 8.5v9.5q-2 9 -2 20.5t3 19.5l-3 11q-3 13 -3.5 30t-2 34t-5.5 33.5t-13 28.5q-3 4 -11.5 9t-14.5 10.5t-6 11t13 10.5q13 6 31.5 6.5t32.5 0.5q8 0 18 -0.5t19 0.5q11 1 20.5 4t20.5 4
q19 1 38 -0.5t37 0.5q11 1 27.5 3t27.5 2q13 0 18.5 -0.5t15.5 -8.5l10.5 -10.5t11.5 -14t8 -15.5t0 -14q5 -7 8 -15t8 -16q3 -4 6.5 -5.5t6.5 -6.5q2 -4 2 -8.5t2 -9.5q3 -8 6.5 -16.5t5.5 -16.5q3 -10 4 -18t4 -18q2 -5 2 -9t2 -9t4.5 -7.5t4.5 -7.5t0.5 -10t-0.5 -10
q1 -8 4 -9.5t5 -6.5q2 -8 1.5 -18.5t0.5 -18.5zM216 329q18 6 28 3.5t14.5 -10.5t4.5 -20.5t-3 -26.5q-4 -18 -15 -23t-25 -5q-10 0 -20 1t-21 0q-2 0 -3.5 -0.5t-3.5 -0.5q0 -2 0.5 -2.5t0.5 -2.5q1 -9 1 -18v-19v-29q0 -20 1 -39.5t5 -39.5q3 -14 9.5 -23t22.5 -4
q12 4 19.5 16t12.5 23q-1 5 4 14t7 14q3 8 5.5 15t6.5 15q6 14 10.5 31t8.5 34q0 9 -1 19t-2 21q-2 18 -1.5 37t-2.5 36q-2 9 -3.5 17t-4.5 16q-2 9 -8.5 15.5t-9.5 14.5q-1 1 1.5 3.5t1.5 4.5q-2 2 -3.5 4.5t-2.5 4.5l-9 12q-5 7 -8 17q-1 2 0 4.5t0 4.5t-3.5 3t-2.5 3
q-4 8 -7 15.5t-8 15.5q-2 5 -2 9q-11 7 -21 7t-16 -17q-5 -13 -5 -33q0 -8 0.5 -16.5t-0.5 -16.5q0 -8 -1 -16t1 -15l2 -13q-5 -13 -3.5 -28t3.5 -29q13 2 25.5 2t20.5 -5z" />
    <glyph glyph-name="Ntilde" unicode="&#xd1;" horiz-adv-x="391" 
d="M292 578q29 -2 56 0t54 0q0 -6 -0.5 -12.5t-5.5 -11.5t-13 -9.5t-13 -9.5q-12 -11 -17.5 -21t-7.5 -26q-1 -16 2 -31t4 -30t1 -30.5v-30.5q0 -33 2.5 -66.5t1.5 -65.5q-1 -9 1.5 -16.5t0.5 -16.5q-1 -8 -1.5 -16t-1.5 -16t-1.5 -15t-0.5 -15q0 -9 0.5 -17.5t1.5 -17.5
q1 -10 1 -19v-19v-19t1 -18q1 -8 1 -19t-2 -19q-2 -5 -9 -11.5t-12 1.5q-1 0 -2.5 -0.5t-2.5 -0.5q-8 8 -14 18t-14 20q-8 11 -16.5 18.5t-15.5 18.5q-28 42 -51 92q-11 24 -29 45t-32 43q-2 -5 -2 -13.5t2 -14.5q1 -9 0.5 -17t0.5 -16q1 -15 1.5 -30t1.5 -31q0 -14 2 -31
t9 -28q3 -5 8.5 -11t11.5 -8q5 -2 14.5 -1t14.5 -4q11 -11 2 -18.5t-17 -10.5q-4 5 -10.5 2.5t-11.5 -2.5q-8 1 -14.5 3t-14.5 2q-6 0 -12.5 -1.5t-11.5 -1.5q-6 1 -13 2.5t-13 1.5q-14 1 -27.5 -1t-28.5 0q-6 0 -12.5 2t-11.5 1q-6 -2 -11 -5t-13 -3q-7 -2 -10 4
q-4 8 -2 14t7 10t11 7t11 6q14 10 16.5 23.5t3.5 27.5q2 15 0.5 29.5t-1.5 30.5v31q0 4 -0.5 8.5t0.5 7.5q2 4 5 6.5t3 6.5q1 2 -1 4t-4 3q3 8 1.5 16.5t-2.5 16.5t-0.5 16.5t0.5 16.5q-1 16 -1.5 31t-1.5 32q0 15 -2 29t-2 28q0 6 -0.5 13.5t-0.5 14.5v15v15q-1 8 -1 15.5
v15.5q0 5 0.5 9t0.5 7q0 2 1.5 4t1.5 4q-1 2 -4 1.5t-3 1.5q-4 11 -5.5 31t5.5 29v9q3 8 8.5 5t11 -9.5t10 -14t6.5 -9.5q16 -23 31 -43q8 -11 14.5 -23.5t14.5 -23.5t15.5 -21t11.5 -22q8 1 11.5 -8.5t7.5 -14.5q5 -7 11.5 -12.5t12.5 -11.5q11 -12 20 -24.5t20 -23.5
q0 1 1 1.5t1 1.5q-2 14 -1.5 28t-0.5 28q-2 17 -3.5 31.5t-0.5 31.5q1 15 1.5 30t-1.5 30q-2 19 -16 22.5t-27 6.5q-3 1 -11.5 2t-10.5 3q-6 4 -6 10.5t-1 14.5q2 0 4 2q5 0 13 2.5t12 -2.5q10 6 25 4.5t26 -1.5q13 -1 26.5 -1.5t27.5 -1.5zM366 674q1 -15 -7 -19t-22 -14
q-23 -17 -47.5 -24t-54.5 -5q-14 1 -24.5 5.5t-19.5 10.5t-18 13t-20 13q-17 8 -27 3t-18 -14t-16.5 -17t-21.5 -5q-2 14 -10 17t-12 13q-4 11 -4 16t-9 13q8 12 22 18l20 12q26 14 54 23t60 1q11 -17 26 -30.5t33 -13.5q16 0 32 13q14 13 24 22.5t19 9.5q7 0 13.5 -7
t14.5 -24q5 -9 8.5 -14.5t4.5 -15.5z" />
    <glyph glyph-name="Ograve" unicode="&#xd2;" horiz-adv-x="404" 
d="M95 547q1 4 7 12q3 3 5 6q4 5 7.5 8t8.5 5l53 10q17 3 36.5 0t38.5 -5q8 0 17 -0.5t16 -1.5q10 -1 16.5 -4.5t15.5 -5.5q2 -8 9.5 -13t11.5 -12t7 -16t6 -17q6 -17 13 -35t12 -36q5 -17 9.5 -37.5t8.5 -39.5q5 -20 6 -39.5t3 -40.5q2 -42 -8 -79t-23 -76
q-8 -25 -19.5 -52t-30.5 -47q-3 -16 -29 -21q-3 -2 -6 -2.5t-6 -2.5q-11 -3 -23.5 -4t-25.5 -1q-20 0 -39.5 1.5t-37.5 2.5q-14 1 -31 1t-28 4q-11 5 -12 12t4 15q-8 13 -18.5 27.5t-15.5 28.5q-7 20 -6.5 39.5t-4.5 39.5q-5 19 -13.5 36t-10.5 37t-4 39t0 39q4 21 6.5 40.5
t8.5 40.5q4 19 15 39q5 11 7 21t6 19q5 9 9.5 17.5t9.5 16.5q3 5 4 8t6 9q3 4 6.5 7t2.5 7zM265 194q5 20 6 39t2 40q1 38 -4 76t-19 73l-10 26t-11 26q-4 4 -6 5q0 9 -4.5 11.5t-10.5 0.5q-2 -3 -3.5 -6t-3.5 -5q-12 -17 -22 -33t-15 -34q-3 -9 -9 -20t-7 -20
q-1 -5 0.5 -10t1.5 -10q1 -5 0.5 -10t-1.5 -10q-1 -8 -1 -17v-17v-23t1 -24q1 -20 8 -37t11 -34l4 -7q7 -14 9.5 -30.5t10.5 -30.5q5 -5 13 -9q13 -4 21 1l9 15q5 8 11 17.5t9 17.5q1 3 -1.5 5.5t-1.5 4.5t3.5 4.5t2.5 4.5q2 5 3.5 10t3.5 10zM86 694q-18 3 -27.5 10.5
t-12.5 18t-1 23.5t7 26q6 17 17.5 15.5t25.5 -9.5q4 -2 5.5 -3.5t2 -3t1.5 -3t6 -3.5q12 -7 24.5 -14t26.5 -13q5 -3 5.5 -4.5t0 -1.5t0 -0.5t6.5 -1.5q5 -2 20.5 -7t29.5 -13q15 -9 24 -19.5t-2 -24.5q2 -2 3 -6t3 -7q-5 -3 -6 -8.5t-2 -11.5t-2.5 -11.5t-5.5 -7.5
q-2 0 -7.5 2t-12 5.5t-12.5 6.5t-8 5l-16 8q-4 -1 -8 1.5t-8 1.5q-5 12 -12 13.5t-19 7.5q-14 7 -25 11t-21 18z" />
    <glyph glyph-name="Oacute" unicode="&#xd3;" horiz-adv-x="404" 
d="M95 547q1 4 7 12q3 3 5 6q4 5 7.5 8t8.5 5l53 10q17 3 36.5 0t38.5 -5q8 0 17 -0.5t16 -1.5q10 -1 16.5 -4.5t15.5 -5.5q2 -8 9.5 -13t11.5 -12t7 -16t6 -17q6 -17 13 -35t12 -36q5 -17 9.5 -37.5t8.5 -39.5q5 -20 6 -39.5t3 -40.5q2 -42 -8 -79t-23 -76
q-8 -25 -19.5 -52t-30.5 -47q-3 -16 -29 -21q-3 -2 -6 -2.5t-6 -2.5q-11 -3 -23.5 -4t-25.5 -1q-20 0 -39.5 1.5t-37.5 2.5q-14 1 -31 1t-28 4q-11 5 -12 12t4 15q-8 13 -18.5 27.5t-15.5 28.5q-7 20 -6.5 39.5t-4.5 39.5q-5 19 -13.5 36t-10.5 37t-4 39t0 39q4 21 6.5 40.5
t8.5 40.5q4 19 15 39q5 11 7 21t6 19q5 9 9.5 17.5t9.5 16.5q3 5 4 8t6 9q3 4 6.5 7t2.5 7zM265 194q5 20 6 39t2 40q1 38 -4 76t-19 73l-10 26t-11 26q-4 4 -6 5q0 9 -4.5 11.5t-10.5 0.5q-2 -3 -3.5 -6t-3.5 -5q-12 -17 -22 -33t-15 -34q-3 -9 -9 -20t-7 -20
q-1 -5 0.5 -10t1.5 -10q1 -5 0.5 -10t-1.5 -10q-1 -8 -1 -17v-17v-23t1 -24q1 -20 8 -37t11 -34l4 -7q7 -14 9.5 -30.5t10.5 -30.5q5 -5 13 -9q13 -4 21 1l9 15q5 8 11 17.5t9 17.5q1 3 -1.5 5.5t-1.5 4.5t3.5 4.5t2.5 4.5q2 5 3.5 10t3.5 10zM329 694q-10 -14 -21 -18
t-25 -11q-12 -6 -19 -7.5t-12 -13.5q-4 1 -8 -1.5t-8 -1.5l-16 -8q-2 -2 -8 -5t-12.5 -6.5t-12 -5.5t-7.5 -2q-5 2 -6 7.5t-2 11.5t-2.5 11.5t-5.5 8.5q2 3 3 7t3 6q-11 14 -2 24.5t24 19.5q14 8 29.5 13t20.5 7q6 1 6.5 1.5t0 0.5t0 1.5t5.5 4.5q14 6 26.5 13t24.5 14
q5 2 6 3.5t1.5 3t1.5 3t6 3.5q14 8 25.5 9.5t17.5 -15.5q4 -13 6 -26t-1 -23.5t-12 -18t-27 -10.5z" />
    <glyph glyph-name="Ocircumflex" unicode="&#xd4;" horiz-adv-x="404" 
d="M95 547q1 4 7 12q3 3 5 6q4 5 7.5 8t8.5 5l53 10q17 3 36.5 0t38.5 -5q8 0 17 -0.5t16 -1.5q10 -1 16.5 -4.5t15.5 -5.5q2 -8 9.5 -13t11.5 -12t7 -16t6 -17q6 -17 13 -35t12 -36q5 -17 9.5 -37.5t8.5 -39.5q5 -20 6 -39.5t3 -40.5q2 -42 -8 -79t-23 -76
q-8 -25 -19.5 -52t-30.5 -47q-3 -16 -29 -21q-3 -2 -6 -2.5t-6 -2.5q-11 -3 -23.5 -4t-25.5 -1q-20 0 -39.5 1.5t-37.5 2.5q-14 1 -31 1t-28 4q-11 5 -12 12t4 15q-8 13 -18.5 27.5t-15.5 28.5q-7 20 -6.5 39.5t-4.5 39.5q-5 19 -13.5 36t-10.5 37t-4 39t0 39q4 21 6.5 40.5
t8.5 40.5q4 19 15 39q5 11 7 21t6 19q5 9 9.5 17.5t9.5 16.5q3 5 4 8t6 9q3 4 6.5 7t2.5 7zM265 194q5 20 6 39t2 40q1 38 -4 76t-19 73l-10 26t-11 26q-4 4 -6 5q0 9 -4.5 11.5t-10.5 0.5q-2 -3 -3.5 -6t-3.5 -5q-12 -17 -22 -33t-15 -34q-3 -9 -9 -20t-7 -20
q-1 -5 0.5 -10t1.5 -10q1 -5 0.5 -10t-1.5 -10q-1 -8 -1 -17v-17v-23t1 -24q1 -20 8 -37t11 -34l4 -7q7 -14 9.5 -30.5t10.5 -30.5q5 -5 13 -9q13 -4 21 1l9 15q5 8 11 17.5t9 17.5q1 3 -1.5 5.5t-1.5 4.5t3.5 4.5t2.5 4.5q2 5 3.5 10t3.5 10zM333 663q2 -6 -5 -16
t-17 -18.5t-21.5 -13t-18.5 0.5q-8 6 -13.5 20t-13.5 22q-7 7 -17 18t-20 10q-7 0 -12.5 -4.5t-10 -10.5t-8 -12.5t-7.5 -10.5q-8 -10 -19 -17.5t-12 -23.5q-10 2 -16 1t-15 3q-8 5 -16.5 13t-6.5 24q0 5 4.5 12t10.5 13.5t12.5 12t11.5 7.5q-1 4 2 9t6.5 10t8 10t6.5 8
q6 8 13 19.5t16 16.5q-2 6 4 15.5t15 18t19.5 12.5t18.5 -1t13 -19.5t10 -21.5q4 -5 9.5 -6.5t9.5 -6.5q2 -3 5 -12t5 -12q5 -11 9 -20t11 -18q5 -8 15.5 -15.5t13.5 -16.5z" />
    <glyph glyph-name="Otilde" unicode="&#xd5;" horiz-adv-x="404" 
d="M95 547q1 4 7 12q3 3 5 6q4 5 7.5 8t8.5 5l53 10q17 3 36.5 0t38.5 -5q8 0 17 -0.5t16 -1.5q10 -1 16.5 -4.5t15.5 -5.5q2 -8 9.5 -13t11.5 -12t7 -16t6 -17q6 -17 13 -35t12 -36q5 -17 9.5 -37.5t8.5 -39.5q5 -20 6 -39.5t3 -40.5q2 -42 -8 -79t-23 -76
q-8 -25 -19.5 -52t-30.5 -47q-3 -16 -29 -21q-3 -2 -6 -2.5t-6 -2.5q-11 -3 -23.5 -4t-25.5 -1q-20 0 -39.5 1.5t-37.5 2.5q-14 1 -31 1t-28 4q-11 5 -12 12t4 15q-8 13 -18.5 27.5t-15.5 28.5q-7 20 -6.5 39.5t-4.5 39.5q-5 19 -13.5 36t-10.5 37t-4 39t0 39q4 21 6.5 40.5
t8.5 40.5q4 19 15 39q5 11 7 21t6 19q5 9 9.5 17.5t9.5 16.5q3 5 4 8t6 9q3 4 6.5 7t2.5 7zM265 194q5 20 6 39t2 40q1 38 -4 76t-19 73l-10 26t-11 26q-4 4 -6 5q0 9 -4.5 11.5t-10.5 0.5q-2 -3 -3.5 -6t-3.5 -5q-12 -17 -22 -33t-15 -34q-3 -9 -9 -20t-7 -20
q-1 -5 0.5 -10t1.5 -10q1 -5 0.5 -10t-1.5 -10q-1 -8 -1 -17v-17v-23t1 -24q1 -20 8 -37t11 -34l4 -7q7 -14 9.5 -30.5t10.5 -30.5q5 -5 13 -9q13 -4 21 1l9 15q5 8 11 17.5t9 17.5q1 3 -1.5 5.5t-1.5 4.5t3.5 4.5t2.5 4.5q2 5 3.5 10t3.5 10zM370 678q1 -15 -7 -19t-22 -14
q-23 -17 -47.5 -24t-54.5 -5q-14 1 -24.5 5.5t-19.5 10.5t-18 13t-20 13q-17 8 -27 3t-18 -14t-16.5 -17t-21.5 -5q-2 14 -10 17t-12 13q-4 11 -4 16t-9 13q8 12 22 18l20 12q26 14 54 23t60 1q11 -17 26 -30.5t33 -13.5q16 0 32 13q14 13 24 22.5t19 9.5q7 0 13.5 -7
t14.5 -24q5 -9 8.5 -14.5t4.5 -15.5z" />
    <glyph glyph-name="Odieresis" unicode="&#xd6;" horiz-adv-x="404" 
d="M95 547q1 4 7 12q3 3 5 6q4 5 7.5 8t8.5 5l53 10q17 3 36.5 0t38.5 -5q8 0 17 -0.5t16 -1.5q10 -1 16.5 -4.5t15.5 -5.5q2 -8 9.5 -13t11.5 -12t7 -16t6 -17q6 -17 13 -35t12 -36q5 -17 9.5 -37.5t8.5 -39.5q5 -20 6 -39.5t3 -40.5q2 -42 -8 -79t-23 -76
q-8 -25 -19.5 -52t-30.5 -47q-3 -16 -29 -21q-3 -2 -6 -2.5t-6 -2.5q-11 -3 -23.5 -4t-25.5 -1q-20 0 -39.5 1.5t-37.5 2.5q-14 1 -31 1t-28 4q-11 5 -12 12t4 15q-8 13 -18.5 27.5t-15.5 28.5q-7 20 -6.5 39.5t-4.5 39.5q-5 19 -13.5 36t-10.5 37t-4 39t0 39q4 21 6.5 40.5
t8.5 40.5q4 19 15 39q5 11 7 21t6 19q5 9 9.5 17.5t9.5 16.5q3 5 4 8t6 9q3 4 6.5 7t2.5 7zM265 194q5 20 6 39t2 40q1 38 -4 76t-19 73l-10 26t-11 26q-4 4 -6 5q0 9 -4.5 11.5t-10.5 0.5q-2 -3 -3.5 -6t-3.5 -5q-12 -17 -22 -33t-15 -34q-3 -9 -9 -20t-7 -20
q-1 -5 0.5 -10t1.5 -10q1 -5 0.5 -10t-1.5 -10q-1 -8 -1 -17v-17v-23t1 -24q1 -20 8 -37t11 -34l4 -7q7 -14 9.5 -30.5t10.5 -30.5q5 -5 13 -9q13 -4 21 1l9 15q5 8 11 17.5t9 17.5q1 3 -1.5 5.5t-1.5 4.5t3.5 4.5t2.5 4.5q2 5 3.5 10t3.5 10zM163 698q21 -8 21 -26
q0 -12 -8 -28q-4 -9 -11.5 -17t-16.5 -13t-18.5 -5.5t-18.5 6.5q-6 5 -12.5 12t-10.5 15.5t-4.5 17t4.5 15.5q3 5 11 14t17 16t19 9t18 -5zM321 692q6 -4 5 -15t-6 -23t-12 -22.5t-13 -13.5q-9 -5 -19 -3.5t-19.5 6t-19 11t-17.5 10.5q4 18 10 32.5t15.5 23.5t23 11.5
t34.5 -4.5z" />
    <glyph glyph-name="multiply" unicode="&#xd7;" horiz-adv-x="416" 
d="M414 23q3 -17 -5.5 -22.5t-22.5 -5.5t-29 3.5t-23 2.5t-13.5 -1.5t-13.5 0.5q-8 0 -14.5 0.5t-14.5 0.5q-10 1 -25.5 2t-24.5 -2q0 8 -4.5 18t-8.5 17q-6 10 -10 17.5t-8 16.5q-8 17 -15.5 32.5t-13.5 32.5q-15 -2 -18.5 -18t-3.5 -33v-29q-1 -12 -1 -21t-14 -13
q-5 -2 -11 -0.5t-11.5 2t-11 -0.5t-10.5 -7q-12 -2 -18.5 -9.5t-10.5 -17l-8 -19t-12 -15.5q-8 1 -8 4t-2 8q-3 7 -4 16.5t-1 19.5t0.5 19.5t1.5 17.5q1 18 0.5 37t-2.5 38q0 5 -1 14.5t-1 20.5q0 14 3 25t12 11q7 0 12.5 -5.5l11.5 -11.5t12.5 -11t14.5 -5q11 5 18.5 6.5
t15.5 12.5q5 8 6 17t-1 20q-2 4 -2 7.5t-2 7.5q-2 3 -5.5 6t-5.5 6q-4 7 -8 17t-7 18q-7 17 -8 35t-10 35q-8 14 -18.5 28t-22.5 23q-5 3 -14.5 5.5t-18.5 5.5t-14 7.5t0 12.5q5 7 14 7t19.5 -2t20 -5t14.5 -3q19 1 37.5 3.5t38.5 2.5q20 1 33 -4t21 -24l3 -7q0 -1 1.5 -5.5
t4 -10.5t4.5 -11t3 -8q4 -8 7 -12q2 -2 3 -2.5t2 -2.5l3 -9l2 -4l2 -4q3 -8 6 -16.5t7 -16.5q16 3 19 9t5 23q0 5 1 12.5t1 14.5q0 5 -2 11.5t0 13.5q1 8 5.5 11t9.5 4t11.5 0.5t12.5 1.5q11 3 20 11.5t16 16.5q8 8 12.5 15.5t9.5 16.5q6 10 9.5 15.5t10.5 -8.5t7 -35
q0 -13 -1.5 -25.5t-1.5 -23.5q0 -20 1 -39t0 -36q0 -5 1 -14.5t1 -20.5q0 -13 -3 -22.5t-12 -11.5q-8 6 -19 17.5t-15 20.5q-8 -2 -17 -1.5t-17 -0.5q-7 -17 -14.5 -29t-8.5 -32q0 -10 3 -15.5t6 -13.5q1 -1 1 -5q8 -15 15 -28.5t15 -27.5q2 -3 5 -4.5t5 -5.5q2 -2 1.5 -6.5
t0.5 -7.5q3 -7 10 -11t11 -9q3 -4 5.5 -10t6.5 -11.5t8.5 -9t12.5 -2.5q3 -9 13 -9t17 -4z" />
    <glyph glyph-name="Oslash" unicode="&#xd8;" horiz-adv-x="448" 
d="M418 482q-6 -11 -11.5 -21.5t-14.5 -20.5l-1 -1v-1q5 -17 9 -37.5t9 -39.5q5 -20 6 -39.5t3 -41.5q2 -42 -8 -78.5t-23 -75.5q-8 -25 -19.5 -52t-30.5 -47q-3 -17 -29 -22l-6 -2l-6 -2q-11 -3 -23.5 -4t-25.5 -1q-20 0 -39.5 1.5t-37.5 2.5q-14 1 -31 0.5t-28 4.5
q-7 3 -10 7q-3 -2 -6.5 -5t-5.5 -7q-3 -6 -6 -11t-7 -11q-10 7 -20 12.5t-20 13.5q-13 10 -17.5 16t3.5 21q6 10 14 19.5t16 20.5q1 2 0 4t1 3q1 2 2.5 2t2.5 2q2 2 2 5.5t2 5.5l3 3q-2 15 -2.5 30.5t-5.5 30.5q-5 18 -13 35.5t-10 37.5t-4.5 39t0.5 39q4 21 6.5 40t7.5 40
q5 20 16 40q5 10 7 20t6 20q5 8 9.5 17t9.5 17q3 5 4 8t6 8q3 4 6 7t3 8q5 2 8.5 4.5t8.5 4.5q-1 1 -2 1.5t-2 1.5q0 3 -1 5q4 5 7.5 8.5t8.5 5.5l53 10q17 2 36.5 -1t38.5 -4q8 -1 17 -1t16 -1q10 -2 16.5 -5t15.5 -5q2 -8 9.5 -13t11.5 -12q1 -2 1 -2.5t1 -2.5q3 4 6 7
t5 4l8 8q-2 2 -2 6q8 1 17.5 -5t16.5 -11q6 -5 17 -11t14 -14t1 -11t-7 -8t-7.5 -10t-5.5 -10zM164 369q-1 -5 0.5 -10t1.5 -10q1 -5 0.5 -10t-1.5 -10q-1 -10 -1.5 -19t-0.5 -19t0.5 -19t1.5 -19q2 4 4 5q9 13 17 26.5t16 27.5t17 26t19 26q8 12 15.5 23.5t14.5 24.5
q-1 1 -1 2t-1 3q-5 14 -10 27t-11 26q-4 4 -6 5q0 8 -4.5 10.5t-10.5 0.5q-2 -3 -3.5 -5.5t-3.5 -5.5q-12 -17 -22 -33t-16 -34q-2 -9 -8 -20t-7 -19zM289 294q-2 -4 -4.5 -8t-5.5 -7q-6 -8 -8 -12q-1 -1 -1 -2.5t-1 -3.5t-3 -2t-3 -2q-4 -5 -7 -11.5t-5 -12.5
q-3 -8 -8.5 -13t-7.5 -13q-2 -5 -0.5 -7t-3.5 -7q-4 -3 -10.5 -3.5t-8.5 -5.5q-2 -4 0 -7t-1 -7q-2 -3 -7 -5t-8 -5q-2 -2 -3 -4q4 -12 6.5 -24.5t8.5 -22.5q6 -6 13 -9q11 -5 21 0q2 4 4.5 8t4.5 8q5 7 11 17t9 18q1 2 -1.5 5t-1.5 5t3.5 4t2.5 4q2 5 3.5 10t2.5 10
q5 20 6.5 39t2.5 40v26z" />
    <glyph glyph-name="Ugrave" unicode="&#xd9;" horiz-adv-x="382" 
d="M398 573q2 -9 -4.5 -12t-13.5 -7q-15 -9 -22 -21.5t-9.5 -26.5t-2 -30t-0.5 -31q-1 -17 1.5 -33.5t2.5 -33.5q-1 -8 -1 -17v-17v-17.5t2 -17.5q1 -9 1 -18v-17q0 -24 -1 -48t0 -50q2 -32 -4.5 -60.5t-26.5 -55.5q-8 -11 -19 -24.5t-24 -21.5q-12 -8 -28 -8
q-8 -1 -14.5 -2.5t-14.5 -3.5q-32 -5 -62.5 2t-55.5 25q-24 18 -46.5 42t-22.5 56q1 32 2.5 65.5t2.5 66.5q0 17 -2 34.5t-2 34.5q1 9 1.5 17.5t-0.5 17.5t0.5 19.5t-1.5 19.5v11q0 13 -1.5 25t-2.5 25q0 11 -0.5 24.5t-2.5 23.5t-6.5 23.5t-13.5 19.5q-7 5 -19.5 7t-21.5 4
q-4 13 7 13.5t19 -0.5q11 0 20.5 3t19.5 1q9 -1 15.5 -3t17.5 0q9 1 17.5 1h17.5q18 -2 36 -1t35 -1t34.5 0.5t34.5 2.5q8 0 17 0.5t17 0.5q9 1 17 -2t16 -3t16.5 1.5t16.5 1.5t17 1t17 3q8 1 15 1t9 -10zM238 160q-1 18 1 35.5t1 34.5q-1 16 -1 31.5t-1 32.5t-3.5 33.5
t-2.5 32.5q-1 16 -1 32.5v33.5q0 11 2 27t2 33q0 20 -5 35t-20 20q-5 2 -8 1t-8 0l-9 -5q-5 2 -10.5 -2.5t-10 -11.5t-7.5 -14t-4 -11q-3 -15 -3 -29q0 -9 0.5 -18t0.5 -17q-1 -30 0 -64.5t1 -66.5q0 -17 2 -32.5t2 -30.5q1 -16 0.5 -32t1.5 -31q1 -17 0 -32.5t4 -32.5
q3 -10 11 -22q3 -5 8.5 -10t7.5 -10q6 -3 10 -7q16 -2 24.5 9t11.5 26.5t3 33v28.5zM53 697q-18 3 -27.5 10.5t-12.5 18t-1 23.5t7 26q6 17 17.5 15.5t25.5 -9.5q4 -2 5.5 -3.5t2 -3t1.5 -3t6 -3.5q12 -7 24.5 -14t26.5 -13q5 -3 5.5 -4.5t0 -1.5t0 -0.5t6.5 -1.5
q5 -2 20.5 -7t29.5 -13q15 -9 24 -19.5t-2 -24.5q2 -2 3 -6t3 -7q-5 -3 -6 -8.5t-2 -11.5t-2.5 -11.5t-5.5 -7.5q-2 0 -7.5 2t-12 5.5t-12.5 6.5t-8 5l-16 8q-4 -1 -8 1.5t-8 1.5q-5 12 -12 13.5t-19 7.5q-14 7 -25 11t-21 18z" />
    <glyph glyph-name="Uacute" unicode="&#xda;" horiz-adv-x="382" 
d="M398 573q2 -9 -4.5 -12t-13.5 -7q-15 -9 -22 -21.5t-9.5 -26.5t-2 -30t-0.5 -31q-1 -17 1.5 -33.5t2.5 -33.5q-1 -8 -1 -17v-17v-17.5t2 -17.5q1 -9 1 -18v-17q0 -24 -1 -48t0 -50q2 -32 -4.5 -60.5t-26.5 -55.5q-8 -11 -19 -24.5t-24 -21.5q-12 -8 -28 -8
q-8 -1 -14.5 -2.5t-14.5 -3.5q-32 -5 -62.5 2t-55.5 25q-24 18 -46.5 42t-22.5 56q1 32 2.5 65.5t2.5 66.5q0 17 -2 34.5t-2 34.5q1 9 1.5 17.5t-0.5 17.5t0.5 19.5t-1.5 19.5v11q0 13 -1.5 25t-2.5 25q0 11 -0.5 24.5t-2.5 23.5t-6.5 23.5t-13.5 19.5q-7 5 -19.5 7t-21.5 4
q-4 13 7 13.5t19 -0.5q11 0 20.5 3t19.5 1q9 -1 15.5 -3t17.5 0q9 1 17.5 1h17.5q18 -2 36 -1t35 -1t34.5 0.5t34.5 2.5q8 0 17 0.5t17 0.5q9 1 17 -2t16 -3t16.5 1.5t16.5 1.5t17 1t17 3q8 1 15 1t9 -10zM238 160q-1 18 1 35.5t1 34.5q-1 16 -1 31.5t-1 32.5t-3.5 33.5
t-2.5 32.5q-1 16 -1 32.5v33.5q0 11 2 27t2 33q0 20 -5 35t-20 20q-5 2 -8 1t-8 0l-9 -5q-5 2 -10.5 -2.5t-10 -11.5t-7.5 -14t-4 -11q-3 -15 -3 -29q0 -9 0.5 -18t0.5 -17q-1 -30 0 -64.5t1 -66.5q0 -17 2 -32.5t2 -30.5q1 -16 0.5 -32t1.5 -31q1 -17 0 -32.5t4 -32.5
q3 -10 11 -22q3 -5 8.5 -10t7.5 -10q6 -3 10 -7q16 -2 24.5 9t11.5 26.5t3 33v28.5zM331 680q-10 -14 -21 -18t-25 -11q-12 -6 -19 -7.5t-12 -13.5q-4 1 -8 -1.5t-8 -1.5l-16 -8q-2 -2 -8 -5t-12.5 -6.5t-12 -5.5t-7.5 -2q-5 2 -6 7.5t-2 11.5t-2.5 11.5t-5.5 8.5q2 3 3 7
t3 6q-11 14 -2 24.5t24 19.5q14 8 29.5 13t20.5 7q6 1 6.5 1.5t0 0.5t0 1.5t5.5 4.5q14 6 26.5 13t24.5 14q5 2 6 3.5t1.5 3t1.5 3t6 3.5q14 8 25.5 9.5t17.5 -15.5q4 -13 6 -26t-1 -23.5t-12 -18t-27 -10.5z" />
    <glyph glyph-name="Ucircumflex" unicode="&#xdb;" horiz-adv-x="382" 
d="M398 573q2 -9 -4.5 -12t-13.5 -7q-15 -9 -22 -21.5t-9.5 -26.5t-2 -30t-0.5 -31q-1 -17 1.5 -33.5t2.5 -33.5q-1 -8 -1 -17v-17v-17.5t2 -17.5q1 -9 1 -18v-17q0 -24 -1 -48t0 -50q2 -32 -4.5 -60.5t-26.5 -55.5q-8 -11 -19 -24.5t-24 -21.5q-12 -8 -28 -8
q-8 -1 -14.5 -2.5t-14.5 -3.5q-32 -5 -62.5 2t-55.5 25q-24 18 -46.5 42t-22.5 56q1 32 2.5 65.5t2.5 66.5q0 17 -2 34.5t-2 34.5q1 9 1.5 17.5t-0.5 17.5t0.5 19.5t-1.5 19.5v11q0 13 -1.5 25t-2.5 25q0 11 -0.5 24.5t-2.5 23.5t-6.5 23.5t-13.5 19.5q-7 5 -19.5 7t-21.5 4
q-4 13 7 13.5t19 -0.5q11 0 20.5 3t19.5 1q9 -1 15.5 -3t17.5 0q9 1 17.5 1h17.5q18 -2 36 -1t35 -1t34.5 0.5t34.5 2.5q8 0 17 0.5t17 0.5q9 1 17 -2t16 -3t16.5 1.5t16.5 1.5t17 1t17 3q8 1 15 1t9 -10zM238 160q-1 18 1 35.5t1 34.5q-1 16 -1 31.5t-1 32.5t-3.5 33.5
t-2.5 32.5q-1 16 -1 32.5v33.5q0 11 2 27t2 33q0 20 -5 35t-20 20q-5 2 -8 1t-8 0l-9 -5q-5 2 -10.5 -2.5t-10 -11.5t-7.5 -14t-4 -11q-3 -15 -3 -29q0 -9 0.5 -18t0.5 -17q-1 -30 0 -64.5t1 -66.5q0 -17 2 -32.5t2 -30.5q1 -16 0.5 -32t1.5 -31q1 -17 0 -32.5t4 -32.5
q3 -10 11 -22q3 -5 8.5 -10t7.5 -10q6 -3 10 -7q16 -2 24.5 9t11.5 26.5t3 33v28.5zM316 661q2 -6 -5 -16t-17 -18.5t-21.5 -13t-18.5 0.5q-8 6 -13.5 20t-13.5 22q-7 7 -17 18t-20 10q-7 0 -12.5 -4.5t-10 -10.5t-8 -12.5t-7.5 -10.5q-8 -10 -19 -17.5t-12 -23.5
q-10 2 -16 1t-15 3q-8 5 -16.5 13t-6.5 24q0 5 4.5 12t10.5 13.5t12.5 12t11.5 7.5q-1 4 2 9t6.5 10t8 10t6.5 8q6 8 13 19.5t16 16.5q-2 6 4 15.5t15 18t19.5 12.5t18.5 -1t13 -19.5t10 -21.5q4 -5 9.5 -6.5t9.5 -6.5q2 -3 5 -12t5 -12q5 -11 9 -20t11 -18q5 -8 15.5 -15.5
t13.5 -16.5z" />
    <glyph glyph-name="Udieresis" unicode="&#xdc;" horiz-adv-x="382" 
d="M398 573q2 -9 -4.5 -12t-13.5 -7q-15 -9 -22 -21.5t-9.5 -26.5t-2 -30t-0.5 -31q-1 -17 1.5 -33.5t2.5 -33.5q-1 -8 -1 -17v-17v-17.5t2 -17.5q1 -9 1 -18v-17q0 -24 -1 -48t0 -50q2 -32 -4.5 -60.5t-26.5 -55.5q-8 -11 -19 -24.5t-24 -21.5q-12 -8 -28 -8
q-8 -1 -14.5 -2.5t-14.5 -3.5q-32 -5 -62.5 2t-55.5 25q-24 18 -46.5 42t-22.5 56q1 32 2.5 65.5t2.5 66.5q0 17 -2 34.5t-2 34.5q1 9 1.5 17.5t-0.5 17.5t0.5 19.5t-1.5 19.5v11q0 13 -1.5 25t-2.5 25q0 11 -0.5 24.5t-2.5 23.5t-6.5 23.5t-13.5 19.5q-7 5 -19.5 7t-21.5 4
q-4 13 7 13.5t19 -0.5q11 0 20.5 3t19.5 1q9 -1 15.5 -3t17.5 0q9 1 17.5 1h17.5q18 -2 36 -1t35 -1t34.5 0.5t34.5 2.5q8 0 17 0.5t17 0.5q9 1 17 -2t16 -3t16.5 1.5t16.5 1.5t17 1t17 3q8 1 15 1t9 -10zM238 160q-1 18 1 35.5t1 34.5q-1 16 -1 31.5t-1 32.5t-3.5 33.5
t-2.5 32.5q-1 16 -1 32.5v33.5q0 11 2 27t2 33q0 20 -5 35t-20 20q-5 2 -8 1t-8 0l-9 -5q-5 2 -10.5 -2.5t-10 -11.5t-7.5 -14t-4 -11q-3 -15 -3 -29q0 -9 0.5 -18t0.5 -17q-1 -30 0 -64.5t1 -66.5q0 -17 2 -32.5t2 -30.5q1 -16 0.5 -32t1.5 -31q1 -17 0 -32.5t4 -32.5
q3 -10 11 -22q3 -5 8.5 -10t7.5 -10q6 -3 10 -7q16 -2 24.5 9t11.5 26.5t3 33v28.5zM145 697q21 -8 21 -26q0 -12 -8 -28q-4 -9 -11.5 -17t-16.5 -13t-18.5 -5.5t-18.5 6.5q-6 5 -12.5 12t-10.5 15.5t-4.5 17t4.5 15.5q3 5 11 14t17 16t19 9t18 -5zM303 691q6 -4 5 -15
t-6 -23t-12 -22.5t-13 -13.5q-9 -5 -19 -3.5t-19.5 6t-19 11t-17.5 10.5q4 18 10 32.5t15.5 23.5t23 11.5t34.5 -4.5z" />
    <glyph glyph-name="Yacute" unicode="&#xdd;" horiz-adv-x="375" 
d="M358 584q7 1 17.5 2t21.5 1q14 0 25.5 -2.5t17.5 -10.5q-5 -10 -15 -9.5t-18 -1.5q-10 -3 -17 -9.5t-13 -14.5q-13 -16 -21 -34l-16 -36q-10 -22 -18 -43.5t-20 -42.5q-23 -42 -35 -84q-3 -14 -8 -25t-12 -22q1 -4 0 -5t-3 -9q-2 -5 -1.5 -9.5t1.5 -9.5q2 -10 0.5 -18
t0.5 -18q3 -16 2.5 -32t1.5 -31q1 -8 1 -15.5t4 -15.5q3 -6 6.5 -11.5t6.5 -10.5q11 -27 36 -37q6 -2 12.5 -5.5t2.5 -12.5q-3 -6 -9.5 -6.5t-13.5 -1.5q-8 -1 -14 -2t-14 1q-5 2 -7 3.5t-9 0.5q-5 -1 -8.5 -1.5t-7.5 -0.5h-29.5t-29.5 -2q-8 -1 -14.5 -1t-13.5 -2
q-7 -1 -14.5 -2t-15.5 -1q-8 1 -15.5 2t-15.5 2q-7 1 -13 3t-13 1v10t7 6q4 2 8.5 4.5t8.5 4.5q6 -2 14.5 8.5t13.5 15.5q4 5 7 11t3 12q0 3 -2 6.5t-2 6.5q0 5 2 9t3 9q1 7 1.5 15t0.5 16q0 10 -0.5 19.5t-1.5 18.5q-2 12 0 26q-11 9 -10 21.5t1 25.5q0 9 -4 17t-1 18
q-4 4 -5 6q-3 5 -4 10.5t-3 11.5q-4 11 -7 22.5t-6 21.5q-8 21 -19 39t-19 38q-7 17 -14 38t-17 39q-13 23 -27 34t-36 21q-2 1 -6 1h-6q-8 11 6 18l4 -2q13 3 29 3q14 0 28.5 -1.5t28.5 -1.5h45q8 0 23 1t22 -4q6 -5 11 -16t9 -17q7 -10 11 -19.5t7 -20.5q4 -16 9 -31.5
t10 -30.5q10 23 18.5 46.5t15.5 48.5l10 6q1 8 4.5 14t4.5 14q8 2 15.5 7t15.5 0q11 -2 22 -1t23 0t23 1t22 3zM320 676q-10 -14 -21 -18t-25 -11q-12 -6 -19 -7.5t-12 -13.5q-4 1 -8 -1.5t-8 -1.5l-16 -8q-2 -2 -8 -5t-12.5 -6.5t-12 -5.5t-7.5 -2q-5 2 -6 7.5t-2 11.5
t-2.5 11.5t-5.5 8.5q2 3 3 7t3 6q-11 14 -2 24.5t24 19.5q14 8 29.5 13t20.5 7q6 1 6.5 1.5t0 0.5t0 1.5t5.5 4.5q14 6 26.5 13t24.5 14q5 2 6 3.5t1.5 3t1.5 3t6 3.5q14 8 25.5 9.5t17.5 -15.5q4 -13 6 -26t-1 -23.5t-12 -18t-27 -10.5z" />
    <glyph glyph-name="Thorn" unicode="&#xde;" horiz-adv-x="521" 
d="M500 295q3 -22 -5.5 -45.5t-14.5 -43.5t-13.5 -36.5t-25.5 -32.5q-14 -13 -32 -16.5t-35 -5.5q-8 -1 -16.5 -3t-15.5 -1q-11 1 -19 -0.5t-19 -1.5q-7 0 -16 2t-18 3.5t-17.5 1.5t-15.5 -5v1q0 -7 0.5 -14t2.5 -14q11 -32 39 -46q1 0 2 -2t3 -3t3.5 -1t3.5 -1q3 -1 7.5 -1
t7.5 -3q8 -8 2.5 -11.5t-13.5 -5.5q-17 -3 -31 -4.5t-31 -3.5q-9 -2 -16.5 -3.5t-17.5 -0.5q-9 0 -18 2.5t-18 1.5q-10 -1 -18 -0.5t-17 1.5t-16 0t-15 -3q-8 -1 -15 -2t-15 -2q-8 0 -15 1.5t-15 -0.5q-8 14 0.5 18.5t19.5 6.5q3 1 5.5 -1t4.5 -1q2 0 4 3t4 4q5 3 8.5 4
t6.5 3q7 5 11.5 15t6.5 21.5t3 23t2 19.5t1.5 17t0.5 18v1q-1 4 1 15q-1 5 -1 9.5v9.5q-2 20 -0.5 39.5t0.5 40.5v33t-2 33q-1 9 -2.5 18.5t-0.5 19.5q1 7 0 18.5t1 17.5l-5 7q2 12 0 26t-2 25q-1 8 -0.5 15t-1.5 15l-2 6l-2 6q-2 2 -5 2.5t-5 2.5q-4 5 -5 9t-7 9t-10.5 6.5
t-12.5 3.5q-7 1 -14 1t-10 7q-2 5 0.5 10.5t7.5 8.5q6 3 15.5 4t19.5 1h30q16 1 32.5 1.5t33.5 -0.5t34.5 0t34.5 1q8 0 16 0.5t16 -0.5q2 0 3 -1.5t3 -1.5t4 1t4 1q5 0 7 1t6 -2q2 -6 3 -8q0 -7 -5 -10.5t-11.5 -6.5t-13.5 -5.5t-13 -6.5q-14 -11 -19.5 -22t-7.5 -28
q-1 -8 1 -16.5t1 -16.5v-16q2 1 8 1q8 2 20 1t22 -3q10 -3 24.5 -2.5t20.5 -6.5q7 5 18 6.5t23 1.5q13 0 24.5 -1t19.5 -2q22 -4 40.5 -13t24.5 -33q6 -22 13 -43t11 -43zM360 271q2 11 2 22t-8 22q-5 8 -12 15.5t-13 14.5q-5 8 -15.5 13.5t-20.5 7.5q-12 2 -25.5 -1
t-24.5 -1q-3 0 -6 0.5t-6 0.5v-7t-1 -8q-1 -8 0 -16.5t1 -16.5q-1 -10 1.5 -18t3.5 -17q0 -9 -2 -18.5t-2 -18.5l-2 -16t-1 -16v-24q8 0 15 0.5t15 0.5q17 0 29 -2t26 5q14 8 21.5 17t18.5 19q-6 8 -1 20t7 22z" />
    <glyph glyph-name="germandbls" unicode="&#xdf;" horiz-adv-x="419" 
d="M382 275q13 -27 13 -63q0 -20 -3.5 -41t-8.5 -38t-11.5 -34.5t-13.5 -33.5q-8 -17 -21.5 -32.5t-32.5 -21.5q-15 -6 -34 -11t-36 -4q-7 0 -13.5 1t-15.5 3q-9 5 -8 11.5t-7 11.5q2 11 2.5 15.5t6.5 14.5q4 6 6 11q3 2 6 4.5t5 7.5q4 5 7 13.5t5 15.5t5 13.5t5 13.5
q5 13 7 29.5t2 30.5q-1 26 -5.5 52t-13.5 49q-1 1 -2 1q-5 5 -6.5 12t-4.5 12q-2 5 -6 8.5t-6 8.5q-1 3 -0.5 5.5t-1.5 5.5l-7 7q-3 4 -7.5 9t-9.5 4q-2 6 -2 12.5v14.5q0 7 1 11.5t3 9.5q1 0 2 1q1 4 9 10l22.5 15t12.5 22q3 16 -0.5 31.5t-15.5 25.5q-2 2 -7 4t-5 3h-11
q-13 -8 -18 -24t-7 -34q-6 -28 -1 -58t6 -59q1 -13 1.5 -25.5t2.5 -25.5v-9t1 -9q1 -13 1 -26v-26q0 -21 -0.5 -42t-1.5 -41v-18.5t1 -18.5v-11q0 -3 -2 -5.5t-1 -6.5q0 -3 2 -5.5t3 -5.5q1 -5 0.5 -12t-0.5 -13t0.5 -13.5t-1.5 -13.5q-2 -5 -7 -8.5t-7 -9.5q-5 2 -10 -1
t-10 -5q-3 -2 -5.5 -1.5t-5.5 0.5q-8 1 -16.5 1.5t-16.5 0.5q-8 1 -15.5 1.5t-15.5 0.5t-15.5 -1t-15.5 -5q-5 3 -10.5 1.5t-11.5 -3.5t-12.5 -3t-11.5 1q-10 4 -9.5 7.5t5 6.5t11.5 5.5t10 4.5q15 5 22.5 16t10.5 24.5t2.5 28t-0.5 26.5q1 23 0.5 46t1.5 46q2 12 2.5 23.5
t2.5 23.5q1 10 -1 17.5t-2 17.5q-2 20 -0.5 41.5t0.5 41.5q-1 9 0.5 17t-0.5 17q-5 20 0 34l-2 4q1 2 0.5 8t-1.5 13q-1 6 -3 14t-2 14q1 5 3 8t4 8q2 4 1.5 8t1.5 8q5 18 15.5 27.5t24.5 22.5q5 -2 8 1.5t8 2.5q1 1 2.5 1.5t3.5 2.5q10 1 19 1h19h30h23t23 2q16 2 35.5 4.5
t39.5 2.5q17 0 33.5 -3.5t27.5 -14.5q17 -17 17 -38q0 -20 -11.5 -38.5t-22.5 -34.5q-5 -7 -9 -12.5t-11 -10.5q-5 -3 -13.5 -7t-11.5 -9q-4 -6 -2 -11.5t7 -10.5t11 -10t10 -9q20 -24 34.5 -51t27.5 -55z" />
    <glyph glyph-name="agrave" unicode="&#xe0;" horiz-adv-x="377" 
d="M401 4q3 -6 -2 -9t-12.5 -4t-15 -1h-9.5q-12 -2 -24 -2t-25 -2q-7 -2 -12.5 -1.5t-12.5 1.5q-5 1 -10 -0.5t-10 0.5q-9 2 -19.5 9.5t-16.5 18.5q-3 5 -5.5 11t-4.5 12q-1 2 -1.5 3.5t-1.5 3.5q-2 2 -5 8.5t-5 8.5q-5 4 -10 2t-10 -6q-3 -8 -8 -15.5t-9 -14.5
q-3 -5 -8.5 -12t-7.5 -14q-13 -8 -28 -14q-11 -4 -25 -3t-25 6q-6 3 -11 4t-10.5 2.5t-10.5 4.5t-9 11q-16 29 -24 59t-4 66q1 6 1.5 11.5t1.5 10.5q1 16 3 32t4 33q1 2 2 3t2 3q2 5 2.5 9.5t2.5 8.5q1 3 3 5t3 5q1 2 1 3.5t1 3.5q3 5 8.5 9t9.5 9q5 5 7.5 10t9.5 9
q3 2 6.5 3.5t6.5 3.5q1 1 1 2t1 2q9 7 17 13.5t16 12.5l2 2q4 6 10 10q7 5 13 10l12 10q4 2 6.5 5t6.5 5q3 2 6.5 1.5t6.5 0.5l5 3q6 4 9 5q4 3 7 6.5t7 5.5q6 4 11 3.5t11 1.5q3 2 6.5 4.5t7.5 4.5q8 8 16 11q15 5 29 12q5 3 12.5 8t14.5 7.5t13 0.5t9 -13q-2 -2 -2 -5
q2 -5 1 -16.5t-1 -16.5v-19v-68q1 -10 1.5 -19t-0.5 -18q-2 -9 -3 -17t0 -18q2 -13 3.5 -22.5t0.5 -23.5q-2 -13 -0.5 -23.5t1.5 -22.5q1 -20 0.5 -38.5t2.5 -38.5q3 -17 6.5 -28.5t12.5 -24.5q5 -6 7 -9t9 -5q3 -2 11.5 -2t10.5 -4zM192 129q8 10 11.5 20.5t7.5 23.5
q1 11 1.5 22t0.5 22q0 9 -0.5 18t-1.5 18q-1 8 -2.5 15t-2.5 14q-1 6 -1 15t-5 13q1 2 0 4l-2 4q-4 -3 -7.5 -3t-7.5 -2q-2 -5 -7.5 -12t-8.5 -11q-5 -5 -8 -11t-8 -12q-2 -3 -6 -8.5t-7.5 -12.5t-5.5 -13.5t0 -10.5q-5 -5 -5 -15t-2 -18q-3 -18 -2 -33q1 -7 1.5 -14.5
t5.5 -15.5q2 -5 6.5 -11.5t9.5 -9.5q2 -2 10 1t16.5 7.5t14.5 9t5 6.5zM111 530q-18 3 -27.5 10.5t-12.5 18t-1 23.5t7 26q6 17 17.5 15.5t25.5 -9.5q4 -2 5.5 -3.5t2 -3t1.5 -3t6 -3.5q12 -7 24.5 -14t26.5 -13q5 -3 5.5 -4.5t0 -1.5t0 -0.5t6.5 -1.5q5 -2 20.5 -7
t29.5 -13q15 -9 24 -19.5t-2 -24.5q2 -2 3 -6t3 -7q-5 -3 -6 -8.5t-2 -11.5t-2.5 -11.5t-5.5 -7.5q-2 0 -7.5 2t-12 5.5t-12.5 6.5t-8 5l-16 8q-4 -1 -8 1.5t-8 1.5q-5 12 -12 13.5t-19 7.5q-14 7 -25 11t-21 18z" />
    <glyph glyph-name="aacute" unicode="&#xe1;" horiz-adv-x="377" 
d="M401 4q3 -6 -2 -9t-12.5 -4t-15 -1h-9.5q-12 -2 -24 -2t-25 -2q-7 -2 -12.5 -1.5t-12.5 1.5q-5 1 -10 -0.5t-10 0.5q-9 2 -19.5 9.5t-16.5 18.5q-3 5 -5.5 11t-4.5 12q-1 2 -1.5 3.5t-1.5 3.5q-2 2 -5 8.5t-5 8.5q-5 4 -10 2t-10 -6q-3 -8 -8 -15.5t-9 -14.5
q-3 -5 -8.5 -12t-7.5 -14q-13 -8 -28 -14q-11 -4 -25 -3t-25 6q-6 3 -11 4t-10.5 2.5t-10.5 4.5t-9 11q-16 29 -24 59t-4 66q1 6 1.5 11.5t1.5 10.5q1 16 3 32t4 33q1 2 2 3t2 3q2 5 2.5 9.5t2.5 8.5q1 3 3 5t3 5q1 2 1 3.5t1 3.5q3 5 8.5 9t9.5 9q5 5 7.5 10t9.5 9
q3 2 6.5 3.5t6.5 3.5q1 1 1 2t1 2q9 7 17 13.5t16 12.5l2 2q4 6 10 10q7 5 13 10l12 10q4 2 6.5 5t6.5 5q3 2 6.5 1.5t6.5 0.5l5 3q6 4 9 5q4 3 7 6.5t7 5.5q6 4 11 3.5t11 1.5q3 2 6.5 4.5t7.5 4.5q8 8 16 11q15 5 29 12q5 3 12.5 8t14.5 7.5t13 0.5t9 -13q-2 -2 -2 -5
q2 -5 1 -16.5t-1 -16.5v-19v-68q1 -10 1.5 -19t-0.5 -18q-2 -9 -3 -17t0 -18q2 -13 3.5 -22.5t0.5 -23.5q-2 -13 -0.5 -23.5t1.5 -22.5q1 -20 0.5 -38.5t2.5 -38.5q3 -17 6.5 -28.5t12.5 -24.5q5 -6 7 -9t9 -5q3 -2 11.5 -2t10.5 -4zM192 129q8 10 11.5 20.5t7.5 23.5
q1 11 1.5 22t0.5 22q0 9 -0.5 18t-1.5 18q-1 8 -2.5 15t-2.5 14q-1 6 -1 15t-5 13q1 2 0 4l-2 4q-4 -3 -7.5 -3t-7.5 -2q-2 -5 -7.5 -12t-8.5 -11q-5 -5 -8 -11t-8 -12q-2 -3 -6 -8.5t-7.5 -12.5t-5.5 -13.5t0 -10.5q-5 -5 -5 -15t-2 -18q-3 -18 -2 -33q1 -7 1.5 -14.5
t5.5 -15.5q2 -5 6.5 -11.5t9.5 -9.5q2 -2 10 1t16.5 7.5t14.5 9t5 6.5zM302 508q-10 -14 -21 -18t-25 -11q-12 -6 -19 -7.5t-12 -13.5q-4 1 -8 -1.5t-8 -1.5l-16 -8q-2 -2 -8 -5t-12.5 -6.5t-12 -5.5t-7.5 -2q-5 2 -6 7.5t-2 11.5t-2.5 11.5t-5.5 8.5q2 3 3 7t3 6
q-11 14 -2 24.5t24 19.5q14 8 29.5 13t20.5 7q6 1 6.5 1.5t0 0.5t0 1.5t5.5 4.5q14 6 26.5 13t24.5 14q5 2 6 3.5t1.5 3t1.5 3t6 3.5q14 8 25.5 9.5t17.5 -15.5q4 -13 6 -26t-1 -23.5t-12 -18t-27 -10.5z" />
    <glyph glyph-name="acircumflex" unicode="&#xe2;" horiz-adv-x="377" 
d="M401 4q3 -6 -2 -9t-12.5 -4t-15 -1h-9.5q-12 -2 -24 -2t-25 -2q-7 -2 -12.5 -1.5t-12.5 1.5q-5 1 -10 -0.5t-10 0.5q-9 2 -19.5 9.5t-16.5 18.5q-3 5 -5.5 11t-4.5 12q-1 2 -1.5 3.5t-1.5 3.5q-2 2 -5 8.5t-5 8.5q-5 4 -10 2t-10 -6q-3 -8 -8 -15.5t-9 -14.5
q-3 -5 -8.5 -12t-7.5 -14q-13 -8 -28 -14q-11 -4 -25 -3t-25 6q-6 3 -11 4t-10.5 2.5t-10.5 4.5t-9 11q-16 29 -24 59t-4 66q1 6 1.5 11.5t1.5 10.5q1 16 3 32t4 33q1 2 2 3t2 3q2 5 2.5 9.5t2.5 8.5q1 3 3 5t3 5q1 2 1 3.5t1 3.5q3 5 8.5 9t9.5 9q5 5 7.5 10t9.5 9
q3 2 6.5 3.5t6.5 3.5q1 1 1 2t1 2q9 7 17 13.5t16 12.5l2 2q4 6 10 10q7 5 13 10l12 10q4 2 6.5 5t6.5 5q3 2 6.5 1.5t6.5 0.5l5 3q6 4 9 5q4 3 7 6.5t7 5.5q6 4 11 3.5t11 1.5q3 2 6.5 4.5t7.5 4.5q8 8 16 11q15 5 29 12q5 3 12.5 8t14.5 7.5t13 0.5t9 -13q-2 -2 -2 -5
q2 -5 1 -16.5t-1 -16.5v-19v-68q1 -10 1.5 -19t-0.5 -18q-2 -9 -3 -17t0 -18q2 -13 3.5 -22.5t0.5 -23.5q-2 -13 -0.5 -23.5t1.5 -22.5q1 -20 0.5 -38.5t2.5 -38.5q3 -17 6.5 -28.5t12.5 -24.5q5 -6 7 -9t9 -5q3 -2 11.5 -2t10.5 -4zM192 129q8 10 11.5 20.5t7.5 23.5
q1 11 1.5 22t0.5 22q0 9 -0.5 18t-1.5 18q-1 8 -2.5 15t-2.5 14q-1 6 -1 15t-5 13q1 2 0 4l-2 4q-4 -3 -7.5 -3t-7.5 -2q-2 -5 -7.5 -12t-8.5 -11q-5 -5 -8 -11t-8 -12q-2 -3 -6 -8.5t-7.5 -12.5t-5.5 -13.5t0 -10.5q-5 -5 -5 -15t-2 -18q-3 -18 -2 -33q1 -7 1.5 -14.5
t5.5 -15.5q2 -5 6.5 -11.5t9.5 -9.5q2 -2 10 1t16.5 7.5t14.5 9t5 6.5zM313 504q2 -6 -5 -16t-17 -18.5t-21.5 -13t-18.5 0.5q-8 6 -13.5 20t-13.5 22q-7 7 -17 18t-20 10q-7 0 -12.5 -4.5t-10 -10.5t-8 -12.5t-7.5 -10.5q-8 -10 -19 -17.5t-12 -23.5q-10 2 -16 1t-15 3
q-8 5 -16.5 13t-6.5 24q0 5 4.5 12t10.5 13.5t12.5 12t11.5 7.5q-1 4 2 9t6.5 10t8 10t6.5 8q6 8 13 19.5t16 16.5q-2 6 4 15.5t15 18t19.5 12.5t18.5 -1t13 -19.5t10 -21.5q4 -5 9.5 -6.5t9.5 -6.5q2 -3 5 -12t5 -12q5 -11 9 -20t11 -18q5 -8 15.5 -15.5t13.5 -16.5z" />
    </font>
</defs>
</svg>
